<svg xmlns="http://www.w3.org/2000/svg" xmlns:xlink="http://www.w3.org/1999/xlink" width="1080" zoomAndPan="magnify" viewBox="0 0 810 809.999993" height="1080" preserveAspectRatio="xMidYMid meet" version="1.0"><defs><g/><clipPath id="7b7f5a5d09"><path d="M 198.847656 177.15625 L 608 177.15625 L 608 509.945312 L 198.847656 509.945312 Z M 198.847656 177.15625 " clip-rule="nonzero"/></clipPath></defs><path fill="#393939" d="M 432.722656 426.78125 L 436.011719 397.585938 L 439.300781 368.386719 L 432.722656 426.78125 " fill-opacity="1" fill-rule="nonzero"/><g clip-path="url(#7b7f5a5d09)"><path fill="#393939" d="M 352.804688 176.945312 L 354.59375 180.957031 C 363.621094 198.828125 364.339844 211.320312 356.746094 218.433594 C 353.167969 221.472656 347.898438 224.003906 340.945312 226.035156 C 297.550781 235.59375 269.265625 243.894531 256.085938 250.933594 C 233.382812 262.589844 218.660156 275.0625 211.914062 288.34375 C 203.296875 300.246094 198.953125 321.875 198.871094 353.230469 C 199.351562 379.878906 205.367188 406.980469 216.917969 434.539062 C 224.640625 454.835938 244.355469 472.421875 276.0625 487.300781 C 311.003906 502.398438 350.714844 509.910156 395.195312 509.832031 C 496.222656 508.207031 561.78125 483.070312 591.871094 434.425781 C 604.835938 411.484375 609.75 383.21875 606.609375 349.628906 C 603.464844 315.507812 592.003906 286.585938 572.230469 262.855469 C 567.253906 257.429688 561.816406 252.625 555.917969 248.445312 C 553.351562 245.761719 543.78125 240.582031 527.210938 232.910156 C 523.949219 231.164062 513.464844 227.675781 495.753906 222.441406 C 453.417969 212.144531 427.160156 205.039062 416.984375 201.125 C 404.9375 197.429688 383.542969 189.371094 352.804688 176.945312 " fill-opacity="1" fill-rule="nonzero"/></g><g fill="#edeced" fill-opacity="1"><g transform="translate(318.359269, 306.927866)"><g><path d="M 20.722656 0.0390625 L 23.773438 0.0390625 L 12.878906 -25.320312 L 12.679688 -25.320312 L 1.386719 0.0390625 L 2.257812 0.0390625 L 6.734375 -9.945312 L 16.402344 -9.945312 Z M 7.011719 -10.617188 L 11.648438 -21.039062 L 16.125 -10.617188 Z M 7.011719 -10.617188 "/></g></g></g><g fill="#edeced" fill-opacity="1"><g transform="translate(343.558253, 306.927866)"><g/></g></g><g fill="#edeced" fill-opacity="1"><g transform="translate(353.463515, 306.927866)"><g><path d="M 9.429688 -24.84375 C 7.488281 -24.84375 1.902344 -24.84375 1.902344 -24.84375 L 1.902344 0.0390625 L 4.714844 0.0390625 L 4.714844 -11.53125 L 7.566406 -11.53125 C 8.757812 -11.53125 17.394531 -11.492188 17.394531 -18.621094 C 17.394531 -24.089844 11.449219 -24.84375 9.429688 -24.84375 Z M 6.894531 -12.164062 L 4.714844 -12.164062 L 4.714844 -24.210938 L 7.925781 -24.210938 C 11.964844 -24.210938 14.382812 -22.546875 14.382812 -18.1875 C 14.382812 -13.75 11.53125 -12.164062 6.894531 -12.164062 Z M 6.894531 -12.164062 "/></g></g></g><g fill="#edeced" fill-opacity="1"><g transform="translate(372.521246, 306.927866)"><g><path d="M 19.335938 0.0390625 L 10.023438 -11.6875 C 12.957031 -12.085938 17.394531 -13.511719 17.394531 -18.621094 C 17.394531 -24.089844 11.449219 -24.84375 9.429688 -24.84375 C 7.488281 -24.84375 1.902344 -24.84375 1.902344 -24.84375 L 1.902344 0.0390625 L 4.714844 0.0390625 L 4.714844 -11.53125 L 6.539062 -11.53125 L 15.730469 0.0390625 Z M 4.714844 -24.210938 L 7.925781 -24.210938 C 11.964844 -24.210938 14.382812 -22.546875 14.382812 -18.1875 C 14.382812 -13.75 11.53125 -12.164062 6.894531 -12.164062 L 4.714844 -12.164062 Z M 4.714844 -24.210938 "/></g></g></g><g fill="#edeced" fill-opacity="1"><g transform="translate(393.203431, 306.927866)"><g><path d="M 15.214844 -25.320312 C 8.082031 -25.320312 1.585938 -21.515625 1.585938 -12.324219 C 1.585938 -1.742188 10.222656 0.753906 15.214844 0.753906 C 20.167969 0.753906 28.84375 -1.742188 28.84375 -12.324219 C 28.84375 -21.515625 22.308594 -25.320312 15.214844 -25.320312 Z M 15.214844 0.078125 C 10.738281 0.078125 4.476562 -1.902344 4.476562 -12.324219 C 4.476562 -22.585938 11.371094 -24.683594 15.214844 -24.683594 C 19.058594 -24.683594 25.953125 -22.585938 25.953125 -12.324219 C 25.953125 -1.902344 19.652344 0.078125 15.214844 0.078125 Z M 15.214844 0.078125 "/></g></g></g><g fill="#edeced" fill-opacity="1"><g transform="translate(423.870127, 306.927866)"><g><path d="M 9.429688 -24.84375 C 7.488281 -24.84375 1.902344 -24.84375 1.902344 -24.84375 L 1.902344 0.0390625 L 4.714844 0.0390625 L 4.714844 -11.53125 L 7.566406 -11.53125 C 8.757812 -11.53125 17.394531 -11.492188 17.394531 -18.621094 C 17.394531 -24.089844 11.449219 -24.84375 9.429688 -24.84375 Z M 6.894531 -12.164062 L 4.714844 -12.164062 L 4.714844 -24.210938 L 7.925781 -24.210938 C 11.964844 -24.210938 14.382812 -22.546875 14.382812 -18.1875 C 14.382812 -13.75 11.53125 -12.164062 6.894531 -12.164062 Z M 6.894531 -12.164062 "/></g></g></g><g fill="#edeced" fill-opacity="1"><g transform="translate(442.927858, 306.927866)"><g><path d="M 15.214844 -25.320312 C 8.082031 -25.320312 1.585938 -21.515625 1.585938 -12.324219 C 1.585938 -1.742188 10.222656 0.753906 15.214844 0.753906 C 20.167969 0.753906 28.84375 -1.742188 28.84375 -12.324219 C 28.84375 -21.515625 22.308594 -25.320312 15.214844 -25.320312 Z M 15.214844 0.078125 C 10.738281 0.078125 4.476562 -1.902344 4.476562 -12.324219 C 4.476562 -22.585938 11.371094 -24.683594 15.214844 -24.683594 C 19.058594 -24.683594 25.953125 -22.585938 25.953125 -12.324219 C 25.953125 -1.902344 19.652344 0.078125 15.214844 0.078125 Z M 15.214844 0.078125 "/></g></g></g><g fill="#edeced" fill-opacity="1"><g transform="translate(473.594555, 306.927866)"><g><path d="M 1.386719 -1.824219 L 1.386719 -0.910156 C 1.386719 -0.910156 3.804688 1.03125 8.082031 1.03125 C 12.363281 1.03125 16.441406 -1.941406 16.441406 -6.339844 C 16.441406 -15.214844 3.722656 -12.601562 3.722656 -19.8125 C 3.722656 -22.625 5.667969 -24.921875 9.074219 -24.921875 C 12.441406 -24.921875 14.621094 -23.296875 14.621094 -23.296875 L 14.582031 -24.128906 C 14.582031 -24.128906 12.203125 -25.597656 9.035156 -25.597656 C 5.902344 -25.597656 1.503906 -23.695312 1.503906 -18.742188 C 1.503906 -9.867188 14.183594 -13.195312 14.183594 -5.347656 C 14.183594 -1.503906 11.253906 0.394531 8.082031 0.394531 C 4.675781 0.394531 2.773438 -0.753906 1.386719 -1.824219 Z M 1.386719 -1.824219 "/></g></g></g><g fill="#edeced" fill-opacity="1"><g transform="translate(259.132709, 364.189425)"><g><path d="M 8.578125 -15.953125 C 10.609375 -15.953125 12.203125 -15.46875 13.359375 -14.5 C 14.515625 -13.53125 15.09375 -12.191406 15.09375 -10.484375 C 15.09375 -8.785156 14.515625 -7.453125 13.359375 -6.484375 C 12.203125 -5.515625 10.609375 -5.03125 8.578125 -5.03125 L 4.28125 -5.03125 L 4.28125 0 L 2.59375 0 L 2.59375 -15.953125 Z M 8.53125 -6.515625 C 10.101562 -6.515625 11.304688 -6.859375 12.140625 -7.546875 C 12.984375 -8.242188 13.40625 -9.222656 13.40625 -10.484375 C 13.40625 -11.773438 12.984375 -12.765625 12.140625 -13.453125 C 11.304688 -14.148438 10.101562 -14.5 8.53125 -14.5 L 4.28125 -14.5 L 4.28125 -6.515625 Z M 8.53125 -6.515625 "/></g></g></g><g fill="#edeced" fill-opacity="1"><g transform="translate(275.489646, 364.189425)"><g><path d="M 8.359375 -12.078125 C 9.867188 -12.078125 11.066406 -11.640625 11.953125 -10.765625 C 12.847656 -9.890625 13.296875 -8.617188 13.296875 -6.953125 L 13.296875 0 L 11.671875 0 L 11.671875 -6.796875 C 11.671875 -8.035156 11.359375 -8.984375 10.734375 -9.640625 C 10.109375 -10.296875 9.21875 -10.625 8.0625 -10.625 C 6.769531 -10.625 5.75 -10.238281 5 -9.46875 C 4.25 -8.707031 3.875 -7.648438 3.875 -6.296875 L 3.875 0 L 2.25 0 L 2.25 -16.921875 L 3.875 -16.921875 L 3.875 -9.890625 C 4.3125 -10.585938 4.914062 -11.125 5.6875 -11.5 C 6.46875 -11.882812 7.359375 -12.078125 8.359375 -12.078125 Z M 8.359375 -12.078125 "/></g></g></g><g fill="#edeced" fill-opacity="1"><g transform="translate(290.91255, 364.189425)"><g><path d="M 7.15625 0.109375 C 6 0.109375 4.957031 -0.148438 4.03125 -0.671875 C 3.101562 -1.191406 2.375 -1.914062 1.84375 -2.84375 C 1.3125 -3.769531 1.046875 -4.820312 1.046875 -6 C 1.046875 -7.164062 1.3125 -8.210938 1.84375 -9.140625 C 2.375 -10.066406 3.101562 -10.785156 4.03125 -11.296875 C 4.957031 -11.816406 6 -12.078125 7.15625 -12.078125 C 8.3125 -12.078125 9.351562 -11.816406 10.28125 -11.296875 C 11.207031 -10.785156 11.929688 -10.066406 12.453125 -9.140625 C 12.984375 -8.210938 13.25 -7.164062 13.25 -6 C 13.25 -4.820312 12.984375 -3.769531 12.453125 -2.84375 C 11.929688 -1.914062 11.207031 -1.191406 10.28125 -0.671875 C 9.351562 -0.148438 8.3125 0.109375 7.15625 0.109375 Z M 7.15625 -1.328125 C 8.007812 -1.328125 8.773438 -1.519531 9.453125 -1.90625 C 10.128906 -2.289062 10.65625 -2.835938 11.03125 -3.546875 C 11.414062 -4.265625 11.609375 -5.082031 11.609375 -6 C 11.609375 -6.90625 11.414062 -7.710938 11.03125 -8.421875 C 10.65625 -9.140625 10.128906 -9.691406 9.453125 -10.078125 C 8.773438 -10.472656 8.007812 -10.671875 7.15625 -10.671875 C 6.300781 -10.671875 5.535156 -10.472656 4.859375 -10.078125 C 4.191406 -9.691406 3.660156 -9.140625 3.265625 -8.421875 C 2.878906 -7.710938 2.6875 -6.90625 2.6875 -6 C 2.6875 -5.082031 2.878906 -4.265625 3.265625 -3.546875 C 3.660156 -2.835938 4.191406 -2.289062 4.859375 -1.90625 C 5.535156 -1.519531 6.300781 -1.328125 7.15625 -1.328125 Z M 7.15625 -1.328125 "/></g></g></g><g fill="#edeced" fill-opacity="1"><g transform="translate(305.196389, 364.189425)"><g><path d="M 8.578125 -0.734375 C 8.265625 -0.453125 7.882812 -0.238281 7.4375 -0.09375 C 6.988281 0.0390625 6.523438 0.109375 6.046875 0.109375 C 4.921875 0.109375 4.050781 -0.191406 3.4375 -0.796875 C 2.832031 -1.398438 2.53125 -2.257812 2.53125 -3.375 L 2.53125 -10.625 L 0.390625 -10.625 L 0.390625 -11.984375 L 2.53125 -11.984375 L 2.53125 -14.609375 L 4.15625 -14.609375 L 4.15625 -11.984375 L 7.796875 -11.984375 L 7.796875 -10.625 L 4.15625 -10.625 L 4.15625 -3.46875 C 4.15625 -2.75 4.332031 -2.203125 4.6875 -1.828125 C 5.039062 -1.460938 5.550781 -1.28125 6.21875 -1.28125 C 6.550781 -1.28125 6.875 -1.332031 7.1875 -1.4375 C 7.5 -1.539062 7.769531 -1.691406 8 -1.890625 Z M 8.578125 -0.734375 "/></g></g></g><g fill="#edeced" fill-opacity="1"><g transform="translate(314.445572, 364.189425)"><g><path d="M 7.15625 0.109375 C 6 0.109375 4.957031 -0.148438 4.03125 -0.671875 C 3.101562 -1.191406 2.375 -1.914062 1.84375 -2.84375 C 1.3125 -3.769531 1.046875 -4.820312 1.046875 -6 C 1.046875 -7.164062 1.3125 -8.210938 1.84375 -9.140625 C 2.375 -10.066406 3.101562 -10.785156 4.03125 -11.296875 C 4.957031 -11.816406 6 -12.078125 7.15625 -12.078125 C 8.3125 -12.078125 9.351562 -11.816406 10.28125 -11.296875 C 11.207031 -10.785156 11.929688 -10.066406 12.453125 -9.140625 C 12.984375 -8.210938 13.25 -7.164062 13.25 -6 C 13.25 -4.820312 12.984375 -3.769531 12.453125 -2.84375 C 11.929688 -1.914062 11.207031 -1.191406 10.28125 -0.671875 C 9.351562 -0.148438 8.3125 0.109375 7.15625 0.109375 Z M 7.15625 -1.328125 C 8.007812 -1.328125 8.773438 -1.519531 9.453125 -1.90625 C 10.128906 -2.289062 10.65625 -2.835938 11.03125 -3.546875 C 11.414062 -4.265625 11.609375 -5.082031 11.609375 -6 C 11.609375 -6.90625 11.414062 -7.710938 11.03125 -8.421875 C 10.65625 -9.140625 10.128906 -9.691406 9.453125 -10.078125 C 8.773438 -10.472656 8.007812 -10.671875 7.15625 -10.671875 C 6.300781 -10.671875 5.535156 -10.472656 4.859375 -10.078125 C 4.191406 -9.691406 3.660156 -9.140625 3.265625 -8.421875 C 2.878906 -7.710938 2.6875 -6.90625 2.6875 -6 C 2.6875 -5.082031 2.878906 -4.265625 3.265625 -3.546875 C 3.660156 -2.835938 4.191406 -2.289062 4.859375 -1.90625 C 5.535156 -1.519531 6.300781 -1.328125 7.15625 -1.328125 Z M 7.15625 -1.328125 "/></g></g></g><g fill="#edeced" fill-opacity="1"><g transform="translate(328.729411, 364.189425)"><g><path d="M 13.359375 -11.984375 L 13.359375 -1.453125 C 13.359375 0.578125 12.859375 2.082031 11.859375 3.0625 C 10.867188 4.039062 9.367188 4.53125 7.359375 4.53125 C 6.253906 4.53125 5.203125 4.367188 4.203125 4.046875 C 3.210938 3.722656 2.40625 3.269531 1.78125 2.6875 L 2.59375 1.453125 C 3.175781 1.972656 3.878906 2.375 4.703125 2.65625 C 5.535156 2.945312 6.40625 3.09375 7.3125 3.09375 C 8.832031 3.09375 9.945312 2.738281 10.65625 2.03125 C 11.375 1.332031 11.734375 0.238281 11.734375 -1.25 L 11.734375 -2.78125 C 11.234375 -2.019531 10.578125 -1.441406 9.765625 -1.046875 C 8.953125 -0.648438 8.050781 -0.453125 7.0625 -0.453125 C 5.9375 -0.453125 4.914062 -0.695312 4 -1.1875 C 3.082031 -1.6875 2.359375 -2.378906 1.828125 -3.265625 C 1.304688 -4.160156 1.046875 -5.171875 1.046875 -6.296875 C 1.046875 -7.421875 1.304688 -8.421875 1.828125 -9.296875 C 2.359375 -10.179688 3.078125 -10.863281 3.984375 -11.34375 C 4.898438 -11.832031 5.925781 -12.078125 7.0625 -12.078125 C 8.082031 -12.078125 9.003906 -11.867188 9.828125 -11.453125 C 10.648438 -11.046875 11.3125 -10.457031 11.8125 -9.6875 L 11.8125 -11.984375 Z M 7.234375 -1.890625 C 8.097656 -1.890625 8.878906 -2.078125 9.578125 -2.453125 C 10.273438 -2.828125 10.816406 -3.347656 11.203125 -4.015625 C 11.585938 -4.679688 11.78125 -5.441406 11.78125 -6.296875 C 11.78125 -7.140625 11.585938 -7.890625 11.203125 -8.546875 C 10.816406 -9.210938 10.273438 -9.734375 9.578125 -10.109375 C 8.890625 -10.484375 8.109375 -10.671875 7.234375 -10.671875 C 6.359375 -10.671875 5.578125 -10.488281 4.890625 -10.125 C 4.203125 -9.757812 3.660156 -9.238281 3.265625 -8.5625 C 2.878906 -7.894531 2.6875 -7.140625 2.6875 -6.296875 C 2.6875 -5.441406 2.878906 -4.679688 3.265625 -4.015625 C 3.660156 -3.347656 4.203125 -2.828125 4.890625 -2.453125 C 5.578125 -2.078125 6.359375 -1.890625 7.234375 -1.890625 Z M 7.234375 -1.890625 "/></g></g></g><g fill="#edeced" fill-opacity="1"><g transform="translate(344.357348, 364.189425)"><g><path d="M 3.8125 -9.640625 C 4.1875 -10.441406 4.75 -11.046875 5.5 -11.453125 C 6.257812 -11.867188 7.191406 -12.078125 8.296875 -12.078125 L 8.296875 -10.515625 L 7.90625 -10.53125 C 6.644531 -10.53125 5.65625 -10.140625 4.9375 -9.359375 C 4.226562 -8.585938 3.875 -7.503906 3.875 -6.109375 L 3.875 0 L 2.25 0 L 2.25 -11.984375 L 3.8125 -11.984375 Z M 3.8125 -9.640625 "/></g></g></g><g fill="#edeced" fill-opacity="1"><g transform="translate(353.492628, 364.189425)"><g><path d="M 6.453125 -12.078125 C 8.015625 -12.078125 9.210938 -11.6875 10.046875 -10.90625 C 10.890625 -10.125 11.3125 -8.96875 11.3125 -7.4375 L 11.3125 0 L 9.75 0 L 9.75 -1.875 C 9.382812 -1.25 8.847656 -0.757812 8.140625 -0.40625 C 7.441406 -0.0625 6.601562 0.109375 5.625 0.109375 C 4.289062 0.109375 3.226562 -0.207031 2.4375 -0.84375 C 1.644531 -1.476562 1.25 -2.320312 1.25 -3.375 C 1.25 -4.394531 1.617188 -5.210938 2.359375 -5.828125 C 3.097656 -6.453125 4.269531 -6.765625 5.875 -6.765625 L 9.6875 -6.765625 L 9.6875 -7.5 C 9.6875 -8.53125 9.394531 -9.316406 8.8125 -9.859375 C 8.238281 -10.398438 7.398438 -10.671875 6.296875 -10.671875 C 5.535156 -10.671875 4.804688 -10.546875 4.109375 -10.296875 C 3.410156 -10.046875 2.804688 -9.695312 2.296875 -9.25 L 1.578125 -10.46875 C 2.179688 -10.976562 2.90625 -11.375 3.75 -11.65625 C 4.601562 -11.9375 5.503906 -12.078125 6.453125 -12.078125 Z M 5.875 -1.15625 C 6.789062 -1.15625 7.570312 -1.363281 8.21875 -1.78125 C 8.875 -2.207031 9.363281 -2.816406 9.6875 -3.609375 L 9.6875 -5.5625 L 5.921875 -5.5625 C 3.867188 -5.5625 2.84375 -4.847656 2.84375 -3.421875 C 2.84375 -2.722656 3.109375 -2.171875 3.640625 -1.765625 C 4.179688 -1.359375 4.925781 -1.15625 5.875 -1.15625 Z M 5.875 -1.15625 "/></g></g></g><g fill="#edeced" fill-opacity="1"><g transform="translate(366.933564, 364.189425)"><g><path d="M 8.4375 -12.078125 C 9.5625 -12.078125 10.578125 -11.820312 11.484375 -11.3125 C 12.398438 -10.8125 13.113281 -10.097656 13.625 -9.171875 C 14.144531 -8.242188 14.40625 -7.1875 14.40625 -6 C 14.40625 -4.789062 14.144531 -3.722656 13.625 -2.796875 C 13.113281 -1.867188 12.40625 -1.148438 11.5 -0.640625 C 10.59375 -0.140625 9.570312 0.109375 8.4375 0.109375 C 7.457031 0.109375 6.578125 -0.0859375 5.796875 -0.484375 C 5.015625 -0.890625 4.375 -1.476562 3.875 -2.25 L 3.875 4.421875 L 2.25 4.421875 L 2.25 -11.984375 L 3.8125 -11.984375 L 3.8125 -9.625 C 4.289062 -10.414062 4.929688 -11.019531 5.734375 -11.4375 C 6.535156 -11.863281 7.4375 -12.078125 8.4375 -12.078125 Z M 8.328125 -1.328125 C 9.160156 -1.328125 9.914062 -1.519531 10.59375 -1.90625 C 11.28125 -2.289062 11.816406 -2.835938 12.203125 -3.546875 C 12.585938 -4.265625 12.78125 -5.082031 12.78125 -6 C 12.78125 -6.90625 12.585938 -7.710938 12.203125 -8.421875 C 11.816406 -9.128906 11.28125 -9.679688 10.59375 -10.078125 C 9.914062 -10.472656 9.160156 -10.671875 8.328125 -10.671875 C 7.472656 -10.671875 6.707031 -10.472656 6.03125 -10.078125 C 5.351562 -9.679688 4.820312 -9.128906 4.4375 -8.421875 C 4.050781 -7.710938 3.859375 -6.90625 3.859375 -6 C 3.859375 -5.082031 4.050781 -4.265625 4.4375 -3.546875 C 4.820312 -2.835938 5.351562 -2.289062 6.03125 -1.90625 C 6.707031 -1.519531 7.472656 -1.328125 8.328125 -1.328125 Z M 8.328125 -1.328125 "/></g></g></g><g fill="#edeced" fill-opacity="1"><g transform="translate(382.379254, 364.189425)"><g><path d="M 8.359375 -12.078125 C 9.867188 -12.078125 11.066406 -11.640625 11.953125 -10.765625 C 12.847656 -9.890625 13.296875 -8.617188 13.296875 -6.953125 L 13.296875 0 L 11.671875 0 L 11.671875 -6.796875 C 11.671875 -8.035156 11.359375 -8.984375 10.734375 -9.640625 C 10.109375 -10.296875 9.21875 -10.625 8.0625 -10.625 C 6.769531 -10.625 5.75 -10.238281 5 -9.46875 C 4.25 -8.707031 3.875 -7.648438 3.875 -6.296875 L 3.875 0 L 2.25 0 L 2.25 -16.921875 L 3.875 -16.921875 L 3.875 -9.890625 C 4.3125 -10.585938 4.914062 -11.125 5.6875 -11.5 C 6.46875 -11.882812 7.359375 -12.078125 8.359375 -12.078125 Z M 8.359375 -12.078125 "/></g></g></g><g fill="#edeced" fill-opacity="1"><g transform="translate(397.802158, 364.189425)"><g><path d="M 12.703125 -5.5 L 2.671875 -5.5 C 2.753906 -4.25 3.226562 -3.238281 4.09375 -2.46875 C 4.96875 -1.707031 6.066406 -1.328125 7.390625 -1.328125 C 8.128906 -1.328125 8.8125 -1.457031 9.4375 -1.71875 C 10.0625 -1.988281 10.601562 -2.378906 11.0625 -2.890625 L 11.96875 -1.84375 C 11.4375 -1.207031 10.769531 -0.722656 9.96875 -0.390625 C 9.175781 -0.0546875 8.300781 0.109375 7.34375 0.109375 C 6.113281 0.109375 5.019531 -0.148438 4.0625 -0.671875 C 3.113281 -1.191406 2.375 -1.914062 1.84375 -2.84375 C 1.3125 -3.769531 1.046875 -4.820312 1.046875 -6 C 1.046875 -7.164062 1.300781 -8.210938 1.8125 -9.140625 C 2.320312 -10.066406 3.019531 -10.785156 3.90625 -11.296875 C 4.800781 -11.816406 5.800781 -12.078125 6.90625 -12.078125 C 8.019531 -12.078125 9.015625 -11.816406 9.890625 -11.296875 C 10.773438 -10.785156 11.46875 -10.070312 11.96875 -9.15625 C 12.46875 -8.238281 12.71875 -7.1875 12.71875 -6 Z M 6.90625 -10.6875 C 5.75 -10.6875 4.78125 -10.316406 4 -9.578125 C 3.21875 -8.847656 2.773438 -7.890625 2.671875 -6.703125 L 11.171875 -6.703125 C 11.066406 -7.890625 10.617188 -8.847656 9.828125 -9.578125 C 9.046875 -10.316406 8.070312 -10.6875 6.90625 -10.6875 Z M 6.90625 -10.6875 "/></g></g></g><g fill="#edeced" fill-opacity="1"><g transform="translate(411.56203, 364.189425)"><g/></g></g><g fill="#edeced" fill-opacity="1"><g transform="translate(417.530719, 364.189425)"><g><path d="M 13.203125 -16.921875 L 13.203125 0 L 11.65625 0 L 11.65625 -2.375 C 11.164062 -1.5625 10.519531 -0.941406 9.71875 -0.515625 C 8.925781 -0.0976562 8.023438 0.109375 7.015625 0.109375 C 5.890625 0.109375 4.867188 -0.144531 3.953125 -0.65625 C 3.046875 -1.175781 2.332031 -1.898438 1.8125 -2.828125 C 1.300781 -3.753906 1.046875 -4.8125 1.046875 -6 C 1.046875 -7.1875 1.300781 -8.242188 1.8125 -9.171875 C 2.332031 -10.097656 3.046875 -10.8125 3.953125 -11.3125 C 4.867188 -11.820312 5.890625 -12.078125 7.015625 -12.078125 C 7.992188 -12.078125 8.875 -11.875 9.65625 -11.46875 C 10.4375 -11.070312 11.078125 -10.488281 11.578125 -9.71875 L 11.578125 -16.921875 Z M 7.15625 -1.328125 C 7.988281 -1.328125 8.742188 -1.519531 9.421875 -1.90625 C 10.097656 -2.289062 10.628906 -2.835938 11.015625 -3.546875 C 11.410156 -4.265625 11.609375 -5.082031 11.609375 -6 C 11.609375 -6.90625 11.410156 -7.710938 11.015625 -8.421875 C 10.628906 -9.140625 10.097656 -9.691406 9.421875 -10.078125 C 8.742188 -10.472656 7.988281 -10.671875 7.15625 -10.671875 C 6.300781 -10.671875 5.535156 -10.472656 4.859375 -10.078125 C 4.191406 -9.691406 3.660156 -9.140625 3.265625 -8.421875 C 2.878906 -7.710938 2.6875 -6.90625 2.6875 -6 C 2.6875 -5.082031 2.878906 -4.265625 3.265625 -3.546875 C 3.660156 -2.835938 4.191406 -2.289062 4.859375 -1.90625 C 5.535156 -1.519531 6.300781 -1.328125 7.15625 -1.328125 Z M 7.15625 -1.328125 "/></g></g></g><g fill="#edeced" fill-opacity="1"><g transform="translate(432.976409, 364.189425)"><g><path d="M 12.703125 -5.5 L 2.671875 -5.5 C 2.753906 -4.25 3.226562 -3.238281 4.09375 -2.46875 C 4.96875 -1.707031 6.066406 -1.328125 7.390625 -1.328125 C 8.128906 -1.328125 8.8125 -1.457031 9.4375 -1.71875 C 10.0625 -1.988281 10.601562 -2.378906 11.0625 -2.890625 L 11.96875 -1.84375 C 11.4375 -1.207031 10.769531 -0.722656 9.96875 -0.390625 C 9.175781 -0.0546875 8.300781 0.109375 7.34375 0.109375 C 6.113281 0.109375 5.019531 -0.148438 4.0625 -0.671875 C 3.113281 -1.191406 2.375 -1.914062 1.84375 -2.84375 C 1.3125 -3.769531 1.046875 -4.820312 1.046875 -6 C 1.046875 -7.164062 1.300781 -8.210938 1.8125 -9.140625 C 2.320312 -10.066406 3.019531 -10.785156 3.90625 -11.296875 C 4.800781 -11.816406 5.800781 -12.078125 6.90625 -12.078125 C 8.019531 -12.078125 9.015625 -11.816406 9.890625 -11.296875 C 10.773438 -10.785156 11.46875 -10.070312 11.96875 -9.15625 C 12.46875 -8.238281 12.71875 -7.1875 12.71875 -6 Z M 6.90625 -10.6875 C 5.75 -10.6875 4.78125 -10.316406 4 -9.578125 C 3.21875 -8.847656 2.773438 -7.890625 2.671875 -6.703125 L 11.171875 -6.703125 C 11.066406 -7.890625 10.617188 -8.847656 9.828125 -9.578125 C 9.046875 -10.316406 8.070312 -10.6875 6.90625 -10.6875 Z M 6.90625 -10.6875 "/></g></g></g><g fill="#edeced" fill-opacity="1"><g transform="translate(446.736281, 364.189425)"><g><path d="M 8.4375 -12.078125 C 9.5625 -12.078125 10.578125 -11.820312 11.484375 -11.3125 C 12.398438 -10.8125 13.113281 -10.097656 13.625 -9.171875 C 14.144531 -8.242188 14.40625 -7.1875 14.40625 -6 C 14.40625 -4.789062 14.144531 -3.722656 13.625 -2.796875 C 13.113281 -1.867188 12.40625 -1.148438 11.5 -0.640625 C 10.59375 -0.140625 9.570312 0.109375 8.4375 0.109375 C 7.457031 0.109375 6.578125 -0.0859375 5.796875 -0.484375 C 5.015625 -0.890625 4.375 -1.476562 3.875 -2.25 L 3.875 4.421875 L 2.25 4.421875 L 2.25 -11.984375 L 3.8125 -11.984375 L 3.8125 -9.625 C 4.289062 -10.414062 4.929688 -11.019531 5.734375 -11.4375 C 6.535156 -11.863281 7.4375 -12.078125 8.4375 -12.078125 Z M 8.328125 -1.328125 C 9.160156 -1.328125 9.914062 -1.519531 10.59375 -1.90625 C 11.28125 -2.289062 11.816406 -2.835938 12.203125 -3.546875 C 12.585938 -4.265625 12.78125 -5.082031 12.78125 -6 C 12.78125 -6.90625 12.585938 -7.710938 12.203125 -8.421875 C 11.816406 -9.128906 11.28125 -9.679688 10.59375 -10.078125 C 9.914062 -10.472656 9.160156 -10.671875 8.328125 -10.671875 C 7.472656 -10.671875 6.707031 -10.472656 6.03125 -10.078125 C 5.351562 -9.679688 4.820312 -9.128906 4.4375 -8.421875 C 4.050781 -7.710938 3.859375 -6.90625 3.859375 -6 C 3.859375 -5.082031 4.050781 -4.265625 4.4375 -3.546875 C 4.820312 -2.835938 5.351562 -2.289062 6.03125 -1.90625 C 6.707031 -1.519531 7.472656 -1.328125 8.328125 -1.328125 Z M 8.328125 -1.328125 "/></g></g></g><g fill="#edeced" fill-opacity="1"><g transform="translate(462.18197, 364.189425)"><g><path d="M 13.0625 -11.984375 L 13.0625 0 L 11.515625 0 L 11.515625 -2.1875 C 11.085938 -1.457031 10.5 -0.890625 9.75 -0.484375 C 9.007812 -0.0859375 8.160156 0.109375 7.203125 0.109375 C 5.640625 0.109375 4.40625 -0.320312 3.5 -1.1875 C 2.59375 -2.0625 2.140625 -3.34375 2.140625 -5.03125 L 2.140625 -11.984375 L 3.765625 -11.984375 L 3.765625 -5.203125 C 3.765625 -3.941406 4.070312 -2.984375 4.6875 -2.328125 C 5.3125 -1.671875 6.203125 -1.34375 7.359375 -1.34375 C 8.617188 -1.34375 9.613281 -1.722656 10.34375 -2.484375 C 11.070312 -3.253906 11.4375 -4.328125 11.4375 -5.703125 L 11.4375 -11.984375 Z M 13.0625 -11.984375 "/></g></g></g><g fill="#edeced" fill-opacity="1"><g transform="translate(477.513757, 364.189425)"><g><path d="M 2.25 -11.984375 L 3.875 -11.984375 L 3.875 0 L 2.25 0 Z M 3.078125 -14.609375 C 2.742188 -14.609375 2.460938 -14.722656 2.234375 -14.953125 C 2.003906 -15.179688 1.890625 -15.457031 1.890625 -15.78125 C 1.890625 -16.082031 2.003906 -16.347656 2.234375 -16.578125 C 2.460938 -16.804688 2.742188 -16.921875 3.078125 -16.921875 C 3.410156 -16.921875 3.691406 -16.804688 3.921875 -16.578125 C 4.148438 -16.359375 4.265625 -16.097656 4.265625 -15.796875 C 4.265625 -15.460938 4.148438 -15.179688 3.921875 -14.953125 C 3.691406 -14.722656 3.410156 -14.609375 3.078125 -14.609375 Z M 3.078125 -14.609375 "/></g></g></g><g fill="#edeced" fill-opacity="1"><g transform="translate(483.64193, 364.189425)"><g><path d="M 5.46875 0.109375 C 4.5 0.109375 3.566406 -0.03125 2.671875 -0.3125 C 1.785156 -0.59375 1.09375 -0.945312 0.59375 -1.375 L 1.328125 -2.640625 C 1.828125 -2.242188 2.457031 -1.921875 3.21875 -1.671875 C 3.976562 -1.421875 4.765625 -1.296875 5.578125 -1.296875 C 6.679688 -1.296875 7.492188 -1.46875 8.015625 -1.8125 C 8.535156 -2.15625 8.796875 -2.640625 8.796875 -3.265625 C 8.796875 -3.703125 8.648438 -4.046875 8.359375 -4.296875 C 8.078125 -4.546875 7.710938 -4.734375 7.265625 -4.859375 C 6.828125 -4.992188 6.242188 -5.125 5.515625 -5.25 C 4.546875 -5.425781 3.765625 -5.609375 3.171875 -5.796875 C 2.578125 -5.992188 2.070312 -6.316406 1.65625 -6.765625 C 1.238281 -7.222656 1.03125 -7.851562 1.03125 -8.65625 C 1.03125 -9.664062 1.445312 -10.488281 2.28125 -11.125 C 3.113281 -11.757812 4.273438 -12.078125 5.765625 -12.078125 C 6.546875 -12.078125 7.320312 -11.972656 8.09375 -11.765625 C 8.863281 -11.566406 9.503906 -11.300781 10.015625 -10.96875 L 9.296875 -9.671875 C 8.304688 -10.347656 7.128906 -10.6875 5.765625 -10.6875 C 4.734375 -10.6875 3.953125 -10.503906 3.421875 -10.140625 C 2.898438 -9.773438 2.640625 -9.296875 2.640625 -8.703125 C 2.640625 -8.253906 2.785156 -7.890625 3.078125 -7.609375 C 3.378906 -7.335938 3.75 -7.132812 4.1875 -7 C 4.632812 -6.875 5.242188 -6.742188 6.015625 -6.609375 C 6.972656 -6.429688 7.738281 -6.25 8.3125 -6.0625 C 8.894531 -5.882812 9.390625 -5.570312 9.796875 -5.125 C 10.210938 -4.6875 10.421875 -4.082031 10.421875 -3.3125 C 10.421875 -2.257812 9.984375 -1.425781 9.109375 -0.8125 C 8.234375 -0.195312 7.019531 0.109375 5.46875 0.109375 Z M 5.46875 0.109375 "/></g></g></g><g fill="#edeced" fill-opacity="1"><g transform="translate(494.781975, 364.189425)"><g/></g></g><g fill="#edeced" fill-opacity="1"><g transform="translate(500.750664, 364.189425)"><g><path d="M 12.078125 -1.453125 L 12.078125 0 L 0.890625 0 L 0.890625 -1.15625 L 7.515625 -7.65625 C 8.359375 -8.476562 8.925781 -9.1875 9.21875 -9.78125 C 9.519531 -10.382812 9.671875 -10.992188 9.671875 -11.609375 C 9.671875 -12.546875 9.347656 -13.273438 8.703125 -13.796875 C 8.054688 -14.328125 7.128906 -14.59375 5.921875 -14.59375 C 4.054688 -14.59375 2.609375 -14 1.578125 -12.8125 L 0.40625 -13.8125 C 1.03125 -14.539062 1.820312 -15.101562 2.78125 -15.5 C 3.75 -15.894531 4.84375 -16.09375 6.0625 -16.09375 C 7.6875 -16.09375 8.972656 -15.707031 9.921875 -14.9375 C 10.878906 -14.175781 11.359375 -13.125 11.359375 -11.78125 C 11.359375 -10.96875 11.175781 -10.179688 10.8125 -9.421875 C 10.445312 -8.660156 9.753906 -7.785156 8.734375 -6.796875 L 3.3125 -1.453125 Z M 12.078125 -1.453125 "/></g></g></g><g fill="#edeced" fill-opacity="1"><g transform="translate(513.690406, 364.189425)"><g><path d="M 7.546875 0.140625 C 6.316406 0.140625 5.21875 -0.1875 4.25 -0.84375 C 3.28125 -1.5 2.523438 -2.4375 1.984375 -3.65625 C 1.453125 -4.882812 1.1875 -6.328125 1.1875 -7.984375 C 1.1875 -9.640625 1.453125 -11.078125 1.984375 -12.296875 C 2.523438 -13.523438 3.28125 -14.460938 4.25 -15.109375 C 5.21875 -15.765625 6.316406 -16.09375 7.546875 -16.09375 C 8.773438 -16.09375 9.867188 -15.765625 10.828125 -15.109375 C 11.796875 -14.460938 12.550781 -13.523438 13.09375 -12.296875 C 13.644531 -11.078125 13.921875 -9.640625 13.921875 -7.984375 C 13.921875 -6.328125 13.644531 -4.882812 13.09375 -3.65625 C 12.550781 -2.4375 11.796875 -1.5 10.828125 -0.84375 C 9.867188 -0.1875 8.773438 0.140625 7.546875 0.140625 Z M 7.546875 -1.375 C 8.472656 -1.375 9.289062 -1.628906 10 -2.140625 C 10.707031 -2.660156 11.253906 -3.410156 11.640625 -4.390625 C 12.035156 -5.378906 12.234375 -6.578125 12.234375 -7.984375 C 12.234375 -9.378906 12.035156 -10.570312 11.640625 -11.5625 C 11.253906 -12.550781 10.707031 -13.300781 10 -13.8125 C 9.289062 -14.332031 8.472656 -14.59375 7.546875 -14.59375 C 6.617188 -14.59375 5.800781 -14.332031 5.09375 -13.8125 C 4.382812 -13.300781 3.832031 -12.550781 3.4375 -11.5625 C 3.039062 -10.570312 2.84375 -9.378906 2.84375 -7.984375 C 2.84375 -6.578125 3.039062 -5.378906 3.4375 -4.390625 C 3.832031 -3.410156 4.382812 -2.660156 5.09375 -2.140625 C 5.800781 -1.628906 6.617188 -1.375 7.546875 -1.375 Z M 7.546875 -1.375 "/></g></g></g><g fill="#edeced" fill-opacity="1"><g transform="translate(528.77159, 364.189425)"><g><path d="M 5.609375 -15.953125 L 5.609375 0 L 3.96875 0 L 3.96875 -14.5 L 0.203125 -14.5 L 0.203125 -15.953125 Z M 5.609375 -15.953125 "/></g></g></g><g fill="#edeced" fill-opacity="1"><g transform="translate(536.995611, 364.189425)"><g><path d="M 6.15625 -16.09375 C 8.269531 -16.09375 9.890625 -15.394531 11.015625 -14 C 12.140625 -12.613281 12.703125 -10.648438 12.703125 -8.109375 C 12.703125 -6.335938 12.394531 -4.832031 11.78125 -3.59375 C 11.175781 -2.363281 10.328125 -1.429688 9.234375 -0.796875 C 8.140625 -0.171875 6.863281 0.140625 5.40625 0.140625 C 3.820312 0.140625 2.5625 -0.148438 1.625 -0.734375 L 2.28125 -2.046875 C 3.039062 -1.546875 4.070312 -1.296875 5.375 -1.296875 C 7.144531 -1.296875 8.53125 -1.851562 9.53125 -2.96875 C 10.53125 -4.09375 11.03125 -5.71875 11.03125 -7.84375 C 11.03125 -8.238281 11.007812 -8.671875 10.96875 -9.140625 C 10.570312 -8.273438 9.941406 -7.601562 9.078125 -7.125 C 8.210938 -6.644531 7.21875 -6.40625 6.09375 -6.40625 C 5.039062 -6.40625 4.109375 -6.601562 3.296875 -7 C 2.484375 -7.394531 1.847656 -7.953125 1.390625 -8.671875 C 0.929688 -9.390625 0.703125 -10.226562 0.703125 -11.1875 C 0.703125 -12.164062 0.9375 -13.023438 1.40625 -13.765625 C 1.882812 -14.515625 2.535156 -15.085938 3.359375 -15.484375 C 4.191406 -15.890625 5.125 -16.09375 6.15625 -16.09375 Z M 6.34375 -7.796875 C 7.144531 -7.796875 7.851562 -7.945312 8.46875 -8.25 C 9.082031 -8.550781 9.5625 -8.96875 9.90625 -9.5 C 10.257812 -10.03125 10.4375 -10.625 10.4375 -11.28125 C 10.4375 -11.894531 10.269531 -12.457031 9.9375 -12.96875 C 9.613281 -13.488281 9.132812 -13.90625 8.5 -14.21875 C 7.863281 -14.539062 7.101562 -14.703125 6.21875 -14.703125 C 5.0625 -14.703125 4.125 -14.382812 3.40625 -13.75 C 2.6875 -13.125 2.328125 -12.285156 2.328125 -11.234375 C 2.328125 -10.191406 2.6875 -9.359375 3.40625 -8.734375 C 4.125 -8.109375 5.101562 -7.796875 6.34375 -7.796875 Z M 6.34375 -7.796875 "/></g></g></g><g fill="#edeced" fill-opacity="1"><g transform="translate(250.425678, 395.689423)"><g><path d="M 15.9375 -15.953125 L 15.9375 0 L 14.546875 0 L 4.28125 -12.953125 L 4.28125 0 L 2.59375 0 L 2.59375 -15.953125 L 3.984375 -15.953125 L 14.265625 -3.015625 L 14.265625 -15.953125 Z M 15.9375 -15.953125 "/></g></g></g><g fill="#edeced" fill-opacity="1"><g transform="translate(268.946841, 395.689423)"><g><path d="M 6.453125 -12.078125 C 8.015625 -12.078125 9.210938 -11.6875 10.046875 -10.90625 C 10.890625 -10.125 11.3125 -8.96875 11.3125 -7.4375 L 11.3125 0 L 9.75 0 L 9.75 -1.875 C 9.382812 -1.25 8.847656 -0.757812 8.140625 -0.40625 C 7.441406 -0.0625 6.601562 0.109375 5.625 0.109375 C 4.289062 0.109375 3.226562 -0.207031 2.4375 -0.84375 C 1.644531 -1.476562 1.25 -2.320312 1.25 -3.375 C 1.25 -4.394531 1.617188 -5.210938 2.359375 -5.828125 C 3.097656 -6.453125 4.269531 -6.765625 5.875 -6.765625 L 9.6875 -6.765625 L 9.6875 -7.5 C 9.6875 -8.53125 9.394531 -9.316406 8.8125 -9.859375 C 8.238281 -10.398438 7.398438 -10.671875 6.296875 -10.671875 C 5.535156 -10.671875 4.804688 -10.546875 4.109375 -10.296875 C 3.410156 -10.046875 2.804688 -9.695312 2.296875 -9.25 L 1.578125 -10.46875 C 2.179688 -10.976562 2.90625 -11.375 3.75 -11.65625 C 4.601562 -11.9375 5.503906 -12.078125 6.453125 -12.078125 Z M 5.875 -1.15625 C 6.789062 -1.15625 7.570312 -1.363281 8.21875 -1.78125 C 8.875 -2.207031 9.363281 -2.816406 9.6875 -3.609375 L 9.6875 -5.5625 L 5.921875 -5.5625 C 3.867188 -5.5625 2.84375 -4.847656 2.84375 -3.421875 C 2.84375 -2.722656 3.109375 -2.171875 3.640625 -1.765625 C 4.179688 -1.359375 4.925781 -1.15625 5.875 -1.15625 Z M 5.875 -1.15625 "/></g></g></g><g fill="#edeced" fill-opacity="1"><g transform="translate(282.387777, 395.689423)"><g><path d="M 8.578125 -0.734375 C 8.265625 -0.453125 7.882812 -0.238281 7.4375 -0.09375 C 6.988281 0.0390625 6.523438 0.109375 6.046875 0.109375 C 4.921875 0.109375 4.050781 -0.191406 3.4375 -0.796875 C 2.832031 -1.398438 2.53125 -2.257812 2.53125 -3.375 L 2.53125 -10.625 L 0.390625 -10.625 L 0.390625 -11.984375 L 2.53125 -11.984375 L 2.53125 -14.609375 L 4.15625 -14.609375 L 4.15625 -11.984375 L 7.796875 -11.984375 L 7.796875 -10.625 L 4.15625 -10.625 L 4.15625 -3.46875 C 4.15625 -2.75 4.332031 -2.203125 4.6875 -1.828125 C 5.039062 -1.460938 5.550781 -1.28125 6.21875 -1.28125 C 6.550781 -1.28125 6.875 -1.332031 7.1875 -1.4375 C 7.5 -1.539062 7.769531 -1.691406 8 -1.890625 Z M 8.578125 -0.734375 "/></g></g></g><g fill="#edeced" fill-opacity="1"><g transform="translate(291.63696, 395.689423)"><g><path d="M 13.0625 -11.984375 L 13.0625 0 L 11.515625 0 L 11.515625 -2.1875 C 11.085938 -1.457031 10.5 -0.890625 9.75 -0.484375 C 9.007812 -0.0859375 8.160156 0.109375 7.203125 0.109375 C 5.640625 0.109375 4.40625 -0.320312 3.5 -1.1875 C 2.59375 -2.0625 2.140625 -3.34375 2.140625 -5.03125 L 2.140625 -11.984375 L 3.765625 -11.984375 L 3.765625 -5.203125 C 3.765625 -3.941406 4.070312 -2.984375 4.6875 -2.328125 C 5.3125 -1.671875 6.203125 -1.34375 7.359375 -1.34375 C 8.617188 -1.34375 9.613281 -1.722656 10.34375 -2.484375 C 11.070312 -3.253906 11.4375 -4.328125 11.4375 -5.703125 L 11.4375 -11.984375 Z M 13.0625 -11.984375 "/></g></g></g><g fill="#edeced" fill-opacity="1"><g transform="translate(306.968747, 395.689423)"><g><path d="M 3.8125 -9.640625 C 4.1875 -10.441406 4.75 -11.046875 5.5 -11.453125 C 6.257812 -11.867188 7.191406 -12.078125 8.296875 -12.078125 L 8.296875 -10.515625 L 7.90625 -10.53125 C 6.644531 -10.53125 5.65625 -10.140625 4.9375 -9.359375 C 4.226562 -8.585938 3.875 -7.503906 3.875 -6.109375 L 3.875 0 L 2.25 0 L 2.25 -11.984375 L 3.8125 -11.984375 Z M 3.8125 -9.640625 "/></g></g></g><g fill="#edeced" fill-opacity="1"><g transform="translate(316.104027, 395.689423)"><g><path d="M 12.703125 -5.5 L 2.671875 -5.5 C 2.753906 -4.25 3.226562 -3.238281 4.09375 -2.46875 C 4.96875 -1.707031 6.066406 -1.328125 7.390625 -1.328125 C 8.128906 -1.328125 8.8125 -1.457031 9.4375 -1.71875 C 10.0625 -1.988281 10.601562 -2.378906 11.0625 -2.890625 L 11.96875 -1.84375 C 11.4375 -1.207031 10.769531 -0.722656 9.96875 -0.390625 C 9.175781 -0.0546875 8.300781 0.109375 7.34375 0.109375 C 6.113281 0.109375 5.019531 -0.148438 4.0625 -0.671875 C 3.113281 -1.191406 2.375 -1.914062 1.84375 -2.84375 C 1.3125 -3.769531 1.046875 -4.820312 1.046875 -6 C 1.046875 -7.164062 1.300781 -8.210938 1.8125 -9.140625 C 2.320312 -10.066406 3.019531 -10.785156 3.90625 -11.296875 C 4.800781 -11.816406 5.800781 -12.078125 6.90625 -12.078125 C 8.019531 -12.078125 9.015625 -11.816406 9.890625 -11.296875 C 10.773438 -10.785156 11.46875 -10.070312 11.96875 -9.15625 C 12.46875 -8.238281 12.71875 -7.1875 12.71875 -6 Z M 6.90625 -10.6875 C 5.75 -10.6875 4.78125 -10.316406 4 -9.578125 C 3.21875 -8.847656 2.773438 -7.890625 2.671875 -6.703125 L 11.171875 -6.703125 C 11.066406 -7.890625 10.617188 -8.847656 9.828125 -9.578125 C 9.046875 -10.316406 8.070312 -10.6875 6.90625 -10.6875 Z M 6.90625 -10.6875 "/></g></g></g><g fill="#edeced" fill-opacity="1"><g transform="translate(329.863899, 395.689423)"><g/></g></g><g fill="#edeced" fill-opacity="1"><g transform="translate(335.832588, 395.689423)"><g><path d="M 2.4375 -2.375 C 2.789062 -2.375 3.078125 -2.253906 3.296875 -2.015625 C 3.523438 -1.785156 3.640625 -1.492188 3.640625 -1.140625 C 3.640625 -0.953125 3.613281 -0.753906 3.5625 -0.546875 C 3.507812 -0.335938 3.429688 -0.09375 3.328125 0.1875 L 2.375 3.328125 L 1.28125 3.328125 L 2.046875 0.015625 C 1.804688 -0.0546875 1.609375 -0.191406 1.453125 -0.390625 C 1.304688 -0.597656 1.234375 -0.847656 1.234375 -1.140625 C 1.234375 -1.492188 1.347656 -1.785156 1.578125 -2.015625 C 1.804688 -2.253906 2.09375 -2.375 2.4375 -2.375 Z M 2.4375 -2.375 "/></g></g></g><g fill="#edeced" fill-opacity="1"><g transform="translate(340.662212, 395.689423)"><g><path d="M 8.4375 -12.078125 C 9.5625 -12.078125 10.578125 -11.820312 11.484375 -11.3125 C 12.398438 -10.8125 13.113281 -10.097656 13.625 -9.171875 C 14.144531 -8.242188 14.40625 -7.1875 14.40625 -6 C 14.40625 -4.789062 14.144531 -3.722656 13.625 -2.796875 C 13.113281 -1.867188 12.40625 -1.148438 11.5 -0.640625 C 10.59375 -0.140625 9.570312 0.109375 8.4375 0.109375 C 7.457031 0.109375 6.578125 -0.0859375 5.796875 -0.484375 C 5.015625 -0.890625 4.375 -1.476562 3.875 -2.25 L 3.875 4.421875 L 2.25 4.421875 L 2.25 -11.984375 L 3.8125 -11.984375 L 3.8125 -9.625 C 4.289062 -10.414062 4.929688 -11.019531 5.734375 -11.4375 C 6.535156 -11.863281 7.4375 -12.078125 8.4375 -12.078125 Z M 8.328125 -1.328125 C 9.160156 -1.328125 9.914062 -1.519531 10.59375 -1.90625 C 11.28125 -2.289062 11.816406 -2.835938 12.203125 -3.546875 C 12.585938 -4.265625 12.78125 -5.082031 12.78125 -6 C 12.78125 -6.90625 12.585938 -7.710938 12.203125 -8.421875 C 11.816406 -9.128906 11.28125 -9.679688 10.59375 -10.078125 C 9.914062 -10.472656 9.160156 -10.671875 8.328125 -10.671875 C 7.472656 -10.671875 6.707031 -10.472656 6.03125 -10.078125 C 5.351562 -9.679688 4.820312 -9.128906 4.4375 -8.421875 C 4.050781 -7.710938 3.859375 -6.90625 3.859375 -6 C 3.859375 -5.082031 4.050781 -4.265625 4.4375 -3.546875 C 4.820312 -2.835938 5.351562 -2.289062 6.03125 -1.90625 C 6.707031 -1.519531 7.472656 -1.328125 8.328125 -1.328125 Z M 8.328125 -1.328125 "/></g></g></g><g fill="#edeced" fill-opacity="1"><g transform="translate(356.107901, 395.689423)"><g><path d="M 7.15625 0.109375 C 6 0.109375 4.957031 -0.148438 4.03125 -0.671875 C 3.101562 -1.191406 2.375 -1.914062 1.84375 -2.84375 C 1.3125 -3.769531 1.046875 -4.820312 1.046875 -6 C 1.046875 -7.164062 1.3125 -8.210938 1.84375 -9.140625 C 2.375 -10.066406 3.101562 -10.785156 4.03125 -11.296875 C 4.957031 -11.816406 6 -12.078125 7.15625 -12.078125 C 8.3125 -12.078125 9.351562 -11.816406 10.28125 -11.296875 C 11.207031 -10.785156 11.929688 -10.066406 12.453125 -9.140625 C 12.984375 -8.210938 13.25 -7.164062 13.25 -6 C 13.25 -4.820312 12.984375 -3.769531 12.453125 -2.84375 C 11.929688 -1.914062 11.207031 -1.191406 10.28125 -0.671875 C 9.351562 -0.148438 8.3125 0.109375 7.15625 0.109375 Z M 7.15625 -1.328125 C 8.007812 -1.328125 8.773438 -1.519531 9.453125 -1.90625 C 10.128906 -2.289062 10.65625 -2.835938 11.03125 -3.546875 C 11.414062 -4.265625 11.609375 -5.082031 11.609375 -6 C 11.609375 -6.90625 11.414062 -7.710938 11.03125 -8.421875 C 10.65625 -9.140625 10.128906 -9.691406 9.453125 -10.078125 C 8.773438 -10.472656 8.007812 -10.671875 7.15625 -10.671875 C 6.300781 -10.671875 5.535156 -10.472656 4.859375 -10.078125 C 4.191406 -9.691406 3.660156 -9.140625 3.265625 -8.421875 C 2.878906 -7.710938 2.6875 -6.90625 2.6875 -6 C 2.6875 -5.082031 2.878906 -4.265625 3.265625 -3.546875 C 3.660156 -2.835938 4.191406 -2.289062 4.859375 -1.90625 C 5.535156 -1.519531 6.300781 -1.328125 7.15625 -1.328125 Z M 7.15625 -1.328125 "/></g></g></g><g fill="#edeced" fill-opacity="1"><g transform="translate(370.391741, 395.689423)"><g><path d="M 3.8125 -9.640625 C 4.1875 -10.441406 4.75 -11.046875 5.5 -11.453125 C 6.257812 -11.867188 7.191406 -12.078125 8.296875 -12.078125 L 8.296875 -10.515625 L 7.90625 -10.53125 C 6.644531 -10.53125 5.65625 -10.140625 4.9375 -9.359375 C 4.226562 -8.585938 3.875 -7.503906 3.875 -6.109375 L 3.875 0 L 2.25 0 L 2.25 -11.984375 L 3.8125 -11.984375 Z M 3.8125 -9.640625 "/></g></g></g><g fill="#edeced" fill-opacity="1"><g transform="translate(379.527021, 395.689423)"><g><path d="M 8.578125 -0.734375 C 8.265625 -0.453125 7.882812 -0.238281 7.4375 -0.09375 C 6.988281 0.0390625 6.523438 0.109375 6.046875 0.109375 C 4.921875 0.109375 4.050781 -0.191406 3.4375 -0.796875 C 2.832031 -1.398438 2.53125 -2.257812 2.53125 -3.375 L 2.53125 -10.625 L 0.390625 -10.625 L 0.390625 -11.984375 L 2.53125 -11.984375 L 2.53125 -14.609375 L 4.15625 -14.609375 L 4.15625 -11.984375 L 7.796875 -11.984375 L 7.796875 -10.625 L 4.15625 -10.625 L 4.15625 -3.46875 C 4.15625 -2.75 4.332031 -2.203125 4.6875 -1.828125 C 5.039062 -1.460938 5.550781 -1.28125 6.21875 -1.28125 C 6.550781 -1.28125 6.875 -1.332031 7.1875 -1.4375 C 7.5 -1.539062 7.769531 -1.691406 8 -1.890625 Z M 8.578125 -0.734375 "/></g></g></g><g fill="#edeced" fill-opacity="1"><g transform="translate(388.776204, 395.689423)"><g><path d="M 3.8125 -9.640625 C 4.1875 -10.441406 4.75 -11.046875 5.5 -11.453125 C 6.257812 -11.867188 7.191406 -12.078125 8.296875 -12.078125 L 8.296875 -10.515625 L 7.90625 -10.53125 C 6.644531 -10.53125 5.65625 -10.140625 4.9375 -9.359375 C 4.226562 -8.585938 3.875 -7.503906 3.875 -6.109375 L 3.875 0 L 2.25 0 L 2.25 -11.984375 L 3.8125 -11.984375 Z M 3.8125 -9.640625 "/></g></g></g><g fill="#edeced" fill-opacity="1"><g transform="translate(397.911484, 395.689423)"><g><path d="M 6.453125 -12.078125 C 8.015625 -12.078125 9.210938 -11.6875 10.046875 -10.90625 C 10.890625 -10.125 11.3125 -8.96875 11.3125 -7.4375 L 11.3125 0 L 9.75 0 L 9.75 -1.875 C 9.382812 -1.25 8.847656 -0.757812 8.140625 -0.40625 C 7.441406 -0.0625 6.601562 0.109375 5.625 0.109375 C 4.289062 0.109375 3.226562 -0.207031 2.4375 -0.84375 C 1.644531 -1.476562 1.25 -2.320312 1.25 -3.375 C 1.25 -4.394531 1.617188 -5.210938 2.359375 -5.828125 C 3.097656 -6.453125 4.269531 -6.765625 5.875 -6.765625 L 9.6875 -6.765625 L 9.6875 -7.5 C 9.6875 -8.53125 9.394531 -9.316406 8.8125 -9.859375 C 8.238281 -10.398438 7.398438 -10.671875 6.296875 -10.671875 C 5.535156 -10.671875 4.804688 -10.546875 4.109375 -10.296875 C 3.410156 -10.046875 2.804688 -9.695312 2.296875 -9.25 L 1.578125 -10.46875 C 2.179688 -10.976562 2.90625 -11.375 3.75 -11.65625 C 4.601562 -11.9375 5.503906 -12.078125 6.453125 -12.078125 Z M 5.875 -1.15625 C 6.789062 -1.15625 7.570312 -1.363281 8.21875 -1.78125 C 8.875 -2.207031 9.363281 -2.816406 9.6875 -3.609375 L 9.6875 -5.5625 L 5.921875 -5.5625 C 3.867188 -5.5625 2.84375 -4.847656 2.84375 -3.421875 C 2.84375 -2.722656 3.109375 -2.171875 3.640625 -1.765625 C 4.179688 -1.359375 4.925781 -1.15625 5.875 -1.15625 Z M 5.875 -1.15625 "/></g></g></g><g fill="#edeced" fill-opacity="1"><g transform="translate(411.35242, 395.689423)"><g><path d="M 2.25 -11.984375 L 3.875 -11.984375 L 3.875 0 L 2.25 0 Z M 3.078125 -14.609375 C 2.742188 -14.609375 2.460938 -14.722656 2.234375 -14.953125 C 2.003906 -15.179688 1.890625 -15.457031 1.890625 -15.78125 C 1.890625 -16.082031 2.003906 -16.347656 2.234375 -16.578125 C 2.460938 -16.804688 2.742188 -16.921875 3.078125 -16.921875 C 3.410156 -16.921875 3.691406 -16.804688 3.921875 -16.578125 C 4.148438 -16.359375 4.265625 -16.097656 4.265625 -15.796875 C 4.265625 -15.460938 4.148438 -15.179688 3.921875 -14.953125 C 3.691406 -14.722656 3.410156 -14.609375 3.078125 -14.609375 Z M 3.078125 -14.609375 "/></g></g></g><g fill="#edeced" fill-opacity="1"><g transform="translate(417.480582, 395.689423)"><g><path d="M 8.578125 -0.734375 C 8.265625 -0.453125 7.882812 -0.238281 7.4375 -0.09375 C 6.988281 0.0390625 6.523438 0.109375 6.046875 0.109375 C 4.921875 0.109375 4.050781 -0.191406 3.4375 -0.796875 C 2.832031 -1.398438 2.53125 -2.257812 2.53125 -3.375 L 2.53125 -10.625 L 0.390625 -10.625 L 0.390625 -11.984375 L 2.53125 -11.984375 L 2.53125 -14.609375 L 4.15625 -14.609375 L 4.15625 -11.984375 L 7.796875 -11.984375 L 7.796875 -10.625 L 4.15625 -10.625 L 4.15625 -3.46875 C 4.15625 -2.75 4.332031 -2.203125 4.6875 -1.828125 C 5.039062 -1.460938 5.550781 -1.28125 6.21875 -1.28125 C 6.550781 -1.28125 6.875 -1.332031 7.1875 -1.4375 C 7.5 -1.539062 7.769531 -1.691406 8 -1.890625 Z M 8.578125 -0.734375 "/></g></g></g><g fill="#edeced" fill-opacity="1"><g transform="translate(426.729765, 395.689423)"><g><path d="M 5.46875 0.109375 C 4.5 0.109375 3.566406 -0.03125 2.671875 -0.3125 C 1.785156 -0.59375 1.09375 -0.945312 0.59375 -1.375 L 1.328125 -2.640625 C 1.828125 -2.242188 2.457031 -1.921875 3.21875 -1.671875 C 3.976562 -1.421875 4.765625 -1.296875 5.578125 -1.296875 C 6.679688 -1.296875 7.492188 -1.46875 8.015625 -1.8125 C 8.535156 -2.15625 8.796875 -2.640625 8.796875 -3.265625 C 8.796875 -3.703125 8.648438 -4.046875 8.359375 -4.296875 C 8.078125 -4.546875 7.710938 -4.734375 7.265625 -4.859375 C 6.828125 -4.992188 6.242188 -5.125 5.515625 -5.25 C 4.546875 -5.425781 3.765625 -5.609375 3.171875 -5.796875 C 2.578125 -5.992188 2.070312 -6.316406 1.65625 -6.765625 C 1.238281 -7.222656 1.03125 -7.851562 1.03125 -8.65625 C 1.03125 -9.664062 1.445312 -10.488281 2.28125 -11.125 C 3.113281 -11.757812 4.273438 -12.078125 5.765625 -12.078125 C 6.546875 -12.078125 7.320312 -11.972656 8.09375 -11.765625 C 8.863281 -11.566406 9.503906 -11.300781 10.015625 -10.96875 L 9.296875 -9.671875 C 8.304688 -10.347656 7.128906 -10.6875 5.765625 -10.6875 C 4.734375 -10.6875 3.953125 -10.503906 3.421875 -10.140625 C 2.898438 -9.773438 2.640625 -9.296875 2.640625 -8.703125 C 2.640625 -8.253906 2.785156 -7.890625 3.078125 -7.609375 C 3.378906 -7.335938 3.75 -7.132812 4.1875 -7 C 4.632812 -6.875 5.242188 -6.742188 6.015625 -6.609375 C 6.972656 -6.429688 7.738281 -6.25 8.3125 -6.0625 C 8.894531 -5.882812 9.390625 -5.570312 9.796875 -5.125 C 10.210938 -4.6875 10.421875 -4.082031 10.421875 -3.3125 C 10.421875 -2.257812 9.984375 -1.425781 9.109375 -0.8125 C 8.234375 -0.195312 7.019531 0.109375 5.46875 0.109375 Z M 5.46875 0.109375 "/></g></g></g><g fill="#edeced" fill-opacity="1"><g transform="translate(437.869799, 395.689423)"><g><path d="M 2.4375 -2.375 C 2.789062 -2.375 3.078125 -2.253906 3.296875 -2.015625 C 3.523438 -1.785156 3.640625 -1.492188 3.640625 -1.140625 C 3.640625 -0.953125 3.613281 -0.753906 3.5625 -0.546875 C 3.507812 -0.335938 3.429688 -0.09375 3.328125 0.1875 L 2.375 3.328125 L 1.28125 3.328125 L 2.046875 0.015625 C 1.804688 -0.0546875 1.609375 -0.191406 1.453125 -0.390625 C 1.304688 -0.597656 1.234375 -0.847656 1.234375 -1.140625 C 1.234375 -1.492188 1.347656 -1.785156 1.578125 -2.015625 C 1.804688 -2.253906 2.09375 -2.375 2.4375 -2.375 Z M 2.4375 -2.375 "/></g></g></g><g fill="#edeced" fill-opacity="1"><g transform="translate(442.699411, 395.689423)"><g/></g></g><g fill="#edeced" fill-opacity="1"><g transform="translate(448.6681, 395.689423)"><g><path d="M 6.453125 -12.078125 C 8.015625 -12.078125 9.210938 -11.6875 10.046875 -10.90625 C 10.890625 -10.125 11.3125 -8.96875 11.3125 -7.4375 L 11.3125 0 L 9.75 0 L 9.75 -1.875 C 9.382812 -1.25 8.847656 -0.757812 8.140625 -0.40625 C 7.441406 -0.0625 6.601562 0.109375 5.625 0.109375 C 4.289062 0.109375 3.226562 -0.207031 2.4375 -0.84375 C 1.644531 -1.476562 1.25 -2.320312 1.25 -3.375 C 1.25 -4.394531 1.617188 -5.210938 2.359375 -5.828125 C 3.097656 -6.453125 4.269531 -6.765625 5.875 -6.765625 L 9.6875 -6.765625 L 9.6875 -7.5 C 9.6875 -8.53125 9.394531 -9.316406 8.8125 -9.859375 C 8.238281 -10.398438 7.398438 -10.671875 6.296875 -10.671875 C 5.535156 -10.671875 4.804688 -10.546875 4.109375 -10.296875 C 3.410156 -10.046875 2.804688 -9.695312 2.296875 -9.25 L 1.578125 -10.46875 C 2.179688 -10.976562 2.90625 -11.375 3.75 -11.65625 C 4.601562 -11.9375 5.503906 -12.078125 6.453125 -12.078125 Z M 5.875 -1.15625 C 6.789062 -1.15625 7.570312 -1.363281 8.21875 -1.78125 C 8.875 -2.207031 9.363281 -2.816406 9.6875 -3.609375 L 9.6875 -5.5625 L 5.921875 -5.5625 C 3.867188 -5.5625 2.84375 -4.847656 2.84375 -3.421875 C 2.84375 -2.722656 3.109375 -2.171875 3.640625 -1.765625 C 4.179688 -1.359375 4.925781 -1.15625 5.875 -1.15625 Z M 5.875 -1.15625 "/></g></g></g><g fill="#edeced" fill-opacity="1"><g transform="translate(462.109048, 395.689423)"><g><path d="M 8.359375 -12.078125 C 9.867188 -12.078125 11.066406 -11.640625 11.953125 -10.765625 C 12.847656 -9.890625 13.296875 -8.617188 13.296875 -6.953125 L 13.296875 0 L 11.671875 0 L 11.671875 -6.796875 C 11.671875 -8.035156 11.359375 -8.984375 10.734375 -9.640625 C 10.109375 -10.296875 9.21875 -10.625 8.0625 -10.625 C 6.769531 -10.625 5.75 -10.238281 5 -9.46875 C 4.25 -8.707031 3.875 -7.648438 3.875 -6.296875 L 3.875 0 L 2.25 0 L 2.25 -11.984375 L 3.8125 -11.984375 L 3.8125 -9.78125 C 4.25 -10.507812 4.859375 -11.070312 5.640625 -11.46875 C 6.421875 -11.875 7.328125 -12.078125 8.359375 -12.078125 Z M 8.359375 -12.078125 "/></g></g></g><g fill="#edeced" fill-opacity="1"><g transform="translate(477.531952, 395.689423)"><g><path d="M 2.25 -11.984375 L 3.875 -11.984375 L 3.875 0 L 2.25 0 Z M 3.078125 -14.609375 C 2.742188 -14.609375 2.460938 -14.722656 2.234375 -14.953125 C 2.003906 -15.179688 1.890625 -15.457031 1.890625 -15.78125 C 1.890625 -16.082031 2.003906 -16.347656 2.234375 -16.578125 C 2.460938 -16.804688 2.742188 -16.921875 3.078125 -16.921875 C 3.410156 -16.921875 3.691406 -16.804688 3.921875 -16.578125 C 4.148438 -16.359375 4.265625 -16.097656 4.265625 -15.796875 C 4.265625 -15.460938 4.148438 -15.179688 3.921875 -14.953125 C 3.691406 -14.722656 3.410156 -14.609375 3.078125 -14.609375 Z M 3.078125 -14.609375 "/></g></g></g><g fill="#edeced" fill-opacity="1"><g transform="translate(483.660102, 395.689423)"><g><path d="M 17.21875 -12.078125 C 18.71875 -12.078125 19.894531 -11.644531 20.75 -10.78125 C 21.613281 -9.914062 22.046875 -8.640625 22.046875 -6.953125 L 22.046875 0 L 20.421875 0 L 20.421875 -6.796875 C 20.421875 -8.035156 20.117188 -8.984375 19.515625 -9.640625 C 18.921875 -10.296875 18.078125 -10.625 16.984375 -10.625 C 15.734375 -10.625 14.75 -10.238281 14.03125 -9.46875 C 13.320312 -8.707031 12.96875 -7.648438 12.96875 -6.296875 L 12.96875 0 L 11.359375 0 L 11.359375 -6.796875 C 11.359375 -8.035156 11.054688 -8.984375 10.453125 -9.640625 C 9.847656 -10.296875 8.992188 -10.625 7.890625 -10.625 C 6.660156 -10.625 5.679688 -10.238281 4.953125 -9.46875 C 4.234375 -8.707031 3.875 -7.648438 3.875 -6.296875 L 3.875 0 L 2.25 0 L 2.25 -11.984375 L 3.8125 -11.984375 L 3.8125 -9.796875 C 4.238281 -10.523438 4.828125 -11.085938 5.578125 -11.484375 C 6.335938 -11.878906 7.210938 -12.078125 8.203125 -12.078125 C 9.210938 -12.078125 10.082031 -11.863281 10.8125 -11.4375 C 11.550781 -11.019531 12.101562 -10.390625 12.46875 -9.546875 C 12.90625 -10.335938 13.535156 -10.957031 14.359375 -11.40625 C 15.191406 -11.851562 16.144531 -12.078125 17.21875 -12.078125 Z M 17.21875 -12.078125 "/></g></g></g><g fill="#edeced" fill-opacity="1"><g transform="translate(507.831007, 395.689423)"><g><path d="M 6.453125 -12.078125 C 8.015625 -12.078125 9.210938 -11.6875 10.046875 -10.90625 C 10.890625 -10.125 11.3125 -8.96875 11.3125 -7.4375 L 11.3125 0 L 9.75 0 L 9.75 -1.875 C 9.382812 -1.25 8.847656 -0.757812 8.140625 -0.40625 C 7.441406 -0.0625 6.601562 0.109375 5.625 0.109375 C 4.289062 0.109375 3.226562 -0.207031 2.4375 -0.84375 C 1.644531 -1.476562 1.25 -2.320312 1.25 -3.375 C 1.25 -4.394531 1.617188 -5.210938 2.359375 -5.828125 C 3.097656 -6.453125 4.269531 -6.765625 5.875 -6.765625 L 9.6875 -6.765625 L 9.6875 -7.5 C 9.6875 -8.53125 9.394531 -9.316406 8.8125 -9.859375 C 8.238281 -10.398438 7.398438 -10.671875 6.296875 -10.671875 C 5.535156 -10.671875 4.804688 -10.546875 4.109375 -10.296875 C 3.410156 -10.046875 2.804688 -9.695312 2.296875 -9.25 L 1.578125 -10.46875 C 2.179688 -10.976562 2.90625 -11.375 3.75 -11.65625 C 4.601562 -11.9375 5.503906 -12.078125 6.453125 -12.078125 Z M 5.875 -1.15625 C 6.789062 -1.15625 7.570312 -1.363281 8.21875 -1.78125 C 8.875 -2.207031 9.363281 -2.816406 9.6875 -3.609375 L 9.6875 -5.5625 L 5.921875 -5.5625 C 3.867188 -5.5625 2.84375 -4.847656 2.84375 -3.421875 C 2.84375 -2.722656 3.109375 -2.171875 3.640625 -1.765625 C 4.179688 -1.359375 4.925781 -1.15625 5.875 -1.15625 Z M 5.875 -1.15625 "/></g></g></g><g fill="#edeced" fill-opacity="1"><g transform="translate(521.271932, 395.689423)"><g><path d="M 13.0625 -11.984375 L 13.0625 0 L 11.515625 0 L 11.515625 -2.1875 C 11.085938 -1.457031 10.5 -0.890625 9.75 -0.484375 C 9.007812 -0.0859375 8.160156 0.109375 7.203125 0.109375 C 5.640625 0.109375 4.40625 -0.320312 3.5 -1.1875 C 2.59375 -2.0625 2.140625 -3.34375 2.140625 -5.03125 L 2.140625 -11.984375 L 3.765625 -11.984375 L 3.765625 -5.203125 C 3.765625 -3.941406 4.070312 -2.984375 4.6875 -2.328125 C 5.3125 -1.671875 6.203125 -1.34375 7.359375 -1.34375 C 8.617188 -1.34375 9.613281 -1.722656 10.34375 -2.484375 C 11.070312 -3.253906 11.4375 -4.328125 11.4375 -5.703125 L 11.4375 -11.984375 Z M 13.0625 -11.984375 "/></g></g></g><g fill="#edeced" fill-opacity="1"><g transform="translate(536.603719, 395.689423)"><g><path d="M 9.890625 0 L 6.09375 -5.015625 L 2.25 0 L 0.4375 0 L 5.171875 -6.15625 L 0.65625 -11.984375 L 2.484375 -11.984375 L 6.09375 -7.296875 L 9.6875 -11.984375 L 11.46875 -11.984375 L 6.953125 -6.15625 L 11.734375 0 Z M 9.890625 0 "/></g></g></g><g fill="#edeced" fill-opacity="1"><g transform="translate(548.768902, 395.689423)"><g><path d="M 2.4375 -2.375 C 2.789062 -2.375 3.078125 -2.253906 3.296875 -2.015625 C 3.523438 -1.785156 3.640625 -1.492188 3.640625 -1.140625 C 3.640625 -0.953125 3.613281 -0.753906 3.5625 -0.546875 C 3.507812 -0.335938 3.429688 -0.09375 3.328125 0.1875 L 2.375 3.328125 L 1.28125 3.328125 L 2.046875 0.015625 C 1.804688 -0.0546875 1.609375 -0.191406 1.453125 -0.390625 C 1.304688 -0.597656 1.234375 -0.847656 1.234375 -1.140625 C 1.234375 -1.492188 1.347656 -1.785156 1.578125 -2.015625 C 1.804688 -2.253906 2.09375 -2.375 2.4375 -2.375 Z M 2.4375 -2.375 "/></g></g></g><g fill="#edeced" fill-opacity="1"><g transform="translate(553.589725, 395.689423)"><g/></g></g><g fill="#edeced" fill-opacity="1"><g transform="translate(259.941303, 427.189422)"><g><path d="M 8.4375 -12.078125 C 9.5625 -12.078125 10.578125 -11.820312 11.484375 -11.3125 C 12.398438 -10.8125 13.113281 -10.097656 13.625 -9.171875 C 14.144531 -8.242188 14.40625 -7.1875 14.40625 -6 C 14.40625 -4.789062 14.144531 -3.722656 13.625 -2.796875 C 13.113281 -1.867188 12.40625 -1.148438 11.5 -0.640625 C 10.59375 -0.140625 9.570312 0.109375 8.4375 0.109375 C 7.457031 0.109375 6.578125 -0.0859375 5.796875 -0.484375 C 5.015625 -0.890625 4.375 -1.476562 3.875 -2.25 L 3.875 4.421875 L 2.25 4.421875 L 2.25 -11.984375 L 3.8125 -11.984375 L 3.8125 -9.625 C 4.289062 -10.414062 4.929688 -11.019531 5.734375 -11.4375 C 6.535156 -11.863281 7.4375 -12.078125 8.4375 -12.078125 Z M 8.328125 -1.328125 C 9.160156 -1.328125 9.914062 -1.519531 10.59375 -1.90625 C 11.28125 -2.289062 11.816406 -2.835938 12.203125 -3.546875 C 12.585938 -4.265625 12.78125 -5.082031 12.78125 -6 C 12.78125 -6.90625 12.585938 -7.710938 12.203125 -8.421875 C 11.816406 -9.128906 11.28125 -9.679688 10.59375 -10.078125 C 9.914062 -10.472656 9.160156 -10.671875 8.328125 -10.671875 C 7.472656 -10.671875 6.707031 -10.472656 6.03125 -10.078125 C 5.351562 -9.679688 4.820312 -9.128906 4.4375 -8.421875 C 4.050781 -7.710938 3.859375 -6.90625 3.859375 -6 C 3.859375 -5.082031 4.050781 -4.265625 4.4375 -3.546875 C 4.820312 -2.835938 5.351562 -2.289062 6.03125 -1.90625 C 6.707031 -1.519531 7.472656 -1.328125 8.328125 -1.328125 Z M 8.328125 -1.328125 "/></g></g></g><g fill="#edeced" fill-opacity="1"><g transform="translate(275.386992, 427.189422)"><g><path d="M 6.453125 -12.078125 C 8.015625 -12.078125 9.210938 -11.6875 10.046875 -10.90625 C 10.890625 -10.125 11.3125 -8.96875 11.3125 -7.4375 L 11.3125 0 L 9.75 0 L 9.75 -1.875 C 9.382812 -1.25 8.847656 -0.757812 8.140625 -0.40625 C 7.441406 -0.0625 6.601562 0.109375 5.625 0.109375 C 4.289062 0.109375 3.226562 -0.207031 2.4375 -0.84375 C 1.644531 -1.476562 1.25 -2.320312 1.25 -3.375 C 1.25 -4.394531 1.617188 -5.210938 2.359375 -5.828125 C 3.097656 -6.453125 4.269531 -6.765625 5.875 -6.765625 L 9.6875 -6.765625 L 9.6875 -7.5 C 9.6875 -8.53125 9.394531 -9.316406 8.8125 -9.859375 C 8.238281 -10.398438 7.398438 -10.671875 6.296875 -10.671875 C 5.535156 -10.671875 4.804688 -10.546875 4.109375 -10.296875 C 3.410156 -10.046875 2.804688 -9.695312 2.296875 -9.25 L 1.578125 -10.46875 C 2.179688 -10.976562 2.90625 -11.375 3.75 -11.65625 C 4.601562 -11.9375 5.503906 -12.078125 6.453125 -12.078125 Z M 5.875 -1.15625 C 6.789062 -1.15625 7.570312 -1.363281 8.21875 -1.78125 C 8.875 -2.207031 9.363281 -2.816406 9.6875 -3.609375 L 9.6875 -5.5625 L 5.921875 -5.5625 C 3.867188 -5.5625 2.84375 -4.847656 2.84375 -3.421875 C 2.84375 -2.722656 3.109375 -2.171875 3.640625 -1.765625 C 4.179688 -1.359375 4.925781 -1.15625 5.875 -1.15625 Z M 5.875 -1.15625 "/></g></g></g><g fill="#edeced" fill-opacity="1"><g transform="translate(288.827929, 427.189422)"><g><path d="M 12.328125 -11.984375 L 6.34375 1.4375 C 5.851562 2.5625 5.285156 3.359375 4.640625 3.828125 C 4.003906 4.296875 3.238281 4.53125 2.34375 4.53125 C 1.769531 4.53125 1.234375 4.4375 0.734375 4.25 C 0.234375 4.070312 -0.195312 3.800781 -0.5625 3.4375 L 0.1875 2.234375 C 0.789062 2.835938 1.519531 3.140625 2.375 3.140625 C 2.914062 3.140625 3.378906 2.988281 3.765625 2.6875 C 4.160156 2.382812 4.523438 1.867188 4.859375 1.140625 L 5.375 -0.015625 L 0.015625 -11.984375 L 1.703125 -11.984375 L 6.21875 -1.796875 L 10.734375 -11.984375 Z M 12.328125 -11.984375 "/></g></g></g><g fill="#edeced" fill-opacity="1"><g transform="translate(301.17537, 427.189422)"><g><path d="M 5.46875 0.109375 C 4.5 0.109375 3.566406 -0.03125 2.671875 -0.3125 C 1.785156 -0.59375 1.09375 -0.945312 0.59375 -1.375 L 1.328125 -2.640625 C 1.828125 -2.242188 2.457031 -1.921875 3.21875 -1.671875 C 3.976562 -1.421875 4.765625 -1.296875 5.578125 -1.296875 C 6.679688 -1.296875 7.492188 -1.46875 8.015625 -1.8125 C 8.535156 -2.15625 8.796875 -2.640625 8.796875 -3.265625 C 8.796875 -3.703125 8.648438 -4.046875 8.359375 -4.296875 C 8.078125 -4.546875 7.710938 -4.734375 7.265625 -4.859375 C 6.828125 -4.992188 6.242188 -5.125 5.515625 -5.25 C 4.546875 -5.425781 3.765625 -5.609375 3.171875 -5.796875 C 2.578125 -5.992188 2.070312 -6.316406 1.65625 -6.765625 C 1.238281 -7.222656 1.03125 -7.851562 1.03125 -8.65625 C 1.03125 -9.664062 1.445312 -10.488281 2.28125 -11.125 C 3.113281 -11.757812 4.273438 -12.078125 5.765625 -12.078125 C 6.546875 -12.078125 7.320312 -11.972656 8.09375 -11.765625 C 8.863281 -11.566406 9.503906 -11.300781 10.015625 -10.96875 L 9.296875 -9.671875 C 8.304688 -10.347656 7.128906 -10.6875 5.765625 -10.6875 C 4.734375 -10.6875 3.953125 -10.503906 3.421875 -10.140625 C 2.898438 -9.773438 2.640625 -9.296875 2.640625 -8.703125 C 2.640625 -8.253906 2.785156 -7.890625 3.078125 -7.609375 C 3.378906 -7.335938 3.75 -7.132812 4.1875 -7 C 4.632812 -6.875 5.242188 -6.742188 6.015625 -6.609375 C 6.972656 -6.429688 7.738281 -6.25 8.3125 -6.0625 C 8.894531 -5.882812 9.390625 -5.570312 9.796875 -5.125 C 10.210938 -4.6875 10.421875 -4.082031 10.421875 -3.3125 C 10.421875 -2.257812 9.984375 -1.425781 9.109375 -0.8125 C 8.234375 -0.195312 7.019531 0.109375 5.46875 0.109375 Z M 5.46875 0.109375 "/></g></g></g><g fill="#edeced" fill-opacity="1"><g transform="translate(312.315404, 427.189422)"><g><path d="M 6.453125 -12.078125 C 8.015625 -12.078125 9.210938 -11.6875 10.046875 -10.90625 C 10.890625 -10.125 11.3125 -8.96875 11.3125 -7.4375 L 11.3125 0 L 9.75 0 L 9.75 -1.875 C 9.382812 -1.25 8.847656 -0.757812 8.140625 -0.40625 C 7.441406 -0.0625 6.601562 0.109375 5.625 0.109375 C 4.289062 0.109375 3.226562 -0.207031 2.4375 -0.84375 C 1.644531 -1.476562 1.25 -2.320312 1.25 -3.375 C 1.25 -4.394531 1.617188 -5.210938 2.359375 -5.828125 C 3.097656 -6.453125 4.269531 -6.765625 5.875 -6.765625 L 9.6875 -6.765625 L 9.6875 -7.5 C 9.6875 -8.53125 9.394531 -9.316406 8.8125 -9.859375 C 8.238281 -10.398438 7.398438 -10.671875 6.296875 -10.671875 C 5.535156 -10.671875 4.804688 -10.546875 4.109375 -10.296875 C 3.410156 -10.046875 2.804688 -9.695312 2.296875 -9.25 L 1.578125 -10.46875 C 2.179688 -10.976562 2.90625 -11.375 3.75 -11.65625 C 4.601562 -11.9375 5.503906 -12.078125 6.453125 -12.078125 Z M 5.875 -1.15625 C 6.789062 -1.15625 7.570312 -1.363281 8.21875 -1.78125 C 8.875 -2.207031 9.363281 -2.816406 9.6875 -3.609375 L 9.6875 -5.5625 L 5.921875 -5.5625 C 3.867188 -5.5625 2.84375 -4.847656 2.84375 -3.421875 C 2.84375 -2.722656 3.109375 -2.171875 3.640625 -1.765625 C 4.179688 -1.359375 4.925781 -1.15625 5.875 -1.15625 Z M 5.875 -1.15625 "/></g></g></g><g fill="#edeced" fill-opacity="1"><g transform="translate(325.75634, 427.189422)"><g><path d="M 13.359375 -11.984375 L 13.359375 -1.453125 C 13.359375 0.578125 12.859375 2.082031 11.859375 3.0625 C 10.867188 4.039062 9.367188 4.53125 7.359375 4.53125 C 6.253906 4.53125 5.203125 4.367188 4.203125 4.046875 C 3.210938 3.722656 2.40625 3.269531 1.78125 2.6875 L 2.59375 1.453125 C 3.175781 1.972656 3.878906 2.375 4.703125 2.65625 C 5.535156 2.945312 6.40625 3.09375 7.3125 3.09375 C 8.832031 3.09375 9.945312 2.738281 10.65625 2.03125 C 11.375 1.332031 11.734375 0.238281 11.734375 -1.25 L 11.734375 -2.78125 C 11.234375 -2.019531 10.578125 -1.441406 9.765625 -1.046875 C 8.953125 -0.648438 8.050781 -0.453125 7.0625 -0.453125 C 5.9375 -0.453125 4.914062 -0.695312 4 -1.1875 C 3.082031 -1.6875 2.359375 -2.378906 1.828125 -3.265625 C 1.304688 -4.160156 1.046875 -5.171875 1.046875 -6.296875 C 1.046875 -7.421875 1.304688 -8.421875 1.828125 -9.296875 C 2.359375 -10.179688 3.078125 -10.863281 3.984375 -11.34375 C 4.898438 -11.832031 5.925781 -12.078125 7.0625 -12.078125 C 8.082031 -12.078125 9.003906 -11.867188 9.828125 -11.453125 C 10.648438 -11.046875 11.3125 -10.457031 11.8125 -9.6875 L 11.8125 -11.984375 Z M 7.234375 -1.890625 C 8.097656 -1.890625 8.878906 -2.078125 9.578125 -2.453125 C 10.273438 -2.828125 10.816406 -3.347656 11.203125 -4.015625 C 11.585938 -4.679688 11.78125 -5.441406 11.78125 -6.296875 C 11.78125 -7.140625 11.585938 -7.890625 11.203125 -8.546875 C 10.816406 -9.210938 10.273438 -9.734375 9.578125 -10.109375 C 8.890625 -10.484375 8.109375 -10.671875 7.234375 -10.671875 C 6.359375 -10.671875 5.578125 -10.488281 4.890625 -10.125 C 4.203125 -9.757812 3.660156 -9.238281 3.265625 -8.5625 C 2.878906 -7.894531 2.6875 -7.140625 2.6875 -6.296875 C 2.6875 -5.441406 2.878906 -4.679688 3.265625 -4.015625 C 3.660156 -3.347656 4.203125 -2.828125 4.890625 -2.453125 C 5.578125 -2.078125 6.359375 -1.890625 7.234375 -1.890625 Z M 7.234375 -1.890625 "/></g></g></g><g fill="#edeced" fill-opacity="1"><g transform="translate(341.384276, 427.189422)"><g><path d="M 12.703125 -5.5 L 2.671875 -5.5 C 2.753906 -4.25 3.226562 -3.238281 4.09375 -2.46875 C 4.96875 -1.707031 6.066406 -1.328125 7.390625 -1.328125 C 8.128906 -1.328125 8.8125 -1.457031 9.4375 -1.71875 C 10.0625 -1.988281 10.601562 -2.378906 11.0625 -2.890625 L 11.96875 -1.84375 C 11.4375 -1.207031 10.769531 -0.722656 9.96875 -0.390625 C 9.175781 -0.0546875 8.300781 0.109375 7.34375 0.109375 C 6.113281 0.109375 5.019531 -0.148438 4.0625 -0.671875 C 3.113281 -1.191406 2.375 -1.914062 1.84375 -2.84375 C 1.3125 -3.769531 1.046875 -4.820312 1.046875 -6 C 1.046875 -7.164062 1.300781 -8.210938 1.8125 -9.140625 C 2.320312 -10.066406 3.019531 -10.785156 3.90625 -11.296875 C 4.800781 -11.816406 5.800781 -12.078125 6.90625 -12.078125 C 8.019531 -12.078125 9.015625 -11.816406 9.890625 -11.296875 C 10.773438 -10.785156 11.46875 -10.070312 11.96875 -9.15625 C 12.46875 -8.238281 12.71875 -7.1875 12.71875 -6 Z M 6.90625 -10.6875 C 5.75 -10.6875 4.78125 -10.316406 4 -9.578125 C 3.21875 -8.847656 2.773438 -7.890625 2.671875 -6.703125 L 11.171875 -6.703125 C 11.066406 -7.890625 10.617188 -8.847656 9.828125 -9.578125 C 9.046875 -10.316406 8.070312 -10.6875 6.90625 -10.6875 Z M 6.90625 -10.6875 "/></g></g></g><g fill="#edeced" fill-opacity="1"><g transform="translate(355.144149, 427.189422)"><g><path d="M 5.46875 0.109375 C 4.5 0.109375 3.566406 -0.03125 2.671875 -0.3125 C 1.785156 -0.59375 1.09375 -0.945312 0.59375 -1.375 L 1.328125 -2.640625 C 1.828125 -2.242188 2.457031 -1.921875 3.21875 -1.671875 C 3.976562 -1.421875 4.765625 -1.296875 5.578125 -1.296875 C 6.679688 -1.296875 7.492188 -1.46875 8.015625 -1.8125 C 8.535156 -2.15625 8.796875 -2.640625 8.796875 -3.265625 C 8.796875 -3.703125 8.648438 -4.046875 8.359375 -4.296875 C 8.078125 -4.546875 7.710938 -4.734375 7.265625 -4.859375 C 6.828125 -4.992188 6.242188 -5.125 5.515625 -5.25 C 4.546875 -5.425781 3.765625 -5.609375 3.171875 -5.796875 C 2.578125 -5.992188 2.070312 -6.316406 1.65625 -6.765625 C 1.238281 -7.222656 1.03125 -7.851562 1.03125 -8.65625 C 1.03125 -9.664062 1.445312 -10.488281 2.28125 -11.125 C 3.113281 -11.757812 4.273438 -12.078125 5.765625 -12.078125 C 6.546875 -12.078125 7.320312 -11.972656 8.09375 -11.765625 C 8.863281 -11.566406 9.503906 -11.300781 10.015625 -10.96875 L 9.296875 -9.671875 C 8.304688 -10.347656 7.128906 -10.6875 5.765625 -10.6875 C 4.734375 -10.6875 3.953125 -10.503906 3.421875 -10.140625 C 2.898438 -9.773438 2.640625 -9.296875 2.640625 -8.703125 C 2.640625 -8.253906 2.785156 -7.890625 3.078125 -7.609375 C 3.378906 -7.335938 3.75 -7.132812 4.1875 -7 C 4.632812 -6.875 5.242188 -6.742188 6.015625 -6.609375 C 6.972656 -6.429688 7.738281 -6.25 8.3125 -6.0625 C 8.894531 -5.882812 9.390625 -5.570312 9.796875 -5.125 C 10.210938 -4.6875 10.421875 -4.082031 10.421875 -3.3125 C 10.421875 -2.257812 9.984375 -1.425781 9.109375 -0.8125 C 8.234375 -0.195312 7.019531 0.109375 5.46875 0.109375 Z M 5.46875 0.109375 "/></g></g></g><g fill="#edeced" fill-opacity="1"><g transform="translate(366.284182, 427.189422)"><g/></g></g><g fill="#edeced" fill-opacity="1"><g transform="translate(372.25287, 427.189422)"><g><path d="M 12.703125 -5.5 L 2.671875 -5.5 C 2.753906 -4.25 3.226562 -3.238281 4.09375 -2.46875 C 4.96875 -1.707031 6.066406 -1.328125 7.390625 -1.328125 C 8.128906 -1.328125 8.8125 -1.457031 9.4375 -1.71875 C 10.0625 -1.988281 10.601562 -2.378906 11.0625 -2.890625 L 11.96875 -1.84375 C 11.4375 -1.207031 10.769531 -0.722656 9.96875 -0.390625 C 9.175781 -0.0546875 8.300781 0.109375 7.34375 0.109375 C 6.113281 0.109375 5.019531 -0.148438 4.0625 -0.671875 C 3.113281 -1.191406 2.375 -1.914062 1.84375 -2.84375 C 1.3125 -3.769531 1.046875 -4.820312 1.046875 -6 C 1.046875 -7.164062 1.300781 -8.210938 1.8125 -9.140625 C 2.320312 -10.066406 3.019531 -10.785156 3.90625 -11.296875 C 4.800781 -11.816406 5.800781 -12.078125 6.90625 -12.078125 C 8.019531 -12.078125 9.015625 -11.816406 9.890625 -11.296875 C 10.773438 -10.785156 11.46875 -10.070312 11.96875 -9.15625 C 12.46875 -8.238281 12.71875 -7.1875 12.71875 -6 Z M 6.90625 -10.6875 C 5.75 -10.6875 4.78125 -10.316406 4 -9.578125 C 3.21875 -8.847656 2.773438 -7.890625 2.671875 -6.703125 L 11.171875 -6.703125 C 11.066406 -7.890625 10.617188 -8.847656 9.828125 -9.578125 C 9.046875 -10.316406 8.070312 -10.6875 6.90625 -10.6875 Z M 6.90625 -10.6875 "/></g></g></g><g fill="#edeced" fill-opacity="1"><g transform="translate(386.012742, 427.189422)"><g><path d="M 8.578125 -0.734375 C 8.265625 -0.453125 7.882812 -0.238281 7.4375 -0.09375 C 6.988281 0.0390625 6.523438 0.109375 6.046875 0.109375 C 4.921875 0.109375 4.050781 -0.191406 3.4375 -0.796875 C 2.832031 -1.398438 2.53125 -2.257812 2.53125 -3.375 L 2.53125 -10.625 L 0.390625 -10.625 L 0.390625 -11.984375 L 2.53125 -11.984375 L 2.53125 -14.609375 L 4.15625 -14.609375 L 4.15625 -11.984375 L 7.796875 -11.984375 L 7.796875 -10.625 L 4.15625 -10.625 L 4.15625 -3.46875 C 4.15625 -2.75 4.332031 -2.203125 4.6875 -1.828125 C 5.039062 -1.460938 5.550781 -1.28125 6.21875 -1.28125 C 6.550781 -1.28125 6.875 -1.332031 7.1875 -1.4375 C 7.5 -1.539062 7.769531 -1.691406 8 -1.890625 Z M 8.578125 -0.734375 "/></g></g></g><g fill="#edeced" fill-opacity="1"><g transform="translate(395.261926, 427.189422)"><g/></g></g><g fill="#edeced" fill-opacity="1"><g transform="translate(401.230614, 427.189422)"><g><path d="M 8.4375 -12.078125 C 9.5625 -12.078125 10.578125 -11.820312 11.484375 -11.3125 C 12.398438 -10.8125 13.113281 -10.097656 13.625 -9.171875 C 14.144531 -8.242188 14.40625 -7.1875 14.40625 -6 C 14.40625 -4.8125 14.144531 -3.753906 13.625 -2.828125 C 13.113281 -1.898438 12.398438 -1.175781 11.484375 -0.65625 C 10.578125 -0.144531 9.5625 0.109375 8.4375 0.109375 C 7.4375 0.109375 6.535156 -0.0976562 5.734375 -0.515625 C 4.929688 -0.941406 4.289062 -1.5625 3.8125 -2.375 L 3.8125 0 L 2.25 0 L 2.25 -16.921875 L 3.875 -16.921875 L 3.875 -9.71875 C 4.375 -10.488281 5.015625 -11.070312 5.796875 -11.46875 C 6.578125 -11.875 7.457031 -12.078125 8.4375 -12.078125 Z M 8.328125 -1.328125 C 9.160156 -1.328125 9.914062 -1.519531 10.59375 -1.90625 C 11.28125 -2.289062 11.816406 -2.835938 12.203125 -3.546875 C 12.585938 -4.265625 12.78125 -5.082031 12.78125 -6 C 12.78125 -6.90625 12.585938 -7.710938 12.203125 -8.421875 C 11.816406 -9.140625 11.28125 -9.691406 10.59375 -10.078125 C 9.914062 -10.472656 9.160156 -10.671875 8.328125 -10.671875 C 7.472656 -10.671875 6.707031 -10.472656 6.03125 -10.078125 C 5.351562 -9.691406 4.820312 -9.140625 4.4375 -8.421875 C 4.050781 -7.710938 3.859375 -6.90625 3.859375 -6 C 3.859375 -5.082031 4.050781 -4.265625 4.4375 -3.546875 C 4.820312 -2.835938 5.351562 -2.289062 6.03125 -1.90625 C 6.707031 -1.519531 7.472656 -1.328125 8.328125 -1.328125 Z M 8.328125 -1.328125 "/></g></g></g><g fill="#edeced" fill-opacity="1"><g transform="translate(416.676304, 427.189422)"><g><path d="M 2.25 -11.984375 L 3.875 -11.984375 L 3.875 0 L 2.25 0 Z M 3.078125 -14.609375 C 2.742188 -14.609375 2.460938 -14.722656 2.234375 -14.953125 C 2.003906 -15.179688 1.890625 -15.457031 1.890625 -15.78125 C 1.890625 -16.082031 2.003906 -16.347656 2.234375 -16.578125 C 2.460938 -16.804688 2.742188 -16.921875 3.078125 -16.921875 C 3.410156 -16.921875 3.691406 -16.804688 3.921875 -16.578125 C 4.148438 -16.359375 4.265625 -16.097656 4.265625 -15.796875 C 4.265625 -15.460938 4.148438 -15.179688 3.921875 -14.953125 C 3.691406 -14.722656 3.410156 -14.609375 3.078125 -14.609375 Z M 3.078125 -14.609375 "/></g></g></g><g fill="#edeced" fill-opacity="1"><g transform="translate(422.804466, 427.189422)"><g><path d="M 12.703125 -5.5 L 2.671875 -5.5 C 2.753906 -4.25 3.226562 -3.238281 4.09375 -2.46875 C 4.96875 -1.707031 6.066406 -1.328125 7.390625 -1.328125 C 8.128906 -1.328125 8.8125 -1.457031 9.4375 -1.71875 C 10.0625 -1.988281 10.601562 -2.378906 11.0625 -2.890625 L 11.96875 -1.84375 C 11.4375 -1.207031 10.769531 -0.722656 9.96875 -0.390625 C 9.175781 -0.0546875 8.300781 0.109375 7.34375 0.109375 C 6.113281 0.109375 5.019531 -0.148438 4.0625 -0.671875 C 3.113281 -1.191406 2.375 -1.914062 1.84375 -2.84375 C 1.3125 -3.769531 1.046875 -4.820312 1.046875 -6 C 1.046875 -7.164062 1.300781 -8.210938 1.8125 -9.140625 C 2.320312 -10.066406 3.019531 -10.785156 3.90625 -11.296875 C 4.800781 -11.816406 5.800781 -12.078125 6.90625 -12.078125 C 8.019531 -12.078125 9.015625 -11.816406 9.890625 -11.296875 C 10.773438 -10.785156 11.46875 -10.070312 11.96875 -9.15625 C 12.46875 -8.238281 12.71875 -7.1875 12.71875 -6 Z M 6.90625 -10.6875 C 5.75 -10.6875 4.78125 -10.316406 4 -9.578125 C 3.21875 -8.847656 2.773438 -7.890625 2.671875 -6.703125 L 11.171875 -6.703125 C 11.066406 -7.890625 10.617188 -8.847656 9.828125 -9.578125 C 9.046875 -10.316406 8.070312 -10.6875 6.90625 -10.6875 Z M 6.90625 -10.6875 "/></g></g></g><g fill="#edeced" fill-opacity="1"><g transform="translate(436.564338, 427.189422)"><g><path d="M 8.359375 -12.078125 C 9.867188 -12.078125 11.066406 -11.640625 11.953125 -10.765625 C 12.847656 -9.890625 13.296875 -8.617188 13.296875 -6.953125 L 13.296875 0 L 11.671875 0 L 11.671875 -6.796875 C 11.671875 -8.035156 11.359375 -8.984375 10.734375 -9.640625 C 10.109375 -10.296875 9.21875 -10.625 8.0625 -10.625 C 6.769531 -10.625 5.75 -10.238281 5 -9.46875 C 4.25 -8.707031 3.875 -7.648438 3.875 -6.296875 L 3.875 0 L 2.25 0 L 2.25 -11.984375 L 3.8125 -11.984375 L 3.8125 -9.78125 C 4.25 -10.507812 4.859375 -11.070312 5.640625 -11.46875 C 6.421875 -11.875 7.328125 -12.078125 8.359375 -12.078125 Z M 8.359375 -12.078125 "/></g></g></g><g fill="#edeced" fill-opacity="1"><g transform="translate(451.987254, 427.189422)"><g/></g></g><g fill="#edeced" fill-opacity="1"><g transform="translate(457.955943, 427.189422)"><g><path d="M 13.203125 -16.921875 L 13.203125 0 L 11.65625 0 L 11.65625 -2.375 C 11.164062 -1.5625 10.519531 -0.941406 9.71875 -0.515625 C 8.925781 -0.0976562 8.023438 0.109375 7.015625 0.109375 C 5.890625 0.109375 4.867188 -0.144531 3.953125 -0.65625 C 3.046875 -1.175781 2.332031 -1.898438 1.8125 -2.828125 C 1.300781 -3.753906 1.046875 -4.8125 1.046875 -6 C 1.046875 -7.1875 1.300781 -8.242188 1.8125 -9.171875 C 2.332031 -10.097656 3.046875 -10.8125 3.953125 -11.3125 C 4.867188 -11.820312 5.890625 -12.078125 7.015625 -12.078125 C 7.992188 -12.078125 8.875 -11.875 9.65625 -11.46875 C 10.4375 -11.070312 11.078125 -10.488281 11.578125 -9.71875 L 11.578125 -16.921875 Z M 7.15625 -1.328125 C 7.988281 -1.328125 8.742188 -1.519531 9.421875 -1.90625 C 10.097656 -2.289062 10.628906 -2.835938 11.015625 -3.546875 C 11.410156 -4.265625 11.609375 -5.082031 11.609375 -6 C 11.609375 -6.90625 11.410156 -7.710938 11.015625 -8.421875 C 10.628906 -9.140625 10.097656 -9.691406 9.421875 -10.078125 C 8.742188 -10.472656 7.988281 -10.671875 7.15625 -10.671875 C 6.300781 -10.671875 5.535156 -10.472656 4.859375 -10.078125 C 4.191406 -9.691406 3.660156 -9.140625 3.265625 -8.421875 C 2.878906 -7.710938 2.6875 -6.90625 2.6875 -6 C 2.6875 -5.082031 2.878906 -4.265625 3.265625 -3.546875 C 3.660156 -2.835938 4.191406 -2.289062 4.859375 -1.90625 C 5.535156 -1.519531 6.300781 -1.328125 7.15625 -1.328125 Z M 7.15625 -1.328125 "/></g></g></g><g fill="#edeced" fill-opacity="1"><g transform="translate(473.401621, 427.189422)"><g><path d="M 1.578125 -15.953125 L 3.015625 -15.953125 L 2.890625 -9.9375 L 1.6875 -9.9375 Z M 1.578125 -15.953125 "/></g></g></g><g fill="#edeced" fill-opacity="1"><g transform="translate(478.003427, 427.189422)"><g><path d="M 6.453125 -12.078125 C 8.015625 -12.078125 9.210938 -11.6875 10.046875 -10.90625 C 10.890625 -10.125 11.3125 -8.96875 11.3125 -7.4375 L 11.3125 0 L 9.75 0 L 9.75 -1.875 C 9.382812 -1.25 8.847656 -0.757812 8.140625 -0.40625 C 7.441406 -0.0625 6.601562 0.109375 5.625 0.109375 C 4.289062 0.109375 3.226562 -0.207031 2.4375 -0.84375 C 1.644531 -1.476562 1.25 -2.320312 1.25 -3.375 C 1.25 -4.394531 1.617188 -5.210938 2.359375 -5.828125 C 3.097656 -6.453125 4.269531 -6.765625 5.875 -6.765625 L 9.6875 -6.765625 L 9.6875 -7.5 C 9.6875 -8.53125 9.394531 -9.316406 8.8125 -9.859375 C 8.238281 -10.398438 7.398438 -10.671875 6.296875 -10.671875 C 5.535156 -10.671875 4.804688 -10.546875 4.109375 -10.296875 C 3.410156 -10.046875 2.804688 -9.695312 2.296875 -9.25 L 1.578125 -10.46875 C 2.179688 -10.976562 2.90625 -11.375 3.75 -11.65625 C 4.601562 -11.9375 5.503906 -12.078125 6.453125 -12.078125 Z M 5.875 -1.15625 C 6.789062 -1.15625 7.570312 -1.363281 8.21875 -1.78125 C 8.875 -2.207031 9.363281 -2.816406 9.6875 -3.609375 L 9.6875 -5.5625 L 5.921875 -5.5625 C 3.867188 -5.5625 2.84375 -4.847656 2.84375 -3.421875 C 2.84375 -2.722656 3.109375 -2.171875 3.640625 -1.765625 C 4.179688 -1.359375 4.925781 -1.15625 5.875 -1.15625 Z M 5.875 -1.15625 "/></g></g></g><g fill="#edeced" fill-opacity="1"><g transform="translate(491.444375, 427.189422)"><g><path d="M 13.0625 -11.984375 L 13.0625 0 L 11.515625 0 L 11.515625 -2.1875 C 11.085938 -1.457031 10.5 -0.890625 9.75 -0.484375 C 9.007812 -0.0859375 8.160156 0.109375 7.203125 0.109375 C 5.640625 0.109375 4.40625 -0.320312 3.5 -1.1875 C 2.59375 -2.0625 2.140625 -3.34375 2.140625 -5.03125 L 2.140625 -11.984375 L 3.765625 -11.984375 L 3.765625 -5.203125 C 3.765625 -3.941406 4.070312 -2.984375 4.6875 -2.328125 C 5.3125 -1.671875 6.203125 -1.34375 7.359375 -1.34375 C 8.617188 -1.34375 9.613281 -1.722656 10.34375 -2.484375 C 11.070312 -3.253906 11.4375 -4.328125 11.4375 -5.703125 L 11.4375 -11.984375 Z M 13.0625 -11.984375 "/></g></g></g><g fill="#edeced" fill-opacity="1"><g transform="translate(506.776162, 427.189422)"><g><path d="M 8.578125 -0.734375 C 8.265625 -0.453125 7.882812 -0.238281 7.4375 -0.09375 C 6.988281 0.0390625 6.523438 0.109375 6.046875 0.109375 C 4.921875 0.109375 4.050781 -0.191406 3.4375 -0.796875 C 2.832031 -1.398438 2.53125 -2.257812 2.53125 -3.375 L 2.53125 -10.625 L 0.390625 -10.625 L 0.390625 -11.984375 L 2.53125 -11.984375 L 2.53125 -14.609375 L 4.15625 -14.609375 L 4.15625 -11.984375 L 7.796875 -11.984375 L 7.796875 -10.625 L 4.15625 -10.625 L 4.15625 -3.46875 C 4.15625 -2.75 4.332031 -2.203125 4.6875 -1.828125 C 5.039062 -1.460938 5.550781 -1.28125 6.21875 -1.28125 C 6.550781 -1.28125 6.875 -1.332031 7.1875 -1.4375 C 7.5 -1.539062 7.769531 -1.691406 8 -1.890625 Z M 8.578125 -0.734375 "/></g></g></g><g fill="#edeced" fill-opacity="1"><g transform="translate(516.025345, 427.189422)"><g><path d="M 3.8125 -9.640625 C 4.1875 -10.441406 4.75 -11.046875 5.5 -11.453125 C 6.257812 -11.867188 7.191406 -12.078125 8.296875 -12.078125 L 8.296875 -10.515625 L 7.90625 -10.53125 C 6.644531 -10.53125 5.65625 -10.140625 4.9375 -9.359375 C 4.226562 -8.585938 3.875 -7.503906 3.875 -6.109375 L 3.875 0 L 2.25 0 L 2.25 -11.984375 L 3.8125 -11.984375 Z M 3.8125 -9.640625 "/></g></g></g><g fill="#edeced" fill-opacity="1"><g transform="translate(525.160636, 427.189422)"><g><path d="M 12.703125 -5.5 L 2.671875 -5.5 C 2.753906 -4.25 3.226562 -3.238281 4.09375 -2.46875 C 4.96875 -1.707031 6.066406 -1.328125 7.390625 -1.328125 C 8.128906 -1.328125 8.8125 -1.457031 9.4375 -1.71875 C 10.0625 -1.988281 10.601562 -2.378906 11.0625 -2.890625 L 11.96875 -1.84375 C 11.4375 -1.207031 10.769531 -0.722656 9.96875 -0.390625 C 9.175781 -0.0546875 8.300781 0.109375 7.34375 0.109375 C 6.113281 0.109375 5.019531 -0.148438 4.0625 -0.671875 C 3.113281 -1.191406 2.375 -1.914062 1.84375 -2.84375 C 1.3125 -3.769531 1.046875 -4.820312 1.046875 -6 C 1.046875 -7.164062 1.300781 -8.210938 1.8125 -9.140625 C 2.320312 -10.066406 3.019531 -10.785156 3.90625 -11.296875 C 4.800781 -11.816406 5.800781 -12.078125 6.90625 -12.078125 C 8.019531 -12.078125 9.015625 -11.816406 9.890625 -11.296875 C 10.773438 -10.785156 11.46875 -10.070312 11.96875 -9.15625 C 12.46875 -8.238281 12.71875 -7.1875 12.71875 -6 Z M 6.90625 -10.6875 C 5.75 -10.6875 4.78125 -10.316406 4 -9.578125 C 3.21875 -8.847656 2.773438 -7.890625 2.671875 -6.703125 L 11.171875 -6.703125 C 11.066406 -7.890625 10.617188 -8.847656 9.828125 -9.578125 C 9.046875 -10.316406 8.070312 -10.6875 6.90625 -10.6875 Z M 6.90625 -10.6875 "/></g></g></g><g fill="#edeced" fill-opacity="1"><g transform="translate(538.920508, 427.189422)"><g><path d="M 5.46875 0.109375 C 4.5 0.109375 3.566406 -0.03125 2.671875 -0.3125 C 1.785156 -0.59375 1.09375 -0.945312 0.59375 -1.375 L 1.328125 -2.640625 C 1.828125 -2.242188 2.457031 -1.921875 3.21875 -1.671875 C 3.976562 -1.421875 4.765625 -1.296875 5.578125 -1.296875 C 6.679688 -1.296875 7.492188 -1.46875 8.015625 -1.8125 C 8.535156 -2.15625 8.796875 -2.640625 8.796875 -3.265625 C 8.796875 -3.703125 8.648438 -4.046875 8.359375 -4.296875 C 8.078125 -4.546875 7.710938 -4.734375 7.265625 -4.859375 C 6.828125 -4.992188 6.242188 -5.125 5.515625 -5.25 C 4.546875 -5.425781 3.765625 -5.609375 3.171875 -5.796875 C 2.578125 -5.992188 2.070312 -6.316406 1.65625 -6.765625 C 1.238281 -7.222656 1.03125 -7.851562 1.03125 -8.65625 C 1.03125 -9.664062 1.445312 -10.488281 2.28125 -11.125 C 3.113281 -11.757812 4.273438 -12.078125 5.765625 -12.078125 C 6.546875 -12.078125 7.320312 -11.972656 8.09375 -11.765625 C 8.863281 -11.566406 9.503906 -11.300781 10.015625 -10.96875 L 9.296875 -9.671875 C 8.304688 -10.347656 7.128906 -10.6875 5.765625 -10.6875 C 4.734375 -10.6875 3.953125 -10.503906 3.421875 -10.140625 C 2.898438 -9.773438 2.640625 -9.296875 2.640625 -8.703125 C 2.640625 -8.253906 2.785156 -7.890625 3.078125 -7.609375 C 3.378906 -7.335938 3.75 -7.132812 4.1875 -7 C 4.632812 -6.875 5.242188 -6.742188 6.015625 -6.609375 C 6.972656 -6.429688 7.738281 -6.25 8.3125 -6.0625 C 8.894531 -5.882812 9.390625 -5.570312 9.796875 -5.125 C 10.210938 -4.6875 10.421875 -4.082031 10.421875 -3.3125 C 10.421875 -2.257812 9.984375 -1.425781 9.109375 -0.8125 C 8.234375 -0.195312 7.019531 0.109375 5.46875 0.109375 Z M 5.46875 0.109375 "/></g></g></g></svg>