<svg xmlns="http://www.w3.org/2000/svg" xmlns:xlink="http://www.w3.org/1999/xlink" width="1080" zoomAndPan="magnify" viewBox="0 0 810 809.999993" height="1080" preserveAspectRatio="xMidYMid meet" version="1.0"><defs><clipPath id="a900d34355"><path d="M 220.792969 175.125 L 606.457031 175.125 L 606.457031 489.007812 L 220.792969 489.007812 Z M 220.792969 175.125 " clip-rule="nonzero"/></clipPath></defs><path fill="#a5aab4" d="M 441.242188 253.511719 L 447.445312 308.558594 L 441.242188 253.511719 " fill-opacity="1" fill-rule="nonzero"/><g clip-path="url(#a900d34355)"><path fill="#a5aab4" d="M 365.914062 489.007812 L 367.597656 485.226562 C 376.109375 468.382812 376.785156 456.609375 369.628906 449.902344 C 366.253906 447.039062 361.289062 444.648438 354.734375 442.738281 C 313.832031 433.726562 287.167969 425.902344 274.746094 419.269531 C 253.347656 408.28125 239.46875 396.523438 233.109375 384.007812 C 224.988281 372.789062 220.894531 352.398438 220.816406 322.84375 C 221.269531 297.726562 226.9375 272.179688 237.828125 246.203125 C 245.105469 227.070312 263.6875 210.496094 293.578125 196.472656 C 326.511719 182.238281 363.941406 175.160156 405.871094 175.234375 C 501.097656 176.765625 562.894531 200.457031 591.253906 246.308594 C 603.476562 267.933594 608.109375 294.578125 605.148438 326.238281 C 602.183594 358.402344 591.378906 385.664062 572.742188 408.027344 C 568.050781 413.144531 562.925781 417.675781 557.367188 421.613281 C 554.945312 424.144531 545.925781 429.027344 530.308594 436.257812 C 527.230469 437.902344 517.351562 441.191406 500.65625 446.125 C 460.75 455.832031 436 462.527344 426.40625 466.21875 C 415.054688 469.699219 394.886719 477.296875 365.914062 489.007812 " fill-opacity="1" fill-rule="nonzero"/></g><path fill="#161c27" d="M 360.75 221.3125 L 360.675781 221.3125 L 350.449219 240.675781 L 340.367188 221.3125 L 340.257812 221.3125 L 337.125 244.605469 L 337.707031 244.605469 L 340.144531 226.550781 L 349.210938 243.988281 L 349.359375 243.988281 L 358.710938 226.261719 L 360.859375 244.605469 L 363.480469 244.605469 Z M 360.75 221.3125 " fill-opacity="1" fill-rule="nonzero"/><path fill="#161c27" d="M 384.003906 244.605469 L 386.8125 244.605469 L 376.800781 221.3125 L 376.621094 221.3125 L 366.242188 244.605469 L 367.046875 244.605469 L 371.160156 235.433594 L 380.039062 235.433594 Z M 371.414062 234.816406 L 375.671875 225.238281 L 379.785156 234.816406 Z M 371.414062 234.816406 " fill-opacity="1" fill-rule="nonzero"/><path fill="#161c27" d="M 405.988281 221.746094 L 389.316406 221.746094 L 389.316406 222.332031 L 396.34375 222.332031 L 396.34375 244.605469 L 398.964844 244.605469 L 398.964844 222.332031 L 405.988281 222.332031 Z M 405.988281 221.746094 " fill-opacity="1" fill-rule="nonzero"/><path fill="#161c27" d="M 414.796875 219.128906 L 414.289062 219.128906 L 417.015625 213.445312 L 419.421875 213.445312 Z M 420.546875 222.332031 L 420.546875 221.746094 L 408.976562 221.746094 L 408.976562 244.605469 L 420.546875 244.605469 L 420.546875 244.027344 L 411.554688 244.027344 L 411.554688 232.957031 L 419.5625 232.957031 L 419.5625 232.375 L 411.554688 232.375 L 411.554688 222.332031 Z M 420.546875 222.332031 " fill-opacity="1" fill-rule="nonzero"/><path fill="#161c27" d="M 439.875 244.605469 L 431.320312 233.832031 C 434.015625 233.46875 438.09375 232.160156 438.09375 227.464844 C 438.09375 222.4375 432.632812 221.746094 430.777344 221.746094 C 428.992188 221.746094 423.859375 221.746094 423.859375 221.746094 L 423.859375 244.605469 L 426.441406 244.605469 L 426.441406 233.976562 L 428.117188 233.976562 L 436.5625 244.605469 Z M 426.441406 222.332031 L 429.390625 222.332031 C 433.105469 222.332031 435.328125 223.859375 435.328125 227.863281 C 435.328125 231.941406 432.707031 233.394531 428.445312 233.394531 L 426.441406 233.394531 Z M 426.441406 222.332031 " fill-opacity="1" fill-rule="nonzero"/><path fill="#161c27" d="M 443.222656 244.605469 L 445.804688 244.605469 L 445.804688 221.746094 L 443.222656 221.746094 Z M 443.222656 244.605469 " fill-opacity="1" fill-rule="nonzero"/><path fill="#161c27" d="M 461.421875 222.332031 L 461.421875 221.746094 L 449.847656 221.746094 L 449.847656 244.605469 L 461.421875 244.605469 L 461.421875 244.027344 L 452.429688 244.027344 L 452.429688 232.957031 L 460.4375 232.957031 L 460.4375 232.375 L 452.429688 232.375 L 452.429688 222.332031 Z M 461.421875 222.332031 " fill-opacity="1" fill-rule="nonzero"/><path fill="#161c27" d="M 467.316406 244.027344 L 467.316406 221.746094 L 464.734375 221.746094 L 464.734375 244.605469 L 476.417969 244.605469 L 476.417969 244.027344 Z M 467.316406 244.027344 " fill-opacity="1" fill-rule="nonzero"/><path fill="#161c27" d="M 479.109375 242.894531 L 479.109375 243.734375 C 479.109375 243.734375 481.328125 245.515625 485.261719 245.515625 C 489.191406 245.515625 492.941406 242.789062 492.941406 238.746094 C 492.941406 230.59375 481.257812 232.996094 481.257812 226.371094 C 481.257812 223.785156 483.042969 221.675781 486.171875 221.675781 C 489.265625 221.675781 491.265625 223.167969 491.265625 223.167969 L 491.230469 222.402344 C 491.230469 222.402344 489.046875 221.058594 486.136719 221.058594 C 483.257812 221.058594 479.21875 222.800781 479.21875 227.351562 C 479.21875 235.503906 490.867188 232.449219 490.867188 239.65625 C 490.867188 243.1875 488.175781 244.933594 485.261719 244.933594 C 482.132812 244.933594 480.382812 243.878906 479.109375 242.894531 Z M 479.109375 242.894531 " fill-opacity="1" fill-rule="nonzero"/><path fill="#161c27" d="M 267.859375 291.109375 L 259.476562 291.109375 L 257.667969 295.128906 L 256.015625 295.128906 L 262.894531 280.09375 L 264.457031 280.09375 L 271.335938 295.128906 L 269.65625 295.128906 Z M 267.269531 289.828125 L 263.660156 281.742188 L 260.050781 289.828125 Z M 267.269531 289.828125 " fill-opacity="1" fill-rule="nonzero"/><path fill="#161c27" d="M 279.324219 283.746094 C 280.382812 283.746094 281.339844 283.988281 282.195312 284.464844 C 283.054688 284.9375 283.730469 285.609375 284.210938 286.484375 C 284.703125 287.359375 284.949219 288.355469 284.949219 289.472656 C 284.949219 290.613281 284.703125 291.621094 284.210938 292.492188 C 283.730469 293.371094 283.0625 294.046875 282.210938 294.523438 C 281.355469 294.996094 280.390625 295.230469 279.324219 295.230469 C 278.398438 295.230469 277.570312 295.046875 276.832031 294.671875 C 276.097656 294.289062 275.492188 293.738281 275.023438 293.007812 L 275.023438 299.296875 L 273.488281 299.296875 L 273.488281 283.832031 L 274.960938 283.832031 L 274.960938 286.058594 C 275.410156 285.3125 276.015625 284.742188 276.773438 284.347656 C 277.527344 283.945312 278.378906 283.746094 279.324219 283.746094 Z M 279.21875 293.878906 C 280.003906 293.878906 280.714844 293.695312 281.355469 293.332031 C 282.003906 292.972656 282.507812 292.457031 282.871094 291.785156 C 283.234375 291.109375 283.417969 290.339844 283.417969 289.472656 C 283.417969 288.621094 283.234375 287.859375 282.871094 287.191406 C 282.507812 286.523438 282.003906 286.003906 281.355469 285.628906 C 280.714844 285.257812 280.003906 285.070312 279.21875 285.070312 C 278.414062 285.070312 277.691406 285.257812 277.054688 285.628906 C 276.414062 286.003906 275.914062 286.523438 275.550781 287.191406 C 275.1875 287.859375 275.007812 288.621094 275.007812 289.472656 C 275.007812 290.339844 275.1875 291.109375 275.550781 291.785156 C 275.914062 292.457031 276.414062 292.972656 277.054688 293.332031 C 277.691406 293.695312 278.414062 293.878906 279.21875 293.878906 Z M 279.21875 293.878906 " fill-opacity="1" fill-rule="nonzero"/><path fill="#161c27" d="M 293.882812 283.746094 C 294.941406 283.746094 295.898438 283.988281 296.753906 284.464844 C 297.613281 284.9375 298.289062 285.609375 298.769531 286.484375 C 299.261719 287.359375 299.507812 288.355469 299.507812 289.472656 C 299.507812 290.613281 299.261719 291.621094 298.769531 292.492188 C 298.289062 293.371094 297.621094 294.046875 296.769531 294.523438 C 295.914062 294.996094 294.949219 295.230469 293.882812 295.230469 C 292.957031 295.230469 292.128906 295.046875 291.394531 294.671875 C 290.65625 294.289062 290.050781 293.738281 289.582031 293.007812 L 289.582031 299.296875 L 288.050781 299.296875 L 288.050781 283.832031 L 289.523438 283.832031 L 289.523438 286.058594 C 289.972656 285.3125 290.574219 284.742188 291.332031 284.347656 C 292.089844 283.945312 292.9375 283.746094 293.882812 283.746094 Z M 293.777344 293.878906 C 294.5625 293.878906 295.273438 293.695312 295.914062 293.332031 C 296.5625 292.972656 297.066406 292.457031 297.429688 291.785156 C 297.792969 291.109375 297.976562 290.339844 297.976562 289.472656 C 297.976562 288.621094 297.792969 287.859375 297.429688 287.191406 C 297.066406 286.523438 296.5625 286.003906 295.914062 285.628906 C 295.273438 285.257812 294.5625 285.070312 293.777344 285.070312 C 292.972656 285.070312 292.25 285.257812 291.613281 285.628906 C 290.972656 286.003906 290.472656 286.523438 290.109375 287.191406 C 289.746094 287.859375 289.566406 288.621094 289.566406 289.472656 C 289.566406 290.339844 289.746094 291.109375 290.109375 291.785156 C 290.472656 292.457031 290.972656 292.972656 291.613281 293.332031 C 292.25 293.695312 292.972656 293.878906 293.777344 293.878906 Z M 293.777344 293.878906 " fill-opacity="1" fill-rule="nonzero"/><path fill="#161c27" d="M 306.570312 283.746094 C 308.042969 283.746094 309.167969 284.113281 309.957031 284.847656 C 310.753906 285.585938 311.148438 286.675781 311.148438 288.117188 L 311.148438 295.128906 L 309.675781 295.128906 L 309.675781 293.363281 C 309.332031 293.949219 308.828125 294.414062 308.160156 294.746094 C 307.5 295.070312 306.710938 295.230469 305.789062 295.230469 C 304.53125 295.230469 303.527344 294.933594 302.785156 294.332031 C 302.035156 293.738281 301.664062 292.941406 301.664062 291.949219 C 301.664062 290.988281 302.011719 290.21875 302.710938 289.636719 C 303.40625 289.046875 304.511719 288.75 306.023438 288.75 L 309.617188 288.75 L 309.617188 288.058594 C 309.617188 287.085938 309.34375 286.347656 308.792969 285.835938 C 308.253906 285.328125 307.460938 285.070312 306.421875 285.070312 C 305.703125 285.070312 305.015625 285.1875 304.359375 285.421875 C 303.703125 285.660156 303.128906 285.992188 302.652344 286.410156 L 301.972656 285.261719 C 302.542969 284.78125 303.226562 284.40625 304.023438 284.140625 C 304.824219 283.878906 305.675781 283.746094 306.570312 283.746094 Z M 306.023438 294.039062 C 306.886719 294.039062 307.621094 293.84375 308.234375 293.449219 C 308.851562 293.050781 309.3125 292.472656 309.617188 291.726562 L 309.617188 289.886719 L 306.070312 289.886719 C 304.132812 289.886719 303.167969 290.558594 303.167969 291.902344 C 303.167969 292.5625 303.417969 293.082031 303.917969 293.464844 C 304.425781 293.847656 305.128906 294.039062 306.023438 294.039062 Z M 306.023438 294.039062 " fill-opacity="1" fill-rule="nonzero"/><path fill="#161c27" d="M 316.75 286.042969 C 317.101562 285.289062 317.632812 284.714844 318.339844 284.332031 C 319.054688 283.941406 319.933594 283.746094 320.976562 283.746094 L 320.976562 285.21875 L 320.609375 285.203125 C 319.417969 285.203125 318.488281 285.570312 317.808594 286.308594 C 317.140625 287.035156 316.808594 288.054688 316.808594 289.371094 L 316.808594 295.128906 L 315.277344 295.128906 L 315.277344 283.832031 L 316.75 283.832031 Z M 316.75 286.042969 " fill-opacity="1" fill-rule="nonzero"/><path fill="#161c27" d="M 333.742188 289.945312 L 324.285156 289.945312 C 324.363281 291.125 324.808594 292.078125 325.625 292.800781 C 326.449219 293.519531 327.484375 293.878906 328.734375 293.878906 C 329.429688 293.878906 330.074219 293.753906 330.664062 293.507812 C 331.25 293.253906 331.757812 292.886719 332.195312 292.40625 L 333.046875 293.390625 C 332.546875 293.992188 331.917969 294.449219 331.164062 294.761719 C 330.414062 295.078125 329.589844 295.230469 328.6875 295.230469 C 327.527344 295.230469 326.5 294.988281 325.597656 294.496094 C 324.703125 294.007812 324.003906 293.324219 323.503906 292.449219 C 323.003906 291.574219 322.753906 290.585938 322.753906 289.472656 C 322.753906 288.375 322.992188 287.390625 323.476562 286.511719 C 323.953125 285.640625 324.613281 284.964844 325.449219 284.480469 C 326.292969 283.992188 327.234375 283.746094 328.277344 283.746094 C 329.324219 283.746094 330.265625 283.992188 331.089844 284.480469 C 331.921875 284.964844 332.578125 285.636719 333.046875 286.5 C 333.519531 287.363281 333.753906 288.355469 333.753906 289.472656 Z M 328.277344 285.054688 C 327.1875 285.054688 326.273438 285.40625 325.539062 286.101562 C 324.800781 286.789062 324.382812 287.691406 324.285156 288.8125 L 332.296875 288.8125 C 332.199219 287.691406 331.773438 286.789062 331.03125 286.101562 C 330.292969 285.40625 329.375 285.054688 328.277344 285.054688 Z M 328.277344 285.054688 " fill-opacity="1" fill-rule="nonzero"/><path fill="#161c27" d="M 336.859375 283.832031 L 338.390625 283.832031 L 338.390625 295.128906 L 336.859375 295.128906 Z M 337.636719 281.359375 C 337.320312 281.359375 337.054688 281.25 336.84375 281.035156 C 336.625 280.820312 336.519531 280.558594 336.519531 280.253906 C 336.519531 279.96875 336.625 279.71875 336.84375 279.503906 C 337.054688 279.289062 337.320312 279.179688 337.636719 279.179688 C 337.953125 279.179688 338.214844 279.289062 338.433594 279.503906 C 338.648438 279.707031 338.757812 279.957031 338.757812 280.238281 C 338.757812 280.554688 338.648438 280.820312 338.433594 281.035156 C 338.214844 281.25 337.953125 281.359375 337.636719 281.359375 Z M 337.636719 281.359375 " fill-opacity="1" fill-rule="nonzero"/><path fill="#161c27" d="M 342.636719 279.179688 L 344.167969 279.179688 L 344.167969 295.128906 L 342.636719 295.128906 Z M 342.636719 279.179688 " fill-opacity="1" fill-rule="nonzero"/><path fill="#161c27" d="M 354.199219 286.070312 C 353.882812 286.070312 353.613281 285.960938 353.390625 285.734375 C 353.160156 285.507812 353.050781 285.226562 353.050781 284.894531 C 353.050781 284.5625 353.160156 284.285156 353.390625 284.070312 C 353.613281 283.84375 353.882812 283.730469 354.199219 283.730469 C 354.511719 283.730469 354.78125 283.84375 355.007812 284.070312 C 355.234375 284.285156 355.347656 284.5625 355.347656 284.894531 C 355.347656 285.226562 355.234375 285.507812 355.007812 285.734375 C 354.78125 285.960938 354.511719 286.070312 354.199219 286.070312 Z M 354.199219 295.230469 C 353.882812 295.230469 353.613281 295.121094 353.390625 294.894531 C 353.160156 294.667969 353.050781 294.390625 353.050781 294.054688 C 353.050781 293.722656 353.160156 293.445312 353.390625 293.230469 C 353.613281 293.003906 353.882812 292.890625 354.199219 292.890625 C 354.511719 292.890625 354.78125 293.003906 355.007812 293.230469 C 355.234375 293.445312 355.347656 293.722656 355.347656 294.054688 C 355.347656 294.390625 355.234375 294.667969 355.007812 294.894531 C 354.78125 295.121094 354.511719 295.230469 354.199219 295.230469 Z M 354.199219 295.230469 " fill-opacity="1" fill-rule="nonzero"/><path fill="#161c27" d="M 370.179688 280.09375 C 372.09375 280.09375 373.597656 280.546875 374.6875 281.460938 C 375.777344 282.375 376.320312 283.636719 376.320312 285.246094 C 376.320312 286.847656 375.777344 288.105469 374.6875 289.015625 C 373.597656 289.929688 372.09375 290.386719 370.179688 290.386719 L 366.128906 290.386719 L 366.128906 295.128906 L 364.539062 295.128906 L 364.539062 280.09375 Z M 370.136719 288.988281 C 371.617188 288.988281 372.75 288.664062 373.539062 288.015625 C 374.332031 287.359375 374.730469 286.4375 374.730469 285.246094 C 374.730469 284.03125 374.332031 283.097656 373.539062 282.449219 C 372.75 281.792969 371.617188 281.460938 370.136719 281.460938 L 366.128906 281.460938 L 366.128906 288.988281 Z M 370.136719 288.988281 " fill-opacity="1" fill-rule="nonzero"/><path fill="#161c27" d="M 383.59375 283.746094 C 385.066406 283.746094 386.195312 284.113281 386.980469 284.847656 C 387.777344 285.585938 388.175781 286.675781 388.175781 288.117188 L 388.175781 295.128906 L 386.703125 295.128906 L 386.703125 293.363281 C 386.355469 293.949219 385.851562 294.414062 385.183594 294.746094 C 384.527344 295.070312 383.734375 295.230469 382.8125 295.230469 C 381.554688 295.230469 380.554688 294.933594 379.808594 294.332031 C 379.0625 293.738281 378.691406 292.941406 378.691406 291.949219 C 378.691406 290.988281 379.035156 290.21875 379.734375 289.636719 C 380.429688 289.046875 381.535156 288.75 383.050781 288.75 L 386.644531 288.75 L 386.644531 288.058594 C 386.644531 287.085938 386.367188 286.347656 385.816406 285.835938 C 385.277344 285.328125 384.484375 285.070312 383.445312 285.070312 C 382.730469 285.070312 382.039062 285.1875 381.386719 285.421875 C 380.726562 285.660156 380.15625 285.992188 379.675781 286.410156 L 379 285.261719 C 379.566406 284.78125 380.25 284.40625 381.046875 284.140625 C 381.847656 283.878906 382.699219 283.746094 383.59375 283.746094 Z M 383.050781 294.039062 C 383.910156 294.039062 384.648438 293.84375 385.257812 293.449219 C 385.878906 293.050781 386.335938 292.472656 386.644531 291.726562 L 386.644531 289.886719 L 383.09375 289.886719 C 381.15625 289.886719 380.191406 290.558594 380.191406 291.902344 C 380.191406 292.5625 380.441406 293.082031 380.941406 293.464844 C 381.453125 293.847656 382.15625 294.039062 383.050781 294.039062 Z M 383.050781 294.039062 " fill-opacity="1" fill-rule="nonzero"/><path fill="#161c27" d="M 398.0625 283.746094 C 399.484375 283.746094 400.613281 284.15625 401.449219 284.980469 C 402.292969 285.804688 402.714844 287.007812 402.714844 288.574219 L 402.714844 295.128906 L 401.183594 295.128906 L 401.183594 288.722656 C 401.183594 287.554688 400.890625 286.660156 400.300781 286.042969 C 399.710938 285.421875 398.871094 285.113281 397.78125 285.113281 C 396.5625 285.113281 395.601562 285.480469 394.894531 286.203125 C 394.1875 286.921875 393.835938 287.917969 393.835938 289.195312 L 393.835938 295.128906 L 392.304688 295.128906 L 392.304688 283.832031 L 393.777344 283.832031 L 393.777344 285.910156 C 394.1875 285.222656 394.761719 284.695312 395.5 284.320312 C 396.234375 283.9375 397.089844 283.746094 398.0625 283.746094 Z M 398.0625 283.746094 " fill-opacity="1" fill-rule="nonzero"/><path fill="#161c27" d="M 410.800781 283.746094 C 412.273438 283.746094 413.402344 284.113281 414.191406 284.847656 C 414.984375 285.585938 415.382812 286.675781 415.382812 288.117188 L 415.382812 295.128906 L 413.910156 295.128906 L 413.910156 293.363281 C 413.5625 293.949219 413.058594 294.414062 412.394531 294.746094 C 411.734375 295.070312 410.941406 295.230469 410.023438 295.230469 C 408.761719 295.230469 407.761719 294.933594 407.015625 294.332031 C 406.269531 293.738281 405.898438 292.941406 405.898438 291.949219 C 405.898438 290.988281 406.242188 290.21875 406.945312 289.636719 C 407.640625 289.046875 408.742188 288.75 410.257812 288.75 L 413.851562 288.75 L 413.851562 288.058594 C 413.851562 287.085938 413.574219 286.347656 413.027344 285.835938 C 412.484375 285.328125 411.695312 285.070312 410.65625 285.070312 C 409.9375 285.070312 409.25 285.1875 408.59375 285.421875 C 407.933594 285.660156 407.363281 285.992188 406.882812 286.410156 L 406.207031 285.261719 C 406.773438 284.78125 407.460938 284.40625 408.253906 284.140625 C 409.058594 283.878906 409.90625 283.746094 410.800781 283.746094 Z M 410.257812 294.039062 C 411.117188 294.039062 411.855469 293.84375 412.464844 293.449219 C 413.085938 293.050781 413.546875 292.472656 413.851562 291.726562 L 413.851562 289.886719 L 410.300781 289.886719 C 408.363281 289.886719 407.398438 290.558594 407.398438 291.902344 C 407.398438 292.5625 407.652344 293.082031 408.152344 293.464844 C 408.660156 293.847656 409.363281 294.039062 410.257812 294.039062 Z M 410.257812 294.039062 " fill-opacity="1" fill-rule="nonzero"/><path fill="#161c27" d="M 422.542969 295.230469 C 421.628906 295.230469 420.75 295.101562 419.90625 294.835938 C 419.070312 294.570312 418.421875 294.238281 417.949219 293.832031 L 418.640625 292.640625 C 419.113281 293.015625 419.703125 293.316406 420.421875 293.554688 C 421.136719 293.789062 421.882812 293.90625 422.648438 293.90625 C 423.683594 293.90625 424.449219 293.746094 424.945312 293.421875 C 425.433594 293.097656 425.679688 292.640625 425.679688 292.050781 C 425.679688 291.636719 425.539062 291.316406 425.269531 291.078125 C 425.003906 290.84375 424.65625 290.667969 424.238281 290.546875 C 423.824219 290.421875 423.273438 290.296875 422.589844 290.179688 C 421.675781 290.015625 420.9375 289.84375 420.378906 289.664062 C 419.820312 289.480469 419.339844 289.175781 418.949219 288.75 C 418.554688 288.320312 418.359375 287.726562 418.359375 286.96875 C 418.359375 286.019531 418.75 285.242188 419.539062 284.644531 C 420.324219 284.046875 421.417969 283.746094 422.824219 283.746094 C 423.558594 283.746094 424.289062 283.84375 425.019531 284.039062 C 425.742188 284.226562 426.347656 284.476562 426.828125 284.789062 L 426.152344 286.011719 C 425.21875 285.375 424.109375 285.054688 422.824219 285.054688 C 421.851562 285.054688 421.113281 285.226562 420.613281 285.570312 C 420.121094 285.917969 419.878906 286.367188 419.878906 286.925781 C 419.878906 287.347656 420.015625 287.691406 420.289062 287.957031 C 420.574219 288.214844 420.921875 288.40625 421.335938 288.53125 C 421.757812 288.648438 422.332031 288.773438 423.058594 288.898438 C 423.960938 289.070312 424.683594 289.238281 425.222656 289.414062 C 425.773438 289.585938 426.242188 289.878906 426.625 290.296875 C 427.015625 290.710938 427.210938 291.28125 427.210938 292.007812 C 427.210938 293 426.800781 293.785156 425.976562 294.363281 C 425.152344 294.945312 424.003906 295.230469 422.542969 295.230469 Z M 422.542969 295.230469 " fill-opacity="1" fill-rule="nonzero"/><path fill="#161c27" d="M 434.636719 295.230469 C 433.546875 295.230469 432.5625 294.988281 431.6875 294.496094 C 430.8125 294.007812 430.128906 293.324219 429.628906 292.449219 C 429.125 291.574219 428.875 290.585938 428.875 289.472656 C 428.875 288.375 429.125 287.390625 429.628906 286.511719 C 430.128906 285.640625 430.8125 284.964844 431.6875 284.480469 C 432.5625 283.992188 433.546875 283.746094 434.636719 283.746094 C 435.726562 283.746094 436.703125 283.992188 437.582031 284.480469 C 438.453125 284.964844 439.132812 285.640625 439.628906 286.511719 C 440.128906 287.390625 440.378906 288.375 440.378906 289.472656 C 440.378906 290.585938 440.128906 291.574219 439.628906 292.449219 C 439.132812 293.324219 438.453125 294.007812 437.582031 294.496094 C 436.703125 294.988281 435.726562 295.230469 434.636719 295.230469 Z M 434.636719 293.878906 C 435.4375 293.878906 436.160156 293.695312 436.800781 293.332031 C 437.4375 292.972656 437.933594 292.457031 438.289062 291.785156 C 438.648438 291.109375 438.832031 290.339844 438.832031 289.472656 C 438.832031 288.621094 438.648438 287.859375 438.289062 287.191406 C 437.933594 286.511719 437.4375 285.992188 436.800781 285.628906 C 436.160156 285.257812 435.4375 285.070312 434.636719 285.070312 C 433.828125 285.070312 433.105469 285.257812 432.46875 285.628906 C 431.839844 285.992188 431.339844 286.511719 430.96875 287.191406 C 430.601562 287.859375 430.421875 288.621094 430.421875 289.472656 C 430.421875 290.339844 430.601562 291.109375 430.96875 291.785156 C 431.339844 292.457031 431.839844 292.972656 432.46875 293.332031 C 433.105469 293.695312 433.828125 293.878906 434.636719 293.878906 Z M 434.636719 293.878906 " fill-opacity="1" fill-rule="nonzero"/><path fill="#161c27" d="M 449.234375 283.746094 C 450.652344 283.746094 451.785156 284.15625 452.621094 284.980469 C 453.464844 285.804688 453.886719 287.007812 453.886719 288.574219 L 453.886719 295.128906 L 452.355469 295.128906 L 452.355469 288.722656 C 452.355469 287.554688 452.0625 286.660156 451.472656 286.042969 C 450.882812 285.421875 450.042969 285.113281 448.953125 285.113281 C 447.734375 285.113281 446.773438 285.480469 446.066406 286.203125 C 445.359375 286.921875 445.007812 287.917969 445.007812 289.195312 L 445.007812 295.128906 L 443.472656 295.128906 L 443.472656 283.832031 L 444.945312 283.832031 L 444.945312 285.910156 C 445.359375 285.222656 445.933594 284.695312 446.671875 284.320312 C 447.40625 283.9375 448.261719 283.746094 449.234375 283.746094 Z M 449.234375 283.746094 " fill-opacity="1" fill-rule="nonzero"/><path fill="#161c27" d="M 458.011719 283.832031 L 459.542969 283.832031 L 459.542969 295.128906 L 458.011719 295.128906 Z M 458.792969 281.359375 C 458.476562 281.359375 458.210938 281.25 457.996094 281.035156 C 457.777344 280.820312 457.671875 280.558594 457.671875 280.253906 C 457.671875 279.96875 457.777344 279.71875 457.996094 279.503906 C 458.210938 279.289062 458.476562 279.179688 458.792969 279.179688 C 459.105469 279.179688 459.371094 279.289062 459.585938 279.503906 C 459.800781 279.707031 459.910156 279.957031 459.910156 280.238281 C 459.910156 280.554688 459.800781 280.820312 459.585938 281.035156 C 459.371094 281.25 459.105469 281.359375 458.792969 281.359375 Z M 458.792969 281.359375 " fill-opacity="1" fill-rule="nonzero"/><path fill="#161c27" d="M 468.484375 295.230469 C 467.367188 295.230469 466.363281 294.992188 465.480469 294.511719 C 464.597656 294.019531 463.90625 293.339844 463.40625 292.464844 C 462.902344 291.578125 462.652344 290.585938 462.652344 289.472656 C 462.652344 288.375 462.902344 287.390625 463.40625 286.511719 C 463.90625 285.640625 464.597656 284.964844 465.480469 284.480469 C 466.363281 283.992188 467.367188 283.746094 468.484375 283.746094 C 469.457031 283.746094 470.328125 283.9375 471.09375 284.320312 C 471.859375 284.695312 472.460938 285.242188 472.902344 285.96875 L 471.769531 286.75 C 471.394531 286.1875 470.917969 285.773438 470.339844 285.496094 C 469.769531 285.214844 469.152344 285.070312 468.484375 285.070312 C 467.660156 285.070312 466.925781 285.257812 466.277344 285.628906 C 465.628906 285.992188 465.117188 286.511719 464.746094 287.191406 C 464.378906 287.859375 464.199219 288.621094 464.199219 289.472656 C 464.199219 290.351562 464.378906 291.121094 464.746094 291.785156 C 465.117188 292.457031 465.628906 292.972656 466.277344 293.332031 C 466.925781 293.695312 467.660156 293.878906 468.484375 293.878906 C 469.152344 293.878906 469.769531 293.746094 470.339844 293.480469 C 470.917969 293.207031 471.394531 292.789062 471.769531 292.226562 L 472.902344 293.007812 C 472.460938 293.738281 471.851562 294.289062 471.078125 294.671875 C 470.300781 295.046875 469.433594 295.230469 468.484375 295.230469 Z M 468.484375 295.230469 " fill-opacity="1" fill-rule="nonzero"/><path fill="#161c27" d="M 481.828125 280.09375 L 487.953125 280.09375 C 489.542969 280.09375 490.949219 280.414062 492.167969 281.050781 C 493.382812 281.691406 494.324219 282.578125 494.992188 283.714844 C 495.671875 284.855469 496.011719 286.152344 496.011719 287.601562 C 496.011719 289.070312 495.671875 290.367188 494.992188 291.507812 C 494.324219 292.648438 493.382812 293.535156 492.167969 294.171875 C 490.949219 294.8125 489.542969 295.128906 487.953125 295.128906 L 481.828125 295.128906 Z M 487.867188 293.757812 C 489.191406 293.757812 490.34375 293.5 491.328125 292.980469 C 492.316406 292.449219 493.082031 291.722656 493.625 290.800781 C 494.171875 289.878906 494.449219 288.8125 494.449219 287.601562 C 494.449219 286.40625 494.171875 285.347656 493.625 284.421875 C 493.082031 283.5 492.316406 282.78125 491.328125 282.257812 C 490.34375 281.726562 489.191406 281.460938 487.867188 281.460938 L 483.417969 281.460938 L 483.417969 293.757812 Z M 487.867188 293.757812 " fill-opacity="1" fill-rule="nonzero"/><path fill="#161c27" d="M 506.101562 295.261719 C 504.609375 295.261719 503.265625 294.933594 502.066406 294.273438 C 500.867188 293.621094 499.933594 292.707031 499.253906 291.535156 C 498.578125 290.367188 498.238281 289.058594 498.238281 287.601562 C 498.238281 286.160156 498.578125 284.855469 499.253906 283.683594 C 499.933594 282.519531 500.875 281.605469 502.082031 280.945312 C 503.289062 280.289062 504.632812 279.960938 506.117188 279.960938 C 507.238281 279.960938 508.269531 280.148438 509.210938 280.519531 C 510.160156 280.894531 510.96875 281.441406 511.625 282.152344 L 510.609375 283.15625 C 509.4375 281.96875 507.960938 281.375 506.164062 281.375 C 504.972656 281.375 503.894531 281.648438 502.921875 282.199219 C 501.949219 282.738281 501.183594 283.488281 500.625 284.4375 C 500.070312 285.378906 499.800781 286.4375 499.800781 287.601562 C 499.800781 288.78125 500.070312 289.847656 500.625 290.800781 C 501.183594 291.742188 501.949219 292.484375 502.921875 293.023438 C 503.894531 293.5625 504.972656 293.832031 506.164062 293.832031 C 507.964844 293.832031 509.449219 293.238281 510.609375 292.035156 L 511.625 293.039062 C 510.96875 293.753906 510.160156 294.304688 509.210938 294.6875 C 508.257812 295.070312 507.222656 295.261719 506.101562 295.261719 Z M 506.101562 295.261719 " fill-opacity="1" fill-rule="nonzero"/><path fill="#161c27" d="M 513.855469 288.632812 L 519.480469 288.632812 L 519.480469 289.972656 L 513.855469 289.972656 Z M 513.855469 288.632812 " fill-opacity="1" fill-rule="nonzero"/><path fill="#161c27" d="M 524.796875 281.460938 L 524.796875 287.367188 L 532.574219 287.367188 L 532.574219 288.75 L 524.796875 288.75 L 524.796875 295.128906 L 523.207031 295.128906 L 523.207031 280.09375 L 533.53125 280.09375 L 533.53125 281.460938 Z M 524.796875 281.460938 " fill-opacity="1" fill-rule="nonzero"/><path fill="#161c27" d="M 547.652344 293.757812 L 547.652344 295.128906 L 535.328125 295.128906 L 535.328125 294.039062 L 545.296875 281.460938 L 535.472656 281.460938 L 535.472656 280.09375 L 547.402344 280.09375 L 547.402344 281.183594 L 537.449219 293.757812 Z M 547.652344 293.757812 " fill-opacity="1" fill-rule="nonzero"/><path fill="#161c27" d="M 558.070312 287.25 C 559.011719 287.566406 559.738281 288.039062 560.25 288.664062 C 560.757812 289.292969 561.015625 290.046875 561.015625 290.933594 C 561.015625 291.808594 560.777344 292.574219 560.308594 293.230469 C 559.835938 293.878906 559.160156 294.378906 558.277344 294.730469 C 557.390625 295.085938 556.351562 295.261719 555.167969 295.261719 C 553.359375 295.261719 551.941406 294.875 550.910156 294.097656 C 549.878906 293.324219 549.363281 292.269531 549.363281 290.933594 C 549.363281 290.039062 549.609375 289.28125 550.101562 288.664062 C 550.601562 288.039062 551.324219 287.566406 552.265625 287.25 C 551.488281 286.949219 550.898438 286.511719 550.5 285.953125 C 550.105469 285.386719 549.910156 284.710938 549.910156 283.9375 C 549.910156 282.722656 550.386719 281.753906 551.339844 281.035156 C 552.289062 280.320312 553.566406 279.960938 555.167969 279.960938 C 556.226562 279.960938 557.15625 280.121094 557.953125 280.445312 C 558.746094 280.769531 559.367188 281.234375 559.808594 281.828125 C 560.25 282.429688 560.46875 283.132812 560.46875 283.9375 C 560.46875 284.710938 560.265625 285.386719 559.851562 285.953125 C 559.4375 286.511719 558.84375 286.949219 558.070312 287.25 Z M 551.457031 283.980469 C 551.457031 284.804688 551.785156 285.464844 552.441406 285.953125 C 553.097656 286.445312 554.007812 286.691406 555.167969 286.691406 C 556.324219 286.691406 557.238281 286.445312 557.90625 285.953125 C 558.574219 285.464844 558.910156 284.8125 558.910156 283.996094 C 558.910156 283.152344 558.5625 282.488281 557.878906 282.007812 C 557.199219 281.515625 556.292969 281.269531 555.167969 281.269531 C 554.019531 281.269531 553.109375 281.515625 552.441406 282.007812 C 551.785156 282.488281 551.457031 283.148438 551.457031 283.980469 Z M 555.167969 293.949219 C 556.5 293.949219 557.542969 293.683594 558.289062 293.140625 C 559.046875 292.59375 559.425781 291.851562 559.425781 290.917969 C 559.425781 289.984375 559.046875 289.253906 558.289062 288.722656 C 557.542969 288.183594 556.5 287.914062 555.167969 287.914062 C 553.851562 287.914062 552.816406 288.183594 552.058594 288.722656 C 551.3125 289.253906 550.941406 289.984375 550.941406 290.917969 C 550.941406 291.859375 551.308594 292.601562 552.046875 293.140625 C 552.789062 293.683594 553.832031 293.949219 555.167969 293.949219 Z M 555.167969 293.949219 " fill-opacity="1" fill-rule="nonzero"/><path fill="#161c27" d="M 573.417969 293.757812 L 573.417969 295.128906 L 562.875 295.128906 L 562.875 294.039062 L 569.117188 287.914062 C 569.914062 287.140625 570.445312 286.46875 570.722656 285.910156 C 571.007812 285.34375 571.148438 284.769531 571.148438 284.1875 C 571.148438 283.300781 570.84375 282.617188 570.238281 282.125 C 569.625 281.625 568.753906 281.375 567.617188 281.375 C 565.855469 281.375 564.492188 281.933594 563.519531 283.050781 L 562.417969 282.109375 C 563.003906 281.425781 563.75 280.894531 564.65625 280.519531 C 565.566406 280.148438 566.597656 279.960938 567.75 279.960938 C 569.28125 279.960938 570.492188 280.324219 571.386719 281.050781 C 572.289062 281.765625 572.742188 282.757812 572.742188 284.023438 C 572.742188 284.789062 572.566406 285.535156 572.226562 286.25 C 571.878906 286.964844 571.226562 287.789062 570.265625 288.722656 L 565.15625 293.757812 Z M 573.417969 293.757812 " fill-opacity="1" fill-rule="nonzero"/><path fill="#161c27" d="M 291.082031 326.476562 C 289.585938 326.476562 288.230469 326.144531 287.015625 325.472656 C 285.808594 324.808594 284.867188 323.894531 284.1875 322.734375 C 283.511719 321.578125 283.171875 320.269531 283.171875 318.816406 C 283.171875 317.371094 283.511719 316.074219 284.1875 314.914062 C 284.867188 313.757812 285.808594 312.84375 287.015625 312.171875 C 288.230469 311.507812 289.585938 311.171875 291.082031 311.171875 C 292.570312 311.171875 293.914062 311.503906 295.101562 312.160156 C 296.296875 312.816406 297.242188 313.730469 297.929688 314.898438 C 298.613281 316.070312 298.960938 317.371094 298.960938 318.816406 C 298.960938 320.269531 298.613281 321.582031 297.929688 322.75 C 297.242188 323.917969 296.296875 324.832031 295.101562 325.488281 C 293.914062 326.148438 292.570312 326.476562 291.082031 326.476562 Z M 291.082031 325.046875 C 292.265625 325.046875 293.335938 324.78125 294.292969 324.25 C 295.253906 323.714844 296.003906 322.964844 296.542969 322.011719 C 297.09375 321.0625 297.371094 319.996094 297.371094 318.816406 C 297.371094 317.648438 297.09375 316.589844 296.542969 315.636719 C 296.003906 314.683594 295.253906 313.9375 294.292969 313.394531 C 293.335938 312.859375 292.265625 312.585938 291.082031 312.585938 C 289.890625 312.585938 288.8125 312.859375 287.839844 313.394531 C 286.875 313.9375 286.117188 314.683594 285.558594 315.636719 C 285.003906 316.589844 284.734375 317.648438 284.734375 318.816406 C 284.734375 319.996094 285.003906 321.0625 285.558594 322.011719 C 286.117188 322.964844 286.875 323.714844 287.839844 324.25 C 288.8125 324.78125 289.890625 325.046875 291.082031 325.046875 Z M 291.082031 325.046875 " fill-opacity="1" fill-rule="nonzero"/><path fill="#161c27" d="M 308.019531 314.957031 C 309.082031 314.957031 310.039062 315.199219 310.894531 315.679688 C 311.753906 316.148438 312.429688 316.824219 312.910156 317.695312 C 313.402344 318.574219 313.648438 319.566406 313.648438 320.6875 C 313.648438 321.804688 313.402344 322.804688 312.910156 323.675781 C 312.429688 324.550781 311.753906 325.234375 310.894531 325.722656 C 310.039062 326.207031 309.082031 326.445312 308.019531 326.445312 C 307.078125 326.445312 306.226562 326.25 305.472656 325.855469 C 304.714844 325.453125 304.109375 324.871094 303.660156 324.101562 L 303.660156 326.34375 L 302.1875 326.34375 L 302.1875 310.390625 L 303.722656 310.390625 L 303.722656 317.179688 C 304.191406 316.457031 304.796875 315.90625 305.53125 315.53125 C 306.269531 315.148438 307.097656 314.957031 308.019531 314.957031 Z M 307.917969 325.089844 C 308.703125 325.089844 309.414062 324.910156 310.054688 324.546875 C 310.703125 324.183594 311.207031 323.667969 311.570312 323 C 311.933594 322.320312 312.117188 321.550781 312.117188 320.6875 C 312.117188 319.832031 311.933594 319.074219 311.570312 318.402344 C 311.207031 317.726562 310.703125 317.207031 310.054688 316.84375 C 309.414062 316.472656 308.703125 316.28125 307.917969 316.28125 C 307.113281 316.28125 306.390625 316.472656 305.753906 316.84375 C 305.113281 317.207031 304.613281 317.726562 304.25 318.402344 C 303.886719 319.074219 303.707031 319.832031 303.707031 320.6875 C 303.707031 321.550781 303.886719 322.320312 304.25 323 C 304.613281 323.667969 305.113281 324.183594 305.753906 324.546875 C 306.390625 324.910156 307.113281 325.089844 307.917969 325.089844 Z M 307.917969 325.089844 " fill-opacity="1" fill-rule="nonzero"/><path fill="#161c27" d="M 315.085938 330.613281 C 314.605469 330.613281 314.152344 330.554688 313.730469 330.4375 C 313.308594 330.320312 312.964844 330.132812 312.699219 329.890625 L 313.226562 328.726562 C 313.671875 329.109375 314.257812 329.300781 314.996094 329.300781 C 315.59375 329.300781 316.054688 329.117188 316.378906 328.757812 C 316.703125 328.402344 316.867188 327.878906 316.867188 327.183594 L 316.867188 315.046875 L 318.382812 315.046875 L 318.382812 327.183594 C 318.382812 328.242188 318.097656 329.074219 317.527344 329.683594 C 316.957031 330.304688 316.144531 330.613281 315.085938 330.613281 Z M 317.632812 312.558594 C 317.316406 312.558594 317.050781 312.449219 316.835938 312.234375 C 316.621094 312.019531 316.511719 311.757812 316.511719 311.453125 C 316.511719 311.167969 316.621094 310.917969 316.835938 310.699219 C 317.050781 310.488281 317.316406 310.378906 317.632812 310.378906 C 317.945312 310.378906 318.210938 310.488281 318.425781 310.699219 C 318.640625 310.90625 318.75 311.152344 318.75 311.4375 C 318.75 311.753906 318.640625 312.019531 318.425781 312.234375 C 318.210938 312.449219 317.945312 312.558594 317.632812 312.558594 Z M 317.632812 312.558594 " fill-opacity="1" fill-rule="nonzero"/><path fill="#161c27" d="M 332.484375 321.15625 L 323.03125 321.15625 C 323.105469 322.335938 323.550781 323.289062 324.371094 324.015625 C 325.195312 324.734375 326.230469 325.089844 327.476562 325.089844 C 328.171875 325.089844 328.816406 324.96875 329.40625 324.722656 C 329.996094 324.46875 330.503906 324.101562 330.9375 323.617188 L 331.792969 324.605469 C 331.292969 325.203125 330.664062 325.660156 329.90625 325.972656 C 329.160156 326.289062 328.335938 326.445312 327.433594 326.445312 C 326.273438 326.445312 325.242188 326.203125 324.339844 325.707031 C 323.445312 325.21875 322.75 324.539062 322.25 323.660156 C 321.75 322.789062 321.496094 321.796875 321.496094 320.6875 C 321.496094 319.589844 321.738281 318.601562 322.21875 317.726562 C 322.699219 316.855469 323.359375 316.175781 324.191406 315.695312 C 325.035156 315.203125 325.980469 314.957031 327.019531 314.957031 C 328.070312 314.957031 329.007812 315.203125 329.835938 315.695312 C 330.667969 316.175781 331.320312 316.851562 331.792969 317.710938 C 332.265625 318.578125 332.5 319.566406 332.5 320.6875 Z M 327.019531 316.269531 C 325.929688 316.269531 325.019531 316.617188 324.28125 317.3125 C 323.546875 318.003906 323.125 318.90625 323.03125 320.023438 L 331.042969 320.023438 C 330.941406 318.90625 330.519531 318.003906 329.773438 317.3125 C 329.039062 316.617188 328.117188 316.269531 327.019531 316.269531 Z M 327.019531 316.269531 " fill-opacity="1" fill-rule="nonzero"/><path fill="#161c27" d="M 340.300781 326.445312 C 339.179688 326.445312 338.179688 326.207031 337.296875 325.722656 C 336.414062 325.234375 335.71875 324.550781 335.21875 323.675781 C 334.71875 322.792969 334.46875 321.796875 334.46875 320.6875 C 334.46875 319.589844 334.71875 318.601562 335.21875 317.726562 C 335.71875 316.855469 336.414062 316.175781 337.296875 315.695312 C 338.179688 315.203125 339.179688 314.957031 340.300781 314.957031 C 341.273438 314.957031 342.140625 315.148438 342.90625 315.53125 C 343.671875 315.90625 344.277344 316.457031 344.71875 317.179688 L 343.585938 317.960938 C 343.210938 317.402344 342.734375 316.984375 342.15625 316.710938 C 341.585938 316.425781 340.96875 316.28125 340.300781 316.28125 C 339.476562 316.28125 338.738281 316.472656 338.089844 316.84375 C 337.441406 317.207031 336.929688 317.726562 336.558594 318.402344 C 336.195312 319.074219 336.015625 319.832031 336.015625 320.6875 C 336.015625 321.5625 336.195312 322.332031 336.558594 323 C 336.929688 323.667969 337.441406 324.183594 338.089844 324.546875 C 338.738281 324.910156 339.476562 325.089844 340.300781 325.089844 C 340.96875 325.089844 341.585938 324.957031 342.15625 324.691406 C 342.734375 324.421875 343.210938 324 343.585938 323.441406 L 344.71875 324.222656 C 344.277344 324.949219 343.664062 325.503906 342.890625 325.886719 C 342.117188 326.261719 341.25 326.445312 340.300781 326.445312 Z M 340.300781 326.445312 " fill-opacity="1" fill-rule="nonzero"/><path fill="#161c27" d="M 353.65625 325.648438 C 353.363281 325.914062 353 326.117188 352.582031 326.253906 C 352.15625 326.378906 351.71875 326.445312 351.269531 326.445312 C 350.210938 326.445312 349.390625 326.160156 348.8125 325.589844 C 348.242188 325.023438 347.957031 324.214844 347.957031 323.160156 L 347.957031 316.328125 L 345.9375 316.328125 L 345.9375 315.046875 L 347.957031 315.046875 L 347.957031 312.570312 L 349.488281 312.570312 L 349.488281 315.046875 L 352.921875 315.046875 L 352.921875 316.328125 L 349.488281 316.328125 L 349.488281 323.074219 C 349.488281 323.75 349.65625 324.265625 349.988281 324.617188 C 350.320312 324.964844 350.804688 325.132812 351.433594 325.132812 C 351.746094 325.132812 352.050781 325.085938 352.347656 324.988281 C 352.640625 324.890625 352.894531 324.746094 353.113281 324.558594 Z M 353.65625 325.648438 " fill-opacity="1" fill-rule="nonzero"/><path fill="#161c27" d="M 356.410156 315.046875 L 357.941406 315.046875 L 357.941406 326.34375 L 356.410156 326.34375 Z M 357.191406 312.570312 C 356.875 312.570312 356.609375 312.464844 356.394531 312.246094 C 356.179688 312.035156 356.070312 311.773438 356.070312 311.46875 C 356.070312 311.183594 356.179688 310.933594 356.394531 310.714844 C 356.609375 310.503906 356.875 310.390625 357.191406 310.390625 C 357.503906 310.390625 357.769531 310.503906 357.984375 310.714844 C 358.199219 310.921875 358.308594 311.167969 358.308594 311.453125 C 358.308594 311.769531 358.199219 312.035156 357.984375 312.246094 C 357.769531 312.464844 357.503906 312.570312 357.191406 312.570312 Z M 357.191406 312.570312 " fill-opacity="1" fill-rule="nonzero"/><path fill="#161c27" d="M 365.925781 311.585938 C 365.269531 311.585938 364.769531 311.769531 364.441406 312.128906 C 364.105469 312.484375 363.9375 313.007812 363.9375 313.707031 L 363.9375 315.046875 L 367.414062 315.046875 L 367.414062 316.328125 L 363.984375 316.328125 L 363.984375 326.34375 L 362.453125 326.34375 L 362.453125 316.328125 L 360.433594 316.328125 L 360.433594 315.046875 L 362.453125 315.046875 L 362.453125 313.648438 C 362.453125 312.617188 362.746094 311.800781 363.335938 311.203125 C 363.929688 310.59375 364.777344 310.289062 365.867188 310.289062 C 366.300781 310.289062 366.710938 310.355469 367.105469 310.480469 C 367.507812 310.597656 367.84375 310.769531 368.121094 310.996094 L 367.605469 312.144531 C 367.164062 311.773438 366.605469 311.585938 365.925781 311.585938 Z M 365.925781 311.585938 " fill-opacity="1" fill-rule="nonzero"/><path fill="#161c27" d="M 369.628906 317.285156 C 369.3125 317.285156 369.042969 317.175781 368.816406 316.945312 C 368.589844 316.722656 368.480469 316.441406 368.480469 316.105469 C 368.480469 315.773438 368.589844 315.5 368.816406 315.28125 C 369.042969 315.058594 369.3125 314.941406 369.628906 314.941406 C 369.941406 314.941406 370.210938 315.058594 370.4375 315.28125 C 370.664062 315.5 370.777344 315.773438 370.777344 316.105469 C 370.777344 316.441406 370.664062 316.722656 370.4375 316.945312 C 370.210938 317.175781 369.941406 317.285156 369.628906 317.285156 Z M 369.628906 326.445312 C 369.3125 326.445312 369.042969 326.335938 368.816406 326.105469 C 368.589844 325.882812 368.480469 325.601562 368.480469 325.265625 C 368.480469 324.9375 368.589844 324.660156 368.816406 324.441406 C 369.042969 324.21875 369.3125 324.101562 369.628906 324.101562 C 369.941406 324.101562 370.210938 324.21875 370.4375 324.441406 C 370.664062 324.660156 370.777344 324.9375 370.777344 325.265625 C 370.777344 325.601562 370.664062 325.882812 370.4375 326.105469 C 370.210938 326.335938 369.941406 326.445312 369.628906 326.445312 Z M 369.628906 326.445312 " fill-opacity="1" fill-rule="nonzero"/><path fill="#161c27" d="M 388.90625 324.972656 L 388.90625 326.34375 L 378.363281 326.34375 L 378.363281 325.253906 L 384.605469 319.125 C 385.402344 318.351562 385.9375 317.683594 386.210938 317.121094 C 386.496094 316.554688 386.640625 315.980469 386.640625 315.398438 C 386.640625 314.515625 386.335938 313.832031 385.726562 313.335938 C 385.117188 312.835938 384.242188 312.585938 383.105469 312.585938 C 381.34375 312.585938 379.984375 313.144531 379.011719 314.265625 L 377.90625 313.324219 C 378.496094 312.636719 379.238281 312.109375 380.144531 311.730469 C 381.058594 311.359375 382.089844 311.171875 383.238281 311.171875 C 384.769531 311.171875 385.980469 311.535156 386.875 312.261719 C 387.777344 312.980469 388.230469 313.96875 388.230469 315.238281 C 388.230469 316.003906 388.058594 316.746094 387.714844 317.460938 C 387.367188 318.179688 386.71875 319.003906 385.757812 319.933594 L 380.644531 324.972656 Z M 388.90625 324.972656 " fill-opacity="1" fill-rule="nonzero"/><path fill="#161c27" d="M 396.832031 326.476562 C 395.675781 326.476562 394.640625 326.164062 393.726562 325.546875 C 392.8125 324.929688 392.097656 324.042969 391.589844 322.894531 C 391.089844 321.738281 390.839844 320.378906 390.839844 318.816406 C 390.839844 317.253906 391.089844 315.898438 391.589844 314.75 C 392.097656 313.59375 392.8125 312.710938 393.726562 312.101562 C 394.640625 311.480469 395.675781 311.171875 396.832031 311.171875 C 397.988281 311.171875 399.019531 311.480469 399.925781 312.101562 C 400.839844 312.710938 401.550781 313.59375 402.0625 314.75 C 402.582031 315.898438 402.84375 317.253906 402.84375 318.816406 C 402.84375 320.378906 402.582031 321.738281 402.0625 322.894531 C 401.550781 324.042969 400.839844 324.929688 399.925781 325.546875 C 399.019531 326.164062 397.988281 326.476562 396.832031 326.476562 Z M 396.832031 325.046875 C 397.707031 325.046875 398.476562 324.808594 399.144531 324.324219 C 399.8125 323.835938 400.328125 323.128906 400.691406 322.203125 C 401.0625 321.273438 401.253906 320.140625 401.253906 318.816406 C 401.253906 317.5 401.0625 316.378906 400.691406 315.445312 C 400.328125 314.511719 399.8125 313.804688 399.144531 313.324219 C 398.476562 312.832031 397.707031 312.585938 396.832031 312.585938 C 395.957031 312.585938 395.1875 312.832031 394.523438 313.324219 C 393.851562 313.804688 393.332031 314.511719 392.960938 315.445312 C 392.585938 316.378906 392.402344 317.5 392.402344 318.816406 C 392.402344 320.140625 392.585938 321.273438 392.960938 322.203125 C 393.332031 323.128906 393.851562 323.835938 394.523438 324.324219 C 395.1875 324.808594 395.957031 325.046875 396.832031 325.046875 Z M 396.832031 325.046875 " fill-opacity="1" fill-rule="nonzero"/><path fill="#161c27" d="M 405.230469 319.847656 L 410.859375 319.847656 L 410.859375 321.1875 L 405.230469 321.1875 Z M 405.230469 319.847656 " fill-opacity="1" fill-rule="nonzero"/><path fill="#161c27" d="M 417.425781 311.304688 L 417.425781 326.34375 L 415.878906 326.34375 L 415.878906 312.675781 L 412.332031 312.675781 L 412.332031 311.304688 Z M 417.425781 311.304688 " fill-opacity="1" fill-rule="nonzero"/><path fill="#161c27" d="M 431.277344 324.972656 L 431.277344 326.34375 L 420.730469 326.34375 L 420.730469 325.253906 L 426.976562 319.125 C 427.769531 318.351562 428.304688 317.683594 428.582031 317.121094 C 428.863281 316.554688 429.007812 315.980469 429.007812 315.398438 C 429.007812 314.515625 428.703125 313.832031 428.09375 313.335938 C 427.484375 312.835938 426.609375 312.585938 425.472656 312.585938 C 423.710938 312.585938 422.351562 313.144531 421.378906 314.265625 L 420.273438 313.324219 C 420.863281 312.636719 421.605469 312.109375 422.511719 311.730469 C 423.425781 311.359375 424.457031 311.171875 425.605469 311.171875 C 427.136719 311.171875 428.347656 311.535156 429.242188 312.261719 C 430.144531 312.980469 430.597656 313.96875 430.597656 315.238281 C 430.597656 316.003906 430.425781 316.746094 430.082031 317.460938 C 429.738281 318.179688 429.085938 319.003906 428.125 319.933594 L 423.011719 324.972656 Z M 431.277344 324.972656 " fill-opacity="1" fill-rule="nonzero"/><path fill="#161c27" d="M 439.203125 326.476562 C 438.042969 326.476562 437.007812 326.164062 436.09375 325.546875 C 435.179688 324.929688 434.464844 324.042969 433.957031 322.894531 C 433.457031 321.738281 433.207031 320.378906 433.207031 318.816406 C 433.207031 317.253906 433.457031 315.898438 433.957031 314.75 C 434.464844 313.59375 435.179688 312.710938 436.09375 312.101562 C 437.007812 311.480469 438.042969 311.171875 439.203125 311.171875 C 440.359375 311.171875 441.386719 311.480469 442.292969 312.101562 C 443.207031 312.710938 443.917969 313.59375 444.429688 314.75 C 444.949219 315.898438 445.210938 317.253906 445.210938 318.816406 C 445.210938 320.378906 444.949219 321.738281 444.429688 322.894531 C 443.917969 324.042969 443.207031 324.929688 442.292969 325.546875 C 441.386719 326.164062 440.359375 326.476562 439.203125 326.476562 Z M 439.203125 325.046875 C 440.074219 325.046875 440.84375 324.808594 441.515625 324.324219 C 442.179688 323.835938 442.695312 323.128906 443.058594 322.203125 C 443.433594 321.273438 443.621094 320.140625 443.621094 318.816406 C 443.621094 317.5 443.433594 316.378906 443.058594 315.445312 C 442.695312 314.511719 442.179688 313.804688 441.515625 313.324219 C 440.84375 312.832031 440.074219 312.585938 439.203125 312.585938 C 438.324219 312.585938 437.554688 312.832031 436.890625 313.324219 C 436.21875 313.804688 435.699219 314.511719 435.328125 315.445312 C 434.953125 316.378906 434.769531 317.5 434.769531 318.816406 C 434.769531 320.140625 434.953125 321.273438 435.328125 322.203125 C 435.699219 323.128906 436.21875 323.835938 436.890625 324.324219 C 437.554688 324.808594 438.324219 325.046875 439.203125 325.046875 Z M 439.203125 325.046875 " fill-opacity="1" fill-rule="nonzero"/><path fill="#161c27" d="M 453.414062 326.476562 C 452.257812 326.476562 451.222656 326.164062 450.308594 325.546875 C 449.394531 324.929688 448.679688 324.042969 448.171875 322.894531 C 447.671875 321.738281 447.421875 320.378906 447.421875 318.816406 C 447.421875 317.253906 447.671875 315.898438 448.171875 314.75 C 448.679688 313.59375 449.394531 312.710938 450.308594 312.101562 C 451.222656 311.480469 452.257812 311.171875 453.414062 311.171875 C 454.570312 311.171875 455.601562 311.480469 456.507812 312.101562 C 457.421875 312.710938 458.132812 313.59375 458.644531 314.75 C 459.164062 315.898438 459.425781 317.253906 459.425781 318.816406 C 459.425781 320.378906 459.164062 321.738281 458.644531 322.894531 C 458.132812 324.042969 457.421875 324.929688 456.507812 325.546875 C 455.601562 326.164062 454.570312 326.476562 453.414062 326.476562 Z M 453.414062 325.046875 C 454.289062 325.046875 455.058594 324.808594 455.726562 324.324219 C 456.394531 323.835938 456.910156 323.128906 457.273438 322.203125 C 457.644531 321.273438 457.835938 320.140625 457.835938 318.816406 C 457.835938 317.5 457.644531 316.378906 457.273438 315.445312 C 456.910156 314.511719 456.394531 313.804688 455.726562 313.324219 C 455.058594 312.832031 454.289062 312.585938 453.414062 312.585938 C 452.539062 312.585938 451.769531 312.832031 451.101562 313.324219 C 450.433594 313.804688 449.914062 314.511719 449.542969 315.445312 C 449.167969 316.378906 448.984375 317.5 448.984375 318.816406 C 448.984375 320.140625 449.167969 321.273438 449.542969 322.203125 C 449.914062 323.128906 450.433594 323.835938 451.101562 324.324219 C 451.769531 324.808594 452.539062 325.046875 453.414062 325.046875 Z M 453.414062 325.046875 " fill-opacity="1" fill-rule="nonzero"/><path fill="#161c27" d="M 470.179688 312.675781 L 470.179688 318.582031 L 477.957031 318.582031 L 477.957031 319.964844 L 470.179688 319.964844 L 470.179688 326.34375 L 468.589844 326.34375 L 468.589844 311.304688 L 478.914062 311.304688 L 478.914062 312.675781 Z M 470.179688 312.675781 " fill-opacity="1" fill-rule="nonzero"/><path fill="#161c27" d="M 491.121094 324.972656 L 491.121094 326.34375 L 480.578125 326.34375 L 480.578125 325.253906 L 486.820312 319.125 C 487.617188 318.351562 488.148438 317.683594 488.425781 317.121094 C 488.710938 316.554688 488.851562 315.980469 488.851562 315.398438 C 488.851562 314.515625 488.546875 313.832031 487.941406 313.335938 C 487.328125 312.835938 486.457031 312.585938 485.320312 312.585938 C 483.558594 312.585938 482.195312 313.144531 481.222656 314.265625 L 480.121094 313.324219 C 480.707031 312.636719 481.453125 312.109375 482.359375 311.730469 C 483.273438 311.359375 484.300781 311.171875 485.453125 311.171875 C 486.984375 311.171875 488.195312 311.535156 489.089844 312.261719 C 489.992188 312.980469 490.445312 313.96875 490.445312 315.238281 C 490.445312 316.003906 490.269531 316.746094 489.929688 317.460938 C 489.582031 318.179688 488.929688 319.003906 487.96875 319.933594 L 482.859375 324.972656 Z M 491.121094 324.972656 " fill-opacity="1" fill-rule="nonzero"/><path fill="#161c27" d="M 494.230469 324.101562 C 494.5625 324.101562 494.835938 324.21875 495.039062 324.441406 C 495.253906 324.660156 495.363281 324.9375 495.363281 325.265625 C 495.363281 325.445312 495.339844 325.632812 495.292969 325.828125 C 495.238281 326.027344 495.164062 326.253906 495.070312 326.519531 L 494.171875 329.480469 L 493.140625 329.480469 L 493.863281 326.355469 C 493.632812 326.289062 493.449219 326.160156 493.304688 325.972656 C 493.164062 325.777344 493.097656 325.542969 493.097656 325.265625 C 493.097656 324.9375 493.203125 324.660156 493.421875 324.441406 C 493.632812 324.21875 493.90625 324.101562 494.230469 324.101562 Z M 494.230469 324.101562 " fill-opacity="1" fill-rule="nonzero"/><path fill="#161c27" d="M 506.222656 318.460938 C 507.164062 318.78125 507.890625 319.25 508.402344 319.875 C 508.910156 320.507812 509.167969 321.261719 509.167969 322.144531 C 509.167969 323.019531 508.929688 323.785156 508.460938 324.441406 C 507.988281 325.089844 507.3125 325.589844 506.425781 325.945312 C 505.542969 326.296875 504.503906 326.476562 503.320312 326.476562 C 501.511719 326.476562 500.09375 326.089844 499.0625 325.3125 C 498.03125 324.539062 497.515625 323.480469 497.515625 322.144531 C 497.515625 321.253906 497.757812 320.496094 498.253906 319.875 C 498.753906 319.25 499.476562 318.78125 500.417969 318.460938 C 499.640625 318.160156 499.050781 317.726562 498.652344 317.167969 C 498.257812 316.597656 498.0625 315.925781 498.0625 315.148438 C 498.0625 313.933594 498.535156 312.964844 499.492188 312.246094 C 500.441406 311.53125 501.71875 311.171875 503.320312 311.171875 C 504.378906 311.171875 505.308594 311.335938 506.101562 311.660156 C 506.898438 311.980469 507.515625 312.445312 507.957031 313.042969 C 508.402344 313.644531 508.621094 314.347656 508.621094 315.148438 C 508.621094 315.925781 508.414062 316.597656 508.003906 317.167969 C 507.589844 317.726562 506.996094 318.160156 506.222656 318.460938 Z M 499.609375 315.191406 C 499.609375 316.019531 499.9375 316.675781 500.59375 317.167969 C 501.25 317.660156 502.160156 317.902344 503.320312 317.902344 C 504.476562 317.902344 505.390625 317.660156 506.058594 317.167969 C 506.726562 316.675781 507.058594 316.023438 507.058594 315.207031 C 507.058594 314.363281 506.714844 313.703125 506.03125 313.21875 C 505.351562 312.730469 504.445312 312.484375 503.320312 312.484375 C 502.171875 312.484375 501.261719 312.730469 500.59375 313.21875 C 499.9375 313.703125 499.609375 314.359375 499.609375 315.191406 Z M 503.320312 325.164062 C 504.652344 325.164062 505.695312 324.894531 506.441406 324.355469 C 507.195312 323.804688 507.574219 323.066406 507.574219 322.128906 C 507.574219 321.199219 507.195312 320.464844 506.441406 319.933594 C 505.695312 319.398438 504.652344 319.125 503.320312 319.125 C 502 319.125 500.964844 319.398438 500.210938 319.933594 C 499.464844 320.464844 499.09375 321.199219 499.09375 322.128906 C 499.09375 323.074219 499.460938 323.816406 500.195312 324.355469 C 500.941406 324.894531 501.984375 325.164062 503.320312 325.164062 Z M 503.320312 325.164062 " fill-opacity="1" fill-rule="nonzero"/><path fill="#161c27" d="M 511.480469 319.847656 L 517.109375 319.847656 L 517.109375 321.1875 L 511.480469 321.1875 Z M 511.480469 319.847656 " fill-opacity="1" fill-rule="nonzero"/><path fill="#161c27" d="M 523.457031 317.460938 C 525.636719 317.460938 527.21875 317.855469 528.210938 318.640625 C 529.214844 319.417969 529.714844 320.507812 529.714844 321.910156 C 529.714844 322.785156 529.507812 323.570312 529.097656 324.265625 C 528.691406 324.953125 528.078125 325.496094 527.253906 325.886719 C 526.4375 326.28125 525.4375 326.476562 524.25 326.476562 C 523.179688 326.476562 522.160156 326.296875 521.1875 325.945312 C 520.222656 325.589844 519.449219 325.121094 518.859375 324.53125 L 519.609375 323.308594 C 520.113281 323.832031 520.765625 324.25 521.585938 324.574219 C 522.410156 324.890625 523.292969 325.046875 524.234375 325.046875 C 525.480469 325.046875 526.445312 324.773438 527.121094 324.222656 C 527.800781 323.660156 528.140625 322.917969 528.140625 321.984375 C 528.140625 320.953125 527.753906 320.171875 526.988281 319.640625 C 526.222656 319.109375 524.933594 318.84375 523.117188 318.84375 L 519.921875 318.84375 L 520.6875 311.304688 L 528.917969 311.304688 L 528.917969 312.675781 L 522.042969 312.675781 L 521.527344 317.460938 Z M 523.457031 317.460938 " fill-opacity="1" fill-rule="nonzero"/><path fill="#161c27" d="M 532.839844 324.101562 C 533.171875 324.101562 533.445312 324.21875 533.652344 324.441406 C 533.863281 324.660156 533.976562 324.9375 533.976562 325.265625 C 533.976562 325.445312 533.949219 325.632812 533.902344 325.828125 C 533.851562 326.027344 533.777344 326.253906 533.679688 326.519531 L 532.78125 329.480469 L 531.75 329.480469 L 532.472656 326.355469 C 532.246094 326.289062 532.058594 326.160156 531.914062 325.972656 C 531.773438 325.777344 531.707031 325.542969 531.707031 325.265625 C 531.707031 324.9375 531.8125 324.660156 532.03125 324.441406 C 532.246094 324.21875 532.515625 324.101562 532.839844 324.101562 Z M 532.839844 324.101562 " fill-opacity="1" fill-rule="nonzero"/><path fill="#161c27" d="M 540.898438 311.171875 C 542.890625 311.171875 544.417969 311.832031 545.480469 313.144531 C 546.539062 314.453125 547.070312 316.304688 547.070312 318.699219 C 547.070312 320.371094 546.777344 321.789062 546.199219 322.953125 C 545.628906 324.113281 544.832031 324.996094 543.800781 325.589844 C 542.769531 326.179688 541.566406 326.476562 540.191406 326.476562 C 538.695312 326.476562 537.511719 326.203125 536.628906 325.648438 L 537.246094 324.414062 C 537.960938 324.882812 538.933594 325.121094 540.160156 325.121094 C 541.828125 325.121094 543.136719 324.597656 544.078125 323.542969 C 545.023438 322.484375 545.492188 320.953125 545.492188 318.949219 C 545.492188 318.578125 545.472656 318.167969 545.433594 317.726562 C 545.058594 318.542969 544.464844 319.175781 543.652344 319.625 C 542.835938 320.078125 541.898438 320.304688 540.839844 320.304688 C 539.84375 320.304688 538.96875 320.121094 538.203125 319.742188 C 537.4375 319.371094 536.835938 318.84375 536.40625 318.167969 C 535.972656 317.492188 535.757812 316.703125 535.757812 315.796875 C 535.757812 314.875 535.980469 314.066406 536.421875 313.367188 C 536.871094 312.660156 537.484375 312.121094 538.261719 311.746094 C 539.046875 311.363281 539.925781 311.171875 540.898438 311.171875 Z M 541.074219 318.992188 C 541.828125 318.992188 542.496094 318.851562 543.078125 318.566406 C 543.65625 318.28125 544.109375 317.886719 544.433594 317.386719 C 544.765625 316.886719 544.933594 316.328125 544.933594 315.707031 C 544.933594 315.128906 544.773438 314.601562 544.460938 314.117188 C 544.15625 313.628906 543.703125 313.234375 543.105469 312.941406 C 542.507812 312.636719 541.789062 312.484375 540.957031 312.484375 C 539.867188 312.484375 538.984375 312.785156 538.304688 313.382812 C 537.628906 313.96875 537.289062 314.761719 537.289062 315.753906 C 537.289062 316.734375 537.628906 317.519531 538.304688 318.109375 C 538.984375 318.699219 539.902344 318.992188 541.074219 318.992188 Z M 541.074219 318.992188 " fill-opacity="1" fill-rule="nonzero"/><path fill="#161c27" d="M 311.386719 342.367188 L 306.101562 342.367188 L 306.101562 340.996094 L 318.265625 340.996094 L 318.265625 342.367188 L 312.976562 342.367188 L 312.976562 356.035156 L 311.386719 356.035156 Z M 311.386719 342.367188 " fill-opacity="1" fill-rule="nonzero"/><path fill="#161c27" d="M 321.929688 346.945312 C 322.285156 346.191406 322.8125 345.621094 323.519531 345.238281 C 324.234375 344.847656 325.117188 344.648438 326.15625 344.648438 L 326.15625 346.121094 L 325.789062 346.105469 C 324.601562 346.105469 323.667969 346.476562 322.992188 347.210938 C 322.320312 347.941406 321.988281 348.960938 321.988281 350.273438 L 321.988281 356.035156 L 320.457031 356.035156 L 320.457031 344.738281 L 321.929688 344.738281 Z M 321.929688 346.945312 " fill-opacity="1" fill-rule="nonzero"/><path fill="#161c27" d="M 338.921875 350.847656 L 329.464844 350.847656 C 329.542969 352.027344 329.988281 352.980469 330.808594 353.707031 C 331.632812 354.425781 332.667969 354.78125 333.914062 354.78125 C 334.609375 354.78125 335.253906 354.660156 335.84375 354.414062 C 336.433594 354.160156 336.941406 353.792969 337.375 353.308594 L 338.230469 354.296875 C 337.730469 354.894531 337.097656 355.351562 336.34375 355.664062 C 335.597656 355.980469 334.773438 356.136719 333.871094 356.136719 C 332.710938 356.136719 331.679688 355.894531 330.777344 355.402344 C 329.882812 354.910156 329.1875 354.230469 328.6875 353.351562 C 328.183594 352.480469 327.933594 351.488281 327.933594 350.378906 C 327.933594 349.28125 328.175781 348.292969 328.65625 347.417969 C 329.136719 346.546875 329.792969 345.867188 330.628906 345.386719 C 331.472656 344.894531 332.417969 344.648438 333.457031 344.648438 C 334.507812 344.648438 335.445312 344.894531 336.269531 345.386719 C 337.101562 345.867188 337.757812 346.542969 338.230469 347.402344 C 338.703125 348.269531 338.9375 349.257812 338.9375 350.378906 Z M 333.457031 345.960938 C 332.367188 345.960938 331.453125 346.308594 330.71875 347.003906 C 329.980469 347.695312 329.5625 348.597656 329.464844 349.714844 L 337.480469 349.714844 C 337.378906 348.597656 336.957031 347.695312 336.210938 347.003906 C 335.476562 346.308594 334.554688 345.960938 333.457031 345.960938 Z M 335.003906 340.304688 L 337.050781 340.304688 L 333.574219 342.96875 L 332.058594 342.96875 Z M 335.003906 340.304688 " fill-opacity="1" fill-rule="nonzero"/><path fill="#161c27" d="M 347.871094 344.648438 C 348.929688 344.648438 349.886719 344.890625 350.742188 345.371094 C 351.605469 345.84375 352.277344 346.515625 352.761719 347.386719 C 353.25 348.265625 353.496094 349.257812 353.496094 350.378906 C 353.496094 351.519531 353.25 352.523438 352.761719 353.398438 C 352.277344 354.273438 351.613281 354.953125 350.757812 355.429688 C 349.902344 355.902344 348.9375 356.136719 347.871094 356.136719 C 346.945312 356.136719 346.117188 355.953125 345.382812 355.578125 C 344.644531 355.195312 344.042969 354.640625 343.570312 353.914062 L 343.570312 360.203125 L 342.039062 360.203125 L 342.039062 344.738281 L 343.511719 344.738281 L 343.511719 346.960938 C 343.960938 346.21875 344.5625 345.648438 345.324219 345.253906 C 346.078125 344.851562 346.929688 344.648438 347.871094 344.648438 Z M 347.765625 354.78125 C 348.550781 354.78125 349.261719 354.601562 349.902344 354.238281 C 350.550781 353.875 351.054688 353.359375 351.421875 352.691406 C 351.78125 352.011719 351.964844 351.242188 351.964844 350.378906 C 351.964844 349.523438 351.78125 348.765625 351.421875 348.09375 C 351.054688 347.429688 350.550781 346.910156 349.902344 346.535156 C 349.261719 346.164062 348.550781 345.972656 347.765625 345.972656 C 346.960938 345.972656 346.238281 346.164062 345.601562 346.535156 C 344.960938 346.910156 344.460938 347.429688 344.101562 348.09375 C 343.734375 348.765625 343.554688 349.523438 343.554688 350.378906 C 343.554688 351.242188 343.734375 352.011719 344.101562 352.691406 C 344.460938 353.359375 344.960938 353.875 345.601562 354.238281 C 346.238281 354.601562 346.960938 354.78125 347.765625 354.78125 Z M 347.765625 354.78125 " fill-opacity="1" fill-rule="nonzero"/><path fill="#161c27" d="M 356.597656 344.738281 L 358.128906 344.738281 L 358.128906 356.035156 L 356.597656 356.035156 Z M 357.378906 342.261719 C 357.0625 342.261719 356.796875 342.15625 356.582031 341.9375 C 356.367188 341.726562 356.257812 341.464844 356.257812 341.160156 C 356.257812 340.875 356.367188 340.625 356.582031 340.40625 C 356.796875 340.195312 357.0625 340.082031 357.378906 340.082031 C 357.691406 340.082031 357.957031 340.195312 358.171875 340.40625 C 358.386719 340.613281 358.496094 340.859375 358.496094 341.144531 C 358.496094 341.460938 358.386719 341.726562 358.171875 341.9375 C 357.957031 342.15625 357.691406 342.261719 357.378906 342.261719 Z M 357.378906 342.261719 " fill-opacity="1" fill-rule="nonzero"/><path fill="#161c27" d="M 372.226562 350.847656 L 362.769531 350.847656 C 362.847656 352.027344 363.292969 352.980469 364.113281 353.707031 C 364.9375 354.425781 365.972656 354.78125 367.21875 354.78125 C 367.914062 354.78125 368.558594 354.660156 369.148438 354.414062 C 369.738281 354.160156 370.246094 353.792969 370.679688 353.308594 L 371.535156 354.296875 C 371.035156 354.894531 370.402344 355.351562 369.648438 355.664062 C 368.902344 355.980469 368.078125 356.136719 367.175781 356.136719 C 366.015625 356.136719 364.984375 355.894531 364.082031 355.402344 C 363.1875 354.910156 362.492188 354.230469 361.992188 353.351562 C 361.488281 352.480469 361.238281 351.488281 361.238281 350.378906 C 361.238281 349.28125 361.480469 348.292969 361.960938 347.417969 C 362.441406 346.546875 363.097656 345.867188 363.933594 345.386719 C 364.777344 344.894531 365.71875 344.648438 366.761719 344.648438 C 367.8125 344.648438 368.75 344.894531 369.574219 345.386719 C 370.40625 345.867188 371.0625 346.542969 371.535156 347.402344 C 372.003906 348.269531 372.242188 349.257812 372.242188 350.378906 Z M 366.761719 345.960938 C 365.671875 345.960938 364.757812 346.308594 364.023438 347.003906 C 363.285156 347.695312 362.867188 348.597656 362.769531 349.714844 L 370.785156 349.714844 C 370.683594 348.597656 370.261719 347.695312 369.515625 347.003906 C 368.78125 346.308594 367.859375 345.960938 366.761719 345.960938 Z M 366.761719 345.960938 " fill-opacity="1" fill-rule="nonzero"/><path fill="#161c27" d="M 385.667969 340.082031 L 385.667969 356.035156 L 384.210938 356.035156 L 384.210938 353.796875 C 383.746094 354.5625 383.136719 355.144531 382.382812 355.546875 C 381.636719 355.941406 380.785156 356.136719 379.835938 356.136719 C 378.773438 356.136719 377.8125 355.898438 376.949219 355.414062 C 376.09375 354.925781 375.421875 354.246094 374.929688 353.367188 C 374.449219 352.496094 374.210938 351.496094 374.210938 350.378906 C 374.210938 349.257812 374.449219 348.265625 374.929688 347.386719 C 375.421875 346.515625 376.09375 345.84375 376.949219 345.371094 C 377.8125 344.890625 378.773438 344.648438 379.835938 344.648438 C 380.757812 344.648438 381.589844 344.839844 382.324219 345.222656 C 383.0625 345.597656 383.664062 346.148438 384.136719 346.871094 L 384.136719 340.082031 Z M 379.96875 354.78125 C 380.753906 354.78125 381.464844 354.601562 382.105469 354.238281 C 382.742188 353.875 383.242188 353.359375 383.605469 352.691406 C 383.976562 352.011719 384.164062 351.242188 384.164062 350.378906 C 384.164062 349.523438 383.976562 348.765625 383.605469 348.09375 C 383.242188 347.417969 382.742188 346.898438 382.105469 346.535156 C 381.464844 346.164062 380.753906 345.972656 379.96875 345.972656 C 379.160156 345.972656 378.441406 346.164062 377.804688 346.535156 C 377.171875 346.898438 376.671875 347.417969 376.300781 348.09375 C 375.9375 348.765625 375.757812 349.523438 375.757812 350.378906 C 375.757812 351.242188 375.9375 352.011719 376.300781 352.691406 C 376.671875 353.359375 377.171875 353.875 377.804688 354.238281 C 378.441406 354.601562 379.160156 354.78125 379.96875 354.78125 Z M 379.96875 354.78125 " fill-opacity="1" fill-rule="nonzero"/><path fill="#161c27" d="M 405.382812 350.847656 L 395.925781 350.847656 C 396.003906 352.027344 396.449219 352.980469 397.265625 353.707031 C 398.09375 354.425781 399.125 354.78125 400.375 354.78125 C 401.070312 354.78125 401.714844 354.660156 402.304688 354.414062 C 402.894531 354.160156 403.402344 353.792969 403.835938 353.308594 L 404.691406 354.296875 C 404.191406 354.894531 403.558594 355.351562 402.804688 355.664062 C 402.058594 355.980469 401.234375 356.136719 400.332031 356.136719 C 399.171875 356.136719 398.140625 355.894531 397.238281 355.402344 C 396.34375 354.910156 395.648438 354.230469 395.144531 353.351562 C 394.644531 352.480469 394.394531 351.488281 394.394531 350.378906 C 394.394531 349.28125 394.632812 348.292969 395.117188 347.417969 C 395.59375 346.546875 396.253906 345.867188 397.089844 345.386719 C 397.933594 344.894531 398.875 344.648438 399.917969 344.648438 C 400.96875 344.648438 401.90625 344.894531 402.730469 345.386719 C 403.5625 345.867188 404.21875 346.542969 404.691406 347.402344 C 405.160156 348.269531 405.398438 349.257812 405.398438 350.378906 Z M 399.917969 345.960938 C 398.828125 345.960938 397.914062 346.308594 397.179688 347.003906 C 396.441406 347.695312 396.023438 348.597656 395.925781 349.714844 L 403.9375 349.714844 C 403.839844 348.597656 403.417969 347.695312 402.671875 347.003906 C 401.9375 346.308594 401.015625 345.960938 399.917969 345.960938 Z M 399.917969 345.960938 " fill-opacity="1" fill-rule="nonzero"/><path fill="#161c27" d="M 414.464844 355.339844 C 414.167969 355.605469 413.808594 355.808594 413.386719 355.945312 C 412.964844 356.070312 412.527344 356.136719 412.078125 356.136719 C 411.015625 356.136719 410.195312 355.851562 409.617188 355.28125 C 409.046875 354.714844 408.761719 353.90625 408.761719 352.851562 L 408.761719 346.019531 L 406.746094 346.019531 L 406.746094 344.738281 L 408.761719 344.738281 L 408.761719 342.261719 L 410.296875 342.261719 L 410.296875 344.738281 L 413.726562 344.738281 L 413.726562 346.019531 L 410.296875 346.019531 L 410.296875 352.765625 C 410.296875 353.441406 410.460938 353.957031 410.796875 354.3125 C 411.128906 354.65625 411.609375 354.824219 412.238281 354.824219 C 412.550781 354.824219 412.859375 354.777344 413.152344 354.679688 C 413.445312 354.582031 413.703125 354.441406 413.917969 354.25 Z M 414.464844 355.339844 " fill-opacity="1" fill-rule="nonzero"/><path fill="#161c27" d="M 422.84375 340.082031 L 424.375 340.082031 L 424.375 356.035156 L 422.84375 356.035156 Z M 422.84375 340.082031 " fill-opacity="1" fill-rule="nonzero"/><path fill="#161c27" d="M 428.617188 344.738281 L 430.152344 344.738281 L 430.152344 356.035156 L 428.617188 356.035156 Z M 429.398438 342.261719 C 429.082031 342.261719 428.816406 342.15625 428.605469 341.9375 C 428.386719 341.726562 428.28125 341.464844 428.28125 341.160156 C 428.28125 340.875 428.386719 340.625 428.605469 340.40625 C 428.816406 340.195312 429.082031 340.082031 429.398438 340.082031 C 429.710938 340.082031 429.976562 340.195312 430.195312 340.40625 C 430.410156 340.613281 430.519531 340.859375 430.519531 341.144531 C 430.519531 341.460938 430.410156 341.726562 430.195312 341.9375 C 429.976562 342.15625 429.710938 342.261719 429.398438 342.261719 Z M 429.398438 342.261719 " fill-opacity="1" fill-rule="nonzero"/><path fill="#161c27" d="M 444.867188 344.738281 L 444.867188 354.664062 C 444.867188 356.578125 444.398438 357.996094 443.453125 358.921875 C 442.519531 359.839844 441.105469 360.304688 439.210938 360.304688 C 438.171875 360.304688 437.179688 360.148438 436.238281 359.847656 C 435.300781 359.542969 434.542969 359.117188 433.953125 358.566406 L 434.71875 357.402344 C 435.269531 357.894531 435.933594 358.273438 436.707031 358.539062 C 437.492188 358.808594 438.3125 358.949219 439.167969 358.949219 C 440.601562 358.949219 441.648438 358.613281 442.320312 357.949219 C 442.996094 357.289062 443.335938 356.257812 443.335938 354.855469 L 443.335938 353.414062 C 442.863281 354.128906 442.246094 354.675781 441.480469 355.046875 C 440.714844 355.421875 439.863281 355.605469 438.933594 355.605469 C 437.871094 355.605469 436.90625 355.378906 436.046875 354.914062 C 435.179688 354.441406 434.5 353.792969 434 352.957031 C 433.503906 352.113281 433.261719 351.160156 433.261719 350.097656 C 433.261719 349.039062 433.503906 348.09375 434 347.269531 C 434.5 346.4375 435.175781 345.792969 436.03125 345.339844 C 436.894531 344.882812 437.859375 344.648438 438.933594 344.648438 C 439.894531 344.648438 440.761719 344.847656 441.539062 345.238281 C 442.3125 345.621094 442.9375 346.175781 443.410156 346.902344 L 443.410156 344.738281 Z M 439.09375 354.25 C 439.910156 354.25 440.644531 354.074219 441.304688 353.722656 C 441.960938 353.367188 442.472656 352.878906 442.835938 352.25 C 443.195312 351.621094 443.378906 350.90625 443.378906 350.097656 C 443.378906 349.304688 443.195312 348.597656 442.835938 347.976562 C 442.472656 347.351562 441.960938 346.859375 441.304688 346.503906 C 440.65625 346.152344 439.917969 345.972656 439.09375 345.972656 C 438.269531 345.972656 437.535156 346.148438 436.886719 346.488281 C 436.238281 346.835938 435.726562 347.324219 435.355469 347.960938 C 434.988281 348.59375 434.808594 349.304688 434.808594 350.097656 C 434.808594 350.90625 434.988281 351.621094 435.355469 352.25 C 435.726562 352.878906 436.238281 353.367188 436.886719 353.722656 C 437.535156 354.074219 438.269531 354.25 439.09375 354.25 Z M 439.09375 354.25 " fill-opacity="1" fill-rule="nonzero"/><path fill="#161c27" d="M 454.886719 344.648438 C 456.308594 344.648438 457.4375 345.0625 458.273438 345.886719 C 459.117188 346.710938 459.539062 347.910156 459.539062 349.480469 L 459.539062 356.035156 L 458.007812 356.035156 L 458.007812 349.628906 C 458.007812 348.460938 457.714844 347.566406 457.125 346.945312 C 456.535156 346.328125 455.695312 346.019531 454.605469 346.019531 C 453.386719 346.019531 452.425781 346.382812 451.71875 347.109375 C 451.011719 347.828125 450.660156 348.824219 450.660156 350.097656 L 450.660156 356.035156 L 449.128906 356.035156 L 449.128906 340.082031 L 450.660156 340.082031 L 450.660156 346.710938 C 451.070312 346.054688 451.636719 345.546875 452.367188 345.195312 C 453.105469 344.832031 453.941406 344.648438 454.886719 344.648438 Z M 454.886719 344.648438 " fill-opacity="1" fill-rule="nonzero"/><path fill="#161c27" d="M 469.628906 355.339844 C 469.335938 355.605469 468.972656 355.808594 468.554688 355.945312 C 468.132812 356.070312 467.691406 356.136719 467.242188 356.136719 C 466.183594 356.136719 465.363281 355.851562 464.785156 355.28125 C 464.214844 354.714844 463.929688 353.90625 463.929688 352.851562 L 463.929688 346.019531 L 461.910156 346.019531 L 461.910156 344.738281 L 463.929688 344.738281 L 463.929688 342.261719 L 465.460938 342.261719 L 465.460938 344.738281 L 468.894531 344.738281 L 468.894531 346.019531 L 465.460938 346.019531 L 465.460938 352.765625 C 465.460938 353.441406 465.628906 353.957031 465.960938 354.3125 C 466.292969 354.65625 466.777344 354.824219 467.40625 354.824219 C 467.71875 354.824219 468.023438 354.777344 468.320312 354.679688 C 468.613281 354.582031 468.867188 354.441406 469.085938 354.25 Z M 469.628906 355.339844 " fill-opacity="1" fill-rule="nonzero"/><path fill="#161c27" d="M 488.613281 356.035156 L 485.164062 351.203125 C 484.78125 351.242188 484.386719 351.261719 483.972656 351.261719 L 479.921875 351.261719 L 479.921875 356.035156 L 478.332031 356.035156 L 478.332031 340.996094 L 483.972656 340.996094 C 485.886719 340.996094 487.390625 341.453125 488.480469 342.367188 C 489.570312 343.28125 490.113281 344.542969 490.113281 346.152344 C 490.113281 347.320312 489.8125 348.3125 489.214844 349.125 C 488.628906 349.933594 487.777344 350.519531 486.667969 350.878906 L 490.351562 356.035156 Z M 483.929688 349.90625 C 485.410156 349.90625 486.542969 349.578125 487.332031 348.921875 C 488.125 348.265625 488.523438 347.339844 488.523438 346.152344 C 488.523438 344.9375 488.125 344 487.332031 343.351562 C 486.542969 342.699219 485.410156 342.367188 483.929688 342.367188 L 479.921875 342.367188 L 479.921875 349.90625 Z M 483.929688 349.90625 " fill-opacity="1" fill-rule="nonzero"/><path fill="#161c27" d="M 504.460938 348.507812 L 505.980469 348.507812 L 505.980469 354.25 C 505.277344 354.871094 504.449219 355.347656 503.488281 355.679688 C 502.523438 356.003906 501.515625 356.167969 500.457031 356.167969 C 498.953125 356.167969 497.597656 355.839844 496.390625 355.179688 C 495.191406 354.523438 494.246094 353.609375 493.5625 352.441406 C 492.875 351.273438 492.53125 349.960938 492.53125 348.507812 C 492.53125 347.066406 492.875 345.761719 493.5625 344.589844 C 494.246094 343.421875 495.191406 342.511719 496.390625 341.851562 C 497.597656 341.195312 498.960938 340.863281 500.484375 340.863281 C 501.621094 340.863281 502.671875 341.046875 503.636719 341.410156 C 504.597656 341.773438 505.40625 342.316406 506.066406 343.027344 L 505.082031 344.046875 C 503.890625 342.867188 502.378906 342.277344 500.542969 342.277344 C 499.324219 342.277344 498.222656 342.550781 497.246094 343.089844 C 496.261719 343.628906 495.492188 344.375 494.933594 345.328125 C 494.375 346.28125 494.09375 347.339844 494.09375 348.507812 C 494.09375 349.6875 494.375 350.753906 494.933594 351.703125 C 495.492188 352.644531 496.257812 353.390625 497.230469 353.925781 C 498.210938 354.46875 499.3125 354.738281 500.53125 354.738281 C 502.070312 354.738281 503.378906 354.355469 504.460938 353.589844 Z M 504.460938 348.507812 " fill-opacity="1" fill-rule="nonzero"/><path fill="#161c27" d="M 519.941406 348.273438 C 520.921875 348.488281 521.683594 348.917969 522.222656 349.554688 C 522.761719 350.195312 523.035156 351.011719 523.035156 352.011719 C 523.035156 353.300781 522.554688 354.292969 521.605469 354.988281 C 520.652344 355.6875 519.242188 356.035156 517.378906 356.035156 L 510.457031 356.035156 L 510.457031 340.996094 L 516.953125 340.996094 C 518.628906 340.996094 519.929688 341.335938 520.855469 342.011719 C 521.773438 342.683594 522.238281 343.628906 522.238281 344.855469 C 522.238281 345.691406 522.03125 346.398438 521.621094 346.976562 C 521.214844 347.558594 520.65625 347.988281 519.941406 348.273438 Z M 512.046875 342.308594 L 512.046875 347.757812 L 516.847656 347.757812 C 518.0625 347.757812 519.003906 347.527344 519.660156 347.066406 C 520.316406 346.59375 520.648438 345.914062 520.648438 345.03125 C 520.648438 344.148438 520.316406 343.476562 519.660156 343.015625 C 519.003906 342.542969 518.0625 342.308594 516.847656 342.308594 Z M 517.363281 354.722656 C 518.707031 354.722656 519.722656 354.5 520.414062 354.046875 C 521.097656 353.585938 521.445312 352.863281 521.445312 351.878906 C 521.445312 350.007812 520.082031 349.066406 517.363281 349.066406 L 512.046875 349.066406 L 512.046875 354.722656 Z M 517.363281 354.722656 " fill-opacity="1" fill-rule="nonzero"/></svg>