<svg xmlns="http://www.w3.org/2000/svg" xmlns:xlink="http://www.w3.org/1999/xlink" width="1080" zoomAndPan="magnify" viewBox="0 0 810 809.999993" height="1080" preserveAspectRatio="xMidYMid meet" version="1.0"><defs><g/><clipPath id="faf63e4c8a"><path d="M 198.847656 202.402344 L 608 202.402344 L 608 535.191406 L 198.847656 535.191406 Z M 198.847656 202.402344 " clip-rule="nonzero"/></clipPath></defs><path fill="#a5aab4" d="M 432.722656 452.027344 L 436.011719 422.832031 L 439.300781 393.632812 L 432.722656 452.027344 " fill-opacity="1" fill-rule="nonzero"/><g clip-path="url(#faf63e4c8a)"><path fill="#a5aab4" d="M 352.804688 202.191406 L 354.59375 206.203125 C 363.621094 224.074219 364.339844 236.566406 356.746094 243.679688 C 353.167969 246.714844 347.898438 249.25 340.945312 251.28125 C 297.550781 260.839844 269.265625 269.136719 256.085938 276.179688 C 233.382812 287.835938 218.660156 300.304688 211.914062 313.589844 C 203.296875 325.492188 198.953125 347.117188 198.871094 378.472656 C 199.351562 405.125 205.367188 432.226562 216.917969 459.785156 C 224.640625 480.082031 244.355469 497.667969 276.0625 512.546875 C 311.003906 527.644531 350.714844 535.15625 395.195312 535.078125 C 496.222656 533.453125 561.78125 508.316406 591.871094 459.667969 C 604.835938 436.730469 609.75 408.464844 606.609375 374.875 C 603.464844 340.753906 592.003906 311.832031 572.230469 288.101562 C 567.253906 282.671875 561.816406 277.871094 555.917969 273.6875 C 553.351562 271.007812 543.78125 265.828125 527.210938 258.15625 C 523.949219 256.410156 513.464844 252.917969 495.753906 247.683594 C 453.417969 237.386719 427.160156 230.285156 416.984375 226.371094 C 404.9375 222.675781 383.542969 214.613281 352.804688 202.191406 " fill-opacity="1" fill-rule="nonzero"/></g><g fill="#161c27" fill-opacity="1"><g transform="translate(322.742081, 323.868081)"><g><path d="M 19.675781 0.0390625 L 22.570312 0.0390625 L 12.226562 -24.039062 L 12.039062 -24.039062 L 1.316406 0.0390625 L 2.144531 0.0390625 L 6.394531 -9.441406 L 15.574219 -9.441406 Z M 6.660156 -10.082031 L 11.058594 -19.976562 L 15.3125 -10.082031 Z M 6.660156 -10.082031 "/></g></g></g><g fill="#161c27" fill-opacity="1"><g transform="translate(346.666663, 323.868081)"><g/></g></g><g fill="#161c27" fill-opacity="1"><g transform="translate(356.070983, 323.868081)"><g><path d="M 8.953125 -23.585938 C 7.109375 -23.585938 1.804688 -23.585938 1.804688 -23.585938 L 1.804688 0.0390625 L 4.476562 0.0390625 L 4.476562 -10.949219 L 7.183594 -10.949219 C 8.3125 -10.949219 16.515625 -10.910156 16.515625 -17.679688 C 16.515625 -22.871094 10.871094 -23.585938 8.953125 -23.585938 Z M 6.546875 -11.550781 L 4.476562 -11.550781 L 4.476562 -22.984375 L 7.523438 -22.984375 C 11.359375 -22.984375 13.65625 -21.40625 13.65625 -17.269531 C 13.65625 -13.054688 10.949219 -11.550781 6.546875 -11.550781 Z M 6.546875 -11.550781 "/></g></g></g><g fill="#161c27" fill-opacity="1"><g transform="translate(374.164892, 323.868081)"><g><path d="M 18.359375 0.0390625 L 9.519531 -11.097656 C 12.300781 -11.472656 16.515625 -12.828125 16.515625 -17.679688 C 16.515625 -22.871094 10.871094 -23.585938 8.953125 -23.585938 C 7.109375 -23.585938 1.804688 -23.585938 1.804688 -23.585938 L 1.804688 0.0390625 L 4.476562 0.0390625 L 4.476562 -10.949219 L 6.207031 -10.949219 L 14.933594 0.0390625 Z M 4.476562 -22.984375 L 7.523438 -22.984375 C 11.359375 -22.984375 13.65625 -21.40625 13.65625 -17.269531 C 13.65625 -13.054688 10.949219 -11.550781 6.546875 -11.550781 L 4.476562 -11.550781 Z M 4.476562 -22.984375 "/></g></g></g><g fill="#161c27" fill-opacity="1"><g transform="translate(393.801099, 323.868081)"><g><path d="M 14.445312 -24.039062 C 7.675781 -24.039062 1.503906 -20.425781 1.503906 -11.699219 C 1.503906 -1.65625 9.707031 0.714844 14.445312 0.714844 C 19.148438 0.714844 27.386719 -1.65625 27.386719 -11.699219 C 27.386719 -20.425781 21.179688 -24.039062 14.445312 -24.039062 Z M 14.445312 0.0742188 C 10.195312 0.0742188 4.25 -1.804688 4.25 -11.699219 C 4.25 -21.445312 10.796875 -23.4375 14.445312 -23.4375 C 18.09375 -23.4375 24.640625 -21.445312 24.640625 -11.699219 C 24.640625 -1.804688 18.660156 0.0742188 14.445312 0.0742188 Z M 14.445312 0.0742188 "/></g></g></g><g fill="#161c27" fill-opacity="1"><g transform="translate(422.916858, 323.868081)"><g><path d="M 8.953125 -23.585938 C 7.109375 -23.585938 1.804688 -23.585938 1.804688 -23.585938 L 1.804688 0.0390625 L 4.476562 0.0390625 L 4.476562 -10.949219 L 7.183594 -10.949219 C 8.3125 -10.949219 16.515625 -10.910156 16.515625 -17.679688 C 16.515625 -22.871094 10.871094 -23.585938 8.953125 -23.585938 Z M 6.546875 -11.550781 L 4.476562 -11.550781 L 4.476562 -22.984375 L 7.523438 -22.984375 C 11.359375 -22.984375 13.65625 -21.40625 13.65625 -17.269531 C 13.65625 -13.054688 10.949219 -11.550781 6.546875 -11.550781 Z M 6.546875 -11.550781 "/></g></g></g><g fill="#161c27" fill-opacity="1"><g transform="translate(441.010767, 323.868081)"><g><path d="M 14.445312 -24.039062 C 7.675781 -24.039062 1.503906 -20.425781 1.503906 -11.699219 C 1.503906 -1.65625 9.707031 0.714844 14.445312 0.714844 C 19.148438 0.714844 27.386719 -1.65625 27.386719 -11.699219 C 27.386719 -20.425781 21.179688 -24.039062 14.445312 -24.039062 Z M 14.445312 0.0742188 C 10.195312 0.0742188 4.25 -1.804688 4.25 -11.699219 C 4.25 -21.445312 10.796875 -23.4375 14.445312 -23.4375 C 18.09375 -23.4375 24.640625 -21.445312 24.640625 -11.699219 C 24.640625 -1.804688 18.660156 0.0742188 14.445312 0.0742188 Z M 14.445312 0.0742188 "/></g></g></g><g fill="#161c27" fill-opacity="1"><g transform="translate(470.126526, 323.868081)"><g><path d="M 1.316406 -1.730469 L 1.316406 -0.867188 C 1.316406 -0.867188 3.613281 0.976562 7.675781 0.976562 C 11.738281 0.976562 15.613281 -1.84375 15.613281 -6.019531 C 15.613281 -14.445312 3.535156 -11.964844 3.535156 -18.808594 C 3.535156 -21.480469 5.378906 -23.664062 8.613281 -23.664062 C 11.8125 -23.664062 13.882812 -22.121094 13.882812 -22.121094 L 13.84375 -22.910156 C 13.84375 -22.910156 11.585938 -24.300781 8.578125 -24.300781 C 5.605469 -24.300781 1.429688 -22.496094 1.429688 -17.792969 C 1.429688 -9.367188 13.46875 -12.527344 13.46875 -5.078125 C 13.46875 -1.429688 10.683594 0.375 7.675781 0.375 C 4.4375 0.375 2.632812 -0.714844 1.316406 -1.730469 Z M 1.316406 -1.730469 "/></g></g></g><g fill="#161c27" fill-opacity="1"><g transform="translate(265.507709, 381.750001)"><g><path d="M 8.203125 -15.265625 C 10.140625 -15.265625 11.660156 -14.796875 12.765625 -13.859375 C 13.867188 -12.929688 14.421875 -11.65625 14.421875 -10.03125 C 14.421875 -8.394531 13.867188 -7.113281 12.765625 -6.1875 C 11.660156 -5.269531 10.140625 -4.8125 8.203125 -4.8125 L 4.09375 -4.8125 L 4.09375 0 L 2.484375 0 L 2.484375 -15.265625 Z M 8.15625 -6.234375 C 9.664062 -6.234375 10.816406 -6.5625 11.609375 -7.21875 C 12.410156 -7.882812 12.8125 -8.820312 12.8125 -10.03125 C 12.8125 -11.257812 12.410156 -12.203125 11.609375 -12.859375 C 10.816406 -13.523438 9.664062 -13.859375 8.15625 -13.859375 L 4.09375 -13.859375 L 4.09375 -6.234375 Z M 8.15625 -6.234375 "/></g></g></g><g fill="#161c27" fill-opacity="1"><g transform="translate(281.149401, 381.750001)"><g><path d="M 8 -11.546875 C 9.4375 -11.546875 10.578125 -11.128906 11.421875 -10.296875 C 12.273438 -9.460938 12.703125 -8.242188 12.703125 -6.640625 L 12.703125 0 L 11.15625 0 L 11.15625 -6.5 C 11.15625 -7.6875 10.859375 -8.59375 10.265625 -9.21875 C 9.671875 -9.84375 8.820312 -10.15625 7.71875 -10.15625 C 6.476562 -10.15625 5.5 -9.785156 4.78125 -9.046875 C 4.0625 -8.316406 3.703125 -7.304688 3.703125 -6.015625 L 3.703125 0 L 2.15625 0 L 2.15625 -16.171875 L 3.703125 -16.171875 L 3.703125 -9.453125 C 4.128906 -10.128906 4.710938 -10.644531 5.453125 -11 C 6.191406 -11.363281 7.039062 -11.546875 8 -11.546875 Z M 8 -11.546875 "/></g></g></g><g fill="#161c27" fill-opacity="1"><g transform="translate(295.897905, 381.750001)"><g><path d="M 6.84375 0.109375 C 5.738281 0.109375 4.742188 -0.140625 3.859375 -0.640625 C 2.972656 -1.140625 2.273438 -1.832031 1.765625 -2.71875 C 1.253906 -3.601562 1 -4.609375 1 -5.734375 C 1 -6.847656 1.253906 -7.847656 1.765625 -8.734375 C 2.273438 -9.617188 2.972656 -10.304688 3.859375 -10.796875 C 4.742188 -11.296875 5.738281 -11.546875 6.84375 -11.546875 C 7.945312 -11.546875 8.941406 -11.296875 9.828125 -10.796875 C 10.710938 -10.304688 11.40625 -9.617188 11.90625 -8.734375 C 12.40625 -7.847656 12.65625 -6.847656 12.65625 -5.734375 C 12.65625 -4.609375 12.40625 -3.601562 11.90625 -2.71875 C 11.40625 -1.832031 10.710938 -1.140625 9.828125 -0.640625 C 8.941406 -0.140625 7.945312 0.109375 6.84375 0.109375 Z M 6.84375 -1.265625 C 7.65625 -1.265625 8.382812 -1.445312 9.03125 -1.8125 C 9.675781 -2.1875 10.179688 -2.710938 10.546875 -3.390625 C 10.910156 -4.078125 11.09375 -4.859375 11.09375 -5.734375 C 11.09375 -6.609375 10.910156 -7.382812 10.546875 -8.0625 C 10.179688 -8.75 9.675781 -9.273438 9.03125 -9.640625 C 8.382812 -10.015625 7.65625 -10.203125 6.84375 -10.203125 C 6.03125 -10.203125 5.300781 -10.015625 4.65625 -9.640625 C 4.007812 -9.273438 3.5 -8.75 3.125 -8.0625 C 2.757812 -7.382812 2.578125 -6.609375 2.578125 -5.734375 C 2.578125 -4.859375 2.757812 -4.078125 3.125 -3.390625 C 3.5 -2.710938 4.007812 -2.1875 4.65625 -1.8125 C 5.300781 -1.445312 6.03125 -1.265625 6.84375 -1.265625 Z M 6.84375 -1.265625 "/></g></g></g><g fill="#161c27" fill-opacity="1"><g transform="translate(309.557149, 381.750001)"><g><path d="M 8.203125 -0.703125 C 7.910156 -0.441406 7.546875 -0.238281 7.109375 -0.09375 C 6.679688 0.0390625 6.238281 0.109375 5.78125 0.109375 C 4.695312 0.109375 3.863281 -0.179688 3.28125 -0.765625 C 2.707031 -1.347656 2.421875 -2.164062 2.421875 -3.21875 L 2.421875 -10.15625 L 0.375 -10.15625 L 0.375 -11.46875 L 2.421875 -11.46875 L 2.421875 -13.96875 L 3.96875 -13.96875 L 3.96875 -11.46875 L 7.453125 -11.46875 L 7.453125 -10.15625 L 3.96875 -10.15625 L 3.96875 -3.3125 C 3.96875 -2.625 4.132812 -2.101562 4.46875 -1.75 C 4.8125 -1.394531 5.304688 -1.21875 5.953125 -1.21875 C 6.273438 -1.21875 6.582031 -1.269531 6.875 -1.375 C 7.175781 -1.476562 7.4375 -1.625 7.65625 -1.8125 Z M 8.203125 -0.703125 "/></g></g></g><g fill="#161c27" fill-opacity="1"><g transform="translate(318.401887, 381.750001)"><g><path d="M 6.84375 0.109375 C 5.738281 0.109375 4.742188 -0.140625 3.859375 -0.640625 C 2.972656 -1.140625 2.273438 -1.832031 1.765625 -2.71875 C 1.253906 -3.601562 1 -4.609375 1 -5.734375 C 1 -6.847656 1.253906 -7.847656 1.765625 -8.734375 C 2.273438 -9.617188 2.972656 -10.304688 3.859375 -10.796875 C 4.742188 -11.296875 5.738281 -11.546875 6.84375 -11.546875 C 7.945312 -11.546875 8.941406 -11.296875 9.828125 -10.796875 C 10.710938 -10.304688 11.40625 -9.617188 11.90625 -8.734375 C 12.40625 -7.847656 12.65625 -6.847656 12.65625 -5.734375 C 12.65625 -4.609375 12.40625 -3.601562 11.90625 -2.71875 C 11.40625 -1.832031 10.710938 -1.140625 9.828125 -0.640625 C 8.941406 -0.140625 7.945312 0.109375 6.84375 0.109375 Z M 6.84375 -1.265625 C 7.65625 -1.265625 8.382812 -1.445312 9.03125 -1.8125 C 9.675781 -2.1875 10.179688 -2.710938 10.546875 -3.390625 C 10.910156 -4.078125 11.09375 -4.859375 11.09375 -5.734375 C 11.09375 -6.609375 10.910156 -7.382812 10.546875 -8.0625 C 10.179688 -8.75 9.675781 -9.273438 9.03125 -9.640625 C 8.382812 -10.015625 7.65625 -10.203125 6.84375 -10.203125 C 6.03125 -10.203125 5.300781 -10.015625 4.65625 -9.640625 C 4.007812 -9.273438 3.5 -8.75 3.125 -8.0625 C 2.757812 -7.382812 2.578125 -6.609375 2.578125 -5.734375 C 2.578125 -4.859375 2.757812 -4.078125 3.125 -3.390625 C 3.5 -2.710938 4.007812 -2.1875 4.65625 -1.8125 C 5.300781 -1.445312 6.03125 -1.265625 6.84375 -1.265625 Z M 6.84375 -1.265625 "/></g></g></g><g fill="#161c27" fill-opacity="1"><g transform="translate(332.06113, 381.750001)"><g><path d="M 12.765625 -11.46875 L 12.765625 -1.390625 C 12.765625 0.554688 12.289062 2 11.34375 2.9375 C 10.394531 3.875 8.960938 4.34375 7.046875 4.34375 C 5.984375 4.34375 4.972656 4.1875 4.015625 3.875 C 3.066406 3.5625 2.296875 3.128906 1.703125 2.578125 L 2.484375 1.390625 C 3.035156 1.890625 3.707031 2.273438 4.5 2.546875 C 5.289062 2.828125 6.125 2.96875 7 2.96875 C 8.445312 2.96875 9.507812 2.628906 10.1875 1.953125 C 10.875 1.273438 11.21875 0.222656 11.21875 -1.203125 L 11.21875 -2.65625 C 10.738281 -1.925781 10.109375 -1.375 9.328125 -1 C 8.554688 -0.625 7.695312 -0.4375 6.75 -0.4375 C 5.675781 -0.4375 4.695312 -0.671875 3.8125 -1.140625 C 2.9375 -1.617188 2.25 -2.28125 1.75 -3.125 C 1.25 -3.976562 1 -4.941406 1 -6.015625 C 1 -7.085938 1.25 -8.046875 1.75 -8.890625 C 2.25 -9.734375 2.9375 -10.382812 3.8125 -10.84375 C 4.6875 -11.3125 5.664062 -11.546875 6.75 -11.546875 C 7.726562 -11.546875 8.609375 -11.347656 9.390625 -10.953125 C 10.179688 -10.566406 10.816406 -10.003906 11.296875 -9.265625 L 11.296875 -11.46875 Z M 6.90625 -1.8125 C 7.738281 -1.8125 8.488281 -1.988281 9.15625 -2.34375 C 9.820312 -2.695312 10.335938 -3.191406 10.703125 -3.828125 C 11.078125 -4.472656 11.265625 -5.203125 11.265625 -6.015625 C 11.265625 -6.828125 11.078125 -7.550781 10.703125 -8.1875 C 10.335938 -8.820312 9.820312 -9.316406 9.15625 -9.671875 C 8.5 -10.023438 7.75 -10.203125 6.90625 -10.203125 C 6.082031 -10.203125 5.335938 -10.023438 4.671875 -9.671875 C 4.015625 -9.328125 3.5 -8.832031 3.125 -8.1875 C 2.757812 -7.550781 2.578125 -6.828125 2.578125 -6.015625 C 2.578125 -5.203125 2.757812 -4.472656 3.125 -3.828125 C 3.5 -3.191406 4.015625 -2.695312 4.671875 -2.34375 C 5.335938 -1.988281 6.082031 -1.8125 6.90625 -1.8125 Z M 6.90625 -1.8125 "/></g></g></g><g fill="#161c27" fill-opacity="1"><g transform="translate(347.005694, 381.750001)"><g><path d="M 3.640625 -9.21875 C 4.003906 -9.988281 4.546875 -10.566406 5.265625 -10.953125 C 5.984375 -11.347656 6.875 -11.546875 7.9375 -11.546875 L 7.9375 -10.046875 L 7.5625 -10.0625 C 6.351562 -10.0625 5.40625 -9.691406 4.71875 -8.953125 C 4.039062 -8.210938 3.703125 -7.175781 3.703125 -5.84375 L 3.703125 0 L 2.15625 0 L 2.15625 -11.46875 L 3.640625 -11.46875 Z M 3.640625 -9.21875 "/></g></g></g><g fill="#161c27" fill-opacity="1"><g transform="translate(355.741507, 381.750001)"><g><path d="M 6.171875 -11.546875 C 7.660156 -11.546875 8.804688 -11.171875 9.609375 -10.421875 C 10.410156 -9.679688 10.8125 -8.578125 10.8125 -7.109375 L 10.8125 0 L 9.328125 0 L 9.328125 -1.78125 C 8.984375 -1.1875 8.472656 -0.722656 7.796875 -0.390625 C 7.117188 -0.0546875 6.316406 0.109375 5.390625 0.109375 C 4.109375 0.109375 3.085938 -0.191406 2.328125 -0.796875 C 1.578125 -1.410156 1.203125 -2.21875 1.203125 -3.21875 C 1.203125 -4.195312 1.550781 -4.984375 2.25 -5.578125 C 2.957031 -6.171875 4.082031 -6.46875 5.625 -6.46875 L 9.265625 -6.46875 L 9.265625 -7.171875 C 9.265625 -8.160156 8.988281 -8.910156 8.4375 -9.421875 C 7.882812 -9.941406 7.078125 -10.203125 6.015625 -10.203125 C 5.285156 -10.203125 4.585938 -10.082031 3.921875 -9.84375 C 3.253906 -9.601562 2.679688 -9.269531 2.203125 -8.84375 L 1.5 -10 C 2.082031 -10.5 2.78125 -10.878906 3.59375 -11.140625 C 4.40625 -11.410156 5.265625 -11.546875 6.171875 -11.546875 Z M 5.625 -1.109375 C 6.5 -1.109375 7.25 -1.304688 7.875 -1.703125 C 8.5 -2.109375 8.960938 -2.6875 9.265625 -3.4375 L 9.265625 -5.3125 L 5.671875 -5.3125 C 3.703125 -5.3125 2.71875 -4.628906 2.71875 -3.265625 C 2.71875 -2.597656 2.972656 -2.070312 3.484375 -1.6875 C 3.992188 -1.300781 4.707031 -1.109375 5.625 -1.109375 Z M 5.625 -1.109375 "/></g></g></g><g fill="#161c27" fill-opacity="1"><g transform="translate(368.594709, 381.750001)"><g><path d="M 8.0625 -11.546875 C 9.132812 -11.546875 10.109375 -11.300781 10.984375 -10.8125 C 11.859375 -10.332031 12.539062 -9.648438 13.03125 -8.765625 C 13.53125 -7.878906 13.78125 -6.867188 13.78125 -5.734375 C 13.78125 -4.585938 13.53125 -3.566406 13.03125 -2.671875 C 12.539062 -1.785156 11.863281 -1.097656 11 -0.609375 C 10.132812 -0.128906 9.15625 0.109375 8.0625 0.109375 C 7.132812 0.109375 6.296875 -0.0820312 5.546875 -0.46875 C 4.796875 -0.851562 4.179688 -1.414062 3.703125 -2.15625 L 3.703125 4.234375 L 2.15625 4.234375 L 2.15625 -11.46875 L 3.640625 -11.46875 L 3.640625 -9.203125 C 4.109375 -9.953125 4.722656 -10.53125 5.484375 -10.9375 C 6.242188 -11.34375 7.101562 -11.546875 8.0625 -11.546875 Z M 7.953125 -1.265625 C 8.753906 -1.265625 9.476562 -1.445312 10.125 -1.8125 C 10.78125 -2.1875 11.296875 -2.710938 11.671875 -3.390625 C 12.046875 -4.078125 12.234375 -4.859375 12.234375 -5.734375 C 12.234375 -6.609375 12.046875 -7.378906 11.671875 -8.046875 C 11.296875 -8.722656 10.78125 -9.25 10.125 -9.625 C 9.476562 -10.007812 8.753906 -10.203125 7.953125 -10.203125 C 7.140625 -10.203125 6.410156 -10.007812 5.765625 -9.625 C 5.117188 -9.25 4.609375 -8.722656 4.234375 -8.046875 C 3.867188 -7.378906 3.6875 -6.609375 3.6875 -5.734375 C 3.6875 -4.859375 3.867188 -4.078125 4.234375 -3.390625 C 4.609375 -2.710938 5.117188 -2.1875 5.765625 -1.8125 C 6.410156 -1.445312 7.140625 -1.265625 7.953125 -1.265625 Z M 7.953125 -1.265625 "/></g></g></g><g fill="#161c27" fill-opacity="1"><g transform="translate(383.364991, 381.750001)"><g><path d="M 8 -11.546875 C 9.4375 -11.546875 10.578125 -11.128906 11.421875 -10.296875 C 12.273438 -9.460938 12.703125 -8.242188 12.703125 -6.640625 L 12.703125 0 L 11.15625 0 L 11.15625 -6.5 C 11.15625 -7.6875 10.859375 -8.59375 10.265625 -9.21875 C 9.671875 -9.84375 8.820312 -10.15625 7.71875 -10.15625 C 6.476562 -10.15625 5.5 -9.785156 4.78125 -9.046875 C 4.0625 -8.316406 3.703125 -7.304688 3.703125 -6.015625 L 3.703125 0 L 2.15625 0 L 2.15625 -16.171875 L 3.703125 -16.171875 L 3.703125 -9.453125 C 4.128906 -10.128906 4.710938 -10.644531 5.453125 -11 C 6.191406 -11.363281 7.039062 -11.546875 8 -11.546875 Z M 8 -11.546875 "/></g></g></g><g fill="#161c27" fill-opacity="1"><g transform="translate(398.113495, 381.750001)"><g><path d="M 12.140625 -5.25 L 2.546875 -5.25 C 2.640625 -4.0625 3.097656 -3.097656 3.921875 -2.359375 C 4.753906 -1.628906 5.800781 -1.265625 7.0625 -1.265625 C 7.769531 -1.265625 8.421875 -1.390625 9.015625 -1.640625 C 9.617188 -1.898438 10.140625 -2.273438 10.578125 -2.765625 L 11.4375 -1.765625 C 10.9375 -1.148438 10.300781 -0.679688 9.53125 -0.359375 C 8.769531 -0.046875 7.929688 0.109375 7.015625 0.109375 C 5.835938 0.109375 4.796875 -0.140625 3.890625 -0.640625 C 2.984375 -1.140625 2.273438 -1.832031 1.765625 -2.71875 C 1.253906 -3.601562 1 -4.609375 1 -5.734375 C 1 -6.847656 1.242188 -7.847656 1.734375 -8.734375 C 2.222656 -9.617188 2.890625 -10.304688 3.734375 -10.796875 C 4.585938 -11.296875 5.546875 -11.546875 6.609375 -11.546875 C 7.671875 -11.546875 8.617188 -11.296875 9.453125 -10.796875 C 10.296875 -10.304688 10.957031 -9.625 11.4375 -8.75 C 11.914062 -7.875 12.15625 -6.867188 12.15625 -5.734375 Z M 6.609375 -10.21875 C 5.503906 -10.21875 4.578125 -9.863281 3.828125 -9.15625 C 3.078125 -8.457031 2.648438 -7.539062 2.546875 -6.40625 L 10.6875 -6.40625 C 10.582031 -7.539062 10.15625 -8.457031 9.40625 -9.15625 C 8.65625 -9.863281 7.722656 -10.21875 6.609375 -10.21875 Z M 6.609375 -10.21875 "/></g></g></g><g fill="#161c27" fill-opacity="1"><g transform="translate(411.271682, 381.750001)"><g/></g></g><g fill="#161c27" fill-opacity="1"><g transform="translate(416.979376, 381.750001)"><g><path d="M 12.625 -16.171875 L 12.625 0 L 11.140625 0 L 11.140625 -2.265625 C 10.671875 -1.492188 10.054688 -0.90625 9.296875 -0.5 C 8.535156 -0.09375 7.675781 0.109375 6.71875 0.109375 C 5.632812 0.109375 4.65625 -0.132812 3.78125 -0.625 C 2.914062 -1.125 2.234375 -1.816406 1.734375 -2.703125 C 1.242188 -3.585938 1 -4.597656 1 -5.734375 C 1 -6.867188 1.242188 -7.878906 1.734375 -8.765625 C 2.234375 -9.648438 2.914062 -10.332031 3.78125 -10.8125 C 4.65625 -11.300781 5.632812 -11.546875 6.71875 -11.546875 C 7.644531 -11.546875 8.484375 -11.351562 9.234375 -10.96875 C 9.984375 -10.582031 10.597656 -10.019531 11.078125 -9.28125 L 11.078125 -16.171875 Z M 6.84375 -1.265625 C 7.644531 -1.265625 8.367188 -1.445312 9.015625 -1.8125 C 9.660156 -2.1875 10.164062 -2.710938 10.53125 -3.390625 C 10.90625 -4.078125 11.09375 -4.859375 11.09375 -5.734375 C 11.09375 -6.609375 10.90625 -7.382812 10.53125 -8.0625 C 10.164062 -8.75 9.660156 -9.273438 9.015625 -9.640625 C 8.367188 -10.015625 7.644531 -10.203125 6.84375 -10.203125 C 6.03125 -10.203125 5.300781 -10.015625 4.65625 -9.640625 C 4.007812 -9.273438 3.5 -8.75 3.125 -8.0625 C 2.757812 -7.382812 2.578125 -6.609375 2.578125 -5.734375 C 2.578125 -4.859375 2.757812 -4.078125 3.125 -3.390625 C 3.5 -2.710938 4.007812 -2.1875 4.65625 -1.8125 C 5.300781 -1.445312 6.03125 -1.265625 6.84375 -1.265625 Z M 6.84375 -1.265625 "/></g></g></g><g fill="#161c27" fill-opacity="1"><g transform="translate(431.749658, 381.750001)"><g><path d="M 12.140625 -5.25 L 2.546875 -5.25 C 2.640625 -4.0625 3.097656 -3.097656 3.921875 -2.359375 C 4.753906 -1.628906 5.800781 -1.265625 7.0625 -1.265625 C 7.769531 -1.265625 8.421875 -1.390625 9.015625 -1.640625 C 9.617188 -1.898438 10.140625 -2.273438 10.578125 -2.765625 L 11.4375 -1.765625 C 10.9375 -1.148438 10.300781 -0.679688 9.53125 -0.359375 C 8.769531 -0.046875 7.929688 0.109375 7.015625 0.109375 C 5.835938 0.109375 4.796875 -0.140625 3.890625 -0.640625 C 2.984375 -1.140625 2.273438 -1.832031 1.765625 -2.71875 C 1.253906 -3.601562 1 -4.609375 1 -5.734375 C 1 -6.847656 1.242188 -7.847656 1.734375 -8.734375 C 2.222656 -9.617188 2.890625 -10.304688 3.734375 -10.796875 C 4.585938 -11.296875 5.546875 -11.546875 6.609375 -11.546875 C 7.671875 -11.546875 8.617188 -11.296875 9.453125 -10.796875 C 10.296875 -10.304688 10.957031 -9.625 11.4375 -8.75 C 11.914062 -7.875 12.15625 -6.867188 12.15625 -5.734375 Z M 6.609375 -10.21875 C 5.503906 -10.21875 4.578125 -9.863281 3.828125 -9.15625 C 3.078125 -8.457031 2.648438 -7.539062 2.546875 -6.40625 L 10.6875 -6.40625 C 10.582031 -7.539062 10.15625 -8.457031 9.40625 -9.15625 C 8.65625 -9.863281 7.722656 -10.21875 6.609375 -10.21875 Z M 6.609375 -10.21875 "/></g></g></g><g fill="#161c27" fill-opacity="1"><g transform="translate(444.907845, 381.750001)"><g><path d="M 8.0625 -11.546875 C 9.132812 -11.546875 10.109375 -11.300781 10.984375 -10.8125 C 11.859375 -10.332031 12.539062 -9.648438 13.03125 -8.765625 C 13.53125 -7.878906 13.78125 -6.867188 13.78125 -5.734375 C 13.78125 -4.585938 13.53125 -3.566406 13.03125 -2.671875 C 12.539062 -1.785156 11.863281 -1.097656 11 -0.609375 C 10.132812 -0.128906 9.15625 0.109375 8.0625 0.109375 C 7.132812 0.109375 6.296875 -0.0820312 5.546875 -0.46875 C 4.796875 -0.851562 4.179688 -1.414062 3.703125 -2.15625 L 3.703125 4.234375 L 2.15625 4.234375 L 2.15625 -11.46875 L 3.640625 -11.46875 L 3.640625 -9.203125 C 4.109375 -9.953125 4.722656 -10.53125 5.484375 -10.9375 C 6.242188 -11.34375 7.101562 -11.546875 8.0625 -11.546875 Z M 7.953125 -1.265625 C 8.753906 -1.265625 9.476562 -1.445312 10.125 -1.8125 C 10.78125 -2.1875 11.296875 -2.710938 11.671875 -3.390625 C 12.046875 -4.078125 12.234375 -4.859375 12.234375 -5.734375 C 12.234375 -6.609375 12.046875 -7.378906 11.671875 -8.046875 C 11.296875 -8.722656 10.78125 -9.25 10.125 -9.625 C 9.476562 -10.007812 8.753906 -10.203125 7.953125 -10.203125 C 7.140625 -10.203125 6.410156 -10.007812 5.765625 -9.625 C 5.117188 -9.25 4.609375 -8.722656 4.234375 -8.046875 C 3.867188 -7.378906 3.6875 -6.609375 3.6875 -5.734375 C 3.6875 -4.859375 3.867188 -4.078125 4.234375 -3.390625 C 4.609375 -2.710938 5.117188 -2.1875 5.765625 -1.8125 C 6.410156 -1.445312 7.140625 -1.265625 7.953125 -1.265625 Z M 7.953125 -1.265625 "/></g></g></g><g fill="#161c27" fill-opacity="1"><g transform="translate(459.678139, 381.750001)"><g><path d="M 12.484375 -11.46875 L 12.484375 0 L 11 0 L 11 -2.09375 C 10.59375 -1.394531 10.035156 -0.851562 9.328125 -0.46875 C 8.617188 -0.0820312 7.804688 0.109375 6.890625 0.109375 C 5.390625 0.109375 4.207031 -0.304688 3.34375 -1.140625 C 2.476562 -1.972656 2.046875 -3.195312 2.046875 -4.8125 L 2.046875 -11.46875 L 3.59375 -11.46875 L 3.59375 -4.96875 C 3.59375 -3.757812 3.890625 -2.84375 4.484375 -2.21875 C 5.085938 -1.59375 5.941406 -1.28125 7.046875 -1.28125 C 8.242188 -1.28125 9.191406 -1.644531 9.890625 -2.375 C 10.585938 -3.113281 10.9375 -4.140625 10.9375 -5.453125 L 10.9375 -11.46875 Z M 12.484375 -11.46875 "/></g></g></g><g fill="#161c27" fill-opacity="1"><g transform="translate(474.339485, 381.750001)"><g><path d="M 2.15625 -11.46875 L 3.703125 -11.46875 L 3.703125 0 L 2.15625 0 Z M 2.9375 -13.96875 C 2.625 -13.96875 2.359375 -14.078125 2.140625 -14.296875 C 1.921875 -14.515625 1.8125 -14.773438 1.8125 -15.078125 C 1.8125 -15.367188 1.921875 -15.625 2.140625 -15.84375 C 2.359375 -16.0625 2.625 -16.171875 2.9375 -16.171875 C 3.257812 -16.171875 3.53125 -16.066406 3.75 -15.859375 C 3.96875 -15.648438 4.078125 -15.398438 4.078125 -15.109375 C 4.078125 -14.785156 3.96875 -14.515625 3.75 -14.296875 C 3.53125 -14.078125 3.257812 -13.96875 2.9375 -13.96875 Z M 2.9375 -13.96875 "/></g></g></g><g fill="#161c27" fill-opacity="1"><g transform="translate(480.199683, 381.750001)"><g><path d="M 5.234375 0.109375 C 4.304688 0.109375 3.414062 -0.0234375 2.5625 -0.296875 C 1.707031 -0.566406 1.039062 -0.90625 0.5625 -1.3125 L 1.265625 -2.53125 C 1.742188 -2.15625 2.34375 -1.847656 3.0625 -1.609375 C 3.789062 -1.367188 4.550781 -1.25 5.34375 -1.25 C 6.382812 -1.25 7.15625 -1.410156 7.65625 -1.734375 C 8.15625 -2.054688 8.40625 -2.515625 8.40625 -3.109375 C 8.40625 -3.535156 8.265625 -3.867188 7.984375 -4.109375 C 7.710938 -4.347656 7.367188 -4.53125 6.953125 -4.65625 C 6.535156 -4.78125 5.976562 -4.898438 5.28125 -5.015625 C 4.34375 -5.191406 3.59375 -5.367188 3.03125 -5.546875 C 2.46875 -5.722656 1.984375 -6.03125 1.578125 -6.46875 C 1.179688 -6.90625 0.984375 -7.507812 0.984375 -8.28125 C 0.984375 -9.238281 1.378906 -10.019531 2.171875 -10.625 C 2.972656 -11.238281 4.085938 -11.546875 5.515625 -11.546875 C 6.253906 -11.546875 6.992188 -11.445312 7.734375 -11.25 C 8.472656 -11.0625 9.082031 -10.804688 9.5625 -10.484375 L 8.890625 -9.234375 C 7.941406 -9.890625 6.816406 -10.21875 5.515625 -10.21875 C 4.523438 -10.21875 3.78125 -10.039062 3.28125 -9.6875 C 2.78125 -9.34375 2.53125 -8.890625 2.53125 -8.328125 C 2.53125 -7.890625 2.671875 -7.539062 2.953125 -7.28125 C 3.234375 -7.019531 3.582031 -6.828125 4 -6.703125 C 4.425781 -6.578125 5.007812 -6.453125 5.75 -6.328125 C 6.664062 -6.148438 7.398438 -5.972656 7.953125 -5.796875 C 8.503906 -5.617188 8.976562 -5.316406 9.375 -4.890625 C 9.769531 -4.472656 9.96875 -3.894531 9.96875 -3.15625 C 9.96875 -2.15625 9.546875 -1.359375 8.703125 -0.765625 C 7.867188 -0.179688 6.710938 0.109375 5.234375 0.109375 Z M 5.234375 0.109375 "/></g></g></g><g fill="#161c27" fill-opacity="1"><g transform="translate(490.852576, 381.750001)"><g/></g></g><g fill="#161c27" fill-opacity="1"><g transform="translate(496.56027, 381.750001)"><g><path d="M 11.546875 -1.390625 L 11.546875 0 L 0.84375 0 L 0.84375 -1.109375 L 7.1875 -7.328125 C 7.988281 -8.109375 8.53125 -8.785156 8.8125 -9.359375 C 9.09375 -9.929688 9.234375 -10.507812 9.234375 -11.09375 C 9.234375 -12 8.925781 -12.703125 8.3125 -13.203125 C 7.695312 -13.703125 6.816406 -13.953125 5.671875 -13.953125 C 3.878906 -13.953125 2.488281 -13.382812 1.5 -12.25 L 0.390625 -13.203125 C 0.984375 -13.898438 1.738281 -14.4375 2.65625 -14.8125 C 3.582031 -15.195312 4.628906 -15.390625 5.796875 -15.390625 C 7.347656 -15.390625 8.578125 -15.019531 9.484375 -14.28125 C 10.398438 -13.550781 10.859375 -12.546875 10.859375 -11.265625 C 10.859375 -10.484375 10.679688 -9.726562 10.328125 -9 C 9.984375 -8.269531 9.320312 -7.4375 8.34375 -6.5 L 3.15625 -1.390625 Z M 11.546875 -1.390625 "/></g></g></g><g fill="#161c27" fill-opacity="1"><g transform="translate(508.934194, 381.750001)"><g><path d="M 7.21875 0.125 C 6.039062 0.125 4.988281 -0.1875 4.0625 -0.8125 C 3.144531 -1.4375 2.425781 -2.332031 1.90625 -3.5 C 1.394531 -4.664062 1.140625 -6.039062 1.140625 -7.625 C 1.140625 -9.207031 1.394531 -10.582031 1.90625 -11.75 C 2.425781 -12.925781 3.144531 -13.828125 4.0625 -14.453125 C 4.988281 -15.078125 6.039062 -15.390625 7.21875 -15.390625 C 8.394531 -15.390625 9.441406 -15.078125 10.359375 -14.453125 C 11.285156 -13.828125 12.007812 -12.925781 12.53125 -11.75 C 13.050781 -10.582031 13.3125 -9.207031 13.3125 -7.625 C 13.3125 -6.039062 13.050781 -4.664062 12.53125 -3.5 C 12.007812 -2.332031 11.285156 -1.4375 10.359375 -0.8125 C 9.441406 -0.1875 8.394531 0.125 7.21875 0.125 Z M 7.21875 -1.3125 C 8.101562 -1.3125 8.882812 -1.554688 9.5625 -2.046875 C 10.238281 -2.546875 10.765625 -3.265625 11.140625 -4.203125 C 11.515625 -5.148438 11.703125 -6.289062 11.703125 -7.625 C 11.703125 -8.96875 11.515625 -10.109375 11.140625 -11.046875 C 10.765625 -11.992188 10.238281 -12.710938 9.5625 -13.203125 C 8.882812 -13.703125 8.101562 -13.953125 7.21875 -13.953125 C 6.332031 -13.953125 5.550781 -13.703125 4.875 -13.203125 C 4.195312 -12.710938 3.664062 -11.992188 3.28125 -11.046875 C 2.90625 -10.109375 2.71875 -8.96875 2.71875 -7.625 C 2.71875 -6.289062 2.90625 -5.148438 3.28125 -4.203125 C 3.664062 -3.265625 4.195312 -2.546875 4.875 -2.046875 C 5.550781 -1.554688 6.332031 -1.3125 7.21875 -1.3125 Z M 7.21875 -1.3125 "/></g></g></g><g fill="#161c27" fill-opacity="1"><g transform="translate(523.355901, 381.750001)"><g><path d="M 5.359375 -15.265625 L 5.359375 0 L 3.796875 0 L 3.796875 -13.859375 L 0.203125 -13.859375 L 0.203125 -15.265625 Z M 5.359375 -15.265625 "/></g></g></g><g fill="#161c27" fill-opacity="1"><g transform="translate(531.220326, 381.750001)"><g><path d="M 5.890625 -15.390625 C 7.910156 -15.390625 9.457031 -14.722656 10.53125 -13.390625 C 11.601562 -12.066406 12.140625 -10.191406 12.140625 -7.765625 C 12.140625 -6.054688 11.847656 -4.613281 11.265625 -3.4375 C 10.679688 -2.257812 9.867188 -1.367188 8.828125 -0.765625 C 7.785156 -0.171875 6.566406 0.125 5.171875 0.125 C 3.660156 0.125 2.453125 -0.148438 1.546875 -0.703125 L 2.1875 -1.96875 C 2.90625 -1.488281 3.890625 -1.25 5.140625 -1.25 C 6.828125 -1.25 8.148438 -1.78125 9.109375 -2.84375 C 10.066406 -3.914062 10.546875 -5.46875 10.546875 -7.5 C 10.546875 -7.875 10.523438 -8.285156 10.484375 -8.734375 C 10.109375 -7.910156 9.503906 -7.269531 8.671875 -6.8125 C 7.847656 -6.351562 6.894531 -6.125 5.8125 -6.125 C 4.8125 -6.125 3.921875 -6.3125 3.140625 -6.6875 C 2.367188 -7.070312 1.765625 -7.609375 1.328125 -8.296875 C 0.890625 -8.984375 0.671875 -9.785156 0.671875 -10.703125 C 0.671875 -11.628906 0.894531 -12.445312 1.34375 -13.15625 C 1.800781 -13.875 2.425781 -14.425781 3.21875 -14.8125 C 4.007812 -15.195312 4.898438 -15.390625 5.890625 -15.390625 Z M 6.0625 -7.453125 C 6.832031 -7.453125 7.507812 -7.597656 8.09375 -7.890625 C 8.6875 -8.179688 9.148438 -8.582031 9.484375 -9.09375 C 9.816406 -9.601562 9.984375 -10.171875 9.984375 -10.796875 C 9.984375 -11.367188 9.828125 -11.898438 9.515625 -12.390625 C 9.203125 -12.890625 8.738281 -13.289062 8.125 -13.59375 C 7.519531 -13.90625 6.796875 -14.0625 5.953125 -14.0625 C 4.847656 -14.0625 3.945312 -13.757812 3.25 -13.15625 C 2.5625 -12.550781 2.21875 -11.75 2.21875 -10.75 C 2.21875 -9.738281 2.5625 -8.9375 3.25 -8.34375 C 3.945312 -7.75 4.882812 -7.453125 6.0625 -7.453125 Z M 6.0625 -7.453125 "/></g></g></g><g fill="#161c27" fill-opacity="1"><g transform="translate(260.035053, 411.749999)"><g><path d="M 15.234375 -15.265625 L 15.234375 0 L 13.90625 0 L 4.09375 -12.375 L 4.09375 0 L 2.484375 0 L 2.484375 -15.265625 L 3.8125 -15.265625 L 13.640625 -2.875 L 13.640625 -15.265625 Z M 15.234375 -15.265625 "/></g></g></g><g fill="#161c27" fill-opacity="1"><g transform="translate(277.746318, 411.749999)"><g><path d="M 6.171875 -11.546875 C 7.660156 -11.546875 8.804688 -11.171875 9.609375 -10.421875 C 10.410156 -9.679688 10.8125 -8.578125 10.8125 -7.109375 L 10.8125 0 L 9.328125 0 L 9.328125 -1.78125 C 8.984375 -1.1875 8.472656 -0.722656 7.796875 -0.390625 C 7.117188 -0.0546875 6.316406 0.109375 5.390625 0.109375 C 4.109375 0.109375 3.085938 -0.191406 2.328125 -0.796875 C 1.578125 -1.410156 1.203125 -2.21875 1.203125 -3.21875 C 1.203125 -4.195312 1.550781 -4.984375 2.25 -5.578125 C 2.957031 -6.171875 4.082031 -6.46875 5.625 -6.46875 L 9.265625 -6.46875 L 9.265625 -7.171875 C 9.265625 -8.160156 8.988281 -8.910156 8.4375 -9.421875 C 7.882812 -9.941406 7.078125 -10.203125 6.015625 -10.203125 C 5.285156 -10.203125 4.585938 -10.082031 3.921875 -9.84375 C 3.253906 -9.601562 2.679688 -9.269531 2.203125 -8.84375 L 1.5 -10 C 2.082031 -10.5 2.78125 -10.878906 3.59375 -11.140625 C 4.40625 -11.410156 5.265625 -11.546875 6.171875 -11.546875 Z M 5.625 -1.109375 C 6.5 -1.109375 7.25 -1.304688 7.875 -1.703125 C 8.5 -2.109375 8.960938 -2.6875 9.265625 -3.4375 L 9.265625 -5.3125 L 5.671875 -5.3125 C 3.703125 -5.3125 2.71875 -4.628906 2.71875 -3.265625 C 2.71875 -2.597656 2.972656 -2.070312 3.484375 -1.6875 C 3.992188 -1.300781 4.707031 -1.109375 5.625 -1.109375 Z M 5.625 -1.109375 "/></g></g></g><g fill="#161c27" fill-opacity="1"><g transform="translate(290.59952, 411.749999)"><g><path d="M 8.203125 -0.703125 C 7.910156 -0.441406 7.546875 -0.238281 7.109375 -0.09375 C 6.679688 0.0390625 6.238281 0.109375 5.78125 0.109375 C 4.695312 0.109375 3.863281 -0.179688 3.28125 -0.765625 C 2.707031 -1.347656 2.421875 -2.164062 2.421875 -3.21875 L 2.421875 -10.15625 L 0.375 -10.15625 L 0.375 -11.46875 L 2.421875 -11.46875 L 2.421875 -13.96875 L 3.96875 -13.96875 L 3.96875 -11.46875 L 7.453125 -11.46875 L 7.453125 -10.15625 L 3.96875 -10.15625 L 3.96875 -3.3125 C 3.96875 -2.625 4.132812 -2.101562 4.46875 -1.75 C 4.8125 -1.394531 5.304688 -1.21875 5.953125 -1.21875 C 6.273438 -1.21875 6.582031 -1.269531 6.875 -1.375 C 7.175781 -1.476562 7.4375 -1.625 7.65625 -1.8125 Z M 8.203125 -0.703125 "/></g></g></g><g fill="#161c27" fill-opacity="1"><g transform="translate(299.444257, 411.749999)"><g><path d="M 12.484375 -11.46875 L 12.484375 0 L 11 0 L 11 -2.09375 C 10.59375 -1.394531 10.035156 -0.851562 9.328125 -0.46875 C 8.617188 -0.0820312 7.804688 0.109375 6.890625 0.109375 C 5.390625 0.109375 4.207031 -0.304688 3.34375 -1.140625 C 2.476562 -1.972656 2.046875 -3.195312 2.046875 -4.8125 L 2.046875 -11.46875 L 3.59375 -11.46875 L 3.59375 -4.96875 C 3.59375 -3.757812 3.890625 -2.84375 4.484375 -2.21875 C 5.085938 -1.59375 5.941406 -1.28125 7.046875 -1.28125 C 8.242188 -1.28125 9.191406 -1.644531 9.890625 -2.375 C 10.585938 -3.113281 10.9375 -4.140625 10.9375 -5.453125 L 10.9375 -11.46875 Z M 12.484375 -11.46875 "/></g></g></g><g fill="#161c27" fill-opacity="1"><g transform="translate(314.105614, 411.749999)"><g><path d="M 3.640625 -9.21875 C 4.003906 -9.988281 4.546875 -10.566406 5.265625 -10.953125 C 5.984375 -11.347656 6.875 -11.546875 7.9375 -11.546875 L 7.9375 -10.046875 L 7.5625 -10.0625 C 6.351562 -10.0625 5.40625 -9.691406 4.71875 -8.953125 C 4.039062 -8.210938 3.703125 -7.175781 3.703125 -5.84375 L 3.703125 0 L 2.15625 0 L 2.15625 -11.46875 L 3.640625 -11.46875 Z M 3.640625 -9.21875 "/></g></g></g><g fill="#161c27" fill-opacity="1"><g transform="translate(322.841427, 411.749999)"><g><path d="M 12.140625 -5.25 L 2.546875 -5.25 C 2.640625 -4.0625 3.097656 -3.097656 3.921875 -2.359375 C 4.753906 -1.628906 5.800781 -1.265625 7.0625 -1.265625 C 7.769531 -1.265625 8.421875 -1.390625 9.015625 -1.640625 C 9.617188 -1.898438 10.140625 -2.273438 10.578125 -2.765625 L 11.4375 -1.765625 C 10.9375 -1.148438 10.300781 -0.679688 9.53125 -0.359375 C 8.769531 -0.046875 7.929688 0.109375 7.015625 0.109375 C 5.835938 0.109375 4.796875 -0.140625 3.890625 -0.640625 C 2.984375 -1.140625 2.273438 -1.832031 1.765625 -2.71875 C 1.253906 -3.601562 1 -4.609375 1 -5.734375 C 1 -6.847656 1.242188 -7.847656 1.734375 -8.734375 C 2.222656 -9.617188 2.890625 -10.304688 3.734375 -10.796875 C 4.585938 -11.296875 5.546875 -11.546875 6.609375 -11.546875 C 7.671875 -11.546875 8.617188 -11.296875 9.453125 -10.796875 C 10.296875 -10.304688 10.957031 -9.625 11.4375 -8.75 C 11.914062 -7.875 12.15625 -6.867188 12.15625 -5.734375 Z M 6.609375 -10.21875 C 5.503906 -10.21875 4.578125 -9.863281 3.828125 -9.15625 C 3.078125 -8.457031 2.648438 -7.539062 2.546875 -6.40625 L 10.6875 -6.40625 C 10.582031 -7.539062 10.15625 -8.457031 9.40625 -9.15625 C 8.65625 -9.863281 7.722656 -10.21875 6.609375 -10.21875 Z M 6.609375 -10.21875 "/></g></g></g><g fill="#161c27" fill-opacity="1"><g transform="translate(335.999614, 411.749999)"><g><path d="M 2.328125 -2.265625 C 2.660156 -2.265625 2.9375 -2.148438 3.15625 -1.921875 C 3.375 -1.703125 3.484375 -1.425781 3.484375 -1.09375 C 3.484375 -0.914062 3.457031 -0.722656 3.40625 -0.515625 C 3.351562 -0.316406 3.28125 -0.0859375 3.1875 0.171875 L 2.265625 3.1875 L 1.21875 3.1875 L 1.96875 0.015625 C 1.726562 -0.0546875 1.535156 -0.1875 1.390625 -0.375 C 1.242188 -0.570312 1.171875 -0.8125 1.171875 -1.09375 C 1.171875 -1.425781 1.28125 -1.703125 1.5 -1.921875 C 1.71875 -2.148438 1.992188 -2.265625 2.328125 -2.265625 Z M 2.328125 -2.265625 "/></g></g></g><g fill="#161c27" fill-opacity="1"><g transform="translate(340.618049, 411.749999)"><g/></g></g><g fill="#161c27" fill-opacity="1"><g transform="translate(346.325743, 411.749999)"><g><path d="M 8.0625 -11.546875 C 9.132812 -11.546875 10.109375 -11.300781 10.984375 -10.8125 C 11.859375 -10.332031 12.539062 -9.648438 13.03125 -8.765625 C 13.53125 -7.878906 13.78125 -6.867188 13.78125 -5.734375 C 13.78125 -4.585938 13.53125 -3.566406 13.03125 -2.671875 C 12.539062 -1.785156 11.863281 -1.097656 11 -0.609375 C 10.132812 -0.128906 9.15625 0.109375 8.0625 0.109375 C 7.132812 0.109375 6.296875 -0.0820312 5.546875 -0.46875 C 4.796875 -0.851562 4.179688 -1.414062 3.703125 -2.15625 L 3.703125 4.234375 L 2.15625 4.234375 L 2.15625 -11.46875 L 3.640625 -11.46875 L 3.640625 -9.203125 C 4.109375 -9.953125 4.722656 -10.53125 5.484375 -10.9375 C 6.242188 -11.34375 7.101562 -11.546875 8.0625 -11.546875 Z M 7.953125 -1.265625 C 8.753906 -1.265625 9.476562 -1.445312 10.125 -1.8125 C 10.78125 -2.1875 11.296875 -2.710938 11.671875 -3.390625 C 12.046875 -4.078125 12.234375 -4.859375 12.234375 -5.734375 C 12.234375 -6.609375 12.046875 -7.378906 11.671875 -8.046875 C 11.296875 -8.722656 10.78125 -9.25 10.125 -9.625 C 9.476562 -10.007812 8.753906 -10.203125 7.953125 -10.203125 C 7.140625 -10.203125 6.410156 -10.007812 5.765625 -9.625 C 5.117188 -9.25 4.609375 -8.722656 4.234375 -8.046875 C 3.867188 -7.378906 3.6875 -6.609375 3.6875 -5.734375 C 3.6875 -4.859375 3.867188 -4.078125 4.234375 -3.390625 C 4.609375 -2.710938 5.117188 -2.1875 5.765625 -1.8125 C 6.410156 -1.445312 7.140625 -1.265625 7.953125 -1.265625 Z M 7.953125 -1.265625 "/></g></g></g><g fill="#161c27" fill-opacity="1"><g transform="translate(361.096025, 411.749999)"><g><path d="M 6.84375 0.109375 C 5.738281 0.109375 4.742188 -0.140625 3.859375 -0.640625 C 2.972656 -1.140625 2.273438 -1.832031 1.765625 -2.71875 C 1.253906 -3.601562 1 -4.609375 1 -5.734375 C 1 -6.847656 1.253906 -7.847656 1.765625 -8.734375 C 2.273438 -9.617188 2.972656 -10.304688 3.859375 -10.796875 C 4.742188 -11.296875 5.738281 -11.546875 6.84375 -11.546875 C 7.945312 -11.546875 8.941406 -11.296875 9.828125 -10.796875 C 10.710938 -10.304688 11.40625 -9.617188 11.90625 -8.734375 C 12.40625 -7.847656 12.65625 -6.847656 12.65625 -5.734375 C 12.65625 -4.609375 12.40625 -3.601562 11.90625 -2.71875 C 11.40625 -1.832031 10.710938 -1.140625 9.828125 -0.640625 C 8.941406 -0.140625 7.945312 0.109375 6.84375 0.109375 Z M 6.84375 -1.265625 C 7.65625 -1.265625 8.382812 -1.445312 9.03125 -1.8125 C 9.675781 -2.1875 10.179688 -2.710938 10.546875 -3.390625 C 10.910156 -4.078125 11.09375 -4.859375 11.09375 -5.734375 C 11.09375 -6.609375 10.910156 -7.382812 10.546875 -8.0625 C 10.179688 -8.75 9.675781 -9.273438 9.03125 -9.640625 C 8.382812 -10.015625 7.65625 -10.203125 6.84375 -10.203125 C 6.03125 -10.203125 5.300781 -10.015625 4.65625 -9.640625 C 4.007812 -9.273438 3.5 -8.75 3.125 -8.0625 C 2.757812 -7.382812 2.578125 -6.609375 2.578125 -5.734375 C 2.578125 -4.859375 2.757812 -4.078125 3.125 -3.390625 C 3.5 -2.710938 4.007812 -2.1875 4.65625 -1.8125 C 5.300781 -1.445312 6.03125 -1.265625 6.84375 -1.265625 Z M 6.84375 -1.265625 "/></g></g></g><g fill="#161c27" fill-opacity="1"><g transform="translate(374.755269, 411.749999)"><g><path d="M 3.640625 -9.21875 C 4.003906 -9.988281 4.546875 -10.566406 5.265625 -10.953125 C 5.984375 -11.347656 6.875 -11.546875 7.9375 -11.546875 L 7.9375 -10.046875 L 7.5625 -10.0625 C 6.351562 -10.0625 5.40625 -9.691406 4.71875 -8.953125 C 4.039062 -8.210938 3.703125 -7.175781 3.703125 -5.84375 L 3.703125 0 L 2.15625 0 L 2.15625 -11.46875 L 3.640625 -11.46875 Z M 3.640625 -9.21875 "/></g></g></g><g fill="#161c27" fill-opacity="1"><g transform="translate(383.491082, 411.749999)"><g><path d="M 8.203125 -0.703125 C 7.910156 -0.441406 7.546875 -0.238281 7.109375 -0.09375 C 6.679688 0.0390625 6.238281 0.109375 5.78125 0.109375 C 4.695312 0.109375 3.863281 -0.179688 3.28125 -0.765625 C 2.707031 -1.347656 2.421875 -2.164062 2.421875 -3.21875 L 2.421875 -10.15625 L 0.375 -10.15625 L 0.375 -11.46875 L 2.421875 -11.46875 L 2.421875 -13.96875 L 3.96875 -13.96875 L 3.96875 -11.46875 L 7.453125 -11.46875 L 7.453125 -10.15625 L 3.96875 -10.15625 L 3.96875 -3.3125 C 3.96875 -2.625 4.132812 -2.101562 4.46875 -1.75 C 4.8125 -1.394531 5.304688 -1.21875 5.953125 -1.21875 C 6.273438 -1.21875 6.582031 -1.269531 6.875 -1.375 C 7.175781 -1.476562 7.4375 -1.625 7.65625 -1.8125 Z M 8.203125 -0.703125 "/></g></g></g><g fill="#161c27" fill-opacity="1"><g transform="translate(392.335819, 411.749999)"><g><path d="M 3.640625 -9.21875 C 4.003906 -9.988281 4.546875 -10.566406 5.265625 -10.953125 C 5.984375 -11.347656 6.875 -11.546875 7.9375 -11.546875 L 7.9375 -10.046875 L 7.5625 -10.0625 C 6.351562 -10.0625 5.40625 -9.691406 4.71875 -8.953125 C 4.039062 -8.210938 3.703125 -7.175781 3.703125 -5.84375 L 3.703125 0 L 2.15625 0 L 2.15625 -11.46875 L 3.640625 -11.46875 Z M 3.640625 -9.21875 "/></g></g></g><g fill="#161c27" fill-opacity="1"><g transform="translate(401.071632, 411.749999)"><g><path d="M 6.171875 -11.546875 C 7.660156 -11.546875 8.804688 -11.171875 9.609375 -10.421875 C 10.410156 -9.679688 10.8125 -8.578125 10.8125 -7.109375 L 10.8125 0 L 9.328125 0 L 9.328125 -1.78125 C 8.984375 -1.1875 8.472656 -0.722656 7.796875 -0.390625 C 7.117188 -0.0546875 6.316406 0.109375 5.390625 0.109375 C 4.109375 0.109375 3.085938 -0.191406 2.328125 -0.796875 C 1.578125 -1.410156 1.203125 -2.21875 1.203125 -3.21875 C 1.203125 -4.195312 1.550781 -4.984375 2.25 -5.578125 C 2.957031 -6.171875 4.082031 -6.46875 5.625 -6.46875 L 9.265625 -6.46875 L 9.265625 -7.171875 C 9.265625 -8.160156 8.988281 -8.910156 8.4375 -9.421875 C 7.882812 -9.941406 7.078125 -10.203125 6.015625 -10.203125 C 5.285156 -10.203125 4.585938 -10.082031 3.921875 -9.84375 C 3.253906 -9.601562 2.679688 -9.269531 2.203125 -8.84375 L 1.5 -10 C 2.082031 -10.5 2.78125 -10.878906 3.59375 -11.140625 C 4.40625 -11.410156 5.265625 -11.546875 6.171875 -11.546875 Z M 5.625 -1.109375 C 6.5 -1.109375 7.25 -1.304688 7.875 -1.703125 C 8.5 -2.109375 8.960938 -2.6875 9.265625 -3.4375 L 9.265625 -5.3125 L 5.671875 -5.3125 C 3.703125 -5.3125 2.71875 -4.628906 2.71875 -3.265625 C 2.71875 -2.597656 2.972656 -2.070312 3.484375 -1.6875 C 3.992188 -1.300781 4.707031 -1.109375 5.625 -1.109375 Z M 5.625 -1.109375 "/></g></g></g><g fill="#161c27" fill-opacity="1"><g transform="translate(413.924834, 411.749999)"><g><path d="M 2.15625 -11.46875 L 3.703125 -11.46875 L 3.703125 0 L 2.15625 0 Z M 2.9375 -13.96875 C 2.625 -13.96875 2.359375 -14.078125 2.140625 -14.296875 C 1.921875 -14.515625 1.8125 -14.773438 1.8125 -15.078125 C 1.8125 -15.367188 1.921875 -15.625 2.140625 -15.84375 C 2.359375 -16.0625 2.625 -16.171875 2.9375 -16.171875 C 3.257812 -16.171875 3.53125 -16.066406 3.75 -15.859375 C 3.96875 -15.648438 4.078125 -15.398438 4.078125 -15.109375 C 4.078125 -14.785156 3.96875 -14.515625 3.75 -14.296875 C 3.53125 -14.078125 3.257812 -13.96875 2.9375 -13.96875 Z M 2.9375 -13.96875 "/></g></g></g><g fill="#161c27" fill-opacity="1"><g transform="translate(419.785022, 411.749999)"><g><path d="M 8.203125 -0.703125 C 7.910156 -0.441406 7.546875 -0.238281 7.109375 -0.09375 C 6.679688 0.0390625 6.238281 0.109375 5.78125 0.109375 C 4.695312 0.109375 3.863281 -0.179688 3.28125 -0.765625 C 2.707031 -1.347656 2.421875 -2.164062 2.421875 -3.21875 L 2.421875 -10.15625 L 0.375 -10.15625 L 0.375 -11.46875 L 2.421875 -11.46875 L 2.421875 -13.96875 L 3.96875 -13.96875 L 3.96875 -11.46875 L 7.453125 -11.46875 L 7.453125 -10.15625 L 3.96875 -10.15625 L 3.96875 -3.3125 C 3.96875 -2.625 4.132812 -2.101562 4.46875 -1.75 C 4.8125 -1.394531 5.304688 -1.21875 5.953125 -1.21875 C 6.273438 -1.21875 6.582031 -1.269531 6.875 -1.375 C 7.175781 -1.476562 7.4375 -1.625 7.65625 -1.8125 Z M 8.203125 -0.703125 "/></g></g></g><g fill="#161c27" fill-opacity="1"><g transform="translate(428.629759, 411.749999)"><g><path d="M 5.234375 0.109375 C 4.304688 0.109375 3.414062 -0.0234375 2.5625 -0.296875 C 1.707031 -0.566406 1.039062 -0.90625 0.5625 -1.3125 L 1.265625 -2.53125 C 1.742188 -2.15625 2.34375 -1.847656 3.0625 -1.609375 C 3.789062 -1.367188 4.550781 -1.25 5.34375 -1.25 C 6.382812 -1.25 7.15625 -1.410156 7.65625 -1.734375 C 8.15625 -2.054688 8.40625 -2.515625 8.40625 -3.109375 C 8.40625 -3.535156 8.265625 -3.867188 7.984375 -4.109375 C 7.710938 -4.347656 7.367188 -4.53125 6.953125 -4.65625 C 6.535156 -4.78125 5.976562 -4.898438 5.28125 -5.015625 C 4.34375 -5.191406 3.59375 -5.367188 3.03125 -5.546875 C 2.46875 -5.722656 1.984375 -6.03125 1.578125 -6.46875 C 1.179688 -6.90625 0.984375 -7.507812 0.984375 -8.28125 C 0.984375 -9.238281 1.378906 -10.019531 2.171875 -10.625 C 2.972656 -11.238281 4.085938 -11.546875 5.515625 -11.546875 C 6.253906 -11.546875 6.992188 -11.445312 7.734375 -11.25 C 8.472656 -11.0625 9.082031 -10.804688 9.5625 -10.484375 L 8.890625 -9.234375 C 7.941406 -9.890625 6.816406 -10.21875 5.515625 -10.21875 C 4.523438 -10.21875 3.78125 -10.039062 3.28125 -9.6875 C 2.78125 -9.34375 2.53125 -8.890625 2.53125 -8.328125 C 2.53125 -7.890625 2.671875 -7.539062 2.953125 -7.28125 C 3.234375 -7.019531 3.582031 -6.828125 4 -6.703125 C 4.425781 -6.578125 5.007812 -6.453125 5.75 -6.328125 C 6.664062 -6.148438 7.398438 -5.972656 7.953125 -5.796875 C 8.503906 -5.617188 8.976562 -5.316406 9.375 -4.890625 C 9.769531 -4.472656 9.96875 -3.894531 9.96875 -3.15625 C 9.96875 -2.15625 9.546875 -1.359375 8.703125 -0.765625 C 7.867188 -0.179688 6.710938 0.109375 5.234375 0.109375 Z M 5.234375 0.109375 "/></g></g></g><g fill="#161c27" fill-opacity="1"><g transform="translate(439.282663, 411.749999)"><g><path d="M 2.328125 -2.265625 C 2.660156 -2.265625 2.9375 -2.148438 3.15625 -1.921875 C 3.375 -1.703125 3.484375 -1.425781 3.484375 -1.09375 C 3.484375 -0.914062 3.457031 -0.722656 3.40625 -0.515625 C 3.351562 -0.316406 3.28125 -0.0859375 3.1875 0.171875 L 2.265625 3.1875 L 1.21875 3.1875 L 1.96875 0.015625 C 1.726562 -0.0546875 1.535156 -0.1875 1.390625 -0.375 C 1.242188 -0.570312 1.171875 -0.8125 1.171875 -1.09375 C 1.171875 -1.425781 1.28125 -1.703125 1.5 -1.921875 C 1.71875 -2.148438 1.992188 -2.265625 2.328125 -2.265625 Z M 2.328125 -2.265625 "/></g></g></g><g fill="#161c27" fill-opacity="1"><g transform="translate(443.901098, 411.749999)"><g/></g></g><g fill="#161c27" fill-opacity="1"><g transform="translate(449.608793, 411.749999)"><g><path d="M 6.171875 -11.546875 C 7.660156 -11.546875 8.804688 -11.171875 9.609375 -10.421875 C 10.410156 -9.679688 10.8125 -8.578125 10.8125 -7.109375 L 10.8125 0 L 9.328125 0 L 9.328125 -1.78125 C 8.984375 -1.1875 8.472656 -0.722656 7.796875 -0.390625 C 7.117188 -0.0546875 6.316406 0.109375 5.390625 0.109375 C 4.109375 0.109375 3.085938 -0.191406 2.328125 -0.796875 C 1.578125 -1.410156 1.203125 -2.21875 1.203125 -3.21875 C 1.203125 -4.195312 1.550781 -4.984375 2.25 -5.578125 C 2.957031 -6.171875 4.082031 -6.46875 5.625 -6.46875 L 9.265625 -6.46875 L 9.265625 -7.171875 C 9.265625 -8.160156 8.988281 -8.910156 8.4375 -9.421875 C 7.882812 -9.941406 7.078125 -10.203125 6.015625 -10.203125 C 5.285156 -10.203125 4.585938 -10.082031 3.921875 -9.84375 C 3.253906 -9.601562 2.679688 -9.269531 2.203125 -8.84375 L 1.5 -10 C 2.082031 -10.5 2.78125 -10.878906 3.59375 -11.140625 C 4.40625 -11.410156 5.265625 -11.546875 6.171875 -11.546875 Z M 5.625 -1.109375 C 6.5 -1.109375 7.25 -1.304688 7.875 -1.703125 C 8.5 -2.109375 8.960938 -2.6875 9.265625 -3.4375 L 9.265625 -5.3125 L 5.671875 -5.3125 C 3.703125 -5.3125 2.71875 -4.628906 2.71875 -3.265625 C 2.71875 -2.597656 2.972656 -2.070312 3.484375 -1.6875 C 3.992188 -1.300781 4.707031 -1.109375 5.625 -1.109375 Z M 5.625 -1.109375 "/></g></g></g><g fill="#161c27" fill-opacity="1"><g transform="translate(462.461984, 411.749999)"><g><path d="M 8 -11.546875 C 9.4375 -11.546875 10.578125 -11.128906 11.421875 -10.296875 C 12.273438 -9.460938 12.703125 -8.242188 12.703125 -6.640625 L 12.703125 0 L 11.15625 0 L 11.15625 -6.5 C 11.15625 -7.6875 10.859375 -8.59375 10.265625 -9.21875 C 9.671875 -9.84375 8.820312 -10.15625 7.71875 -10.15625 C 6.476562 -10.15625 5.5 -9.785156 4.78125 -9.046875 C 4.0625 -8.316406 3.703125 -7.304688 3.703125 -6.015625 L 3.703125 0 L 2.15625 0 L 2.15625 -11.46875 L 3.640625 -11.46875 L 3.640625 -9.34375 C 4.054688 -10.039062 4.640625 -10.582031 5.390625 -10.96875 C 6.140625 -11.351562 7.007812 -11.546875 8 -11.546875 Z M 8 -11.546875 "/></g></g></g><g fill="#161c27" fill-opacity="1"><g transform="translate(477.210488, 411.749999)"><g><path d="M 2.15625 -11.46875 L 3.703125 -11.46875 L 3.703125 0 L 2.15625 0 Z M 2.9375 -13.96875 C 2.625 -13.96875 2.359375 -14.078125 2.140625 -14.296875 C 1.921875 -14.515625 1.8125 -14.773438 1.8125 -15.078125 C 1.8125 -15.367188 1.921875 -15.625 2.140625 -15.84375 C 2.359375 -16.0625 2.625 -16.171875 2.9375 -16.171875 C 3.257812 -16.171875 3.53125 -16.066406 3.75 -15.859375 C 3.96875 -15.648438 4.078125 -15.398438 4.078125 -15.109375 C 4.078125 -14.785156 3.96875 -14.515625 3.75 -14.296875 C 3.53125 -14.078125 3.257812 -13.96875 2.9375 -13.96875 Z M 2.9375 -13.96875 "/></g></g></g><g fill="#161c27" fill-opacity="1"><g transform="translate(483.070686, 411.749999)"><g><path d="M 16.453125 -11.546875 C 17.890625 -11.546875 19.019531 -11.128906 19.84375 -10.296875 C 20.664062 -9.472656 21.078125 -8.253906 21.078125 -6.640625 L 21.078125 0 L 19.53125 0 L 19.53125 -6.5 C 19.53125 -7.6875 19.242188 -8.59375 18.671875 -9.21875 C 18.097656 -9.84375 17.285156 -10.15625 16.234375 -10.15625 C 15.046875 -10.15625 14.109375 -9.785156 13.421875 -9.046875 C 12.742188 -8.316406 12.40625 -7.304688 12.40625 -6.015625 L 12.40625 0 L 10.859375 0 L 10.859375 -6.5 C 10.859375 -7.6875 10.570312 -8.59375 10 -9.21875 C 9.425781 -9.84375 8.609375 -10.15625 7.546875 -10.15625 C 6.367188 -10.15625 5.429688 -9.785156 4.734375 -9.046875 C 4.046875 -8.316406 3.703125 -7.304688 3.703125 -6.015625 L 3.703125 0 L 2.15625 0 L 2.15625 -11.46875 L 3.640625 -11.46875 L 3.640625 -9.375 C 4.046875 -10.070312 4.613281 -10.609375 5.34375 -10.984375 C 6.070312 -11.359375 6.90625 -11.546875 7.84375 -11.546875 C 8.800781 -11.546875 9.632812 -11.34375 10.34375 -10.9375 C 11.050781 -10.53125 11.578125 -9.929688 11.921875 -9.140625 C 12.347656 -9.890625 12.957031 -10.476562 13.75 -10.90625 C 14.539062 -11.332031 15.441406 -11.546875 16.453125 -11.546875 Z M 16.453125 -11.546875 "/></g></g></g><g fill="#161c27" fill-opacity="1"><g transform="translate(506.184661, 411.749999)"><g><path d="M 6.171875 -11.546875 C 7.660156 -11.546875 8.804688 -11.171875 9.609375 -10.421875 C 10.410156 -9.679688 10.8125 -8.578125 10.8125 -7.109375 L 10.8125 0 L 9.328125 0 L 9.328125 -1.78125 C 8.984375 -1.1875 8.472656 -0.722656 7.796875 -0.390625 C 7.117188 -0.0546875 6.316406 0.109375 5.390625 0.109375 C 4.109375 0.109375 3.085938 -0.191406 2.328125 -0.796875 C 1.578125 -1.410156 1.203125 -2.21875 1.203125 -3.21875 C 1.203125 -4.195312 1.550781 -4.984375 2.25 -5.578125 C 2.957031 -6.171875 4.082031 -6.46875 5.625 -6.46875 L 9.265625 -6.46875 L 9.265625 -7.171875 C 9.265625 -8.160156 8.988281 -8.910156 8.4375 -9.421875 C 7.882812 -9.941406 7.078125 -10.203125 6.015625 -10.203125 C 5.285156 -10.203125 4.585938 -10.082031 3.921875 -9.84375 C 3.253906 -9.601562 2.679688 -9.269531 2.203125 -8.84375 L 1.5 -10 C 2.082031 -10.5 2.78125 -10.878906 3.59375 -11.140625 C 4.40625 -11.410156 5.265625 -11.546875 6.171875 -11.546875 Z M 5.625 -1.109375 C 6.5 -1.109375 7.25 -1.304688 7.875 -1.703125 C 8.5 -2.109375 8.960938 -2.6875 9.265625 -3.4375 L 9.265625 -5.3125 L 5.671875 -5.3125 C 3.703125 -5.3125 2.71875 -4.628906 2.71875 -3.265625 C 2.71875 -2.597656 2.972656 -2.070312 3.484375 -1.6875 C 3.992188 -1.300781 4.707031 -1.109375 5.625 -1.109375 Z M 5.625 -1.109375 "/></g></g></g><g fill="#161c27" fill-opacity="1"><g transform="translate(519.037863, 411.749999)"><g><path d="M 12.484375 -11.46875 L 12.484375 0 L 11 0 L 11 -2.09375 C 10.59375 -1.394531 10.035156 -0.851562 9.328125 -0.46875 C 8.617188 -0.0820312 7.804688 0.109375 6.890625 0.109375 C 5.390625 0.109375 4.207031 -0.304688 3.34375 -1.140625 C 2.476562 -1.972656 2.046875 -3.195312 2.046875 -4.8125 L 2.046875 -11.46875 L 3.59375 -11.46875 L 3.59375 -4.96875 C 3.59375 -3.757812 3.890625 -2.84375 4.484375 -2.21875 C 5.085938 -1.59375 5.941406 -1.28125 7.046875 -1.28125 C 8.242188 -1.28125 9.191406 -1.644531 9.890625 -2.375 C 10.585938 -3.113281 10.9375 -4.140625 10.9375 -5.453125 L 10.9375 -11.46875 Z M 12.484375 -11.46875 "/></g></g></g><g fill="#161c27" fill-opacity="1"><g transform="translate(533.699209, 411.749999)"><g><path d="M 9.453125 0 L 5.8125 -4.796875 L 2.15625 0 L 0.421875 0 L 4.953125 -5.890625 L 0.625 -11.46875 L 2.375 -11.46875 L 5.8125 -6.96875 L 9.265625 -11.46875 L 10.96875 -11.46875 L 6.640625 -5.890625 L 11.21875 0 Z M 9.453125 0 "/></g></g></g><g fill="#161c27" fill-opacity="1"><g transform="translate(545.332448, 411.749999)"><g><path d="M 2.328125 -2.265625 C 2.660156 -2.265625 2.9375 -2.148438 3.15625 -1.921875 C 3.375 -1.703125 3.484375 -1.425781 3.484375 -1.09375 C 3.484375 -0.914062 3.457031 -0.722656 3.40625 -0.515625 C 3.351562 -0.316406 3.28125 -0.0859375 3.1875 0.171875 L 2.265625 3.1875 L 1.21875 3.1875 L 1.96875 0.015625 C 1.726562 -0.0546875 1.535156 -0.1875 1.390625 -0.375 C 1.242188 -0.570312 1.171875 -0.8125 1.171875 -1.09375 C 1.171875 -1.425781 1.28125 -1.703125 1.5 -1.921875 C 1.71875 -2.148438 1.992188 -2.265625 2.328125 -2.265625 Z M 2.328125 -2.265625 "/></g></g></g><g fill="#161c27" fill-opacity="1"><g transform="translate(266.281146, 441.749998)"><g><path d="M 8.0625 -11.546875 C 9.132812 -11.546875 10.109375 -11.300781 10.984375 -10.8125 C 11.859375 -10.332031 12.539062 -9.648438 13.03125 -8.765625 C 13.53125 -7.878906 13.78125 -6.867188 13.78125 -5.734375 C 13.78125 -4.585938 13.53125 -3.566406 13.03125 -2.671875 C 12.539062 -1.785156 11.863281 -1.097656 11 -0.609375 C 10.132812 -0.128906 9.15625 0.109375 8.0625 0.109375 C 7.132812 0.109375 6.296875 -0.0820312 5.546875 -0.46875 C 4.796875 -0.851562 4.179688 -1.414062 3.703125 -2.15625 L 3.703125 4.234375 L 2.15625 4.234375 L 2.15625 -11.46875 L 3.640625 -11.46875 L 3.640625 -9.203125 C 4.109375 -9.953125 4.722656 -10.53125 5.484375 -10.9375 C 6.242188 -11.34375 7.101562 -11.546875 8.0625 -11.546875 Z M 7.953125 -1.265625 C 8.753906 -1.265625 9.476562 -1.445312 10.125 -1.8125 C 10.78125 -2.1875 11.296875 -2.710938 11.671875 -3.390625 C 12.046875 -4.078125 12.234375 -4.859375 12.234375 -5.734375 C 12.234375 -6.609375 12.046875 -7.378906 11.671875 -8.046875 C 11.296875 -8.722656 10.78125 -9.25 10.125 -9.625 C 9.476562 -10.007812 8.753906 -10.203125 7.953125 -10.203125 C 7.140625 -10.203125 6.410156 -10.007812 5.765625 -9.625 C 5.117188 -9.25 4.609375 -8.722656 4.234375 -8.046875 C 3.867188 -7.378906 3.6875 -6.609375 3.6875 -5.734375 C 3.6875 -4.859375 3.867188 -4.078125 4.234375 -3.390625 C 4.609375 -2.710938 5.117188 -2.1875 5.765625 -1.8125 C 6.410156 -1.445312 7.140625 -1.265625 7.953125 -1.265625 Z M 7.953125 -1.265625 "/></g></g></g><g fill="#161c27" fill-opacity="1"><g transform="translate(281.051428, 441.749998)"><g><path d="M 6.171875 -11.546875 C 7.660156 -11.546875 8.804688 -11.171875 9.609375 -10.421875 C 10.410156 -9.679688 10.8125 -8.578125 10.8125 -7.109375 L 10.8125 0 L 9.328125 0 L 9.328125 -1.78125 C 8.984375 -1.1875 8.472656 -0.722656 7.796875 -0.390625 C 7.117188 -0.0546875 6.316406 0.109375 5.390625 0.109375 C 4.109375 0.109375 3.085938 -0.191406 2.328125 -0.796875 C 1.578125 -1.410156 1.203125 -2.21875 1.203125 -3.21875 C 1.203125 -4.195312 1.550781 -4.984375 2.25 -5.578125 C 2.957031 -6.171875 4.082031 -6.46875 5.625 -6.46875 L 9.265625 -6.46875 L 9.265625 -7.171875 C 9.265625 -8.160156 8.988281 -8.910156 8.4375 -9.421875 C 7.882812 -9.941406 7.078125 -10.203125 6.015625 -10.203125 C 5.285156 -10.203125 4.585938 -10.082031 3.921875 -9.84375 C 3.253906 -9.601562 2.679688 -9.269531 2.203125 -8.84375 L 1.5 -10 C 2.082031 -10.5 2.78125 -10.878906 3.59375 -11.140625 C 4.40625 -11.410156 5.265625 -11.546875 6.171875 -11.546875 Z M 5.625 -1.109375 C 6.5 -1.109375 7.25 -1.304688 7.875 -1.703125 C 8.5 -2.109375 8.960938 -2.6875 9.265625 -3.4375 L 9.265625 -5.3125 L 5.671875 -5.3125 C 3.703125 -5.3125 2.71875 -4.628906 2.71875 -3.265625 C 2.71875 -2.597656 2.972656 -2.070312 3.484375 -1.6875 C 3.992188 -1.300781 4.707031 -1.109375 5.625 -1.109375 Z M 5.625 -1.109375 "/></g></g></g><g fill="#161c27" fill-opacity="1"><g transform="translate(293.90463, 441.749998)"><g><path d="M 11.796875 -11.46875 L 6.0625 1.375 C 5.59375 2.445312 5.050781 3.207031 4.4375 3.65625 C 3.832031 4.113281 3.101562 4.34375 2.25 4.34375 C 1.695312 4.34375 1.179688 4.253906 0.703125 4.078125 C 0.222656 3.898438 -0.191406 3.640625 -0.546875 3.296875 L 0.171875 2.140625 C 0.753906 2.722656 1.453125 3.015625 2.265625 3.015625 C 2.785156 3.015625 3.226562 2.867188 3.59375 2.578125 C 3.96875 2.285156 4.316406 1.789062 4.640625 1.09375 L 5.140625 -0.015625 L 0.015625 -11.46875 L 1.640625 -11.46875 L 5.953125 -1.71875 L 10.265625 -11.46875 Z M 11.796875 -11.46875 "/></g></g></g><g fill="#161c27" fill-opacity="1"><g transform="translate(305.71214, 441.749998)"><g><path d="M 5.234375 0.109375 C 4.304688 0.109375 3.414062 -0.0234375 2.5625 -0.296875 C 1.707031 -0.566406 1.039062 -0.90625 0.5625 -1.3125 L 1.265625 -2.53125 C 1.742188 -2.15625 2.34375 -1.847656 3.0625 -1.609375 C 3.789062 -1.367188 4.550781 -1.25 5.34375 -1.25 C 6.382812 -1.25 7.15625 -1.410156 7.65625 -1.734375 C 8.15625 -2.054688 8.40625 -2.515625 8.40625 -3.109375 C 8.40625 -3.535156 8.265625 -3.867188 7.984375 -4.109375 C 7.710938 -4.347656 7.367188 -4.53125 6.953125 -4.65625 C 6.535156 -4.78125 5.976562 -4.898438 5.28125 -5.015625 C 4.34375 -5.191406 3.59375 -5.367188 3.03125 -5.546875 C 2.46875 -5.722656 1.984375 -6.03125 1.578125 -6.46875 C 1.179688 -6.90625 0.984375 -7.507812 0.984375 -8.28125 C 0.984375 -9.238281 1.378906 -10.019531 2.171875 -10.625 C 2.972656 -11.238281 4.085938 -11.546875 5.515625 -11.546875 C 6.253906 -11.546875 6.992188 -11.445312 7.734375 -11.25 C 8.472656 -11.0625 9.082031 -10.804688 9.5625 -10.484375 L 8.890625 -9.234375 C 7.941406 -9.890625 6.816406 -10.21875 5.515625 -10.21875 C 4.523438 -10.21875 3.78125 -10.039062 3.28125 -9.6875 C 2.78125 -9.34375 2.53125 -8.890625 2.53125 -8.328125 C 2.53125 -7.890625 2.671875 -7.539062 2.953125 -7.28125 C 3.234375 -7.019531 3.582031 -6.828125 4 -6.703125 C 4.425781 -6.578125 5.007812 -6.453125 5.75 -6.328125 C 6.664062 -6.148438 7.398438 -5.972656 7.953125 -5.796875 C 8.503906 -5.617188 8.976562 -5.316406 9.375 -4.890625 C 9.769531 -4.472656 9.96875 -3.894531 9.96875 -3.15625 C 9.96875 -2.15625 9.546875 -1.359375 8.703125 -0.765625 C 7.867188 -0.179688 6.710938 0.109375 5.234375 0.109375 Z M 5.234375 0.109375 "/></g></g></g><g fill="#161c27" fill-opacity="1"><g transform="translate(316.365044, 441.749998)"><g><path d="M 6.171875 -11.546875 C 7.660156 -11.546875 8.804688 -11.171875 9.609375 -10.421875 C 10.410156 -9.679688 10.8125 -8.578125 10.8125 -7.109375 L 10.8125 0 L 9.328125 0 L 9.328125 -1.78125 C 8.984375 -1.1875 8.472656 -0.722656 7.796875 -0.390625 C 7.117188 -0.0546875 6.316406 0.109375 5.390625 0.109375 C 4.109375 0.109375 3.085938 -0.191406 2.328125 -0.796875 C 1.578125 -1.410156 1.203125 -2.21875 1.203125 -3.21875 C 1.203125 -4.195312 1.550781 -4.984375 2.25 -5.578125 C 2.957031 -6.171875 4.082031 -6.46875 5.625 -6.46875 L 9.265625 -6.46875 L 9.265625 -7.171875 C 9.265625 -8.160156 8.988281 -8.910156 8.4375 -9.421875 C 7.882812 -9.941406 7.078125 -10.203125 6.015625 -10.203125 C 5.285156 -10.203125 4.585938 -10.082031 3.921875 -9.84375 C 3.253906 -9.601562 2.679688 -9.269531 2.203125 -8.84375 L 1.5 -10 C 2.082031 -10.5 2.78125 -10.878906 3.59375 -11.140625 C 4.40625 -11.410156 5.265625 -11.546875 6.171875 -11.546875 Z M 5.625 -1.109375 C 6.5 -1.109375 7.25 -1.304688 7.875 -1.703125 C 8.5 -2.109375 8.960938 -2.6875 9.265625 -3.4375 L 9.265625 -5.3125 L 5.671875 -5.3125 C 3.703125 -5.3125 2.71875 -4.628906 2.71875 -3.265625 C 2.71875 -2.597656 2.972656 -2.070312 3.484375 -1.6875 C 3.992188 -1.300781 4.707031 -1.109375 5.625 -1.109375 Z M 5.625 -1.109375 "/></g></g></g><g fill="#161c27" fill-opacity="1"><g transform="translate(329.218246, 441.749998)"><g><path d="M 12.765625 -11.46875 L 12.765625 -1.390625 C 12.765625 0.554688 12.289062 2 11.34375 2.9375 C 10.394531 3.875 8.960938 4.34375 7.046875 4.34375 C 5.984375 4.34375 4.972656 4.1875 4.015625 3.875 C 3.066406 3.5625 2.296875 3.128906 1.703125 2.578125 L 2.484375 1.390625 C 3.035156 1.890625 3.707031 2.273438 4.5 2.546875 C 5.289062 2.828125 6.125 2.96875 7 2.96875 C 8.445312 2.96875 9.507812 2.628906 10.1875 1.953125 C 10.875 1.273438 11.21875 0.222656 11.21875 -1.203125 L 11.21875 -2.65625 C 10.738281 -1.925781 10.109375 -1.375 9.328125 -1 C 8.554688 -0.625 7.695312 -0.4375 6.75 -0.4375 C 5.675781 -0.4375 4.695312 -0.671875 3.8125 -1.140625 C 2.9375 -1.617188 2.25 -2.28125 1.75 -3.125 C 1.25 -3.976562 1 -4.941406 1 -6.015625 C 1 -7.085938 1.25 -8.046875 1.75 -8.890625 C 2.25 -9.734375 2.9375 -10.382812 3.8125 -10.84375 C 4.6875 -11.3125 5.664062 -11.546875 6.75 -11.546875 C 7.726562 -11.546875 8.609375 -11.347656 9.390625 -10.953125 C 10.179688 -10.566406 10.816406 -10.003906 11.296875 -9.265625 L 11.296875 -11.46875 Z M 6.90625 -1.8125 C 7.738281 -1.8125 8.488281 -1.988281 9.15625 -2.34375 C 9.820312 -2.695312 10.335938 -3.191406 10.703125 -3.828125 C 11.078125 -4.472656 11.265625 -5.203125 11.265625 -6.015625 C 11.265625 -6.828125 11.078125 -7.550781 10.703125 -8.1875 C 10.335938 -8.820312 9.820312 -9.316406 9.15625 -9.671875 C 8.5 -10.023438 7.75 -10.203125 6.90625 -10.203125 C 6.082031 -10.203125 5.335938 -10.023438 4.671875 -9.671875 C 4.015625 -9.328125 3.5 -8.832031 3.125 -8.1875 C 2.757812 -7.550781 2.578125 -6.828125 2.578125 -6.015625 C 2.578125 -5.203125 2.757812 -4.472656 3.125 -3.828125 C 3.5 -3.191406 4.015625 -2.695312 4.671875 -2.34375 C 5.335938 -1.988281 6.082031 -1.8125 6.90625 -1.8125 Z M 6.90625 -1.8125 "/></g></g></g><g fill="#161c27" fill-opacity="1"><g transform="translate(344.16281, 441.749998)"><g><path d="M 12.140625 -5.25 L 2.546875 -5.25 C 2.640625 -4.0625 3.097656 -3.097656 3.921875 -2.359375 C 4.753906 -1.628906 5.800781 -1.265625 7.0625 -1.265625 C 7.769531 -1.265625 8.421875 -1.390625 9.015625 -1.640625 C 9.617188 -1.898438 10.140625 -2.273438 10.578125 -2.765625 L 11.4375 -1.765625 C 10.9375 -1.148438 10.300781 -0.679688 9.53125 -0.359375 C 8.769531 -0.046875 7.929688 0.109375 7.015625 0.109375 C 5.835938 0.109375 4.796875 -0.140625 3.890625 -0.640625 C 2.984375 -1.140625 2.273438 -1.832031 1.765625 -2.71875 C 1.253906 -3.601562 1 -4.609375 1 -5.734375 C 1 -6.847656 1.242188 -7.847656 1.734375 -8.734375 C 2.222656 -9.617188 2.890625 -10.304688 3.734375 -10.796875 C 4.585938 -11.296875 5.546875 -11.546875 6.609375 -11.546875 C 7.671875 -11.546875 8.617188 -11.296875 9.453125 -10.796875 C 10.296875 -10.304688 10.957031 -9.625 11.4375 -8.75 C 11.914062 -7.875 12.15625 -6.867188 12.15625 -5.734375 Z M 6.609375 -10.21875 C 5.503906 -10.21875 4.578125 -9.863281 3.828125 -9.15625 C 3.078125 -8.457031 2.648438 -7.539062 2.546875 -6.40625 L 10.6875 -6.40625 C 10.582031 -7.539062 10.15625 -8.457031 9.40625 -9.15625 C 8.65625 -9.863281 7.722656 -10.21875 6.609375 -10.21875 Z M 6.609375 -10.21875 "/></g></g></g><g fill="#161c27" fill-opacity="1"><g transform="translate(357.320997, 441.749998)"><g><path d="M 5.234375 0.109375 C 4.304688 0.109375 3.414062 -0.0234375 2.5625 -0.296875 C 1.707031 -0.566406 1.039062 -0.90625 0.5625 -1.3125 L 1.265625 -2.53125 C 1.742188 -2.15625 2.34375 -1.847656 3.0625 -1.609375 C 3.789062 -1.367188 4.550781 -1.25 5.34375 -1.25 C 6.382812 -1.25 7.15625 -1.410156 7.65625 -1.734375 C 8.15625 -2.054688 8.40625 -2.515625 8.40625 -3.109375 C 8.40625 -3.535156 8.265625 -3.867188 7.984375 -4.109375 C 7.710938 -4.347656 7.367188 -4.53125 6.953125 -4.65625 C 6.535156 -4.78125 5.976562 -4.898438 5.28125 -5.015625 C 4.34375 -5.191406 3.59375 -5.367188 3.03125 -5.546875 C 2.46875 -5.722656 1.984375 -6.03125 1.578125 -6.46875 C 1.179688 -6.90625 0.984375 -7.507812 0.984375 -8.28125 C 0.984375 -9.238281 1.378906 -10.019531 2.171875 -10.625 C 2.972656 -11.238281 4.085938 -11.546875 5.515625 -11.546875 C 6.253906 -11.546875 6.992188 -11.445312 7.734375 -11.25 C 8.472656 -11.0625 9.082031 -10.804688 9.5625 -10.484375 L 8.890625 -9.234375 C 7.941406 -9.890625 6.816406 -10.21875 5.515625 -10.21875 C 4.523438 -10.21875 3.78125 -10.039062 3.28125 -9.6875 C 2.78125 -9.34375 2.53125 -8.890625 2.53125 -8.328125 C 2.53125 -7.890625 2.671875 -7.539062 2.953125 -7.28125 C 3.234375 -7.019531 3.582031 -6.828125 4 -6.703125 C 4.425781 -6.578125 5.007812 -6.453125 5.75 -6.328125 C 6.664062 -6.148438 7.398438 -5.972656 7.953125 -5.796875 C 8.503906 -5.617188 8.976562 -5.316406 9.375 -4.890625 C 9.769531 -4.472656 9.96875 -3.894531 9.96875 -3.15625 C 9.96875 -2.15625 9.546875 -1.359375 8.703125 -0.765625 C 7.867188 -0.179688 6.710938 0.109375 5.234375 0.109375 Z M 5.234375 0.109375 "/></g></g></g><g fill="#161c27" fill-opacity="1"><g transform="translate(367.973901, 441.749998)"><g/></g></g><g fill="#161c27" fill-opacity="1"><g transform="translate(373.681596, 441.749998)"><g><path d="M 12.140625 -5.25 L 2.546875 -5.25 C 2.640625 -4.0625 3.097656 -3.097656 3.921875 -2.359375 C 4.753906 -1.628906 5.800781 -1.265625 7.0625 -1.265625 C 7.769531 -1.265625 8.421875 -1.390625 9.015625 -1.640625 C 9.617188 -1.898438 10.140625 -2.273438 10.578125 -2.765625 L 11.4375 -1.765625 C 10.9375 -1.148438 10.300781 -0.679688 9.53125 -0.359375 C 8.769531 -0.046875 7.929688 0.109375 7.015625 0.109375 C 5.835938 0.109375 4.796875 -0.140625 3.890625 -0.640625 C 2.984375 -1.140625 2.273438 -1.832031 1.765625 -2.71875 C 1.253906 -3.601562 1 -4.609375 1 -5.734375 C 1 -6.847656 1.242188 -7.847656 1.734375 -8.734375 C 2.222656 -9.617188 2.890625 -10.304688 3.734375 -10.796875 C 4.585938 -11.296875 5.546875 -11.546875 6.609375 -11.546875 C 7.671875 -11.546875 8.617188 -11.296875 9.453125 -10.796875 C 10.296875 -10.304688 10.957031 -9.625 11.4375 -8.75 C 11.914062 -7.875 12.15625 -6.867188 12.15625 -5.734375 Z M 6.609375 -10.21875 C 5.503906 -10.21875 4.578125 -9.863281 3.828125 -9.15625 C 3.078125 -8.457031 2.648438 -7.539062 2.546875 -6.40625 L 10.6875 -6.40625 C 10.582031 -7.539062 10.15625 -8.457031 9.40625 -9.15625 C 8.65625 -9.863281 7.722656 -10.21875 6.609375 -10.21875 Z M 6.609375 -10.21875 "/></g></g></g><g fill="#161c27" fill-opacity="1"><g transform="translate(386.839783, 441.749998)"><g><path d="M 8.203125 -0.703125 C 7.910156 -0.441406 7.546875 -0.238281 7.109375 -0.09375 C 6.679688 0.0390625 6.238281 0.109375 5.78125 0.109375 C 4.695312 0.109375 3.863281 -0.179688 3.28125 -0.765625 C 2.707031 -1.347656 2.421875 -2.164062 2.421875 -3.21875 L 2.421875 -10.15625 L 0.375 -10.15625 L 0.375 -11.46875 L 2.421875 -11.46875 L 2.421875 -13.96875 L 3.96875 -13.96875 L 3.96875 -11.46875 L 7.453125 -11.46875 L 7.453125 -10.15625 L 3.96875 -10.15625 L 3.96875 -3.3125 C 3.96875 -2.625 4.132812 -2.101562 4.46875 -1.75 C 4.8125 -1.394531 5.304688 -1.21875 5.953125 -1.21875 C 6.273438 -1.21875 6.582031 -1.269531 6.875 -1.375 C 7.175781 -1.476562 7.4375 -1.625 7.65625 -1.8125 Z M 8.203125 -0.703125 "/></g></g></g><g fill="#161c27" fill-opacity="1"><g transform="translate(395.68452, 441.749998)"><g/></g></g><g fill="#161c27" fill-opacity="1"><g transform="translate(401.392215, 441.749998)"><g><path d="M 8.0625 -11.546875 C 9.132812 -11.546875 10.109375 -11.300781 10.984375 -10.8125 C 11.859375 -10.332031 12.539062 -9.648438 13.03125 -8.765625 C 13.53125 -7.878906 13.78125 -6.867188 13.78125 -5.734375 C 13.78125 -4.597656 13.53125 -3.585938 13.03125 -2.703125 C 12.539062 -1.816406 11.859375 -1.125 10.984375 -0.625 C 10.109375 -0.132812 9.132812 0.109375 8.0625 0.109375 C 7.101562 0.109375 6.242188 -0.09375 5.484375 -0.5 C 4.722656 -0.90625 4.109375 -1.492188 3.640625 -2.265625 L 3.640625 0 L 2.15625 0 L 2.15625 -16.171875 L 3.703125 -16.171875 L 3.703125 -9.28125 C 4.179688 -10.019531 4.796875 -10.582031 5.546875 -10.96875 C 6.296875 -11.351562 7.132812 -11.546875 8.0625 -11.546875 Z M 7.953125 -1.265625 C 8.753906 -1.265625 9.476562 -1.445312 10.125 -1.8125 C 10.78125 -2.1875 11.296875 -2.710938 11.671875 -3.390625 C 12.046875 -4.078125 12.234375 -4.859375 12.234375 -5.734375 C 12.234375 -6.609375 12.046875 -7.382812 11.671875 -8.0625 C 11.296875 -8.75 10.78125 -9.273438 10.125 -9.640625 C 9.476562 -10.015625 8.753906 -10.203125 7.953125 -10.203125 C 7.140625 -10.203125 6.410156 -10.015625 5.765625 -9.640625 C 5.117188 -9.273438 4.609375 -8.75 4.234375 -8.0625 C 3.867188 -7.382812 3.6875 -6.609375 3.6875 -5.734375 C 3.6875 -4.859375 3.867188 -4.078125 4.234375 -3.390625 C 4.609375 -2.710938 5.117188 -2.1875 5.765625 -1.8125 C 6.410156 -1.445312 7.140625 -1.265625 7.953125 -1.265625 Z M 7.953125 -1.265625 "/></g></g></g><g fill="#161c27" fill-opacity="1"><g transform="translate(416.162497, 441.749998)"><g><path d="M 2.15625 -11.46875 L 3.703125 -11.46875 L 3.703125 0 L 2.15625 0 Z M 2.9375 -13.96875 C 2.625 -13.96875 2.359375 -14.078125 2.140625 -14.296875 C 1.921875 -14.515625 1.8125 -14.773438 1.8125 -15.078125 C 1.8125 -15.367188 1.921875 -15.625 2.140625 -15.84375 C 2.359375 -16.0625 2.625 -16.171875 2.9375 -16.171875 C 3.257812 -16.171875 3.53125 -16.066406 3.75 -15.859375 C 3.96875 -15.648438 4.078125 -15.398438 4.078125 -15.109375 C 4.078125 -14.785156 3.96875 -14.515625 3.75 -14.296875 C 3.53125 -14.078125 3.257812 -13.96875 2.9375 -13.96875 Z M 2.9375 -13.96875 "/></g></g></g><g fill="#161c27" fill-opacity="1"><g transform="translate(422.022684, 441.749998)"><g><path d="M 12.140625 -5.25 L 2.546875 -5.25 C 2.640625 -4.0625 3.097656 -3.097656 3.921875 -2.359375 C 4.753906 -1.628906 5.800781 -1.265625 7.0625 -1.265625 C 7.769531 -1.265625 8.421875 -1.390625 9.015625 -1.640625 C 9.617188 -1.898438 10.140625 -2.273438 10.578125 -2.765625 L 11.4375 -1.765625 C 10.9375 -1.148438 10.300781 -0.679688 9.53125 -0.359375 C 8.769531 -0.046875 7.929688 0.109375 7.015625 0.109375 C 5.835938 0.109375 4.796875 -0.140625 3.890625 -0.640625 C 2.984375 -1.140625 2.273438 -1.832031 1.765625 -2.71875 C 1.253906 -3.601562 1 -4.609375 1 -5.734375 C 1 -6.847656 1.242188 -7.847656 1.734375 -8.734375 C 2.222656 -9.617188 2.890625 -10.304688 3.734375 -10.796875 C 4.585938 -11.296875 5.546875 -11.546875 6.609375 -11.546875 C 7.671875 -11.546875 8.617188 -11.296875 9.453125 -10.796875 C 10.296875 -10.304688 10.957031 -9.625 11.4375 -8.75 C 11.914062 -7.875 12.15625 -6.867188 12.15625 -5.734375 Z M 6.609375 -10.21875 C 5.503906 -10.21875 4.578125 -9.863281 3.828125 -9.15625 C 3.078125 -8.457031 2.648438 -7.539062 2.546875 -6.40625 L 10.6875 -6.40625 C 10.582031 -7.539062 10.15625 -8.457031 9.40625 -9.15625 C 8.65625 -9.863281 7.722656 -10.21875 6.609375 -10.21875 Z M 6.609375 -10.21875 "/></g></g></g><g fill="#161c27" fill-opacity="1"><g transform="translate(435.180871, 441.749998)"><g><path d="M 8 -11.546875 C 9.4375 -11.546875 10.578125 -11.128906 11.421875 -10.296875 C 12.273438 -9.460938 12.703125 -8.242188 12.703125 -6.640625 L 12.703125 0 L 11.15625 0 L 11.15625 -6.5 C 11.15625 -7.6875 10.859375 -8.59375 10.265625 -9.21875 C 9.671875 -9.84375 8.820312 -10.15625 7.71875 -10.15625 C 6.476562 -10.15625 5.5 -9.785156 4.78125 -9.046875 C 4.0625 -8.316406 3.703125 -7.304688 3.703125 -6.015625 L 3.703125 0 L 2.15625 0 L 2.15625 -11.46875 L 3.640625 -11.46875 L 3.640625 -9.34375 C 4.054688 -10.039062 4.640625 -10.582031 5.390625 -10.96875 C 6.140625 -11.351562 7.007812 -11.546875 8 -11.546875 Z M 8 -11.546875 "/></g></g></g><g fill="#161c27" fill-opacity="1"><g transform="translate(449.929375, 441.749998)"><g/></g></g><g fill="#161c27" fill-opacity="1"><g transform="translate(455.637069, 441.749998)"><g><path d="M 12.625 -16.171875 L 12.625 0 L 11.140625 0 L 11.140625 -2.265625 C 10.671875 -1.492188 10.054688 -0.90625 9.296875 -0.5 C 8.535156 -0.09375 7.675781 0.109375 6.71875 0.109375 C 5.632812 0.109375 4.65625 -0.132812 3.78125 -0.625 C 2.914062 -1.125 2.234375 -1.816406 1.734375 -2.703125 C 1.242188 -3.585938 1 -4.597656 1 -5.734375 C 1 -6.867188 1.242188 -7.878906 1.734375 -8.765625 C 2.234375 -9.648438 2.914062 -10.332031 3.78125 -10.8125 C 4.65625 -11.300781 5.632812 -11.546875 6.71875 -11.546875 C 7.644531 -11.546875 8.484375 -11.351562 9.234375 -10.96875 C 9.984375 -10.582031 10.597656 -10.019531 11.078125 -9.28125 L 11.078125 -16.171875 Z M 6.84375 -1.265625 C 7.644531 -1.265625 8.367188 -1.445312 9.015625 -1.8125 C 9.660156 -2.1875 10.164062 -2.710938 10.53125 -3.390625 C 10.90625 -4.078125 11.09375 -4.859375 11.09375 -5.734375 C 11.09375 -6.609375 10.90625 -7.382812 10.53125 -8.0625 C 10.164062 -8.75 9.660156 -9.273438 9.015625 -9.640625 C 8.367188 -10.015625 7.644531 -10.203125 6.84375 -10.203125 C 6.03125 -10.203125 5.300781 -10.015625 4.65625 -9.640625 C 4.007812 -9.273438 3.5 -8.75 3.125 -8.0625 C 2.757812 -7.382812 2.578125 -6.609375 2.578125 -5.734375 C 2.578125 -4.859375 2.757812 -4.078125 3.125 -3.390625 C 3.5 -2.710938 4.007812 -2.1875 4.65625 -1.8125 C 5.300781 -1.445312 6.03125 -1.265625 6.84375 -1.265625 Z M 6.84375 -1.265625 "/></g></g></g><g fill="#161c27" fill-opacity="1"><g transform="translate(470.40734, 441.749998)"><g><path d="M 1.5 -15.265625 L 2.875 -15.265625 L 2.765625 -9.5 L 1.609375 -9.5 Z M 1.5 -15.265625 "/></g></g></g><g fill="#161c27" fill-opacity="1"><g transform="translate(474.807913, 441.749998)"><g><path d="M 6.171875 -11.546875 C 7.660156 -11.546875 8.804688 -11.171875 9.609375 -10.421875 C 10.410156 -9.679688 10.8125 -8.578125 10.8125 -7.109375 L 10.8125 0 L 9.328125 0 L 9.328125 -1.78125 C 8.984375 -1.1875 8.472656 -0.722656 7.796875 -0.390625 C 7.117188 -0.0546875 6.316406 0.109375 5.390625 0.109375 C 4.109375 0.109375 3.085938 -0.191406 2.328125 -0.796875 C 1.578125 -1.410156 1.203125 -2.21875 1.203125 -3.21875 C 1.203125 -4.195312 1.550781 -4.984375 2.25 -5.578125 C 2.957031 -6.171875 4.082031 -6.46875 5.625 -6.46875 L 9.265625 -6.46875 L 9.265625 -7.171875 C 9.265625 -8.160156 8.988281 -8.910156 8.4375 -9.421875 C 7.882812 -9.941406 7.078125 -10.203125 6.015625 -10.203125 C 5.285156 -10.203125 4.585938 -10.082031 3.921875 -9.84375 C 3.253906 -9.601562 2.679688 -9.269531 2.203125 -8.84375 L 1.5 -10 C 2.082031 -10.5 2.78125 -10.878906 3.59375 -11.140625 C 4.40625 -11.410156 5.265625 -11.546875 6.171875 -11.546875 Z M 5.625 -1.109375 C 6.5 -1.109375 7.25 -1.304688 7.875 -1.703125 C 8.5 -2.109375 8.960938 -2.6875 9.265625 -3.4375 L 9.265625 -5.3125 L 5.671875 -5.3125 C 3.703125 -5.3125 2.71875 -4.628906 2.71875 -3.265625 C 2.71875 -2.597656 2.972656 -2.070312 3.484375 -1.6875 C 3.992188 -1.300781 4.707031 -1.109375 5.625 -1.109375 Z M 5.625 -1.109375 "/></g></g></g><g fill="#161c27" fill-opacity="1"><g transform="translate(487.661116, 441.749998)"><g><path d="M 12.484375 -11.46875 L 12.484375 0 L 11 0 L 11 -2.09375 C 10.59375 -1.394531 10.035156 -0.851562 9.328125 -0.46875 C 8.617188 -0.0820312 7.804688 0.109375 6.890625 0.109375 C 5.390625 0.109375 4.207031 -0.304688 3.34375 -1.140625 C 2.476562 -1.972656 2.046875 -3.195312 2.046875 -4.8125 L 2.046875 -11.46875 L 3.59375 -11.46875 L 3.59375 -4.96875 C 3.59375 -3.757812 3.890625 -2.84375 4.484375 -2.21875 C 5.085938 -1.59375 5.941406 -1.28125 7.046875 -1.28125 C 8.242188 -1.28125 9.191406 -1.644531 9.890625 -2.375 C 10.585938 -3.113281 10.9375 -4.140625 10.9375 -5.453125 L 10.9375 -11.46875 Z M 12.484375 -11.46875 "/></g></g></g><g fill="#161c27" fill-opacity="1"><g transform="translate(502.322484, 441.749998)"><g><path d="M 8.203125 -0.703125 C 7.910156 -0.441406 7.546875 -0.238281 7.109375 -0.09375 C 6.679688 0.0390625 6.238281 0.109375 5.78125 0.109375 C 4.695312 0.109375 3.863281 -0.179688 3.28125 -0.765625 C 2.707031 -1.347656 2.421875 -2.164062 2.421875 -3.21875 L 2.421875 -10.15625 L 0.375 -10.15625 L 0.375 -11.46875 L 2.421875 -11.46875 L 2.421875 -13.96875 L 3.96875 -13.96875 L 3.96875 -11.46875 L 7.453125 -11.46875 L 7.453125 -10.15625 L 3.96875 -10.15625 L 3.96875 -3.3125 C 3.96875 -2.625 4.132812 -2.101562 4.46875 -1.75 C 4.8125 -1.394531 5.304688 -1.21875 5.953125 -1.21875 C 6.273438 -1.21875 6.582031 -1.269531 6.875 -1.375 C 7.175781 -1.476562 7.4375 -1.625 7.65625 -1.8125 Z M 8.203125 -0.703125 "/></g></g></g><g fill="#161c27" fill-opacity="1"><g transform="translate(511.16721, 441.749998)"><g><path d="M 3.640625 -9.21875 C 4.003906 -9.988281 4.546875 -10.566406 5.265625 -10.953125 C 5.984375 -11.347656 6.875 -11.546875 7.9375 -11.546875 L 7.9375 -10.046875 L 7.5625 -10.0625 C 6.351562 -10.0625 5.40625 -9.691406 4.71875 -8.953125 C 4.039062 -8.210938 3.703125 -7.175781 3.703125 -5.84375 L 3.703125 0 L 2.15625 0 L 2.15625 -11.46875 L 3.640625 -11.46875 Z M 3.640625 -9.21875 "/></g></g></g><g fill="#161c27" fill-opacity="1"><g transform="translate(519.903034, 441.749998)"><g><path d="M 12.140625 -5.25 L 2.546875 -5.25 C 2.640625 -4.0625 3.097656 -3.097656 3.921875 -2.359375 C 4.753906 -1.628906 5.800781 -1.265625 7.0625 -1.265625 C 7.769531 -1.265625 8.421875 -1.390625 9.015625 -1.640625 C 9.617188 -1.898438 10.140625 -2.273438 10.578125 -2.765625 L 11.4375 -1.765625 C 10.9375 -1.148438 10.300781 -0.679688 9.53125 -0.359375 C 8.769531 -0.046875 7.929688 0.109375 7.015625 0.109375 C 5.835938 0.109375 4.796875 -0.140625 3.890625 -0.640625 C 2.984375 -1.140625 2.273438 -1.832031 1.765625 -2.71875 C 1.253906 -3.601562 1 -4.609375 1 -5.734375 C 1 -6.847656 1.242188 -7.847656 1.734375 -8.734375 C 2.222656 -9.617188 2.890625 -10.304688 3.734375 -10.796875 C 4.585938 -11.296875 5.546875 -11.546875 6.609375 -11.546875 C 7.671875 -11.546875 8.617188 -11.296875 9.453125 -10.796875 C 10.296875 -10.304688 10.957031 -9.625 11.4375 -8.75 C 11.914062 -7.875 12.15625 -6.867188 12.15625 -5.734375 Z M 6.609375 -10.21875 C 5.503906 -10.21875 4.578125 -9.863281 3.828125 -9.15625 C 3.078125 -8.457031 2.648438 -7.539062 2.546875 -6.40625 L 10.6875 -6.40625 C 10.582031 -7.539062 10.15625 -8.457031 9.40625 -9.15625 C 8.65625 -9.863281 7.722656 -10.21875 6.609375 -10.21875 Z M 6.609375 -10.21875 "/></g></g></g><g fill="#161c27" fill-opacity="1"><g transform="translate(533.061221, 441.749998)"><g><path d="M 5.234375 0.109375 C 4.304688 0.109375 3.414062 -0.0234375 2.5625 -0.296875 C 1.707031 -0.566406 1.039062 -0.90625 0.5625 -1.3125 L 1.265625 -2.53125 C 1.742188 -2.15625 2.34375 -1.847656 3.0625 -1.609375 C 3.789062 -1.367188 4.550781 -1.25 5.34375 -1.25 C 6.382812 -1.25 7.15625 -1.410156 7.65625 -1.734375 C 8.15625 -2.054688 8.40625 -2.515625 8.40625 -3.109375 C 8.40625 -3.535156 8.265625 -3.867188 7.984375 -4.109375 C 7.710938 -4.347656 7.367188 -4.53125 6.953125 -4.65625 C 6.535156 -4.78125 5.976562 -4.898438 5.28125 -5.015625 C 4.34375 -5.191406 3.59375 -5.367188 3.03125 -5.546875 C 2.46875 -5.722656 1.984375 -6.03125 1.578125 -6.46875 C 1.179688 -6.90625 0.984375 -7.507812 0.984375 -8.28125 C 0.984375 -9.238281 1.378906 -10.019531 2.171875 -10.625 C 2.972656 -11.238281 4.085938 -11.546875 5.515625 -11.546875 C 6.253906 -11.546875 6.992188 -11.445312 7.734375 -11.25 C 8.472656 -11.0625 9.082031 -10.804688 9.5625 -10.484375 L 8.890625 -9.234375 C 7.941406 -9.890625 6.816406 -10.21875 5.515625 -10.21875 C 4.523438 -10.21875 3.78125 -10.039062 3.28125 -9.6875 C 2.78125 -9.34375 2.53125 -8.890625 2.53125 -8.328125 C 2.53125 -7.890625 2.671875 -7.539062 2.953125 -7.28125 C 3.234375 -7.019531 3.582031 -6.828125 4 -6.703125 C 4.425781 -6.578125 5.007812 -6.453125 5.75 -6.328125 C 6.664062 -6.148438 7.398438 -5.972656 7.953125 -5.796875 C 8.503906 -5.617188 8.976562 -5.316406 9.375 -4.890625 C 9.769531 -4.472656 9.96875 -3.894531 9.96875 -3.15625 C 9.96875 -2.15625 9.546875 -1.359375 8.703125 -0.765625 C 7.867188 -0.179688 6.710938 0.109375 5.234375 0.109375 Z M 5.234375 0.109375 "/></g></g></g></svg>