<svg xmlns="http://www.w3.org/2000/svg" xmlns:xlink="http://www.w3.org/1999/xlink" width="1080" zoomAndPan="magnify" viewBox="0 0 810 809.999993" height="1080" preserveAspectRatio="xMidYMid meet" version="1.0"><defs><g/><clipPath id="4c87ba3a97"><path d="M 189.789062 255.050781 L 599 255.050781 L 599 588.050781 L 189.789062 588.050781 Z M 189.789062 255.050781 " clip-rule="nonzero"/></clipPath></defs><path fill="#393939" d="M 423.664062 338.210938 L 426.953125 367.410156 L 430.246094 396.609375 L 423.664062 338.210938 " fill-opacity="1" fill-rule="nonzero"/><g clip-path="url(#4c87ba3a97)"><path fill="#393939" d="M 343.746094 588.050781 L 345.535156 584.039062 C 354.5625 566.167969 355.28125 553.675781 347.6875 546.5625 C 344.109375 543.523438 338.84375 540.988281 331.886719 538.960938 C 288.492188 529.402344 260.207031 521.101562 247.027344 514.0625 C 224.328125 502.40625 209.601562 489.933594 202.855469 476.652344 C 194.238281 464.75 189.894531 443.121094 189.816406 411.765625 C 190.292969 385.117188 196.308594 358.015625 207.863281 330.457031 C 215.582031 310.160156 235.296875 292.574219 267.003906 277.695312 C 301.949219 262.597656 341.660156 255.085938 386.136719 255.164062 C 487.164062 256.789062 552.722656 281.925781 582.8125 330.570312 C 595.78125 353.511719 600.691406 381.777344 597.550781 415.367188 C 594.40625 449.488281 582.945312 478.410156 563.171875 502.136719 C 558.199219 507.566406 552.757812 512.371094 546.859375 516.550781 C 544.292969 519.234375 534.722656 524.414062 518.152344 532.082031 C 514.890625 533.832031 504.40625 537.320312 486.695312 542.554688 C 444.359375 552.851562 418.105469 559.957031 407.925781 563.871094 C 395.878906 567.566406 374.484375 575.625 343.746094 588.050781 " fill-opacity="1" fill-rule="nonzero"/></g><g fill="#edeced" fill-opacity="1"><g transform="translate(313.996701, 322.88722)"><g><path d="M 25.769531 -24.039062 L 25.695312 -24.039062 L 15.125 -4.023438 L 4.703125 -24.039062 L 4.589844 -24.039062 L 1.355469 0.0390625 L 1.957031 0.0390625 L 4.476562 -18.621094 L 13.84375 -0.601562 L 13.996094 -0.601562 L 23.664062 -18.921875 L 25.882812 0.0390625 L 28.589844 0.0390625 Z M 25.769531 -24.039062 "/></g></g></g><g fill="#edeced" fill-opacity="1"><g transform="translate(344.128135, 322.88722)"><g><path d="M 19.675781 0.0390625 L 22.570312 0.0390625 L 12.226562 -24.039062 L 12.039062 -24.039062 L 1.316406 0.0390625 L 2.144531 0.0390625 L 6.394531 -9.441406 L 15.574219 -9.441406 Z M 6.660156 -10.082031 L 11.058594 -19.976562 L 15.3125 -10.082031 Z M 6.660156 -10.082031 "/></g></g></g><g fill="#edeced" fill-opacity="1"><g transform="translate(368.052718, 322.88722)"><g><path d="M 18.472656 -23.585938 L 1.242188 -23.585938 L 1.242188 -22.984375 L 8.503906 -22.984375 L 8.503906 0.0390625 L 11.210938 0.0390625 L 11.210938 -22.984375 L 18.472656 -22.984375 Z M 18.472656 -23.585938 "/></g></g></g><g fill="#edeced" fill-opacity="1"><g transform="translate(387.801786, 322.88722)"><g><path d="M 7.824219 -26.296875 L 7.296875 -26.296875 L 10.121094 -32.164062 L 12.601562 -32.164062 Z M 13.769531 -22.984375 L 13.769531 -23.585938 L 1.804688 -23.585938 L 1.804688 0.0390625 L 13.769531 0.0390625 L 13.769531 -0.5625 L 4.476562 -0.5625 L 4.476562 -12 L 12.753906 -12 L 12.753906 -12.601562 L 4.476562 -12.601562 L 4.476562 -22.984375 Z M 13.769531 -22.984375 "/></g></g></g><g fill="#edeced" fill-opacity="1"><g transform="translate(403.187245, 322.88722)"><g><path d="M 18.359375 0.0390625 L 9.519531 -11.097656 C 12.300781 -11.472656 16.515625 -12.828125 16.515625 -17.679688 C 16.515625 -22.871094 10.871094 -23.585938 8.953125 -23.585938 C 7.109375 -23.585938 1.804688 -23.585938 1.804688 -23.585938 L 1.804688 0.0390625 L 4.476562 0.0390625 L 4.476562 -10.949219 L 6.207031 -10.949219 L 14.933594 0.0390625 Z M 4.476562 -22.984375 L 7.523438 -22.984375 C 11.359375 -22.984375 13.65625 -21.40625 13.65625 -17.269531 C 13.65625 -13.054688 10.949219 -11.550781 6.546875 -11.550781 L 4.476562 -11.550781 Z M 4.476562 -22.984375 "/></g></g></g><g fill="#edeced" fill-opacity="1"><g transform="translate(422.823452, 322.88722)"><g><path d="M 2.183594 0.0390625 L 4.851562 0.0390625 L 4.851562 -23.585938 L 2.183594 -23.585938 Z M 2.183594 0.0390625 "/></g></g></g><g fill="#edeced" fill-opacity="1"><g transform="translate(430.045966, 322.88722)"><g><path d="M 13.769531 -22.984375 L 13.769531 -23.585938 L 1.804688 -23.585938 L 1.804688 0.0390625 L 13.769531 0.0390625 L 13.769531 -0.5625 L 4.476562 -0.5625 L 4.476562 -12 L 12.753906 -12 L 12.753906 -12.601562 L 4.476562 -12.601562 L 4.476562 -22.984375 Z M 13.769531 -22.984375 "/></g></g></g><g fill="#edeced" fill-opacity="1"><g transform="translate(445.431426, 322.88722)"><g><path d="M 4.476562 -0.5625 L 4.476562 -23.585938 L 1.804688 -23.585938 L 1.804688 0.0390625 L 13.882812 0.0390625 L 13.882812 -0.5625 Z M 4.476562 -0.5625 "/></g></g></g><g fill="#edeced" fill-opacity="1"><g transform="translate(460.779268, 322.88722)"><g><path d="M 1.316406 -1.730469 L 1.316406 -0.867188 C 1.316406 -0.867188 3.613281 0.976562 7.675781 0.976562 C 11.738281 0.976562 15.613281 -1.84375 15.613281 -6.019531 C 15.613281 -14.445312 3.535156 -11.964844 3.535156 -18.808594 C 3.535156 -21.480469 5.378906 -23.664062 8.613281 -23.664062 C 11.8125 -23.664062 13.882812 -22.121094 13.882812 -22.121094 L 13.84375 -22.910156 C 13.84375 -22.910156 11.585938 -24.300781 8.578125 -24.300781 C 5.605469 -24.300781 1.429688 -22.496094 1.429688 -17.792969 C 1.429688 -9.367188 13.46875 -12.527344 13.46875 -5.078125 C 13.46875 -1.429688 10.683594 0.375 7.675781 0.375 C 4.4375 0.375 2.632812 -0.714844 1.316406 -1.730469 Z M 1.316406 -1.730469 "/></g></g></g><g fill="#edeced" fill-opacity="1"><g transform="translate(237.10404, 371.91416)"><g><path d="M 12.046875 -4.078125 L 3.546875 -4.078125 L 1.71875 0 L 0.046875 0 L 7.015625 -15.265625 L 8.609375 -15.265625 L 15.578125 0 L 13.890625 0 Z M 11.46875 -5.390625 L 7.796875 -13.578125 L 4.140625 -5.390625 Z M 11.46875 -5.390625 "/></g></g></g><g fill="#edeced" fill-opacity="1"><g transform="translate(252.723943, 371.91416)"><g><path d="M 8.0625 -11.546875 C 9.132812 -11.546875 10.109375 -11.300781 10.984375 -10.8125 C 11.859375 -10.332031 12.539062 -9.648438 13.03125 -8.765625 C 13.53125 -7.878906 13.78125 -6.867188 13.78125 -5.734375 C 13.78125 -4.585938 13.53125 -3.566406 13.03125 -2.671875 C 12.539062 -1.785156 11.863281 -1.097656 11 -0.609375 C 10.132812 -0.128906 9.15625 0.109375 8.0625 0.109375 C 7.132812 0.109375 6.296875 -0.0820312 5.546875 -0.46875 C 4.796875 -0.851562 4.179688 -1.414062 3.703125 -2.15625 L 3.703125 4.234375 L 2.15625 4.234375 L 2.15625 -11.46875 L 3.640625 -11.46875 L 3.640625 -9.203125 C 4.109375 -9.953125 4.722656 -10.53125 5.484375 -10.9375 C 6.242188 -11.34375 7.101562 -11.546875 8.0625 -11.546875 Z M 7.953125 -1.265625 C 8.753906 -1.265625 9.476562 -1.445312 10.125 -1.8125 C 10.78125 -2.1875 11.296875 -2.710938 11.671875 -3.390625 C 12.046875 -4.078125 12.234375 -4.859375 12.234375 -5.734375 C 12.234375 -6.609375 12.046875 -7.378906 11.671875 -8.046875 C 11.296875 -8.722656 10.78125 -9.25 10.125 -9.625 C 9.476562 -10.007812 8.753906 -10.203125 7.953125 -10.203125 C 7.140625 -10.203125 6.410156 -10.007812 5.765625 -9.625 C 5.117188 -9.25 4.609375 -8.722656 4.234375 -8.046875 C 3.867188 -7.378906 3.6875 -6.609375 3.6875 -5.734375 C 3.6875 -4.859375 3.867188 -4.078125 4.234375 -3.390625 C 4.609375 -2.710938 5.117188 -2.1875 5.765625 -1.8125 C 6.410156 -1.445312 7.140625 -1.265625 7.953125 -1.265625 Z M 7.953125 -1.265625 "/></g></g></g><g fill="#edeced" fill-opacity="1"><g transform="translate(267.494224, 371.91416)"><g><path d="M 8.0625 -11.546875 C 9.132812 -11.546875 10.109375 -11.300781 10.984375 -10.8125 C 11.859375 -10.332031 12.539062 -9.648438 13.03125 -8.765625 C 13.53125 -7.878906 13.78125 -6.867188 13.78125 -5.734375 C 13.78125 -4.585938 13.53125 -3.566406 13.03125 -2.671875 C 12.539062 -1.785156 11.863281 -1.097656 11 -0.609375 C 10.132812 -0.128906 9.15625 0.109375 8.0625 0.109375 C 7.132812 0.109375 6.296875 -0.0820312 5.546875 -0.46875 C 4.796875 -0.851562 4.179688 -1.414062 3.703125 -2.15625 L 3.703125 4.234375 L 2.15625 4.234375 L 2.15625 -11.46875 L 3.640625 -11.46875 L 3.640625 -9.203125 C 4.109375 -9.953125 4.722656 -10.53125 5.484375 -10.9375 C 6.242188 -11.34375 7.101562 -11.546875 8.0625 -11.546875 Z M 7.953125 -1.265625 C 8.753906 -1.265625 9.476562 -1.445312 10.125 -1.8125 C 10.78125 -2.1875 11.296875 -2.710938 11.671875 -3.390625 C 12.046875 -4.078125 12.234375 -4.859375 12.234375 -5.734375 C 12.234375 -6.609375 12.046875 -7.378906 11.671875 -8.046875 C 11.296875 -8.722656 10.78125 -9.25 10.125 -9.625 C 9.476562 -10.007812 8.753906 -10.203125 7.953125 -10.203125 C 7.140625 -10.203125 6.410156 -10.007812 5.765625 -9.625 C 5.117188 -9.25 4.609375 -8.722656 4.234375 -8.046875 C 3.867188 -7.378906 3.6875 -6.609375 3.6875 -5.734375 C 3.6875 -4.859375 3.867188 -4.078125 4.234375 -3.390625 C 4.609375 -2.710938 5.117188 -2.1875 5.765625 -1.8125 C 6.410156 -1.445312 7.140625 -1.265625 7.953125 -1.265625 Z M 7.953125 -1.265625 "/></g></g></g><g fill="#edeced" fill-opacity="1"><g transform="translate(282.264506, 371.91416)"><g><path d="M 6.171875 -11.546875 C 7.660156 -11.546875 8.804688 -11.171875 9.609375 -10.421875 C 10.410156 -9.679688 10.8125 -8.578125 10.8125 -7.109375 L 10.8125 0 L 9.328125 0 L 9.328125 -1.78125 C 8.984375 -1.1875 8.472656 -0.722656 7.796875 -0.390625 C 7.117188 -0.0546875 6.316406 0.109375 5.390625 0.109375 C 4.109375 0.109375 3.085938 -0.191406 2.328125 -0.796875 C 1.578125 -1.410156 1.203125 -2.21875 1.203125 -3.21875 C 1.203125 -4.195312 1.550781 -4.984375 2.25 -5.578125 C 2.957031 -6.171875 4.082031 -6.46875 5.625 -6.46875 L 9.265625 -6.46875 L 9.265625 -7.171875 C 9.265625 -8.160156 8.988281 -8.910156 8.4375 -9.421875 C 7.882812 -9.941406 7.078125 -10.203125 6.015625 -10.203125 C 5.285156 -10.203125 4.585938 -10.082031 3.921875 -9.84375 C 3.253906 -9.601562 2.679688 -9.269531 2.203125 -8.84375 L 1.5 -10 C 2.082031 -10.5 2.78125 -10.878906 3.59375 -11.140625 C 4.40625 -11.410156 5.265625 -11.546875 6.171875 -11.546875 Z M 5.625 -1.109375 C 6.5 -1.109375 7.25 -1.304688 7.875 -1.703125 C 8.5 -2.109375 8.960938 -2.6875 9.265625 -3.4375 L 9.265625 -5.3125 L 5.671875 -5.3125 C 3.703125 -5.3125 2.71875 -4.628906 2.71875 -3.265625 C 2.71875 -2.597656 2.972656 -2.070312 3.484375 -1.6875 C 3.992188 -1.300781 4.707031 -1.109375 5.625 -1.109375 Z M 5.625 -1.109375 "/></g></g></g><g fill="#edeced" fill-opacity="1"><g transform="translate(295.117708, 371.91416)"><g><path d="M 3.640625 -9.21875 C 4.003906 -9.988281 4.546875 -10.566406 5.265625 -10.953125 C 5.984375 -11.347656 6.875 -11.546875 7.9375 -11.546875 L 7.9375 -10.046875 L 7.5625 -10.0625 C 6.351562 -10.0625 5.40625 -9.691406 4.71875 -8.953125 C 4.039062 -8.210938 3.703125 -7.175781 3.703125 -5.84375 L 3.703125 0 L 2.15625 0 L 2.15625 -11.46875 L 3.640625 -11.46875 Z M 3.640625 -9.21875 "/></g></g></g><g fill="#edeced" fill-opacity="1"><g transform="translate(303.853521, 371.91416)"><g><path d="M 12.140625 -5.25 L 2.546875 -5.25 C 2.640625 -4.0625 3.097656 -3.097656 3.921875 -2.359375 C 4.753906 -1.628906 5.800781 -1.265625 7.0625 -1.265625 C 7.769531 -1.265625 8.421875 -1.390625 9.015625 -1.640625 C 9.617188 -1.898438 10.140625 -2.273438 10.578125 -2.765625 L 11.4375 -1.765625 C 10.9375 -1.148438 10.300781 -0.679688 9.53125 -0.359375 C 8.769531 -0.046875 7.929688 0.109375 7.015625 0.109375 C 5.835938 0.109375 4.796875 -0.140625 3.890625 -0.640625 C 2.984375 -1.140625 2.273438 -1.832031 1.765625 -2.71875 C 1.253906 -3.601562 1 -4.609375 1 -5.734375 C 1 -6.847656 1.242188 -7.847656 1.734375 -8.734375 C 2.222656 -9.617188 2.890625 -10.304688 3.734375 -10.796875 C 4.585938 -11.296875 5.546875 -11.546875 6.609375 -11.546875 C 7.671875 -11.546875 8.617188 -11.296875 9.453125 -10.796875 C 10.296875 -10.304688 10.957031 -9.625 11.4375 -8.75 C 11.914062 -7.875 12.15625 -6.867188 12.15625 -5.734375 Z M 6.609375 -10.21875 C 5.503906 -10.21875 4.578125 -9.863281 3.828125 -9.15625 C 3.078125 -8.457031 2.648438 -7.539062 2.546875 -6.40625 L 10.6875 -6.40625 C 10.582031 -7.539062 10.15625 -8.457031 9.40625 -9.15625 C 8.65625 -9.863281 7.722656 -10.21875 6.609375 -10.21875 Z M 6.609375 -10.21875 "/></g></g></g><g fill="#edeced" fill-opacity="1"><g transform="translate(317.011708, 371.91416)"><g><path d="M 2.15625 -11.46875 L 3.703125 -11.46875 L 3.703125 0 L 2.15625 0 Z M 2.9375 -13.96875 C 2.625 -13.96875 2.359375 -14.078125 2.140625 -14.296875 C 1.921875 -14.515625 1.8125 -14.773438 1.8125 -15.078125 C 1.8125 -15.367188 1.921875 -15.625 2.140625 -15.84375 C 2.359375 -16.0625 2.625 -16.171875 2.9375 -16.171875 C 3.257812 -16.171875 3.53125 -16.066406 3.75 -15.859375 C 3.96875 -15.648438 4.078125 -15.398438 4.078125 -15.109375 C 4.078125 -14.785156 3.96875 -14.515625 3.75 -14.296875 C 3.53125 -14.078125 3.257812 -13.96875 2.9375 -13.96875 Z M 2.9375 -13.96875 "/></g></g></g><g fill="#edeced" fill-opacity="1"><g transform="translate(322.871895, 371.91416)"><g><path d="M 2.15625 -16.171875 L 3.703125 -16.171875 L 3.703125 0 L 2.15625 0 Z M 2.15625 -16.171875 "/></g></g></g><g fill="#edeced" fill-opacity="1"><g transform="translate(328.732082, 371.91416)"><g/></g></g><g fill="#edeced" fill-opacity="1"><g transform="translate(334.439777, 371.91416)"><g><path d="M 2.3125 -9.171875 C 1.988281 -9.171875 1.710938 -9.285156 1.484375 -9.515625 C 1.265625 -9.753906 1.15625 -10.039062 1.15625 -10.375 C 1.15625 -10.707031 1.265625 -10.984375 1.484375 -11.203125 C 1.710938 -11.429688 1.988281 -11.546875 2.3125 -11.546875 C 2.632812 -11.546875 2.910156 -11.429688 3.140625 -11.203125 C 3.367188 -10.984375 3.484375 -10.707031 3.484375 -10.375 C 3.484375 -10.039062 3.367188 -9.753906 3.140625 -9.515625 C 2.910156 -9.285156 2.632812 -9.171875 2.3125 -9.171875 Z M 2.3125 0.109375 C 1.988281 0.109375 1.710938 -0.00390625 1.484375 -0.234375 C 1.265625 -0.472656 1.15625 -0.757812 1.15625 -1.09375 C 1.15625 -1.425781 1.265625 -1.703125 1.484375 -1.921875 C 1.710938 -2.148438 1.988281 -2.265625 2.3125 -2.265625 C 2.632812 -2.265625 2.910156 -2.148438 3.140625 -1.921875 C 3.367188 -1.703125 3.484375 -1.425781 3.484375 -1.09375 C 3.484375 -0.757812 3.367188 -0.472656 3.140625 -0.234375 C 2.910156 -0.00390625 2.632812 0.109375 2.3125 0.109375 Z M 2.3125 0.109375 "/></g></g></g><g fill="#edeced" fill-opacity="1"><g transform="translate(339.058212, 371.91416)"><g/></g></g><g fill="#edeced" fill-opacity="1"><g transform="translate(344.765907, 371.91416)"><g><path d="M 8.203125 -15.265625 C 10.140625 -15.265625 11.660156 -14.796875 12.765625 -13.859375 C 13.867188 -12.929688 14.421875 -11.65625 14.421875 -10.03125 C 14.421875 -8.394531 13.867188 -7.113281 12.765625 -6.1875 C 11.660156 -5.269531 10.140625 -4.8125 8.203125 -4.8125 L 4.09375 -4.8125 L 4.09375 0 L 2.484375 0 L 2.484375 -15.265625 Z M 8.15625 -6.234375 C 9.664062 -6.234375 10.816406 -6.5625 11.609375 -7.21875 C 12.410156 -7.882812 12.8125 -8.820312 12.8125 -10.03125 C 12.8125 -11.257812 12.410156 -12.203125 11.609375 -12.859375 C 10.816406 -13.523438 9.664062 -13.859375 8.15625 -13.859375 L 4.09375 -13.859375 L 4.09375 -6.234375 Z M 8.15625 -6.234375 "/></g></g></g><g fill="#edeced" fill-opacity="1"><g transform="translate(360.407599, 371.91416)"><g><path d="M 6.171875 -11.546875 C 7.660156 -11.546875 8.804688 -11.171875 9.609375 -10.421875 C 10.410156 -9.679688 10.8125 -8.578125 10.8125 -7.109375 L 10.8125 0 L 9.328125 0 L 9.328125 -1.78125 C 8.984375 -1.1875 8.472656 -0.722656 7.796875 -0.390625 C 7.117188 -0.0546875 6.316406 0.109375 5.390625 0.109375 C 4.109375 0.109375 3.085938 -0.191406 2.328125 -0.796875 C 1.578125 -1.410156 1.203125 -2.21875 1.203125 -3.21875 C 1.203125 -4.195312 1.550781 -4.984375 2.25 -5.578125 C 2.957031 -6.171875 4.082031 -6.46875 5.625 -6.46875 L 9.265625 -6.46875 L 9.265625 -7.171875 C 9.265625 -8.160156 8.988281 -8.910156 8.4375 -9.421875 C 7.882812 -9.941406 7.078125 -10.203125 6.015625 -10.203125 C 5.285156 -10.203125 4.585938 -10.082031 3.921875 -9.84375 C 3.253906 -9.601562 2.679688 -9.269531 2.203125 -8.84375 L 1.5 -10 C 2.082031 -10.5 2.78125 -10.878906 3.59375 -11.140625 C 4.40625 -11.410156 5.265625 -11.546875 6.171875 -11.546875 Z M 5.625 -1.109375 C 6.5 -1.109375 7.25 -1.304688 7.875 -1.703125 C 8.5 -2.109375 8.960938 -2.6875 9.265625 -3.4375 L 9.265625 -5.3125 L 5.671875 -5.3125 C 3.703125 -5.3125 2.71875 -4.628906 2.71875 -3.265625 C 2.71875 -2.597656 2.972656 -2.070312 3.484375 -1.6875 C 3.992188 -1.300781 4.707031 -1.109375 5.625 -1.109375 Z M 5.625 -1.109375 "/></g></g></g><g fill="#edeced" fill-opacity="1"><g transform="translate(373.260801, 371.91416)"><g><path d="M 8 -11.546875 C 9.4375 -11.546875 10.578125 -11.128906 11.421875 -10.296875 C 12.273438 -9.460938 12.703125 -8.242188 12.703125 -6.640625 L 12.703125 0 L 11.15625 0 L 11.15625 -6.5 C 11.15625 -7.6875 10.859375 -8.59375 10.265625 -9.21875 C 9.671875 -9.84375 8.820312 -10.15625 7.71875 -10.15625 C 6.476562 -10.15625 5.5 -9.785156 4.78125 -9.046875 C 4.0625 -8.316406 3.703125 -7.304688 3.703125 -6.015625 L 3.703125 0 L 2.15625 0 L 2.15625 -11.46875 L 3.640625 -11.46875 L 3.640625 -9.34375 C 4.054688 -10.039062 4.640625 -10.582031 5.390625 -10.96875 C 6.140625 -11.351562 7.007812 -11.546875 8 -11.546875 Z M 8 -11.546875 "/></g></g></g><g fill="#edeced" fill-opacity="1"><g transform="translate(388.009305, 371.91416)"><g><path d="M 6.171875 -11.546875 C 7.660156 -11.546875 8.804688 -11.171875 9.609375 -10.421875 C 10.410156 -9.679688 10.8125 -8.578125 10.8125 -7.109375 L 10.8125 0 L 9.328125 0 L 9.328125 -1.78125 C 8.984375 -1.1875 8.472656 -0.722656 7.796875 -0.390625 C 7.117188 -0.0546875 6.316406 0.109375 5.390625 0.109375 C 4.109375 0.109375 3.085938 -0.191406 2.328125 -0.796875 C 1.578125 -1.410156 1.203125 -2.21875 1.203125 -3.21875 C 1.203125 -4.195312 1.550781 -4.984375 2.25 -5.578125 C 2.957031 -6.171875 4.082031 -6.46875 5.625 -6.46875 L 9.265625 -6.46875 L 9.265625 -7.171875 C 9.265625 -8.160156 8.988281 -8.910156 8.4375 -9.421875 C 7.882812 -9.941406 7.078125 -10.203125 6.015625 -10.203125 C 5.285156 -10.203125 4.585938 -10.082031 3.921875 -9.84375 C 3.253906 -9.601562 2.679688 -9.269531 2.203125 -8.84375 L 1.5 -10 C 2.082031 -10.5 2.78125 -10.878906 3.59375 -11.140625 C 4.40625 -11.410156 5.265625 -11.546875 6.171875 -11.546875 Z M 5.625 -1.109375 C 6.5 -1.109375 7.25 -1.304688 7.875 -1.703125 C 8.5 -2.109375 8.960938 -2.6875 9.265625 -3.4375 L 9.265625 -5.3125 L 5.671875 -5.3125 C 3.703125 -5.3125 2.71875 -4.628906 2.71875 -3.265625 C 2.71875 -2.597656 2.972656 -2.070312 3.484375 -1.6875 C 3.992188 -1.300781 4.707031 -1.109375 5.625 -1.109375 Z M 5.625 -1.109375 "/></g></g></g><g fill="#edeced" fill-opacity="1"><g transform="translate(400.862508, 371.91416)"><g><path d="M 5.234375 0.109375 C 4.304688 0.109375 3.414062 -0.0234375 2.5625 -0.296875 C 1.707031 -0.566406 1.039062 -0.90625 0.5625 -1.3125 L 1.265625 -2.53125 C 1.742188 -2.15625 2.34375 -1.847656 3.0625 -1.609375 C 3.789062 -1.367188 4.550781 -1.25 5.34375 -1.25 C 6.382812 -1.25 7.15625 -1.410156 7.65625 -1.734375 C 8.15625 -2.054688 8.40625 -2.515625 8.40625 -3.109375 C 8.40625 -3.535156 8.265625 -3.867188 7.984375 -4.109375 C 7.710938 -4.347656 7.367188 -4.53125 6.953125 -4.65625 C 6.535156 -4.78125 5.976562 -4.898438 5.28125 -5.015625 C 4.34375 -5.191406 3.59375 -5.367188 3.03125 -5.546875 C 2.46875 -5.722656 1.984375 -6.03125 1.578125 -6.46875 C 1.179688 -6.90625 0.984375 -7.507812 0.984375 -8.28125 C 0.984375 -9.238281 1.378906 -10.019531 2.171875 -10.625 C 2.972656 -11.238281 4.085938 -11.546875 5.515625 -11.546875 C 6.253906 -11.546875 6.992188 -11.445312 7.734375 -11.25 C 8.472656 -11.0625 9.082031 -10.804688 9.5625 -10.484375 L 8.890625 -9.234375 C 7.941406 -9.890625 6.816406 -10.21875 5.515625 -10.21875 C 4.523438 -10.21875 3.78125 -10.039062 3.28125 -9.6875 C 2.78125 -9.34375 2.53125 -8.890625 2.53125 -8.328125 C 2.53125 -7.890625 2.671875 -7.539062 2.953125 -7.28125 C 3.234375 -7.019531 3.582031 -6.828125 4 -6.703125 C 4.425781 -6.578125 5.007812 -6.453125 5.75 -6.328125 C 6.664062 -6.148438 7.398438 -5.972656 7.953125 -5.796875 C 8.503906 -5.617188 8.976562 -5.316406 9.375 -4.890625 C 9.769531 -4.472656 9.96875 -3.894531 9.96875 -3.15625 C 9.96875 -2.15625 9.546875 -1.359375 8.703125 -0.765625 C 7.867188 -0.179688 6.710938 0.109375 5.234375 0.109375 Z M 5.234375 0.109375 "/></g></g></g><g fill="#edeced" fill-opacity="1"><g transform="translate(411.515412, 371.91416)"><g><path d="M 6.84375 0.109375 C 5.738281 0.109375 4.742188 -0.140625 3.859375 -0.640625 C 2.972656 -1.140625 2.273438 -1.832031 1.765625 -2.71875 C 1.253906 -3.601562 1 -4.609375 1 -5.734375 C 1 -6.847656 1.253906 -7.847656 1.765625 -8.734375 C 2.273438 -9.617188 2.972656 -10.304688 3.859375 -10.796875 C 4.742188 -11.296875 5.738281 -11.546875 6.84375 -11.546875 C 7.945312 -11.546875 8.941406 -11.296875 9.828125 -10.796875 C 10.710938 -10.304688 11.40625 -9.617188 11.90625 -8.734375 C 12.40625 -7.847656 12.65625 -6.847656 12.65625 -5.734375 C 12.65625 -4.609375 12.40625 -3.601562 11.90625 -2.71875 C 11.40625 -1.832031 10.710938 -1.140625 9.828125 -0.640625 C 8.941406 -0.140625 7.945312 0.109375 6.84375 0.109375 Z M 6.84375 -1.265625 C 7.65625 -1.265625 8.382812 -1.445312 9.03125 -1.8125 C 9.675781 -2.1875 10.179688 -2.710938 10.546875 -3.390625 C 10.910156 -4.078125 11.09375 -4.859375 11.09375 -5.734375 C 11.09375 -6.609375 10.910156 -7.382812 10.546875 -8.0625 C 10.179688 -8.75 9.675781 -9.273438 9.03125 -9.640625 C 8.382812 -10.015625 7.65625 -10.203125 6.84375 -10.203125 C 6.03125 -10.203125 5.300781 -10.015625 4.65625 -9.640625 C 4.007812 -9.273438 3.5 -8.75 3.125 -8.0625 C 2.757812 -7.382812 2.578125 -6.609375 2.578125 -5.734375 C 2.578125 -4.859375 2.757812 -4.078125 3.125 -3.390625 C 3.5 -2.710938 4.007812 -2.1875 4.65625 -1.8125 C 5.300781 -1.445312 6.03125 -1.265625 6.84375 -1.265625 Z M 6.84375 -1.265625 "/></g></g></g><g fill="#edeced" fill-opacity="1"><g transform="translate(425.174656, 371.91416)"><g><path d="M 8 -11.546875 C 9.4375 -11.546875 10.578125 -11.128906 11.421875 -10.296875 C 12.273438 -9.460938 12.703125 -8.242188 12.703125 -6.640625 L 12.703125 0 L 11.15625 0 L 11.15625 -6.5 C 11.15625 -7.6875 10.859375 -8.59375 10.265625 -9.21875 C 9.671875 -9.84375 8.820312 -10.15625 7.71875 -10.15625 C 6.476562 -10.15625 5.5 -9.785156 4.78125 -9.046875 C 4.0625 -8.316406 3.703125 -7.304688 3.703125 -6.015625 L 3.703125 0 L 2.15625 0 L 2.15625 -11.46875 L 3.640625 -11.46875 L 3.640625 -9.34375 C 4.054688 -10.039062 4.640625 -10.582031 5.390625 -10.96875 C 6.140625 -11.351562 7.007812 -11.546875 8 -11.546875 Z M 8 -11.546875 "/></g></g></g><g fill="#edeced" fill-opacity="1"><g transform="translate(439.92316, 371.91416)"><g><path d="M 2.15625 -11.46875 L 3.703125 -11.46875 L 3.703125 0 L 2.15625 0 Z M 2.9375 -13.96875 C 2.625 -13.96875 2.359375 -14.078125 2.140625 -14.296875 C 1.921875 -14.515625 1.8125 -14.773438 1.8125 -15.078125 C 1.8125 -15.367188 1.921875 -15.625 2.140625 -15.84375 C 2.359375 -16.0625 2.625 -16.171875 2.9375 -16.171875 C 3.257812 -16.171875 3.53125 -16.066406 3.75 -15.859375 C 3.96875 -15.648438 4.078125 -15.398438 4.078125 -15.109375 C 4.078125 -14.785156 3.96875 -14.515625 3.75 -14.296875 C 3.53125 -14.078125 3.257812 -13.96875 2.9375 -13.96875 Z M 2.9375 -13.96875 "/></g></g></g><g fill="#edeced" fill-opacity="1"><g transform="translate(445.783335, 371.91416)"><g><path d="M 6.90625 0.109375 C 5.769531 0.109375 4.753906 -0.132812 3.859375 -0.625 C 2.972656 -1.125 2.273438 -1.816406 1.765625 -2.703125 C 1.253906 -3.597656 1 -4.609375 1 -5.734375 C 1 -6.847656 1.253906 -7.847656 1.765625 -8.734375 C 2.273438 -9.617188 2.972656 -10.304688 3.859375 -10.796875 C 4.753906 -11.296875 5.769531 -11.546875 6.90625 -11.546875 C 7.894531 -11.546875 8.773438 -11.351562 9.546875 -10.96875 C 10.328125 -10.582031 10.945312 -10.019531 11.40625 -9.28125 L 10.25 -8.5 C 9.863281 -9.0625 9.378906 -9.484375 8.796875 -9.765625 C 8.222656 -10.054688 7.59375 -10.203125 6.90625 -10.203125 C 6.082031 -10.203125 5.335938 -10.015625 4.671875 -9.640625 C 4.015625 -9.273438 3.5 -8.75 3.125 -8.0625 C 2.757812 -7.382812 2.578125 -6.609375 2.578125 -5.734375 C 2.578125 -4.847656 2.757812 -4.066406 3.125 -3.390625 C 3.5 -2.710938 4.015625 -2.1875 4.671875 -1.8125 C 5.335938 -1.445312 6.082031 -1.265625 6.90625 -1.265625 C 7.59375 -1.265625 8.222656 -1.398438 8.796875 -1.671875 C 9.378906 -1.953125 9.863281 -2.375 10.25 -2.9375 L 11.40625 -2.15625 C 10.945312 -1.414062 10.328125 -0.851562 9.546875 -0.46875 C 8.765625 -0.0820312 7.882812 0.109375 6.90625 0.109375 Z M 6.90625 0.109375 "/></g></g></g><g fill="#edeced" fill-opacity="1"><g transform="translate(458.048334, 371.91416)"><g/></g></g><g fill="#edeced" fill-opacity="1"><g transform="translate(463.756029, 371.91416)"><g><path d="M 2.484375 -15.265625 L 8.703125 -15.265625 C 10.304688 -15.265625 11.726562 -14.9375 12.96875 -14.28125 C 14.207031 -13.632812 15.164062 -12.734375 15.84375 -11.578125 C 16.53125 -10.429688 16.875 -9.113281 16.875 -7.625 C 16.875 -6.144531 16.53125 -4.828125 15.84375 -3.671875 C 15.164062 -2.515625 14.207031 -1.613281 12.96875 -0.96875 C 11.726562 -0.320312 10.304688 0 8.703125 0 L 2.484375 0 Z M 8.609375 -1.390625 C 9.941406 -1.390625 11.109375 -1.65625 12.109375 -2.1875 C 13.117188 -2.71875 13.898438 -3.453125 14.453125 -4.390625 C 15.003906 -5.328125 15.28125 -6.40625 15.28125 -7.625 C 15.28125 -8.84375 15.003906 -9.921875 14.453125 -10.859375 C 13.898438 -11.796875 13.117188 -12.53125 12.109375 -13.0625 C 11.109375 -13.59375 9.941406 -13.859375 8.609375 -13.859375 L 4.09375 -13.859375 L 4.09375 -1.390625 Z M 8.609375 -1.390625 "/></g></g></g><g fill="#edeced" fill-opacity="1"><g transform="translate(481.750512, 371.91416)"><g><path d="M 9.109375 0.125 C 7.597656 0.125 6.234375 -0.207031 5.015625 -0.875 C 3.804688 -1.539062 2.859375 -2.460938 2.171875 -3.640625 C 1.484375 -4.828125 1.140625 -6.15625 1.140625 -7.625 C 1.140625 -9.09375 1.484375 -10.421875 2.171875 -11.609375 C 2.859375 -12.796875 3.8125 -13.722656 5.03125 -14.390625 C 6.25 -15.054688 7.617188 -15.390625 9.140625 -15.390625 C 10.265625 -15.390625 11.304688 -15.195312 12.265625 -14.8125 C 13.222656 -14.4375 14.039062 -13.890625 14.71875 -13.171875 L 13.6875 -12.140625 C 12.5 -13.347656 10.992188 -13.953125 9.171875 -13.953125 C 7.972656 -13.953125 6.878906 -13.675781 5.890625 -13.125 C 4.898438 -12.570312 4.125 -11.816406 3.5625 -10.859375 C 3 -9.898438 2.71875 -8.820312 2.71875 -7.625 C 2.71875 -6.4375 3 -5.363281 3.5625 -4.40625 C 4.125 -3.445312 4.898438 -2.691406 5.890625 -2.140625 C 6.878906 -1.585938 7.972656 -1.3125 9.171875 -1.3125 C 11.003906 -1.3125 12.507812 -1.921875 13.6875 -3.140625 L 14.71875 -2.109375 C 14.039062 -1.390625 13.21875 -0.835938 12.25 -0.453125 C 11.289062 -0.0664062 10.242188 0.125 9.109375 0.125 Z M 9.109375 0.125 "/></g></g></g><g fill="#edeced" fill-opacity="1"><g transform="translate(497.413994, 371.91416)"><g><path d="M 1.3125 -6.578125 L 7.015625 -6.578125 L 7.015625 -5.234375 L 1.3125 -5.234375 Z M 1.3125 -6.578125 "/></g></g></g><g fill="#edeced" fill-opacity="1"><g transform="translate(505.735908, 371.91416)"><g><path d="M 4.09375 -13.859375 L 4.09375 -7.875 L 11.984375 -7.875 L 11.984375 -6.46875 L 4.09375 -6.46875 L 4.09375 0 L 2.484375 0 L 2.484375 -15.265625 L 12.953125 -15.265625 L 12.953125 -13.859375 Z M 4.09375 -13.859375 "/></g></g></g><g fill="#edeced" fill-opacity="1"><g transform="translate(519.525855, 371.91416)"><g><path d="M 13.5 -1.390625 L 13.5 0 L 0.984375 0 L 0.984375 -1.109375 L 11.09375 -13.859375 L 1.140625 -13.859375 L 1.140625 -15.265625 L 13.234375 -15.265625 L 13.234375 -14.140625 L 3.140625 -1.390625 Z M 13.5 -1.390625 "/></g></g></g><g fill="#edeced" fill-opacity="1"><g transform="translate(533.707945, 371.91416)"><g><path d="M 9.875 -8 C 10.832031 -7.675781 11.566406 -7.195312 12.078125 -6.5625 C 12.597656 -5.925781 12.859375 -5.15625 12.859375 -4.25 C 12.859375 -3.363281 12.617188 -2.585938 12.140625 -1.921875 C 11.660156 -1.265625 10.972656 -0.757812 10.078125 -0.40625 C 9.179688 -0.0507812 8.132812 0.125 6.9375 0.125 C 5.101562 0.125 3.660156 -0.265625 2.609375 -1.046875 C 1.566406 -1.828125 1.046875 -2.894531 1.046875 -4.25 C 1.046875 -5.164062 1.296875 -5.9375 1.796875 -6.5625 C 2.296875 -7.195312 3.023438 -7.675781 3.984375 -8 C 3.203125 -8.300781 2.609375 -8.738281 2.203125 -9.3125 C 1.796875 -9.882812 1.59375 -10.566406 1.59375 -11.359375 C 1.59375 -12.585938 2.070312 -13.566406 3.03125 -14.296875 C 4 -15.023438 5.300781 -15.390625 6.9375 -15.390625 C 8.007812 -15.390625 8.945312 -15.222656 9.75 -14.890625 C 10.5625 -14.566406 11.191406 -14.097656 11.640625 -13.484375 C 12.085938 -12.878906 12.3125 -12.171875 12.3125 -11.359375 C 12.3125 -10.566406 12.097656 -9.882812 11.671875 -9.3125 C 11.253906 -8.738281 10.65625 -8.300781 9.875 -8 Z M 3.15625 -11.3125 C 3.15625 -10.46875 3.488281 -9.796875 4.15625 -9.296875 C 4.832031 -8.804688 5.757812 -8.5625 6.9375 -8.5625 C 8.113281 -8.5625 9.035156 -8.804688 9.703125 -9.296875 C 10.378906 -9.796875 10.71875 -10.460938 10.71875 -11.296875 C 10.71875 -12.148438 10.375 -12.820312 9.6875 -13.3125 C 9 -13.8125 8.082031 -14.0625 6.9375 -14.0625 C 5.769531 -14.0625 4.847656 -13.8125 4.171875 -13.3125 C 3.492188 -12.820312 3.15625 -12.15625 3.15625 -11.3125 Z M 6.9375 -1.203125 C 8.28125 -1.203125 9.332031 -1.476562 10.09375 -2.03125 C 10.863281 -2.582031 11.25 -3.328125 11.25 -4.265625 C 11.25 -5.210938 10.863281 -5.957031 10.09375 -6.5 C 9.332031 -7.050781 8.28125 -7.328125 6.9375 -7.328125 C 5.59375 -7.328125 4.539062 -7.050781 3.78125 -6.5 C 3.019531 -5.957031 2.640625 -5.210938 2.640625 -4.265625 C 2.640625 -3.304688 3.015625 -2.554688 3.765625 -2.015625 C 4.523438 -1.472656 5.582031 -1.203125 6.9375 -1.203125 Z M 6.9375 -1.203125 "/></g></g></g><g fill="#edeced" fill-opacity="1"><g transform="translate(547.606817, 371.91416)"><g><path d="M 11.546875 -1.390625 L 11.546875 0 L 0.84375 0 L 0.84375 -1.109375 L 7.1875 -7.328125 C 7.988281 -8.109375 8.53125 -8.785156 8.8125 -9.359375 C 9.09375 -9.929688 9.234375 -10.507812 9.234375 -11.09375 C 9.234375 -12 8.925781 -12.703125 8.3125 -13.203125 C 7.695312 -13.703125 6.816406 -13.953125 5.671875 -13.953125 C 3.878906 -13.953125 2.488281 -13.382812 1.5 -12.25 L 0.390625 -13.203125 C 0.984375 -13.898438 1.738281 -14.4375 2.65625 -14.8125 C 3.582031 -15.195312 4.628906 -15.390625 5.796875 -15.390625 C 7.347656 -15.390625 8.578125 -15.019531 9.484375 -14.28125 C 10.398438 -13.550781 10.859375 -12.546875 10.859375 -11.265625 C 10.859375 -10.484375 10.679688 -9.726562 10.328125 -9 C 9.984375 -8.269531 9.320312 -7.4375 8.34375 -6.5 L 3.15625 -1.390625 Z M 11.546875 -1.390625 "/></g></g></g><g fill="#edeced" fill-opacity="1"><g transform="translate(263.553257, 404.760938)"><g><path d="M 9.15625 0.125 C 7.644531 0.125 6.273438 -0.207031 5.046875 -0.875 C 3.816406 -1.550781 2.859375 -2.476562 2.171875 -3.65625 C 1.484375 -4.832031 1.140625 -6.15625 1.140625 -7.625 C 1.140625 -9.09375 1.484375 -10.414062 2.171875 -11.59375 C 2.859375 -12.769531 3.816406 -13.695312 5.046875 -14.375 C 6.273438 -15.050781 7.644531 -15.390625 9.15625 -15.390625 C 10.664062 -15.390625 12.023438 -15.054688 13.234375 -14.390625 C 14.453125 -13.722656 15.410156 -12.796875 16.109375 -11.609375 C 16.804688 -10.421875 17.15625 -9.09375 17.15625 -7.625 C 17.15625 -6.15625 16.804688 -4.828125 16.109375 -3.640625 C 15.410156 -2.460938 14.453125 -1.539062 13.234375 -0.875 C 12.023438 -0.207031 10.664062 0.125 9.15625 0.125 Z M 9.15625 -1.3125 C 10.363281 -1.3125 11.453125 -1.582031 12.421875 -2.125 C 13.398438 -2.664062 14.164062 -3.421875 14.71875 -4.390625 C 15.269531 -5.359375 15.546875 -6.4375 15.546875 -7.625 C 15.546875 -8.820312 15.269531 -9.898438 14.71875 -10.859375 C 14.164062 -11.828125 13.398438 -12.582031 12.421875 -13.125 C 11.453125 -13.675781 10.363281 -13.953125 9.15625 -13.953125 C 7.945312 -13.953125 6.851562 -13.675781 5.875 -13.125 C 4.894531 -12.582031 4.125 -11.828125 3.5625 -10.859375 C 3 -9.898438 2.71875 -8.820312 2.71875 -7.625 C 2.71875 -6.4375 3 -5.359375 3.5625 -4.390625 C 4.125 -3.421875 4.894531 -2.664062 5.875 -2.125 C 6.851562 -1.582031 7.945312 -1.3125 9.15625 -1.3125 Z M 9.15625 -1.3125 "/></g></g></g><g fill="#edeced" fill-opacity="1"><g transform="translate(281.830936, 404.760938)"><g><path d="M 8.0625 -11.546875 C 9.132812 -11.546875 10.109375 -11.300781 10.984375 -10.8125 C 11.859375 -10.332031 12.539062 -9.648438 13.03125 -8.765625 C 13.53125 -7.878906 13.78125 -6.867188 13.78125 -5.734375 C 13.78125 -4.597656 13.53125 -3.585938 13.03125 -2.703125 C 12.539062 -1.816406 11.859375 -1.125 10.984375 -0.625 C 10.109375 -0.132812 9.132812 0.109375 8.0625 0.109375 C 7.101562 0.109375 6.242188 -0.09375 5.484375 -0.5 C 4.722656 -0.90625 4.109375 -1.492188 3.640625 -2.265625 L 3.640625 0 L 2.15625 0 L 2.15625 -16.171875 L 3.703125 -16.171875 L 3.703125 -9.28125 C 4.179688 -10.019531 4.796875 -10.582031 5.546875 -10.96875 C 6.296875 -11.351562 7.132812 -11.546875 8.0625 -11.546875 Z M 7.953125 -1.265625 C 8.753906 -1.265625 9.476562 -1.445312 10.125 -1.8125 C 10.78125 -2.1875 11.296875 -2.710938 11.671875 -3.390625 C 12.046875 -4.078125 12.234375 -4.859375 12.234375 -5.734375 C 12.234375 -6.609375 12.046875 -7.382812 11.671875 -8.0625 C 11.296875 -8.75 10.78125 -9.273438 10.125 -9.640625 C 9.476562 -10.015625 8.753906 -10.203125 7.953125 -10.203125 C 7.140625 -10.203125 6.410156 -10.015625 5.765625 -9.640625 C 5.117188 -9.273438 4.609375 -8.75 4.234375 -8.0625 C 3.867188 -7.382812 3.6875 -6.609375 3.6875 -5.734375 C 3.6875 -4.859375 3.867188 -4.078125 4.234375 -3.390625 C 4.609375 -2.710938 5.117188 -2.1875 5.765625 -1.8125 C 6.410156 -1.445312 7.140625 -1.265625 7.953125 -1.265625 Z M 7.953125 -1.265625 "/></g></g></g><g fill="#edeced" fill-opacity="1"><g transform="translate(296.601217, 404.760938)"><g><path d="M 0.453125 4.34375 C -0.0234375 4.34375 -0.476562 4.28125 -0.90625 4.15625 C -1.332031 4.03125 -1.6875 3.84375 -1.96875 3.59375 L -1.421875 2.421875 C -0.960938 2.816406 -0.363281 3.015625 0.375 3.015625 C 0.976562 3.015625 1.441406 2.832031 1.765625 2.46875 C 2.097656 2.101562 2.265625 1.5625 2.265625 0.84375 L 2.265625 -11.46875 L 3.8125 -11.46875 L 3.8125 0.84375 C 3.8125 1.925781 3.519531 2.78125 2.9375 3.40625 C 2.363281 4.03125 1.535156 4.34375 0.453125 4.34375 Z M 3.046875 -13.984375 C 2.734375 -13.984375 2.46875 -14.09375 2.25 -14.3125 C 2.03125 -14.53125 1.921875 -14.789062 1.921875 -15.09375 C 1.921875 -15.382812 2.03125 -15.640625 2.25 -15.859375 C 2.46875 -16.078125 2.734375 -16.1875 3.046875 -16.1875 C 3.367188 -16.1875 3.640625 -16.082031 3.859375 -15.875 C 4.078125 -15.664062 4.1875 -15.414062 4.1875 -15.125 C 4.1875 -14.800781 4.078125 -14.53125 3.859375 -14.3125 C 3.640625 -14.09375 3.367188 -13.984375 3.046875 -13.984375 Z M 3.046875 -13.984375 "/></g></g></g><g fill="#edeced" fill-opacity="1"><g transform="translate(302.570329, 404.760938)"><g><path d="M 12.140625 -5.25 L 2.546875 -5.25 C 2.640625 -4.0625 3.097656 -3.097656 3.921875 -2.359375 C 4.753906 -1.628906 5.800781 -1.265625 7.0625 -1.265625 C 7.769531 -1.265625 8.421875 -1.390625 9.015625 -1.640625 C 9.617188 -1.898438 10.140625 -2.273438 10.578125 -2.765625 L 11.4375 -1.765625 C 10.9375 -1.148438 10.300781 -0.679688 9.53125 -0.359375 C 8.769531 -0.046875 7.929688 0.109375 7.015625 0.109375 C 5.835938 0.109375 4.796875 -0.140625 3.890625 -0.640625 C 2.984375 -1.140625 2.273438 -1.832031 1.765625 -2.71875 C 1.253906 -3.601562 1 -4.609375 1 -5.734375 C 1 -6.847656 1.242188 -7.847656 1.734375 -8.734375 C 2.222656 -9.617188 2.890625 -10.304688 3.734375 -10.796875 C 4.585938 -11.296875 5.546875 -11.546875 6.609375 -11.546875 C 7.671875 -11.546875 8.617188 -11.296875 9.453125 -10.796875 C 10.296875 -10.304688 10.957031 -9.625 11.4375 -8.75 C 11.914062 -7.875 12.15625 -6.867188 12.15625 -5.734375 Z M 6.609375 -10.21875 C 5.503906 -10.21875 4.578125 -9.863281 3.828125 -9.15625 C 3.078125 -8.457031 2.648438 -7.539062 2.546875 -6.40625 L 10.6875 -6.40625 C 10.582031 -7.539062 10.15625 -8.457031 9.40625 -9.15625 C 8.65625 -9.863281 7.722656 -10.21875 6.609375 -10.21875 Z M 6.609375 -10.21875 "/></g></g></g><g fill="#edeced" fill-opacity="1"><g transform="translate(315.728516, 404.760938)"><g><path d="M 6.90625 0.109375 C 5.769531 0.109375 4.753906 -0.132812 3.859375 -0.625 C 2.972656 -1.125 2.273438 -1.816406 1.765625 -2.703125 C 1.253906 -3.597656 1 -4.609375 1 -5.734375 C 1 -6.847656 1.253906 -7.847656 1.765625 -8.734375 C 2.273438 -9.617188 2.972656 -10.304688 3.859375 -10.796875 C 4.753906 -11.296875 5.769531 -11.546875 6.90625 -11.546875 C 7.894531 -11.546875 8.773438 -11.351562 9.546875 -10.96875 C 10.328125 -10.582031 10.945312 -10.019531 11.40625 -9.28125 L 10.25 -8.5 C 9.863281 -9.0625 9.378906 -9.484375 8.796875 -9.765625 C 8.222656 -10.054688 7.59375 -10.203125 6.90625 -10.203125 C 6.082031 -10.203125 5.335938 -10.015625 4.671875 -9.640625 C 4.015625 -9.273438 3.5 -8.75 3.125 -8.0625 C 2.757812 -7.382812 2.578125 -6.609375 2.578125 -5.734375 C 2.578125 -4.847656 2.757812 -4.066406 3.125 -3.390625 C 3.5 -2.710938 4.015625 -2.1875 4.671875 -1.8125 C 5.335938 -1.445312 6.082031 -1.265625 6.90625 -1.265625 C 7.59375 -1.265625 8.222656 -1.398438 8.796875 -1.671875 C 9.378906 -1.953125 9.863281 -2.375 10.25 -2.9375 L 11.40625 -2.15625 C 10.945312 -1.414062 10.328125 -0.851562 9.546875 -0.46875 C 8.765625 -0.0820312 7.882812 0.109375 6.90625 0.109375 Z M 6.90625 0.109375 "/></g></g></g><g fill="#edeced" fill-opacity="1"><g transform="translate(327.993515, 404.760938)"><g><path d="M 8.203125 -0.703125 C 7.910156 -0.441406 7.546875 -0.238281 7.109375 -0.09375 C 6.679688 0.0390625 6.238281 0.109375 5.78125 0.109375 C 4.695312 0.109375 3.863281 -0.179688 3.28125 -0.765625 C 2.707031 -1.347656 2.421875 -2.164062 2.421875 -3.21875 L 2.421875 -10.15625 L 0.375 -10.15625 L 0.375 -11.46875 L 2.421875 -11.46875 L 2.421875 -13.96875 L 3.96875 -13.96875 L 3.96875 -11.46875 L 7.453125 -11.46875 L 7.453125 -10.15625 L 3.96875 -10.15625 L 3.96875 -3.3125 C 3.96875 -2.625 4.132812 -2.101562 4.46875 -1.75 C 4.8125 -1.394531 5.304688 -1.21875 5.953125 -1.21875 C 6.273438 -1.21875 6.582031 -1.269531 6.875 -1.375 C 7.175781 -1.476562 7.4375 -1.625 7.65625 -1.8125 Z M 8.203125 -0.703125 "/></g></g></g><g fill="#edeced" fill-opacity="1"><g transform="translate(336.838253, 404.760938)"><g><path d="M 2.15625 -11.46875 L 3.703125 -11.46875 L 3.703125 0 L 2.15625 0 Z M 2.9375 -13.96875 C 2.625 -13.96875 2.359375 -14.078125 2.140625 -14.296875 C 1.921875 -14.515625 1.8125 -14.773438 1.8125 -15.078125 C 1.8125 -15.367188 1.921875 -15.625 2.140625 -15.84375 C 2.359375 -16.0625 2.625 -16.171875 2.9375 -16.171875 C 3.257812 -16.171875 3.53125 -16.066406 3.75 -15.859375 C 3.96875 -15.648438 4.078125 -15.398438 4.078125 -15.109375 C 4.078125 -14.785156 3.96875 -14.515625 3.75 -14.296875 C 3.53125 -14.078125 3.257812 -13.96875 2.9375 -13.96875 Z M 2.9375 -13.96875 "/></g></g></g><g fill="#edeced" fill-opacity="1"><g transform="translate(342.69844, 404.760938)"><g><path d="M 5.953125 -14.96875 C 5.285156 -14.96875 4.78125 -14.785156 4.4375 -14.421875 C 4.09375 -14.066406 3.921875 -13.53125 3.921875 -12.8125 L 3.921875 -11.46875 L 7.453125 -11.46875 L 7.453125 -10.15625 L 3.96875 -10.15625 L 3.96875 0 L 2.421875 0 L 2.421875 -10.15625 L 0.375 -10.15625 L 0.375 -11.46875 L 2.421875 -11.46875 L 2.421875 -12.875 C 2.421875 -13.925781 2.722656 -14.753906 3.328125 -15.359375 C 3.929688 -15.972656 4.785156 -16.28125 5.890625 -16.28125 C 6.328125 -16.28125 6.75 -16.21875 7.15625 -16.09375 C 7.5625 -15.96875 7.898438 -15.789062 8.171875 -15.5625 L 7.65625 -14.40625 C 7.195312 -14.78125 6.628906 -14.96875 5.953125 -14.96875 Z M 5.953125 -14.96875 "/></g></g></g><g fill="#edeced" fill-opacity="1"><g transform="translate(350.083587, 404.760938)"><g><path d="M 2.3125 -9.171875 C 1.988281 -9.171875 1.710938 -9.285156 1.484375 -9.515625 C 1.265625 -9.753906 1.15625 -10.039062 1.15625 -10.375 C 1.15625 -10.707031 1.265625 -10.984375 1.484375 -11.203125 C 1.710938 -11.429688 1.988281 -11.546875 2.3125 -11.546875 C 2.632812 -11.546875 2.910156 -11.429688 3.140625 -11.203125 C 3.367188 -10.984375 3.484375 -10.707031 3.484375 -10.375 C 3.484375 -10.039062 3.367188 -9.753906 3.140625 -9.515625 C 2.910156 -9.285156 2.632812 -9.171875 2.3125 -9.171875 Z M 2.3125 0.109375 C 1.988281 0.109375 1.710938 -0.00390625 1.484375 -0.234375 C 1.265625 -0.472656 1.15625 -0.757812 1.15625 -1.09375 C 1.15625 -1.425781 1.265625 -1.703125 1.484375 -1.921875 C 1.710938 -2.148438 1.988281 -2.265625 2.3125 -2.265625 C 2.632812 -2.265625 2.910156 -2.148438 3.140625 -1.921875 C 3.367188 -1.703125 3.484375 -1.425781 3.484375 -1.09375 C 3.484375 -0.757812 3.367188 -0.472656 3.140625 -0.234375 C 2.910156 -0.00390625 2.632812 0.109375 2.3125 0.109375 Z M 2.3125 0.109375 "/></g></g></g><g fill="#edeced" fill-opacity="1"><g transform="translate(354.702021, 404.760938)"><g/></g></g><g fill="#edeced" fill-opacity="1"><g transform="translate(360.409716, 404.760938)"><g><path d="M 11.546875 -1.390625 L 11.546875 0 L 0.84375 0 L 0.84375 -1.109375 L 7.1875 -7.328125 C 7.988281 -8.109375 8.53125 -8.785156 8.8125 -9.359375 C 9.09375 -9.929688 9.234375 -10.507812 9.234375 -11.09375 C 9.234375 -12 8.925781 -12.703125 8.3125 -13.203125 C 7.695312 -13.703125 6.816406 -13.953125 5.671875 -13.953125 C 3.878906 -13.953125 2.488281 -13.382812 1.5 -12.25 L 0.390625 -13.203125 C 0.984375 -13.898438 1.738281 -14.4375 2.65625 -14.8125 C 3.582031 -15.195312 4.628906 -15.390625 5.796875 -15.390625 C 7.347656 -15.390625 8.578125 -15.019531 9.484375 -14.28125 C 10.398438 -13.550781 10.859375 -12.546875 10.859375 -11.265625 C 10.859375 -10.484375 10.679688 -9.726562 10.328125 -9 C 9.984375 -8.269531 9.320312 -7.4375 8.34375 -6.5 L 3.15625 -1.390625 Z M 11.546875 -1.390625 "/></g></g></g><g fill="#edeced" fill-opacity="1"><g transform="translate(372.78364, 404.760938)"><g><path d="M 7.21875 0.125 C 6.039062 0.125 4.988281 -0.1875 4.0625 -0.8125 C 3.144531 -1.4375 2.425781 -2.332031 1.90625 -3.5 C 1.394531 -4.664062 1.140625 -6.039062 1.140625 -7.625 C 1.140625 -9.207031 1.394531 -10.582031 1.90625 -11.75 C 2.425781 -12.925781 3.144531 -13.828125 4.0625 -14.453125 C 4.988281 -15.078125 6.039062 -15.390625 7.21875 -15.390625 C 8.394531 -15.390625 9.441406 -15.078125 10.359375 -14.453125 C 11.285156 -13.828125 12.007812 -12.925781 12.53125 -11.75 C 13.050781 -10.582031 13.3125 -9.207031 13.3125 -7.625 C 13.3125 -6.039062 13.050781 -4.664062 12.53125 -3.5 C 12.007812 -2.332031 11.285156 -1.4375 10.359375 -0.8125 C 9.441406 -0.1875 8.394531 0.125 7.21875 0.125 Z M 7.21875 -1.3125 C 8.101562 -1.3125 8.882812 -1.554688 9.5625 -2.046875 C 10.238281 -2.546875 10.765625 -3.265625 11.140625 -4.203125 C 11.515625 -5.148438 11.703125 -6.289062 11.703125 -7.625 C 11.703125 -8.96875 11.515625 -10.109375 11.140625 -11.046875 C 10.765625 -11.992188 10.238281 -12.710938 9.5625 -13.203125 C 8.882812 -13.703125 8.101562 -13.953125 7.21875 -13.953125 C 6.332031 -13.953125 5.550781 -13.703125 4.875 -13.203125 C 4.195312 -12.710938 3.664062 -11.992188 3.28125 -11.046875 C 2.90625 -10.109375 2.71875 -8.96875 2.71875 -7.625 C 2.71875 -6.289062 2.90625 -5.148438 3.28125 -4.203125 C 3.664062 -3.265625 4.195312 -2.546875 4.875 -2.046875 C 5.550781 -1.554688 6.332031 -1.3125 7.21875 -1.3125 Z M 7.21875 -1.3125 "/></g></g></g><g fill="#edeced" fill-opacity="1"><g transform="translate(387.205357, 404.760938)"><g><path d="M 1.3125 -6.578125 L 7.015625 -6.578125 L 7.015625 -5.234375 L 1.3125 -5.234375 Z M 1.3125 -6.578125 "/></g></g></g><g fill="#edeced" fill-opacity="1"><g transform="translate(395.52726, 404.760938)"><g><path d="M 5.359375 -15.265625 L 5.359375 0 L 3.796875 0 L 3.796875 -13.859375 L 0.203125 -13.859375 L 0.203125 -15.265625 Z M 5.359375 -15.265625 "/></g></g></g><g fill="#edeced" fill-opacity="1"><g transform="translate(403.391674, 404.760938)"><g><path d="M 11.546875 -1.390625 L 11.546875 0 L 0.84375 0 L 0.84375 -1.109375 L 7.1875 -7.328125 C 7.988281 -8.109375 8.53125 -8.785156 8.8125 -9.359375 C 9.09375 -9.929688 9.234375 -10.507812 9.234375 -11.09375 C 9.234375 -12 8.925781 -12.703125 8.3125 -13.203125 C 7.695312 -13.703125 6.816406 -13.953125 5.671875 -13.953125 C 3.878906 -13.953125 2.488281 -13.382812 1.5 -12.25 L 0.390625 -13.203125 C 0.984375 -13.898438 1.738281 -14.4375 2.65625 -14.8125 C 3.582031 -15.195312 4.628906 -15.390625 5.796875 -15.390625 C 7.347656 -15.390625 8.578125 -15.019531 9.484375 -14.28125 C 10.398438 -13.550781 10.859375 -12.546875 10.859375 -11.265625 C 10.859375 -10.484375 10.679688 -9.726562 10.328125 -9 C 9.984375 -8.269531 9.320312 -7.4375 8.34375 -6.5 L 3.15625 -1.390625 Z M 11.546875 -1.390625 "/></g></g></g><g fill="#edeced" fill-opacity="1"><g transform="translate(415.765598, 404.760938)"><g><path d="M 7.21875 0.125 C 6.039062 0.125 4.988281 -0.1875 4.0625 -0.8125 C 3.144531 -1.4375 2.425781 -2.332031 1.90625 -3.5 C 1.394531 -4.664062 1.140625 -6.039062 1.140625 -7.625 C 1.140625 -9.207031 1.394531 -10.582031 1.90625 -11.75 C 2.425781 -12.925781 3.144531 -13.828125 4.0625 -14.453125 C 4.988281 -15.078125 6.039062 -15.390625 7.21875 -15.390625 C 8.394531 -15.390625 9.441406 -15.078125 10.359375 -14.453125 C 11.285156 -13.828125 12.007812 -12.925781 12.53125 -11.75 C 13.050781 -10.582031 13.3125 -9.207031 13.3125 -7.625 C 13.3125 -6.039062 13.050781 -4.664062 12.53125 -3.5 C 12.007812 -2.332031 11.285156 -1.4375 10.359375 -0.8125 C 9.441406 -0.1875 8.394531 0.125 7.21875 0.125 Z M 7.21875 -1.3125 C 8.101562 -1.3125 8.882812 -1.554688 9.5625 -2.046875 C 10.238281 -2.546875 10.765625 -3.265625 11.140625 -4.203125 C 11.515625 -5.148438 11.703125 -6.289062 11.703125 -7.625 C 11.703125 -8.96875 11.515625 -10.109375 11.140625 -11.046875 C 10.765625 -11.992188 10.238281 -12.710938 9.5625 -13.203125 C 8.882812 -13.703125 8.101562 -13.953125 7.21875 -13.953125 C 6.332031 -13.953125 5.550781 -13.703125 4.875 -13.203125 C 4.195312 -12.710938 3.664062 -11.992188 3.28125 -11.046875 C 2.90625 -10.109375 2.71875 -8.96875 2.71875 -7.625 C 2.71875 -6.289062 2.90625 -5.148438 3.28125 -4.203125 C 3.664062 -3.265625 4.195312 -2.546875 4.875 -2.046875 C 5.550781 -1.554688 6.332031 -1.3125 7.21875 -1.3125 Z M 7.21875 -1.3125 "/></g></g></g><g fill="#edeced" fill-opacity="1"><g transform="translate(430.187315, 404.760938)"><g><path d="M 7.21875 0.125 C 6.039062 0.125 4.988281 -0.1875 4.0625 -0.8125 C 3.144531 -1.4375 2.425781 -2.332031 1.90625 -3.5 C 1.394531 -4.664062 1.140625 -6.039062 1.140625 -7.625 C 1.140625 -9.207031 1.394531 -10.582031 1.90625 -11.75 C 2.425781 -12.925781 3.144531 -13.828125 4.0625 -14.453125 C 4.988281 -15.078125 6.039062 -15.390625 7.21875 -15.390625 C 8.394531 -15.390625 9.441406 -15.078125 10.359375 -14.453125 C 11.285156 -13.828125 12.007812 -12.925781 12.53125 -11.75 C 13.050781 -10.582031 13.3125 -9.207031 13.3125 -7.625 C 13.3125 -6.039062 13.050781 -4.664062 12.53125 -3.5 C 12.007812 -2.332031 11.285156 -1.4375 10.359375 -0.8125 C 9.441406 -0.1875 8.394531 0.125 7.21875 0.125 Z M 7.21875 -1.3125 C 8.101562 -1.3125 8.882812 -1.554688 9.5625 -2.046875 C 10.238281 -2.546875 10.765625 -3.265625 11.140625 -4.203125 C 11.515625 -5.148438 11.703125 -6.289062 11.703125 -7.625 C 11.703125 -8.96875 11.515625 -10.109375 11.140625 -11.046875 C 10.765625 -11.992188 10.238281 -12.710938 9.5625 -13.203125 C 8.882812 -13.703125 8.101562 -13.953125 7.21875 -13.953125 C 6.332031 -13.953125 5.550781 -13.703125 4.875 -13.203125 C 4.195312 -12.710938 3.664062 -11.992188 3.28125 -11.046875 C 2.90625 -10.109375 2.71875 -8.96875 2.71875 -7.625 C 2.71875 -6.289062 2.90625 -5.148438 3.28125 -4.203125 C 3.664062 -3.265625 4.195312 -2.546875 4.875 -2.046875 C 5.550781 -1.554688 6.332031 -1.3125 7.21875 -1.3125 Z M 7.21875 -1.3125 "/></g></g></g><g fill="#edeced" fill-opacity="1"><g transform="translate(444.609033, 404.760938)"><g/></g></g><g fill="#edeced" fill-opacity="1"><g transform="translate(450.316728, 404.760938)"><g><path d="M 4.09375 -13.859375 L 4.09375 -7.875 L 11.984375 -7.875 L 11.984375 -6.46875 L 4.09375 -6.46875 L 4.09375 0 L 2.484375 0 L 2.484375 -15.265625 L 12.953125 -15.265625 L 12.953125 -13.859375 Z M 4.09375 -13.859375 "/></g></g></g><g fill="#edeced" fill-opacity="1"><g transform="translate(464.106697, 404.760938)"><g><path d="M 11.546875 -1.390625 L 11.546875 0 L 0.84375 0 L 0.84375 -1.109375 L 7.1875 -7.328125 C 7.988281 -8.109375 8.53125 -8.785156 8.8125 -9.359375 C 9.09375 -9.929688 9.234375 -10.507812 9.234375 -11.09375 C 9.234375 -12 8.925781 -12.703125 8.3125 -13.203125 C 7.695312 -13.703125 6.816406 -13.953125 5.671875 -13.953125 C 3.878906 -13.953125 2.488281 -13.382812 1.5 -12.25 L 0.390625 -13.203125 C 0.984375 -13.898438 1.738281 -14.4375 2.65625 -14.8125 C 3.582031 -15.195312 4.628906 -15.390625 5.796875 -15.390625 C 7.347656 -15.390625 8.578125 -15.019531 9.484375 -14.28125 C 10.398438 -13.550781 10.859375 -12.546875 10.859375 -11.265625 C 10.859375 -10.484375 10.679688 -9.726562 10.328125 -9 C 9.984375 -8.269531 9.320312 -7.4375 8.34375 -6.5 L 3.15625 -1.390625 Z M 11.546875 -1.390625 "/></g></g></g><g fill="#edeced" fill-opacity="1"><g transform="translate(476.480621, 404.760938)"><g><path d="M 2.328125 -2.265625 C 2.660156 -2.265625 2.9375 -2.148438 3.15625 -1.921875 C 3.375 -1.703125 3.484375 -1.425781 3.484375 -1.09375 C 3.484375 -0.914062 3.457031 -0.722656 3.40625 -0.515625 C 3.351562 -0.316406 3.28125 -0.0859375 3.1875 0.171875 L 2.265625 3.1875 L 1.21875 3.1875 L 1.96875 0.015625 C 1.726562 -0.0546875 1.535156 -0.1875 1.390625 -0.375 C 1.242188 -0.570312 1.171875 -0.8125 1.171875 -1.09375 C 1.171875 -1.425781 1.28125 -1.703125 1.5 -1.921875 C 1.71875 -2.148438 1.992188 -2.265625 2.328125 -2.265625 Z M 2.328125 -2.265625 "/></g></g></g><g fill="#edeced" fill-opacity="1"><g transform="translate(481.099067, 404.760938)"><g><path d="M 9.875 -8 C 10.832031 -7.675781 11.566406 -7.195312 12.078125 -6.5625 C 12.597656 -5.925781 12.859375 -5.15625 12.859375 -4.25 C 12.859375 -3.363281 12.617188 -2.585938 12.140625 -1.921875 C 11.660156 -1.265625 10.972656 -0.757812 10.078125 -0.40625 C 9.179688 -0.0507812 8.132812 0.125 6.9375 0.125 C 5.101562 0.125 3.660156 -0.265625 2.609375 -1.046875 C 1.566406 -1.828125 1.046875 -2.894531 1.046875 -4.25 C 1.046875 -5.164062 1.296875 -5.9375 1.796875 -6.5625 C 2.296875 -7.195312 3.023438 -7.675781 3.984375 -8 C 3.203125 -8.300781 2.609375 -8.738281 2.203125 -9.3125 C 1.796875 -9.882812 1.59375 -10.566406 1.59375 -11.359375 C 1.59375 -12.585938 2.070312 -13.566406 3.03125 -14.296875 C 4 -15.023438 5.300781 -15.390625 6.9375 -15.390625 C 8.007812 -15.390625 8.945312 -15.222656 9.75 -14.890625 C 10.5625 -14.566406 11.191406 -14.097656 11.640625 -13.484375 C 12.085938 -12.878906 12.3125 -12.171875 12.3125 -11.359375 C 12.3125 -10.566406 12.097656 -9.882812 11.671875 -9.3125 C 11.253906 -8.738281 10.65625 -8.300781 9.875 -8 Z M 3.15625 -11.3125 C 3.15625 -10.46875 3.488281 -9.796875 4.15625 -9.296875 C 4.832031 -8.804688 5.757812 -8.5625 6.9375 -8.5625 C 8.113281 -8.5625 9.035156 -8.804688 9.703125 -9.296875 C 10.378906 -9.796875 10.71875 -10.460938 10.71875 -11.296875 C 10.71875 -12.148438 10.375 -12.820312 9.6875 -13.3125 C 9 -13.8125 8.082031 -14.0625 6.9375 -14.0625 C 5.769531 -14.0625 4.847656 -13.8125 4.171875 -13.3125 C 3.492188 -12.820312 3.15625 -12.15625 3.15625 -11.3125 Z M 6.9375 -1.203125 C 8.28125 -1.203125 9.332031 -1.476562 10.09375 -2.03125 C 10.863281 -2.582031 11.25 -3.328125 11.25 -4.265625 C 11.25 -5.210938 10.863281 -5.957031 10.09375 -6.5 C 9.332031 -7.050781 8.28125 -7.328125 6.9375 -7.328125 C 5.59375 -7.328125 4.539062 -7.050781 3.78125 -6.5 C 3.019531 -5.957031 2.640625 -5.210938 2.640625 -4.265625 C 2.640625 -3.304688 3.015625 -2.554688 3.765625 -2.015625 C 4.523438 -1.472656 5.582031 -1.203125 6.9375 -1.203125 Z M 6.9375 -1.203125 "/></g></g></g><g fill="#edeced" fill-opacity="1"><g transform="translate(494.997962, 404.760938)"><g><path d="M 1.3125 -6.578125 L 7.015625 -6.578125 L 7.015625 -5.234375 L 1.3125 -5.234375 Z M 1.3125 -6.578125 "/></g></g></g><g fill="#edeced" fill-opacity="1"><g transform="translate(503.319876, 404.760938)"><g><path d="M 5.140625 -9 C 7.347656 -9 8.957031 -8.601562 9.96875 -7.8125 C 10.976562 -7.019531 11.484375 -5.910156 11.484375 -4.484375 C 11.484375 -3.597656 11.273438 -2.804688 10.859375 -2.109375 C 10.453125 -1.410156 9.832031 -0.863281 9 -0.46875 C 8.175781 -0.0703125 7.160156 0.125 5.953125 0.125 C 4.859375 0.125 3.820312 -0.0507812 2.84375 -0.40625 C 1.863281 -0.757812 1.078125 -1.234375 0.484375 -1.828125 L 1.25 -3.078125 C 1.75 -2.546875 2.410156 -2.117188 3.234375 -1.796875 C 4.066406 -1.472656 4.960938 -1.3125 5.921875 -1.3125 C 7.191406 -1.3125 8.171875 -1.59375 8.859375 -2.15625 C 9.546875 -2.726562 9.890625 -3.484375 9.890625 -4.421875 C 9.890625 -5.472656 9.5 -6.265625 8.71875 -6.796875 C 7.945312 -7.335938 6.640625 -7.609375 4.796875 -7.609375 L 1.546875 -7.609375 L 2.328125 -15.265625 L 10.6875 -15.265625 L 10.6875 -13.859375 L 3.703125 -13.859375 L 3.1875 -9 Z M 5.140625 -9 "/></g></g></g><g fill="#edeced" fill-opacity="1"><g transform="translate(515.650243, 404.760938)"><g><path d="M 2.328125 -2.265625 C 2.660156 -2.265625 2.9375 -2.148438 3.15625 -1.921875 C 3.375 -1.703125 3.484375 -1.425781 3.484375 -1.09375 C 3.484375 -0.914062 3.457031 -0.722656 3.40625 -0.515625 C 3.351562 -0.316406 3.28125 -0.0859375 3.1875 0.171875 L 2.265625 3.1875 L 1.21875 3.1875 L 1.96875 0.015625 C 1.726562 -0.0546875 1.535156 -0.1875 1.390625 -0.375 C 1.242188 -0.570312 1.171875 -0.8125 1.171875 -1.09375 C 1.171875 -1.425781 1.28125 -1.703125 1.5 -1.921875 C 1.71875 -2.148438 1.992188 -2.265625 2.328125 -2.265625 Z M 2.328125 -2.265625 "/></g></g></g><g fill="#edeced" fill-opacity="1"><g transform="translate(520.268666, 404.760938)"><g><path d="M 5.890625 -15.390625 C 7.910156 -15.390625 9.457031 -14.722656 10.53125 -13.390625 C 11.601562 -12.066406 12.140625 -10.191406 12.140625 -7.765625 C 12.140625 -6.054688 11.847656 -4.613281 11.265625 -3.4375 C 10.679688 -2.257812 9.867188 -1.367188 8.828125 -0.765625 C 7.785156 -0.171875 6.566406 0.125 5.171875 0.125 C 3.660156 0.125 2.453125 -0.148438 1.546875 -0.703125 L 2.1875 -1.96875 C 2.90625 -1.488281 3.890625 -1.25 5.140625 -1.25 C 6.828125 -1.25 8.148438 -1.78125 9.109375 -2.84375 C 10.066406 -3.914062 10.546875 -5.46875 10.546875 -7.5 C 10.546875 -7.875 10.523438 -8.285156 10.484375 -8.734375 C 10.109375 -7.910156 9.503906 -7.269531 8.671875 -6.8125 C 7.847656 -6.351562 6.894531 -6.125 5.8125 -6.125 C 4.8125 -6.125 3.921875 -6.3125 3.140625 -6.6875 C 2.367188 -7.070312 1.765625 -7.609375 1.328125 -8.296875 C 0.890625 -8.984375 0.671875 -9.785156 0.671875 -10.703125 C 0.671875 -11.628906 0.894531 -12.445312 1.34375 -13.15625 C 1.800781 -13.875 2.425781 -14.425781 3.21875 -14.8125 C 4.007812 -15.195312 4.898438 -15.390625 5.890625 -15.390625 Z M 6.0625 -7.453125 C 6.832031 -7.453125 7.507812 -7.597656 8.09375 -7.890625 C 8.6875 -8.179688 9.148438 -8.582031 9.484375 -9.09375 C 9.816406 -9.601562 9.984375 -10.171875 9.984375 -10.796875 C 9.984375 -11.367188 9.828125 -11.898438 9.515625 -12.390625 C 9.203125 -12.890625 8.738281 -13.289062 8.125 -13.59375 C 7.519531 -13.90625 6.796875 -14.0625 5.953125 -14.0625 C 4.847656 -14.0625 3.945312 -13.757812 3.25 -13.15625 C 2.5625 -12.550781 2.21875 -11.75 2.21875 -10.75 C 2.21875 -9.738281 2.5625 -8.9375 3.25 -8.34375 C 3.945312 -7.75 4.882812 -7.453125 6.0625 -7.453125 Z M 6.0625 -7.453125 "/></g></g></g><g fill="#edeced" fill-opacity="1"><g transform="translate(287.857944, 434.760937)"><g><path d="M 5.453125 -13.859375 L 0.09375 -13.859375 L 0.09375 -15.265625 L 12.421875 -15.265625 L 12.421875 -13.859375 L 7.0625 -13.859375 L 7.0625 0 L 5.453125 0 Z M 5.453125 -13.859375 "/></g></g></g><g fill="#edeced" fill-opacity="1"><g transform="translate(300.362582, 434.760937)"><g><path d="M 3.640625 -9.21875 C 4.003906 -9.988281 4.546875 -10.566406 5.265625 -10.953125 C 5.984375 -11.347656 6.875 -11.546875 7.9375 -11.546875 L 7.9375 -10.046875 L 7.5625 -10.0625 C 6.351562 -10.0625 5.40625 -9.691406 4.71875 -8.953125 C 4.039062 -8.210938 3.703125 -7.175781 3.703125 -5.84375 L 3.703125 0 L 2.15625 0 L 2.15625 -11.46875 L 3.640625 -11.46875 Z M 3.640625 -9.21875 "/></g></g></g><g fill="#edeced" fill-opacity="1"><g transform="translate(309.098394, 434.760937)"><g><path d="M 12.140625 -5.25 L 2.546875 -5.25 C 2.640625 -4.0625 3.097656 -3.097656 3.921875 -2.359375 C 4.753906 -1.628906 5.800781 -1.265625 7.0625 -1.265625 C 7.769531 -1.265625 8.421875 -1.390625 9.015625 -1.640625 C 9.617188 -1.898438 10.140625 -2.273438 10.578125 -2.765625 L 11.4375 -1.765625 C 10.9375 -1.148438 10.300781 -0.679688 9.53125 -0.359375 C 8.769531 -0.046875 7.929688 0.109375 7.015625 0.109375 C 5.835938 0.109375 4.796875 -0.140625 3.890625 -0.640625 C 2.984375 -1.140625 2.273438 -1.832031 1.765625 -2.71875 C 1.253906 -3.601562 1 -4.609375 1 -5.734375 C 1 -6.847656 1.242188 -7.847656 1.734375 -8.734375 C 2.222656 -9.617188 2.890625 -10.304688 3.734375 -10.796875 C 4.585938 -11.296875 5.546875 -11.546875 6.609375 -11.546875 C 7.671875 -11.546875 8.617188 -11.296875 9.453125 -10.796875 C 10.296875 -10.304688 10.957031 -9.625 11.4375 -8.75 C 11.914062 -7.875 12.15625 -6.867188 12.15625 -5.734375 Z M 6.609375 -10.21875 C 5.503906 -10.21875 4.578125 -9.863281 3.828125 -9.15625 C 3.078125 -8.457031 2.648438 -7.539062 2.546875 -6.40625 L 10.6875 -6.40625 C 10.582031 -7.539062 10.15625 -8.457031 9.40625 -9.15625 C 8.65625 -9.863281 7.722656 -10.21875 6.609375 -10.21875 Z M 8.171875 -15.953125 L 10.234375 -15.953125 L 6.703125 -13.25 L 5.1875 -13.25 Z M 8.171875 -15.953125 "/></g></g></g><g fill="#edeced" fill-opacity="1"><g transform="translate(322.256581, 434.760937)"><g><path d="M 8.0625 -11.546875 C 9.132812 -11.546875 10.109375 -11.300781 10.984375 -10.8125 C 11.859375 -10.332031 12.539062 -9.648438 13.03125 -8.765625 C 13.53125 -7.878906 13.78125 -6.867188 13.78125 -5.734375 C 13.78125 -4.585938 13.53125 -3.566406 13.03125 -2.671875 C 12.539062 -1.785156 11.863281 -1.097656 11 -0.609375 C 10.132812 -0.128906 9.15625 0.109375 8.0625 0.109375 C 7.132812 0.109375 6.296875 -0.0820312 5.546875 -0.46875 C 4.796875 -0.851562 4.179688 -1.414062 3.703125 -2.15625 L 3.703125 4.234375 L 2.15625 4.234375 L 2.15625 -11.46875 L 3.640625 -11.46875 L 3.640625 -9.203125 C 4.109375 -9.953125 4.722656 -10.53125 5.484375 -10.9375 C 6.242188 -11.34375 7.101562 -11.546875 8.0625 -11.546875 Z M 7.953125 -1.265625 C 8.753906 -1.265625 9.476562 -1.445312 10.125 -1.8125 C 10.78125 -2.1875 11.296875 -2.710938 11.671875 -3.390625 C 12.046875 -4.078125 12.234375 -4.859375 12.234375 -5.734375 C 12.234375 -6.609375 12.046875 -7.378906 11.671875 -8.046875 C 11.296875 -8.722656 10.78125 -9.25 10.125 -9.625 C 9.476562 -10.007812 8.753906 -10.203125 7.953125 -10.203125 C 7.140625 -10.203125 6.410156 -10.007812 5.765625 -9.625 C 5.117188 -9.25 4.609375 -8.722656 4.234375 -8.046875 C 3.867188 -7.378906 3.6875 -6.609375 3.6875 -5.734375 C 3.6875 -4.859375 3.867188 -4.078125 4.234375 -3.390625 C 4.609375 -2.710938 5.117188 -2.1875 5.765625 -1.8125 C 6.410156 -1.445312 7.140625 -1.265625 7.953125 -1.265625 Z M 7.953125 -1.265625 "/></g></g></g><g fill="#edeced" fill-opacity="1"><g transform="translate(337.026863, 434.760937)"><g><path d="M 2.15625 -11.46875 L 3.703125 -11.46875 L 3.703125 0 L 2.15625 0 Z M 2.9375 -13.96875 C 2.625 -13.96875 2.359375 -14.078125 2.140625 -14.296875 C 1.921875 -14.515625 1.8125 -14.773438 1.8125 -15.078125 C 1.8125 -15.367188 1.921875 -15.625 2.140625 -15.84375 C 2.359375 -16.0625 2.625 -16.171875 2.9375 -16.171875 C 3.257812 -16.171875 3.53125 -16.066406 3.75 -15.859375 C 3.96875 -15.648438 4.078125 -15.398438 4.078125 -15.109375 C 4.078125 -14.785156 3.96875 -14.515625 3.75 -14.296875 C 3.53125 -14.078125 3.257812 -13.96875 2.9375 -13.96875 Z M 2.9375 -13.96875 "/></g></g></g><g fill="#edeced" fill-opacity="1"><g transform="translate(342.88705, 434.760937)"><g><path d="M 12.140625 -5.25 L 2.546875 -5.25 C 2.640625 -4.0625 3.097656 -3.097656 3.921875 -2.359375 C 4.753906 -1.628906 5.800781 -1.265625 7.0625 -1.265625 C 7.769531 -1.265625 8.421875 -1.390625 9.015625 -1.640625 C 9.617188 -1.898438 10.140625 -2.273438 10.578125 -2.765625 L 11.4375 -1.765625 C 10.9375 -1.148438 10.300781 -0.679688 9.53125 -0.359375 C 8.769531 -0.046875 7.929688 0.109375 7.015625 0.109375 C 5.835938 0.109375 4.796875 -0.140625 3.890625 -0.640625 C 2.984375 -1.140625 2.273438 -1.832031 1.765625 -2.71875 C 1.253906 -3.601562 1 -4.609375 1 -5.734375 C 1 -6.847656 1.242188 -7.847656 1.734375 -8.734375 C 2.222656 -9.617188 2.890625 -10.304688 3.734375 -10.796875 C 4.585938 -11.296875 5.546875 -11.546875 6.609375 -11.546875 C 7.671875 -11.546875 8.617188 -11.296875 9.453125 -10.796875 C 10.296875 -10.304688 10.957031 -9.625 11.4375 -8.75 C 11.914062 -7.875 12.15625 -6.867188 12.15625 -5.734375 Z M 6.609375 -10.21875 C 5.503906 -10.21875 4.578125 -9.863281 3.828125 -9.15625 C 3.078125 -8.457031 2.648438 -7.539062 2.546875 -6.40625 L 10.6875 -6.40625 C 10.582031 -7.539062 10.15625 -8.457031 9.40625 -9.15625 C 8.65625 -9.863281 7.722656 -10.21875 6.609375 -10.21875 Z M 6.609375 -10.21875 "/></g></g></g><g fill="#edeced" fill-opacity="1"><g transform="translate(356.045237, 434.760937)"><g><path d="M 12.625 -16.171875 L 12.625 0 L 11.140625 0 L 11.140625 -2.265625 C 10.671875 -1.492188 10.054688 -0.90625 9.296875 -0.5 C 8.535156 -0.09375 7.675781 0.109375 6.71875 0.109375 C 5.632812 0.109375 4.65625 -0.132812 3.78125 -0.625 C 2.914062 -1.125 2.234375 -1.816406 1.734375 -2.703125 C 1.242188 -3.585938 1 -4.597656 1 -5.734375 C 1 -6.867188 1.242188 -7.878906 1.734375 -8.765625 C 2.234375 -9.648438 2.914062 -10.332031 3.78125 -10.8125 C 4.65625 -11.300781 5.632812 -11.546875 6.71875 -11.546875 C 7.644531 -11.546875 8.484375 -11.351562 9.234375 -10.96875 C 9.984375 -10.582031 10.597656 -10.019531 11.078125 -9.28125 L 11.078125 -16.171875 Z M 6.84375 -1.265625 C 7.644531 -1.265625 8.367188 -1.445312 9.015625 -1.8125 C 9.660156 -2.1875 10.164062 -2.710938 10.53125 -3.390625 C 10.90625 -4.078125 11.09375 -4.859375 11.09375 -5.734375 C 11.09375 -6.609375 10.90625 -7.382812 10.53125 -8.0625 C 10.164062 -8.75 9.660156 -9.273438 9.015625 -9.640625 C 8.367188 -10.015625 7.644531 -10.203125 6.84375 -10.203125 C 6.03125 -10.203125 5.300781 -10.015625 4.65625 -9.640625 C 4.007812 -9.273438 3.5 -8.75 3.125 -8.0625 C 2.757812 -7.382812 2.578125 -6.609375 2.578125 -5.734375 C 2.578125 -4.859375 2.757812 -4.078125 3.125 -3.390625 C 3.5 -2.710938 4.007812 -2.1875 4.65625 -1.8125 C 5.300781 -1.445312 6.03125 -1.265625 6.84375 -1.265625 Z M 6.84375 -1.265625 "/></g></g></g><g fill="#edeced" fill-opacity="1"><g transform="translate(370.815519, 434.760937)"><g/></g></g><g fill="#edeced" fill-opacity="1"><g transform="translate(376.523213, 434.760937)"><g><path d="M 12.140625 -5.25 L 2.546875 -5.25 C 2.640625 -4.0625 3.097656 -3.097656 3.921875 -2.359375 C 4.753906 -1.628906 5.800781 -1.265625 7.0625 -1.265625 C 7.769531 -1.265625 8.421875 -1.390625 9.015625 -1.640625 C 9.617188 -1.898438 10.140625 -2.273438 10.578125 -2.765625 L 11.4375 -1.765625 C 10.9375 -1.148438 10.300781 -0.679688 9.53125 -0.359375 C 8.769531 -0.046875 7.929688 0.109375 7.015625 0.109375 C 5.835938 0.109375 4.796875 -0.140625 3.890625 -0.640625 C 2.984375 -1.140625 2.273438 -1.832031 1.765625 -2.71875 C 1.253906 -3.601562 1 -4.609375 1 -5.734375 C 1 -6.847656 1.242188 -7.847656 1.734375 -8.734375 C 2.222656 -9.617188 2.890625 -10.304688 3.734375 -10.796875 C 4.585938 -11.296875 5.546875 -11.546875 6.609375 -11.546875 C 7.671875 -11.546875 8.617188 -11.296875 9.453125 -10.796875 C 10.296875 -10.304688 10.957031 -9.625 11.4375 -8.75 C 11.914062 -7.875 12.15625 -6.867188 12.15625 -5.734375 Z M 6.609375 -10.21875 C 5.503906 -10.21875 4.578125 -9.863281 3.828125 -9.15625 C 3.078125 -8.457031 2.648438 -7.539062 2.546875 -6.40625 L 10.6875 -6.40625 C 10.582031 -7.539062 10.15625 -8.457031 9.40625 -9.15625 C 8.65625 -9.863281 7.722656 -10.21875 6.609375 -10.21875 Z M 6.609375 -10.21875 "/></g></g></g><g fill="#edeced" fill-opacity="1"><g transform="translate(389.6814, 434.760937)"><g><path d="M 8.203125 -0.703125 C 7.910156 -0.441406 7.546875 -0.238281 7.109375 -0.09375 C 6.679688 0.0390625 6.238281 0.109375 5.78125 0.109375 C 4.695312 0.109375 3.863281 -0.179688 3.28125 -0.765625 C 2.707031 -1.347656 2.421875 -2.164062 2.421875 -3.21875 L 2.421875 -10.15625 L 0.375 -10.15625 L 0.375 -11.46875 L 2.421875 -11.46875 L 2.421875 -13.96875 L 3.96875 -13.96875 L 3.96875 -11.46875 L 7.453125 -11.46875 L 7.453125 -10.15625 L 3.96875 -10.15625 L 3.96875 -3.3125 C 3.96875 -2.625 4.132812 -2.101562 4.46875 -1.75 C 4.8125 -1.394531 5.304688 -1.21875 5.953125 -1.21875 C 6.273438 -1.21875 6.582031 -1.269531 6.875 -1.375 C 7.175781 -1.476562 7.4375 -1.625 7.65625 -1.8125 Z M 8.203125 -0.703125 "/></g></g></g><g fill="#edeced" fill-opacity="1"><g transform="translate(398.526138, 434.760937)"><g/></g></g><g fill="#edeced" fill-opacity="1"><g transform="translate(404.233833, 434.760937)"><g><path d="M 2.15625 -16.171875 L 3.703125 -16.171875 L 3.703125 0 L 2.15625 0 Z M 2.15625 -16.171875 "/></g></g></g><g fill="#edeced" fill-opacity="1"><g transform="translate(410.09402, 434.760937)"><g><path d="M 2.15625 -11.46875 L 3.703125 -11.46875 L 3.703125 0 L 2.15625 0 Z M 2.9375 -13.96875 C 2.625 -13.96875 2.359375 -14.078125 2.140625 -14.296875 C 1.921875 -14.515625 1.8125 -14.773438 1.8125 -15.078125 C 1.8125 -15.367188 1.921875 -15.625 2.140625 -15.84375 C 2.359375 -16.0625 2.625 -16.171875 2.9375 -16.171875 C 3.257812 -16.171875 3.53125 -16.066406 3.75 -15.859375 C 3.96875 -15.648438 4.078125 -15.398438 4.078125 -15.109375 C 4.078125 -14.785156 3.96875 -14.515625 3.75 -14.296875 C 3.53125 -14.078125 3.257812 -13.96875 2.9375 -13.96875 Z M 2.9375 -13.96875 "/></g></g></g><g fill="#edeced" fill-opacity="1"><g transform="translate(415.954207, 434.760937)"><g><path d="M 12.765625 -11.46875 L 12.765625 -1.390625 C 12.765625 0.554688 12.289062 2 11.34375 2.9375 C 10.394531 3.875 8.960938 4.34375 7.046875 4.34375 C 5.984375 4.34375 4.972656 4.1875 4.015625 3.875 C 3.066406 3.5625 2.296875 3.128906 1.703125 2.578125 L 2.484375 1.390625 C 3.035156 1.890625 3.707031 2.273438 4.5 2.546875 C 5.289062 2.828125 6.125 2.96875 7 2.96875 C 8.445312 2.96875 9.507812 2.628906 10.1875 1.953125 C 10.875 1.273438 11.21875 0.222656 11.21875 -1.203125 L 11.21875 -2.65625 C 10.738281 -1.925781 10.109375 -1.375 9.328125 -1 C 8.554688 -0.625 7.695312 -0.4375 6.75 -0.4375 C 5.675781 -0.4375 4.695312 -0.671875 3.8125 -1.140625 C 2.9375 -1.617188 2.25 -2.28125 1.75 -3.125 C 1.25 -3.976562 1 -4.941406 1 -6.015625 C 1 -7.085938 1.25 -8.046875 1.75 -8.890625 C 2.25 -9.734375 2.9375 -10.382812 3.8125 -10.84375 C 4.6875 -11.3125 5.664062 -11.546875 6.75 -11.546875 C 7.726562 -11.546875 8.609375 -11.347656 9.390625 -10.953125 C 10.179688 -10.566406 10.816406 -10.003906 11.296875 -9.265625 L 11.296875 -11.46875 Z M 6.90625 -1.8125 C 7.738281 -1.8125 8.488281 -1.988281 9.15625 -2.34375 C 9.820312 -2.695312 10.335938 -3.191406 10.703125 -3.828125 C 11.078125 -4.472656 11.265625 -5.203125 11.265625 -6.015625 C 11.265625 -6.828125 11.078125 -7.550781 10.703125 -8.1875 C 10.335938 -8.820312 9.820312 -9.316406 9.15625 -9.671875 C 8.5 -10.023438 7.75 -10.203125 6.90625 -10.203125 C 6.082031 -10.203125 5.335938 -10.023438 4.671875 -9.671875 C 4.015625 -9.328125 3.5 -8.832031 3.125 -8.1875 C 2.757812 -7.550781 2.578125 -6.828125 2.578125 -6.015625 C 2.578125 -5.203125 2.757812 -4.472656 3.125 -3.828125 C 3.5 -3.191406 4.015625 -2.695312 4.671875 -2.34375 C 5.335938 -1.988281 6.082031 -1.8125 6.90625 -1.8125 Z M 6.90625 -1.8125 "/></g></g></g><g fill="#edeced" fill-opacity="1"><g transform="translate(430.898771, 434.760937)"><g><path d="M 8 -11.546875 C 9.4375 -11.546875 10.578125 -11.128906 11.421875 -10.296875 C 12.273438 -9.460938 12.703125 -8.242188 12.703125 -6.640625 L 12.703125 0 L 11.15625 0 L 11.15625 -6.5 C 11.15625 -7.6875 10.859375 -8.59375 10.265625 -9.21875 C 9.671875 -9.84375 8.820312 -10.15625 7.71875 -10.15625 C 6.476562 -10.15625 5.5 -9.785156 4.78125 -9.046875 C 4.0625 -8.316406 3.703125 -7.304688 3.703125 -6.015625 L 3.703125 0 L 2.15625 0 L 2.15625 -16.171875 L 3.703125 -16.171875 L 3.703125 -9.453125 C 4.128906 -10.128906 4.710938 -10.644531 5.453125 -11 C 6.191406 -11.363281 7.039062 -11.546875 8 -11.546875 Z M 8 -11.546875 "/></g></g></g><g fill="#edeced" fill-opacity="1"><g transform="translate(445.647275, 434.760937)"><g><path d="M 8.203125 -0.703125 C 7.910156 -0.441406 7.546875 -0.238281 7.109375 -0.09375 C 6.679688 0.0390625 6.238281 0.109375 5.78125 0.109375 C 4.695312 0.109375 3.863281 -0.179688 3.28125 -0.765625 C 2.707031 -1.347656 2.421875 -2.164062 2.421875 -3.21875 L 2.421875 -10.15625 L 0.375 -10.15625 L 0.375 -11.46875 L 2.421875 -11.46875 L 2.421875 -13.96875 L 3.96875 -13.96875 L 3.96875 -11.46875 L 7.453125 -11.46875 L 7.453125 -10.15625 L 3.96875 -10.15625 L 3.96875 -3.3125 C 3.96875 -2.625 4.132812 -2.101562 4.46875 -1.75 C 4.8125 -1.394531 5.304688 -1.21875 5.953125 -1.21875 C 6.273438 -1.21875 6.582031 -1.269531 6.875 -1.375 C 7.175781 -1.476562 7.4375 -1.625 7.65625 -1.8125 Z M 8.203125 -0.703125 "/></g></g></g><g fill="#edeced" fill-opacity="1"><g transform="translate(454.492012, 434.760937)"><g/></g></g><g fill="#edeced" fill-opacity="1"><g transform="translate(460.199707, 434.760937)"><g><path d="M 12.90625 0 L 9.421875 -4.90625 C 9.023438 -4.863281 8.617188 -4.84375 8.203125 -4.84375 L 4.09375 -4.84375 L 4.09375 0 L 2.484375 0 L 2.484375 -15.265625 L 8.203125 -15.265625 C 10.140625 -15.265625 11.660156 -14.796875 12.765625 -13.859375 C 13.867188 -12.929688 14.421875 -11.65625 14.421875 -10.03125 C 14.421875 -8.832031 14.117188 -7.820312 13.515625 -7 C 12.921875 -6.1875 12.0625 -5.597656 10.9375 -5.234375 L 14.671875 0 Z M 8.15625 -6.21875 C 9.664062 -6.21875 10.816406 -6.550781 11.609375 -7.21875 C 12.410156 -7.882812 12.8125 -8.820312 12.8125 -10.03125 C 12.8125 -11.257812 12.410156 -12.203125 11.609375 -12.859375 C 10.816406 -13.523438 9.664062 -13.859375 8.15625 -13.859375 L 4.09375 -13.859375 L 4.09375 -6.21875 Z M 8.15625 -6.21875 "/></g></g></g><g fill="#edeced" fill-opacity="1"><g transform="translate(475.950324, 434.760937)"><g><path d="M 13.234375 -7.625 L 14.78125 -7.625 L 14.78125 -1.8125 C 14.0625 -1.1875 13.21875 -0.707031 12.25 -0.375 C 11.28125 -0.0390625 10.253906 0.125 9.171875 0.125 C 7.648438 0.125 6.273438 -0.207031 5.046875 -0.875 C 3.828125 -1.539062 2.867188 -2.460938 2.171875 -3.640625 C 1.484375 -4.828125 1.140625 -6.15625 1.140625 -7.625 C 1.140625 -9.09375 1.484375 -10.421875 2.171875 -11.609375 C 2.867188 -12.796875 3.828125 -13.722656 5.046875 -14.390625 C 6.273438 -15.054688 7.660156 -15.390625 9.203125 -15.390625 C 10.359375 -15.390625 11.421875 -15.203125 12.390625 -14.828125 C 13.367188 -14.460938 14.191406 -13.914062 14.859375 -13.1875 L 13.859375 -12.15625 C 12.648438 -13.351562 11.117188 -13.953125 9.265625 -13.953125 C 8.023438 -13.953125 6.90625 -13.675781 5.90625 -13.125 C 4.914062 -12.582031 4.132812 -11.828125 3.5625 -10.859375 C 3 -9.898438 2.71875 -8.820312 2.71875 -7.625 C 2.71875 -6.4375 3 -5.363281 3.5625 -4.40625 C 4.132812 -3.445312 4.914062 -2.691406 5.90625 -2.140625 C 6.894531 -1.585938 8.003906 -1.3125 9.234375 -1.3125 C 10.804688 -1.3125 12.140625 -1.703125 13.234375 -2.484375 Z M 13.234375 -7.625 "/></g></g></g><g fill="#edeced" fill-opacity="1"><g transform="translate(492.79019, 434.760937)"><g><path d="M 12.09375 -7.875 C 13.09375 -7.65625 13.863281 -7.222656 14.40625 -6.578125 C 14.957031 -5.929688 15.234375 -5.097656 15.234375 -4.078125 C 15.234375 -2.765625 14.75 -1.753906 13.78125 -1.046875 C 12.820312 -0.347656 11.394531 0 9.5 0 L 2.484375 0 L 2.484375 -15.265625 L 9.0625 -15.265625 C 10.769531 -15.265625 12.085938 -14.921875 13.015625 -14.234375 C 13.953125 -13.546875 14.421875 -12.578125 14.421875 -11.328125 C 14.421875 -10.484375 14.210938 -9.765625 13.796875 -9.171875 C 13.390625 -8.585938 12.820312 -8.15625 12.09375 -7.875 Z M 4.09375 -13.921875 L 4.09375 -8.390625 L 8.953125 -8.390625 C 10.191406 -8.390625 11.144531 -8.625 11.8125 -9.09375 C 12.476562 -9.570312 12.8125 -10.257812 12.8125 -11.15625 C 12.8125 -12.0625 12.476562 -12.75 11.8125 -13.21875 C 11.144531 -13.6875 10.191406 -13.921875 8.953125 -13.921875 Z M 9.484375 -1.328125 C 10.847656 -1.328125 11.878906 -1.554688 12.578125 -2.015625 C 13.273438 -2.484375 13.625 -3.210938 13.625 -4.203125 C 13.625 -6.109375 12.242188 -7.0625 9.484375 -7.0625 L 4.09375 -7.0625 L 4.09375 -1.328125 Z M 9.484375 -1.328125 "/></g></g></g></svg>