<svg width="88" height="88" viewBox="0 0 88 88" fill="none" xmlns="http://www.w3.org/2000/svg">
<path fill-rule="evenodd" clip-rule="evenodd" d="M25.3647 36.9595C21.4447 36.9595 19.4125 39.2824 19.4125 43.347V45.8151H23.1871V43.0931C23.1871 41.2784 23.9857 40.5888 25.256 40.5888C26.526 40.5888 27.3246 41.2058 27.3246 43.4922C27.3246 50.8236 19.4125 52.0578 19.4125 59.5346V62.6561H30.954V59.0267H23.4049C23.3684 58.8454 23.3684 58.664 23.3684 58.4824C23.3684 54.3084 31.3173 51.3321 31.3173 43.347C31.317 39.2824 29.2845 36.9595 25.3647 36.9595Z" fill="white"/>
<path fill-rule="evenodd" clip-rule="evenodd" d="M35.6444 28.362H36.9698C39.1019 28.362 40.1004 27.2479 40.1004 25.1161V23.5025C40.1004 21.4666 39.1977 20.2183 37.0851 20.2183H34.1462V33.6634H35.6444V28.362V28.362ZM35.6444 21.5816H37.0851C38.1798 21.5816 38.6213 22.1964 38.6213 23.4255V25.2119C38.6213 26.4986 38.0836 27.0172 36.9698 27.0172H35.6444V21.5816Z" fill="white"/>
<path fill-rule="evenodd" clip-rule="evenodd" d="M29.6318 20.0835C27.5767 20.0835 26.5587 21.4088 26.5587 23.464V30.4169C26.5587 32.4528 27.5767 33.7974 29.6318 33.7974C31.7064 33.7974 32.7241 32.4528 32.7241 30.4169V23.4643C32.7244 21.4088 31.7064 20.0835 29.6318 20.0835ZM31.2262 30.4939C31.2262 31.7231 30.7268 32.4337 29.6318 32.4337C28.5563 32.4337 28.0377 31.7231 28.0377 30.4939V23.3873C28.0377 22.1773 28.5563 21.4475 29.6318 21.4475C30.7268 21.4475 31.2262 22.1773 31.2262 23.3873V30.4939Z" fill="white"/>
<path fill-rule="evenodd" clip-rule="evenodd" d="M21.6606 33.6629H23.1585V21.5815H25.6363V20.2178H19.1827V21.5815H21.6606V33.6629Z" fill="white"/>
<path fill-rule="evenodd" clip-rule="evenodd" d="M60.5339 50.424V58.7721C60.5339 61.3854 61.8769 62.8367 64.3811 62.8367C66.8853 62.8367 68.2283 61.3851 68.2283 58.7721V50.424C68.2283 47.8107 66.8853 46.3594 64.3811 46.3594C61.8769 46.3594 60.5339 47.8111 60.5339 50.424ZM63.0746 50.2427C63.0746 49.1175 63.5464 48.6458 64.3811 48.6458C65.1797 48.6458 65.6876 49.1175 65.6876 50.2427V58.9534C65.6876 60.0786 65.1794 60.5503 64.3811 60.5503C63.5464 60.5503 63.0746 60.0786 63.0746 58.9534V50.2427Z" fill="white"/>
<path fill-rule="evenodd" clip-rule="evenodd" d="M60.8375 20.1571C59.2517 21.743 59.251 24.3148 60.8375 25.9013C62.4234 27.4872 64.9955 27.4872 66.5814 25.9013C68.1673 24.3154 68.1673 21.7433 66.5814 20.1574C64.9952 18.5706 62.4241 18.5706 60.8375 20.1571ZM63.9081 25.6156C62.48 25.7256 61.2329 24.6568 61.1232 23.2283C61.0129 21.7996 62.0824 20.5531 63.5105 20.4434C64.939 20.3328 66.1857 21.402 66.2954 22.8308C66.4057 24.2586 65.3362 25.506 63.9081 25.6156Z" fill="white"/>
<path fill-rule="evenodd" clip-rule="evenodd" d="M67.1984 12.562H20.7174C17.3398 12.562 14.5923 15.3098 14.5923 18.6871V61.8687C14.5923 65.246 17.3398 67.9938 20.7174 67.9938H67.1984C70.576 67.9938 73.3238 65.246 73.3238 61.8687V18.6871C73.3238 15.3095 70.576 12.562 67.1984 12.562ZM72.3338 61.8687C72.3338 64.7001 70.0301 67.0038 67.1984 67.0038H20.7174C17.8857 67.0038 15.5823 64.7001 15.5823 61.8687V18.6871C15.5823 15.8554 17.8857 13.5517 20.7174 13.5517H41.8732L72.3338 44.0123V61.8687ZM71.6078 26.6191L66.2228 32.004C65.6291 32.5977 64.6627 32.5977 64.0687 32.004L54.7347 22.6701C54.1411 22.0764 54.1411 21.11 54.7347 20.516L60.1197 15.131C60.6487 14.602 61.474 14.5345 62.0824 14.9698L63.8974 16.2659L65.6225 15.526C66.1989 15.2796 66.8574 15.4069 67.2999 15.8491L70.89 19.4392C71.3322 19.8814 71.4595 20.5398 71.2131 21.1156L70.4732 22.8414L71.7697 24.6567C72.2046 25.2648 72.1367 26.0901 71.6078 26.6191Z" fill="white"/>
<path fill-rule="evenodd" clip-rule="evenodd" d="M78.3489 63.9084C78.4803 63.2154 78.5519 62.5016 78.5519 61.7709V48.1919L80.6674 46.0764C82.2162 44.5276 83.0695 42.4678 83.0695 40.2772C83.0695 38.0867 82.2162 36.0272 80.6674 34.478L78.5519 32.3626V18.7842C78.5519 12.4702 73.4153 7.3335 67.1009 7.3335H20.8148C14.5008 7.3335 9.36414 12.4702 9.36414 18.7842V32.3632L7.249 34.4784C5.69989 36.0275 4.8466 38.087 4.8466 40.2776C4.8466 42.4681 5.69989 44.5276 7.24869 46.0768L9.36414 48.1922V61.7712C9.36414 62.5016 9.4358 63.2157 9.56717 63.9084L0 73.4755H9.3632V82.7621L19.0413 73.0839C19.6196 73.1741 20.2117 73.2219 20.8148 73.2219H67.1013C67.7044 73.2219 68.2965 73.1745 68.8748 73.0839L78.5526 82.7621V73.4755H87.9158L78.3489 63.9084ZM75.3544 61.7712C75.3544 66.3221 71.6521 70.0244 67.1013 70.0244H20.8148C16.2643 70.0244 12.562 66.3221 12.562 61.7712V46.8681L9.50997 43.8158C8.56491 42.8707 8.04446 41.6142 8.04446 40.2779C8.04446 38.9415 8.56491 37.685 9.51029 36.7396L12.562 33.6879V18.7845C12.562 14.2336 16.2643 10.5314 20.8148 10.5314H67.1013C71.6521 10.5314 75.3544 14.2336 75.3544 18.7845V33.6879L78.4061 36.7396C79.3512 37.6847 79.8716 38.9412 79.8716 40.2779C79.8716 41.6145 79.3512 42.871 78.4061 43.8161L75.3544 46.8681V61.7712V61.7712Z" fill="white"/>
<path fill-rule="evenodd" clip-rule="evenodd" d="M33.4582 43.347V56.5586C33.4582 60.6233 35.5998 62.9462 39.5195 62.9462C43.4393 62.9462 45.5809 60.6233 45.5809 56.5586V43.347C45.5809 39.2824 43.4393 36.9595 39.5195 36.9595C35.5998 36.9595 33.4582 39.2824 33.4582 43.347ZM41.5882 43.0931V56.8126C41.5882 58.6273 40.7896 59.3168 39.5195 59.3168C38.2489 59.3168 37.4506 58.6273 37.4506 56.8126V43.0931C37.4506 41.2784 38.2492 40.5888 39.5195 40.5888C40.7896 40.5888 41.5882 41.2784 41.5882 43.0931Z" fill="white"/>
<path fill-rule="evenodd" clip-rule="evenodd" d="M54.1461 62.6561L64.1633 37.2495H61.8046L51.787 62.6561H54.1461Z" fill="white"/>
<path fill-rule="evenodd" clip-rule="evenodd" d="M51.7871 53.5457C54.2913 53.5457 55.6342 52.094 55.6342 49.4811V41.133C55.6342 38.5197 54.2913 37.0684 51.7871 37.0684C49.2825 37.0684 47.9399 38.52 47.9399 41.133V49.4811C47.9396 52.094 49.2825 53.5457 51.7871 53.5457ZM50.4806 40.9514C50.4806 39.8262 50.9523 39.3545 51.7871 39.3545C52.5857 39.3545 53.0935 39.8262 53.0935 40.9514V49.6621C53.0935 50.7872 52.5853 51.259 51.7871 51.259C50.9523 51.259 50.4806 50.7872 50.4806 49.6621V40.9514Z" fill="white"/>
</svg>
